G04 ================== begin FILE IDENTIFICATION RECORD ==================*
G04 Layout Name:  MOTOR_SENSOR.brd*
G04 Film Name:    BOTTOM*
G04 File Format:  Gerber RS274X*
G04 File Origin:  Cadence Allegro 16.6-P004*
G04 Origin Date:  Thu Jun 14 09:14:43 2018*
G04 *
G04 Layer:  ETCH/BOTTOM*
G04 Layer:  PIN/BOTTOM*
G04 Layer:  VIA CLASS/BOTTOM*
G04 *
G04 Offset:    (0.0000 0.0000)*
G04 Mirror:    No*
G04 Mode:      Positive*
G04 Rotation:  0*
G04 FullContactRelief:  No*
G04 UndefLineWidth:     0.0000*
G04 ================== end FILE IDENTIFICATION RECORD ====================*
%FSLAX25Y25*MOMM*%
%IR0*IPPOS*OFA0.00000B0.00000*MIA0B0*SFA1.00000B1.00000*%
%ADD10O,.7112X1.143*%
%ADD11C,.7112*%
%ADD12R,1.27X1.016*%
%ADD13C,1.016*%
%ADD14C,.4*%
%ADD15C,.5*%
%ADD16C,.6*%
%ADD17C,.254*%
G75*
%LPD*%
G75*
G54D10*
X-66040Y-492760D03*
X-193040D03*
X-320040D03*
X314960D03*
X187960D03*
X60960D03*
G54D11*
X-91440Y-96520D03*
X-182880Y-5080D03*
X-508000Y543560D03*
Y335280D03*
X-279400Y807720D03*
X76200Y15240D03*
X508000Y294640D03*
Y508000D03*
G54D12*
X-228600Y640080D03*
X-279400Y208280D03*
X279400Y640080D03*
X228600Y208280D03*
G54D13*
X86360Y-213360D03*
X289560D03*
G54D14*
G01X-182880Y-5080D02*
X-279400Y91440D01*
Y208280D01*
G54D15*
G01X-228600Y640080D02*
Y756920D01*
X-279400Y807720D01*
G54D16*
G01X86360Y-213360D02*
Y-294640D01*
X187960Y-396240D01*
Y-492760D01*
G01X289560Y-213360D02*
Y-320040D01*
X314960Y-345440D01*
Y-492760D01*
G54D17*
G01X-193040D02*
Y-320040D01*
X50800Y-76200D01*
G01X-508000Y335280D02*
X-436880Y264160D01*
Y147320D01*
X-320040Y30480D01*
Y-96520D01*
G01D02*
Y-492760D01*
G01Y-96520D02*
X-91440D01*
G01X50800Y-76200D02*
X-152400Y127000D01*
Y335280D01*
X-360680Y543560D01*
X-508000D01*
G01X50800Y-76200D02*
X243840D01*
X436880Y116840D01*
Y223520D01*
X508000Y294640D01*
G01X76200Y15240D02*
X233680D01*
X375920Y157480D01*
Y375920D01*
X508000Y508000D01*
G01X279400Y640080D02*
Y441960D01*
X228600Y391160D01*
Y208280D01*
M02*
