G04 ================== begin FILE IDENTIFICATION RECORD ==================*
G04 Layout Name:  F:/产品设计/振镜/驱动板电路/第二版数字/GALVOSERVODRV2.brd*
G04 Film Name:    GND*
G04 File Format:  Gerber RS274X*
G04 File Origin:  Cadence Allegro 16.6-P004*
G04 Origin Date:  Thu Oct 06 09:45:18 2016*
G04 *
G04 Layer:  BOARD GEOMETRY/OUTLINE*
G04 Layer:  ETCH/GND*
G04 Layer:  PIN/GND*
G04 Layer:  VIA CLASS/GND*
G04 *
G04 Offset:    (0.000 0.000)*
G04 Mirror:    No*
G04 Mode:      Positive*
G04 Rotation:  0*
G04 FullContactRelief:  No*
G04 UndefLineWidth:     6.000*
G04 ================== end FILE IDENTIFICATION RECORD ====================*
%FSLAX35Y35*MOIN*%
%IR0*IPPOS*OFA0.00000B0.00000*MIA0B0*SFA1.00000B1.00000*%
%ADD15C,.2*%
%ADD10C,.13*%
%ADD12C,.177*%
%ADD16C,.04*%
%ADD17C,.06*%
%ADD14C,.024*%
%ADD13C,.07*%
%ADD11C,.055*%
%ADD18R,.06X.06*%
%ADD19C,.02*%
%ADD20C,.03*%
%ADD21C,.016*%
%ADD22C,.006*%
%ADD27C,.224004*%
%ADD24C,.156004*%
%ADD28C,.044004*%
%ADD33C,.081004*%
%ADD29C,.064004*%
%ADD26C,.046004*%
%ADD32C,.066004*%
%ADD31C,.084004*%
%ADD23C,.094004*%
%ADD34C,.096004*%
%ADD25C,.079004*%
%ADD30R,.086004X.086004*%
G75*
%LPD*%
G75*
G36*
G01X-192000Y-152000D02*
Y39000D01*
X-160830D01*
G02X-160338Y38411I0J-500D01*
G03X-140562I9888J-1796D01*
G02X-140070Y39000I492J89D01*
G01X-129745D01*
G02X-129330Y38222I0J-500D01*
G03X-125670I1829J-1222D01*
G02X-125255Y39000I416J278D01*
G01X-114349D01*
Y68000D01*
X-56000D01*
Y54349D01*
X-56190Y54302D01*
G03Y50029I525J-2137D01*
G01X-56000Y49982D01*
Y26000D01*
X-104112D01*
G02X-104455Y26864I0J500D01*
G03X-106477Y30604I-1509J1601D01*
G02X-106776Y30912I-58J243D01*
G02X-106232Y31281I484J-127D01*
G03X-108066Y34115I267J2184D01*
G02X-108626Y33770I-478J148D01*
G03X-108715Y29218I-375J-2269D01*
G02X-108155Y28674I62J-496D01*
G03X-106941Y26493I2190J-209D01*
G02X-106809Y25691I-222J-448D01*
G01X-109914Y22586D01*
X-110054Y22624D01*
G03X-112754Y19924I-576J-2124D01*
G01X-112716Y19784D01*
X-116500Y16000D01*
X-138000D01*
Y-56500D01*
X-138500Y-57000D01*
X-146818D01*
G03X-152182I-2682J-2900D01*
G01X-156324D01*
G02X-156771Y-56275I0J500D01*
G03X-163829I-3529J1775D01*
G02X-164276Y-57000I-447J-225D01*
G01X-169000D01*
X-169500Y-57500D01*
Y-110000D01*
X-138000D01*
Y-79000D01*
X-82235D01*
G02X-81784Y-79716I0J-500D01*
G03X-77634I2075J-993D01*
G02X-77183Y-79000I451J216D01*
G01X-67500D01*
Y8500D01*
X-23000D01*
Y-29500D01*
X31500D01*
Y-74000D01*
X78500D01*
Y-55008D01*
G02X79185Y-54544I500J0D01*
G03X82195Y-52649I815J2044D01*
G02X82751Y-52186I499J-34D01*
G03X80805Y-49851I249J2186D01*
G02X80249Y-50314I-499J34D01*
G03X79185Y-50456I-249J-2186D01*
G02X78500Y-49992I-185J464D01*
G01Y-46000D01*
X78008D01*
G02X77544Y-45315I0J500D01*
G03X76261Y-42436I-2044J815D01*
G02X76108Y-42130I87J235D01*
G03X72555Y-39841I-2108J630D01*
G02X71808Y-39738I-328J377D01*
G03X71450Y-42686I-1923J-1262D01*
G02X72200Y-42765I340J-366D01*
G03X73239Y-43564I1800J1265D01*
G02X73392Y-43870I-87J-235D01*
G03X73456Y-45315I2108J-630D01*
G02X72992Y-46000I-464J-185D01*
G01X72918D01*
X72871Y-45980D01*
G03X71129I-871J-2020D01*
G01X71082Y-46000D01*
X40000D01*
Y-43150D01*
X40174Y-43095D01*
G03X41685Y-40740I-674J2095D01*
G02X42240Y-40185I497J59D01*
G03X44695Y-38149I260J2185D01*
G02X45251Y-37686I499J-34D01*
G03X43305Y-35351I249J2186D01*
G02X42749Y-35814I-499J34D01*
G03X40870Y-36522I-249J-2186D01*
G02X40000Y-36186I-370J336D01*
G01Y-28500D01*
X76255D01*
G02X76671Y-29278I0J-500D01*
G03X80333Y-31717I1830J-1222D01*
G02X80659Y-31635I208J-138D01*
G03X83820Y-29128I1035J1942D01*
G02X84303Y-28500I483J128D01*
G01X87492D01*
G02X87956Y-29185I0J-500D01*
G03X90980Y-31970I2044J-815D01*
G02X91628Y-32155I223J-448D01*
G03X94978Y-29371I1873J1154D01*
G02X95314Y-28500I336J371D01*
G01X168369D01*
G02X168869Y-29023I0J-500D01*
G03X175462I3297J-150D01*
G02X175962Y-28500I499J23D01*
G01X178369D01*
G02X178869Y-29023I0J-500D01*
G03X185462I3297J-150D01*
G02X185962Y-28500I499J23D01*
G01X192500D01*
Y-152000D01*
X-42139D01*
G02X-42524Y-151180I0J500D01*
G03X-46059I-1768J1471D01*
G02X-46444Y-152000I-384J-320D01*
G01X-49914D01*
G02X-50316Y-151203I0J500D01*
G03X-54015I-1849J1368D01*
G02X-54416Y-152000I-402J-297D01*
G01X-57700D01*
G02X-58118Y-151225I0J500D01*
G03X-61961I-1921J1265D01*
G02X-62378Y-152000I-418J-275D01*
G01X-65606D01*
G02X-66018Y-151217I0J500D01*
G03X-69809I-1895J1303D01*
G02X-70221Y-152000I-412J-283D01*
G01X-73572D01*
G02X-73968Y-151194I0J500D01*
G03X-77607I-1820J1407D01*
G02X-78003Y-152000I-396J-306D01*
G01X-81549D01*
G02X-81926Y-151172I0J500D01*
G03X-85396I-1735J1510D01*
G02X-85773Y-152000I-377J-328D01*
G01X-89612D01*
G02X-89956Y-151137I0J500D01*
G03X-93115I-1580J1672D01*
G02X-93459Y-152000I-343J-363D01*
G01X-192000D01*
G37*
G36*
G01X-165224Y-105259D02*
Y-67500D01*
X-163181D01*
G03X-156619I3281J2200D01*
G01X-153038D01*
G02X-152640Y-68303I0J-500D01*
G03X-146360I3140J-2397D01*
G02X-145962Y-67500I397J303D01*
G01X-135000D01*
X-131500Y-64000D01*
Y6659D01*
X-129642D01*
G02X-129337Y5762I0J-500D01*
G03X-126537I1400J-1825D01*
G02X-126232Y6659I304J397D01*
G01X-119564D01*
X-99000Y20500D01*
X-68200D01*
G02X-67700Y20000I0J-500D01*
G03X-63300I2200J0D01*
G02X-62800Y20500I500J0D01*
G01X-49000D01*
Y71500D01*
X-51540D01*
G02X-51890Y72357I0J500D01*
G03X-55110I-1610J1643D01*
G02X-55460Y71500I-350J-357D01*
G01X-102842D01*
G02X-103316Y72157I0J500D01*
G03X-103493Y74004I-2184J723D01*
G02X-103274Y74699I436J244D01*
G03X-106278Y75647I-998J2073D01*
G02X-106498Y74952I-436J-244D01*
G03X-107258Y74363I998J-2073D01*
G02X-107953Y74295I-382J322D01*
G03X-111655Y72089I-1438J-1795D01*
G02X-112147Y71500I-492J-89D01*
G01X-114317D01*
Y82023D01*
X-85912D01*
G02X-85569Y81160I0J-500D01*
G03X-85217Y77544I1580J-1671D01*
G02X-85309Y76653I-267J-423D01*
G03X-83271Y76444I809J-2153D01*
G02X-83179Y77335I267J423D01*
G03X-82408Y81160I-809J2153D01*
G02X-82064Y82023I344J363D01*
G01X-77500D01*
Y89000D01*
X-55864D01*
G02X-55442Y88232I0J-500D01*
G03X-51558I1942J-1232D01*
G02X-51136Y89000I422J268D01*
G01X144500D01*
Y56500D01*
X144895D01*
Y56151D01*
X144827Y56078D01*
G03X148442Y55732I1673J-1578D01*
G02X148864Y56500I422J268D01*
G01X188000D01*
Y87000D01*
X183126D01*
X183095Y87008D01*
G03X181078I-1008J-3819D01*
G01X181047Y87000D01*
X172412D01*
Y90134D01*
G02X173285Y90467I500J0D01*
G03Y93533I1715J1533D01*
G02X172412Y93866I-373J333D01*
G01Y124000D01*
X175653D01*
G02X176081Y123241I0J-500D01*
G03X180014I1966J-1193D01*
G02X180441Y124000I427J259D01*
G01X194500D01*
Y-22927D01*
X184129D01*
G02X183871Y-21999I0J500D01*
G03X180460I-1705J2825D01*
G02X180202Y-22927I-258J-428D01*
G01X176366D01*
Y-14973D01*
X167965D01*
Y-22927D01*
X159132D01*
X159072Y-22761D01*
G03X154928I-2072J-739D01*
G01X154868Y-22927D01*
X146511D01*
G02X146121Y-22113I0J500D01*
G03X142540I-1791J1444D01*
G02X142151Y-22927I-389J-314D01*
G01X104132D01*
X104072Y-22761D01*
G03X99928I-2072J-739D01*
G01X99868Y-22927D01*
X99166D01*
G02X98673Y-22348I0J500D01*
G03X94328I-2173J348D01*
G02X93834Y-22927I-494J-79D01*
G01X-16000D01*
Y14083D01*
X-74000D01*
Y-72936D01*
X-82343D01*
X-82376Y-72724D01*
G03X-86727I-2176J-328D01*
G01X-86759Y-72936D01*
X-142000D01*
Y-105259D01*
X-145263D01*
G02X-145729Y-104577I0J500D01*
G03X-153271I-3771J1477D01*
G02X-153737Y-105259I-466J-182D01*
G01X-165224D01*
G37*
G36*
G01X-166000Y48500D02*
Y105000D01*
X-161069D01*
G02X-160596Y104338I0J-500D01*
G03X-151704I4446J-1524D01*
G02X-151231Y105000I473J162D01*
G01X-148179D01*
G03X-141321I3429J3214D01*
G01X-124498D01*
G03X-120502I1998J2500D01*
G01X-117500D01*
Y99667D01*
G02X-118089Y99175I-500J0D01*
G03X-120005Y98650I-411J-2263D01*
G02X-120790Y98826I-327J378D01*
G03X-121386Y96153I-2102J-934D01*
G02X-120602Y95978I327J-378D01*
G03X-118089Y94648I2102J934D01*
G02X-117500Y94156I89J-492D01*
G01Y90883D01*
G02X-118089Y90391I-500J0D01*
G03X-120612Y89038I-411J-2263D01*
G02X-121397Y88856I-459J198D01*
G03X-124495Y88758I-1495J-1748D01*
G02X-125302Y88917I-348J359D01*
G03X-127313Y90298I-2110J-917D01*
G02X-127686Y91105I21J500D01*
G03X-129598Y90222I-1814J1415D01*
G02X-129225Y89415I-21J-500D01*
G03X-125808Y86350I1814J-1415D01*
G02X-125001Y86191I348J-359D01*
G03X-120779Y86198I2110J917D01*
G02X-119995Y86380I459J-198D01*
G03X-118089Y85865I1495J1748D01*
G02X-117500Y85373I89J-492D01*
G01Y68864D01*
G02X-118268Y68442I-500J0D01*
G03Y64558I-1232J-1942D01*
G02X-117500Y64136I268J-422D01*
G01Y48500D01*
X-166000D01*
G37*
G36*
G01X-114485Y84470D02*
Y115500D01*
X-108000D01*
Y132974D01*
G03Y142615I-10110J4820D01*
G01Y156000D01*
X148000D01*
Y140861D01*
X133197D01*
G02X132730Y141538I0J500D01*
G03X124878I-3926J1493D01*
G02X124411Y140861I-467J-178D01*
G01X119797D01*
G02X119330Y141538I0J500D01*
G03X111478I-3926J1493D01*
G02X111011Y140861I-467J-178D01*
G01X106397D01*
G02X105930Y141538I0J500D01*
G03X98078I-3926J1493D01*
G02X97611Y140861I-467J-178D01*
G01X92997D01*
G02X92530Y141538I0J500D01*
G03X84678I-3926J1493D01*
G02X84211Y140861I-467J-178D01*
G01X79597D01*
G02X79130Y141538I0J500D01*
G03X71278I-3926J1493D01*
G02X70811Y140861I-467J-178D01*
G01X50372D01*
X50353Y141089D01*
G03X42482I-3935J-341D01*
G01X42462Y140861D01*
X40472D01*
X40453Y141090D01*
G03X32382I-4036J-341D01*
G01X32362Y140861D01*
X30270D01*
G02X29865Y141653I0J500D01*
G03X26135I-1865J1347D01*
G02X25730Y140861I-405J-293D01*
G01X5638D01*
G02X5171Y141538I0J500D01*
G03X-2681I-3926J1493D01*
G02X-3148Y140861I-467J-178D01*
G01X-7762D01*
G02X-8229Y141538I0J500D01*
G03X-16081I-3926J1493D01*
G02X-16548Y140861I-467J-178D01*
G01X-21162D01*
G02X-21629Y141538I0J500D01*
G03X-29481I-3926J1493D01*
G02X-29948Y140861I-467J-178D01*
G01X-34562D01*
G02X-35029Y141538I0J500D01*
G03X-42881I-3926J1493D01*
G02X-43348Y140861I-467J-178D01*
G01X-47962D01*
G02X-48429Y141538I0J500D01*
G03X-56281I-3926J1493D01*
G02X-56748Y140861I-467J-178D01*
G01X-58500D01*
Y127731D01*
G02X-59006Y127231I-500J0D01*
G03Y118832I-49J-4200D01*
G02X-58500Y118332I6J-500D01*
G01Y114000D01*
X-35007D01*
X-24036Y124971D01*
X-23434D01*
G02X-22957Y124321I0J-500D01*
G03X-14753I4102J-1290D01*
G02X-14276Y124971I477J150D01*
G01X-9930D01*
G02X-9454Y124318I0J-500D01*
G03X-1457I3998J-1286D01*
G02X-981Y124971I476J153D01*
G01X3470D01*
G02X3947Y124318I0J-500D01*
G03X11943I3998J-1286D01*
G02X12419Y124971I476J153D01*
G01X64029D01*
G02X64505Y124318I0J-500D01*
G03X72502I3998J-1286D01*
G02X72978Y124971I476J153D01*
G01X77430D01*
G02X77906Y124318I0J-500D01*
G03X85902I3998J-1286D01*
G02X86378Y124971I476J153D01*
G01X90830D01*
G02X91306Y124318I0J-500D01*
G03X99302I3998J-1286D01*
G02X99778Y124971I476J153D01*
G01X104125D01*
G02X104602Y124321I0J-500D01*
G03X112806I4102J-1290D01*
G02X113283Y124971I477J150D01*
G01X117630D01*
G02X118106Y124318I0J-500D01*
G03X126102I3998J-1286D01*
G02X126578Y124971I476J153D01*
G01X131030D01*
G02X131506Y124318I0J-500D01*
G03X139502I3998J-1286D01*
G02X139978Y124971I476J153D01*
G01X155164D01*
Y96000D01*
X153755D01*
G02X153263Y96589I0J500D01*
G03X148737I-2263J411D01*
G02X148245Y96000I-492J-89D01*
G01X82558D01*
G02X82158Y96800I0J500D01*
G03X78479I-1840J1381D01*
G02X78080Y96000I-400J-300D01*
G01X-57200D01*
G02X-57700Y96500I0J500D01*
G03X-62300I-2300J0D01*
G02X-62800Y96000I-500J0D01*
G01X-85642D01*
Y84470D01*
X-107121D01*
G02X-107526Y85263I0J500D01*
G03X-107168Y86019I-1866J1346D01*
G02X-106384Y86291I483J-128D01*
G03X-103168Y89519I1384J1837D01*
G02X-102904Y90304I398J302D01*
G03Y94736I-616J2216D01*
G02X-103168Y95520I134J482D01*
G03X-106322Y98794I-1832J1391D01*
G02X-107106Y99148I-287J409D01*
G03X-108070Y97009I-2286J-256D01*
G02X-107286Y96656I287J-409D01*
G03X-105616Y94695I2286J256D01*
G02X-105351Y93911I-134J-482D01*
G03Y91128I1832J-1391D01*
G02X-105616Y90344I-398J-302D01*
G03X-107223Y88717I616J-2216D01*
G02X-108008Y88446I-483J128D01*
G03X-111257Y85263I-1384J-1837D01*
G02X-111663Y84470I-406J-292D01*
G01X-114485D01*
G37*
%LPC*%
G75*
G36*
G01X-106866Y55255D02*
G03X-107585Y55185I-326J-379D01*
G02X-107893Y58354I-1807J1424D01*
G03X-107175Y58424I326J379D01*
G02X-106550Y58973I1807J-1423D01*
G03X-106399Y59692I-257J429D01*
G02X-103342Y59050I1876J1332D01*
G03X-103493Y58332I257J-429D01*
G02X-106866Y55255I-1875J-1332D01*
G37*
G36*
G01X48760Y-39815D02*
G03X49315Y-39260I59J497D01*
G02X51342Y-36805I2185J260D01*
G03X51805Y-36342I-36J499D01*
G02X54158Y-38695I2195J-157D01*
G03X53695Y-39158I36J-499D01*
G02X51240Y-41185I-2195J158D01*
G03X50685Y-41740I-59J-497D01*
G02X48760Y-39815I-2185J-260D01*
G37*
G36*
G01X111500Y-44960D02*
G03X111362Y-45746I227J-445D01*
G02X108753Y-45287I-1609J-1501D01*
G03X108891Y-44501I-227J445D01*
G02X111500Y-44960I1609J1501D01*
G37*
G36*
G01X88870Y-74478D02*
G03X88130I-370J-336D01*
G02Y-71522I-1630J1478D01*
G03X88870I370J336D01*
G02X92130I1630J-1478D01*
G03X92870I370J336D01*
G02Y-74478I1630J-1478D01*
G03X92130I-370J-336D01*
G02X88870I-1630J1478D01*
G37*
G36*
G01X-27138Y-92941D02*
G03X-27721Y-93432I-83J-493D01*
G02X-29555Y-91252I-2200J10D01*
G03X-28972Y-90761I83J493D01*
G02X-26406Y-88602I2200J-11D01*
G03X-25822Y-88112I83J493D01*
G02X-23988Y-90292I2200J-10D01*
G03X-24572Y-90782I-83J-493D01*
G02X-27138Y-92941I-2200J11D01*
G37*
G36*
G01X-58969Y45300D02*
G02X-60918Y44270I-31J-2300D01*
G03X-61318Y45045I-417J276D01*
G02X-59385Y46067I74J2199D01*
G03X-58969Y45300I422J-267D01*
G37*
G36*
G01X-32871Y-1978D02*
G02X-36551Y-1296I-1629J1478D01*
G03X-37371Y-1124I-466J-181D01*
G02X-41221Y-99I-1629J1624D01*
G03X-41488Y84I-241J-65D01*
G02X-41141Y4596I-240J2288D01*
G02X-37266Y2356I2204J-659D01*
G03X-37273Y2019I182J-172D01*
G02X-36837Y1282I-1727J-1519D01*
G03X-36021Y1090I470J170D01*
G02X-32875Y984I1521J-1590D01*
G03X-32136Y985I369J337D01*
G02X-32131Y-1977I1629J-1479D01*
G03X-32871Y-1978I-369J-337D01*
G37*
G36*
G01X-778Y-52739D02*
G02X-2666Y-54538I278J-2183D01*
G03X-3222Y-53954I-492J87D01*
G02X-5664Y-51372I-278J2183D01*
G03X-6242Y-50789I-492J91D01*
G02X-8790Y-48247I-380J2167D01*
G03X-9328Y-47664I-493J85D01*
G02X-7359Y-45848I-199J2191D01*
G03X-6822Y-46431I493J-85D01*
G02X-4458Y-49021I199J-2191D01*
G03X-3880Y-49605I492J-91D01*
G02X-1334Y-52156I380J-2167D01*
G03X-778Y-52739I492J-87D01*
G37*
G36*
G01X-25720Y-67095D02*
G02X-27417Y-65290I-2261J-424D01*
G03X-26801Y-64724I122J485D01*
G02X-25117Y-66516I2172J354D01*
G03X-25720Y-67095I-111J-488D01*
G37*
G36*
G01X-97095Y-124310D02*
G02X-99138Y-125034I-382J-2167D01*
G03X-99429Y-124214I-378J328D01*
G02X-97386Y-123489I382J2167D01*
G03X-97095Y-124310I378J-328D01*
G37*
G36*
G01X86697Y39522D02*
G03X86783Y38788I378J-328D01*
G02X83839Y38443I-1283J-1788D01*
G03X83753Y39177I-378J328D01*
G02X86697Y39522I1283J1788D01*
G37*
G36*
G01X116149Y30398D02*
G03X115871Y29657I148J-478D01*
G02X112032Y29484I-1871J-1157D01*
G03X111656Y30203I-447J224D01*
G02X113623Y34091I325J2277D01*
G03X113975Y34086I179J175D01*
G02X116149Y30398I1525J-1586D01*
G37*
G36*
G01X-39948Y27962D02*
G03X-39841Y27627I223J-113D01*
G02X-42962Y26629I-1069J-2037D01*
G03X-43069Y26963I-223J113D01*
G02X-39948Y27962I1069J2037D01*
G37*
G36*
G01X-30835Y24394D02*
G03X-30580Y24189I246J45D01*
G02X-30420I80J-2199D01*
G03X-30165Y24394I9J250D01*
G02X-28080Y21801I2165J-394D01*
G03X-28335Y21596I-9J-250D01*
G02X-32665I-2165J394D01*
G03X-32920Y21801I-246J-45D01*
G02X-33501Y21858I-81J2199D01*
G03X-34113Y21411I-114J-487D01*
G02X-35813Y23816I-2293J183D01*
G03X-35187Y24244I129J483D01*
G02X-30835Y24394I2187J-244D01*
G37*
G36*
G01X56751Y-16686D02*
G03X56195Y-17149I-57J-497D01*
G02X51899Y-16347I-2195J149D01*
G03X51436Y-15699I-477J148D01*
G02X53601Y-14153I64J2199D01*
G03X54064Y-14801I477J-148D01*
G02X54249Y-14814I-65J-2199D01*
G03X54805Y-14351I57J497D01*
G02X59195I2195J-149D01*
G03X59751Y-14814I499J34D01*
G02X57805Y-17149I249J-2186D01*
G03X57249Y-16686I-499J-34D01*
G02X56751I-249J2186D01*
G37*
G36*
G01X-99047Y-25153D02*
G03X-99414Y-25800I107J-488D01*
G02X-101970Y-24350I-2086J-700D01*
G03X-101602Y-23703I-107J488D01*
G02X-99047Y-25153I2086J700D01*
G37*
G36*
G01X178617Y105078D02*
G02X178158Y102772I3469J-1889D01*
G03X177275Y103037I-497J-53D01*
G02X177700Y105171I-1775J1463D01*
G03X178617Y105078I478J146D01*
G37*
G36*
G01X88211Y78298D02*
G02X85911Y78247I-1108J-1901D01*
G03X85892Y79099I-271J420D01*
G02X88192Y79150I1108J1901D01*
G03X88211Y78298I271J-420D01*
G37*
G36*
G01X87245Y68682D02*
G02X85343Y66762I282J-2182D01*
G03X84782Y67318I-496J60D01*
G02X82323Y69180I-282J2182D01*
G03X81564Y69532I-495J-73D01*
G02X82574Y71717I-1166J1866D01*
G03X83334Y71366I495J73D01*
G02X86685Y69238I1166J-1866D01*
G03X87245Y68682I496J-60D01*
G37*
G36*
G01X114744Y58974D02*
G02X113478Y61110I-2299J81D01*
G03X114201Y61528I224J447D01*
G02X114761Y62868I2196J-130D01*
G03X114409Y63702I-372J334D01*
G02X116185Y64434I91J2298D01*
G03X116522Y63594I366J-340D01*
G02X115457Y59409I-125J-2197D01*
G03X114744Y58974I-214J-452D01*
G37*
G36*
G01X-104926Y-20556D02*
G02X-107190Y-21079I-712J-2082D01*
G03X-107381Y-20251I-353J354D01*
G02X-105117Y-19728I712J2082D01*
G03X-104926Y-20556I353J-354D01*
G37*
G36*
G01X-78502Y-21020D02*
G02X-80957Y-20488I-1635J-1618D01*
G03X-80771Y-19678I-178J467D01*
G02X-78336Y-20206I1601J1509D01*
G03X-78502Y-21020I189J-463D01*
G37*
G54D27*
X-118110Y-137795D03*
X177165D03*
G54D24*
X-154900Y-130100D03*
Y-500D03*
G54D28*
X-106551Y-88051D03*
X-105965Y43465D03*
X-99311Y-113189D03*
X-101500Y-94500D03*
X-102000Y40500D03*
X-103500Y48000D03*
X-78500Y-116500D03*
X-90500Y30500D03*
X-86000Y42500D03*
X-79000Y57118D03*
X-71783Y-113189D03*
X-66500Y-106500D03*
X-65500Y29500D03*
X-66335Y52165D03*
X-66000Y60500D03*
X-59000Y-94500D03*
X-58500Y-24000D03*
X-50000Y-102000D03*
X-45669Y-75669D03*
X-47500Y-4000D03*
X-36232Y-108268D03*
X-26500Y-47000D03*
X-22500Y-129500D03*
X-20765Y-97755D03*
X-14567Y-39067D03*
X-8000Y-115500D03*
X12500Y-129500D03*
X6067Y-89567D03*
X6224Y-79724D03*
X6382Y-69882D03*
X6039Y-60039D03*
X10669Y-40169D03*
X27000Y-115000D03*
X48000Y-129000D03*
X49000Y-88000D03*
X51500Y-95000D03*
X62500Y-115500D03*
X66083Y-36417D03*
X61023Y-41523D03*
X73500Y-85500D03*
X83000Y-129000D03*
X107500Y-141500D03*
X98000Y-115000D03*
X107500Y-90000D03*
X100725Y-79725D03*
X104331Y-41169D03*
X139500Y-43000D03*
X-126968Y-40354D03*
X-107000Y-47500D03*
X-106303Y-52697D03*
X-106004Y-31496D03*
X-107000Y-13000D03*
X-102500Y-62000D03*
X-93504Y-62471D03*
X-98425Y-58071D03*
X-103500Y-42500D03*
X-100496Y-31496D03*
X-101000Y-13000D03*
X-84646Y-53413D03*
X-85000Y-8500D03*
X-86000Y17000D03*
X-26835Y52165D03*
X-26575Y63575D03*
X-21000Y40500D03*
X-24500Y34500D03*
X-21555Y48055D03*
X-16000Y52165D03*
X-1803Y50197D03*
X10500Y7500D03*
X7748Y13248D03*
X4303Y50197D03*
X24500Y8500D03*
Y44000D03*
X25697Y50197D03*
X17858Y64142D03*
X27500Y73000D03*
X29752Y-248D03*
X32748Y18248D03*
X30839Y41339D03*
X31087Y67913D03*
X48500Y-19500D03*
X50945Y59055D03*
X51500Y77000D03*
X65803Y11197D03*
X62500Y22000D03*
X58661Y41339D03*
X58602Y66398D03*
X80000Y-12000D03*
X79000Y5500D03*
X82000Y1500D03*
X80480Y32480D03*
X79339Y41339D03*
X79945Y59055D03*
X87532Y-9468D03*
X88032Y5532D03*
X93000Y13500D03*
X86500Y31000D03*
X108500Y-7411D03*
X120000Y-19500D03*
X115500Y-12000D03*
X117508Y5500D03*
X114500Y-2000D03*
X113000Y41500D03*
Y46500D03*
X113500Y71500D03*
X138500Y11000D03*
X144500Y23500D03*
X148000Y49500D03*
X139000Y81000D03*
X150968Y-9468D03*
X151968Y5532D03*
X150500Y500D03*
Y-4500D03*
X150465Y30965D03*
X150208Y36000D03*
X163000Y-16500D03*
X173000Y15000D03*
X-97000Y148500D03*
X1500Y117500D03*
X29500Y148500D03*
X128500Y119000D03*
G54D33*
X-160300Y-97700D03*
X-149500Y-92300D03*
X182087Y46260D03*
Y113189D03*
X-90551Y109252D03*
Y140748D03*
X12795Y103346D03*
X36417Y109252D03*
X140748Y103346D03*
G54D29*
X-60000Y-10000D03*
X-35000D03*
X-10000D03*
Y11000D03*
Y31000D03*
Y52000D03*
X-109000Y107500D03*
G54D26*
X-134000Y35000D03*
X-127500Y25000D03*
X-108051Y-108051D03*
X-115500Y31500D03*
X-99000Y-99000D03*
X-54728Y-51772D03*
X-53369Y-2369D03*
X-64631Y-1869D03*
X-59000Y-500D03*
X-39370Y-88370D03*
X-48500Y-68000D03*
Y-57500D03*
X-15016Y-107984D03*
X0Y-138500D03*
X18984Y-107984D03*
X24748Y-75248D03*
Y-84748D03*
X23000Y-49000D03*
X24500Y-55000D03*
X35500Y-139000D03*
X44516Y-107984D03*
X63000Y-94500D03*
Y-86000D03*
X70500Y-138000D03*
X85504Y-113496D03*
X91000Y-95000D03*
X104000Y-134000D03*
X130000Y-75000D03*
X132000Y-60000D03*
X129500Y-43000D03*
X124000Y-38000D03*
X139000Y-90000D03*
X140000Y-75000D03*
Y-60000D03*
X160500Y-43000D03*
X-122047Y-63453D03*
Y-26953D03*
X-84646Y-63854D03*
X-80000Y-9500D03*
X-53488Y79488D03*
X-39551Y47051D03*
X-44835Y52165D03*
X-39551Y57449D03*
X-45807Y81693D03*
X-35000Y52000D03*
X-35575Y64575D03*
X4161Y41339D03*
X3587Y67913D03*
X17732Y27268D03*
X45276Y28276D03*
X50303Y50197D03*
X50413Y67913D03*
X65945Y-15555D03*
X64961Y28039D03*
X60055Y59055D03*
X59803Y50197D03*
X60272Y76772D03*
X98425Y9425D03*
X124500Y22500D03*
X144500Y-13500D03*
X150661Y41339D03*
X173811Y-11811D03*
X171803Y50197D03*
X-127000Y55500D03*
X-126000Y71500D03*
X-128476Y61024D03*
X-126500Y81677D03*
X-129000Y76772D03*
X-128372Y98000D03*
X-6500Y101000D03*
X21500Y121500D03*
X123000Y104000D03*
X144500Y151500D03*
X151000Y103000D03*
Y109000D03*
Y115000D03*
Y121000D03*
G54D32*
X172165Y-109173D03*
Y-99173D03*
Y-89173D03*
Y-79173D03*
Y-69173D03*
Y-59173D03*
Y-49173D03*
Y-39173D03*
X182165Y-109173D03*
Y-99173D03*
Y-89173D03*
Y-79173D03*
Y-69173D03*
Y-59173D03*
Y-49173D03*
Y-39173D03*
X15000Y-10000D03*
G54D31*
X149764Y-146654D03*
X139764D03*
X150000Y-136000D03*
X140000D03*
X150000Y-114000D03*
X140000D03*
X150000Y-125000D03*
X140000D03*
X150000Y-103500D03*
X140000D03*
G54D23*
X-87598Y-134842D03*
X-48228D03*
X-156150Y70414D03*
X-144750Y65014D03*
Y75814D03*
Y97414D03*
G54D34*
X-156150Y81214D03*
Y92014D03*
X-144750Y86614D03*
G54D25*
X-160300Y-43700D03*
Y-32900D03*
X-149500Y-49100D03*
Y-38300D03*
Y-27500D03*
X-160300Y-86900D03*
Y-76100D03*
X-149500Y-81500D03*
X182087Y-3740D03*
Y6260D03*
Y16260D03*
Y26260D03*
Y36260D03*
Y93189D03*
X-80551Y109252D03*
Y140748D03*
X2795Y103346D03*
X46417Y109252D03*
X130748Y103346D03*
G54D30*
X129764Y-146654D03*
X130000Y-136000D03*
Y-114000D03*
Y-125000D03*
Y-103500D03*
%LPD*%
G75*
G54D10*
X-154900Y-130100D03*
Y-500D03*
G54D20*
G01X-156150Y81214D02*
X-163286D01*
G01X-156150Y92014D02*
X-162986D01*
G01X-156150D02*
Y81214D01*
G01D02*
Y76464D01*
G01Y81214D02*
X-149714D01*
G01X-156150Y92014D02*
X-150150D01*
G01X-144750Y86614D02*
X-150886D01*
G01X-144750D02*
Y81764D01*
G01Y86614D02*
X-136614D01*
G01X-18855Y123032D02*
Y114355D01*
G01X108704Y123032D02*
Y115204D01*
G54D11*
X-160300Y-86900D03*
Y-97700D03*
Y-76100D03*
X-159900Y-65300D03*
X-160300Y-54500D03*
Y-43700D03*
Y-32900D03*
X-149500Y-103100D03*
Y-92300D03*
Y-81500D03*
Y-59900D03*
Y-70700D03*
Y-49100D03*
Y-38300D03*
Y-27500D03*
X-90551Y109252D03*
Y140748D03*
X-80551Y109252D03*
Y140748D03*
X2795Y103346D03*
X12795D03*
X36417Y109252D03*
Y140748D03*
X46417Y109252D03*
Y140748D03*
X130748Y103346D03*
X140748D03*
X182087Y-3740D03*
Y6260D03*
Y16260D03*
Y26260D03*
Y36260D03*
Y46260D03*
Y63189D03*
Y73189D03*
Y83189D03*
Y93189D03*
Y103189D03*
Y113189D03*
G54D21*
G01X30500Y-10000D02*
X15000D01*
G01X35500Y-15000D02*
X30500Y-10000D01*
G54D12*
X-150450Y36614D03*
Y136614D03*
G54D22*
G01X-196850Y-157480D02*
Y157480D01*
X196850D01*
Y-157480D01*
X-196850D01*
G54D13*
X-156150Y70414D03*
Y81214D03*
Y92014D03*
Y102814D03*
X-144750Y65014D03*
Y86614D03*
Y75814D03*
Y97414D03*
Y108214D03*
G54D14*
X-134000Y35000D03*
X-122047Y-63453D03*
X-126968Y-40354D03*
X-122047Y-26953D03*
X-127937Y3937D03*
X-127500Y25000D03*
Y37000D03*
X-127000Y55500D03*
X-119500Y66500D03*
X-128476Y61024D03*
X-126000Y71500D03*
X-129000Y76772D03*
X-126500Y81677D03*
X-118500Y96911D03*
Y88128D03*
X-127411Y88000D03*
X-128372Y98000D03*
X-122892Y97892D03*
Y87108D03*
X-129500Y92520D03*
X-108051Y-108051D03*
X-106551Y-88051D03*
X-107000Y-47500D03*
X-106303Y-52697D03*
X-106004Y-31496D03*
X-105638Y-22638D03*
X-107000Y-13000D03*
X-106669Y-18169D03*
X-109000Y31500D03*
X-115500D03*
X-105965Y28465D03*
X-110630Y20500D03*
X-105965Y43465D03*
Y33465D03*
X-105368Y57000D03*
X-109392Y56608D03*
X-105500Y72880D03*
X-109392Y72500D03*
X-105000Y88128D03*
Y96911D03*
X-109392Y86608D03*
Y98892D03*
X-91535Y-149465D03*
X-97476Y-126476D03*
X-99047Y-122047D03*
X-99311Y-113189D03*
X-101500Y-94500D03*
X-99000Y-99000D03*
X-102500Y-62000D03*
X-93504Y-62471D03*
X-98425Y-58071D03*
X-103500Y-42500D03*
X-100496Y-31496D03*
X-99516Y-23004D03*
X-101500Y-26500D03*
X-101000Y-13000D03*
X-102000Y40500D03*
X-103500Y48000D03*
X-104524Y61024D03*
X-104272Y76772D03*
X-103520Y92520D03*
X-97000Y148500D03*
X-83661Y-149661D03*
X-78500Y-116500D03*
X-79709Y-80709D03*
X-84551Y-73051D03*
X-84646Y-63854D03*
Y-53413D03*
X-80138Y-22638D03*
X-85000Y-8500D03*
X-80000Y-9500D03*
X-79169Y-18169D03*
X-86000Y17000D03*
X-90500Y30500D03*
X-86000Y42500D03*
X-79000Y57118D03*
X-83988Y79488D03*
X-84500Y74500D03*
X-75787Y-149787D03*
X-67913Y-149913D03*
X-71783Y-113189D03*
X-66500Y-106500D03*
X-65500Y29500D03*
Y20000D03*
X-66335Y52165D03*
X-66000Y60500D03*
X-52165Y-149835D03*
X-60039Y-149961D03*
X-59000Y-94500D03*
X-54728Y-51772D03*
X-58500Y-24000D03*
X-53369Y-2369D03*
X-64631Y-1869D03*
X-59000Y-500D03*
Y43000D03*
X-61244Y47244D03*
X-55665Y52165D03*
X-53500Y74000D03*
X-53488Y79488D03*
X-60000Y96500D03*
X-53500Y87000D03*
X-44291Y-149709D03*
X-50000Y-102000D03*
X-39370Y-88370D03*
X-45669Y-75669D03*
X-48500Y-68000D03*
Y-57500D03*
X-47500Y-4000D03*
X-39000Y500D03*
X-41728Y2372D03*
X-38937Y3937D03*
X-40909Y25591D03*
X-42000Y29000D03*
X-39551Y47051D03*
X-44835Y52165D03*
X-39551Y57449D03*
X-45807Y81693D03*
X-36232Y-108268D03*
X-29921Y-93421D03*
X-26772Y-90772D03*
X-27980Y-67520D03*
X-26500Y-47000D03*
X-34500Y-500D03*
X-30506Y-494D03*
X-33000Y24000D03*
X-28000D03*
X-30500Y21991D03*
X-36406Y21594D03*
X-26835Y52165D03*
X-35000Y52000D03*
X-26575Y63575D03*
X-35575Y64575D03*
X-22500Y-129500D03*
X-15016Y-107984D03*
X-20765Y-97755D03*
X-23622Y-88122D03*
X-24630Y-64370D03*
X-14567Y-39067D03*
X-20500Y6000D03*
X-24500Y11500D03*
X-21000Y40500D03*
X-24500Y34500D03*
X-21555Y48055D03*
X-16000Y52165D03*
X0Y-138500D03*
X-8000Y-115500D03*
X-3500Y-51772D03*
X-500Y-54921D03*
X-6622Y-48622D03*
X-9528Y-45473D03*
X-1803Y50197D03*
X-6500Y101000D03*
X1500Y117500D03*
X12500Y-129500D03*
X6067Y-89567D03*
X6224Y-79724D03*
X6382Y-69882D03*
X6039Y-60039D03*
X10669Y-40169D03*
X10500Y7500D03*
X7748Y13248D03*
X4161Y41339D03*
X4303Y50197D03*
X3587Y67913D03*
X27000Y-115000D03*
X18984Y-107984D03*
X24748Y-75248D03*
Y-84748D03*
X23000Y-49000D03*
X24500Y-55000D03*
Y8500D03*
X17732Y27268D03*
X24500Y44000D03*
X25697Y50197D03*
X17858Y64142D03*
X27500Y73000D03*
X21500Y121500D03*
X28000Y143000D03*
X35500Y-139000D03*
X39500Y-41000D03*
X29752Y-248D03*
X32748Y18248D03*
X30839Y41339D03*
X31087Y67913D03*
X29500Y148500D03*
X48000Y-129000D03*
X44516Y-107984D03*
X49000Y-88000D03*
X51500Y-95000D03*
X52573Y-66927D03*
X48500Y-64000D03*
X50000Y-54000D03*
X42500Y-53000D03*
X47500Y-56500D03*
X45000Y-59000D03*
X54000Y-36500D03*
X51500Y-39000D03*
X48500Y-42000D03*
X45500Y-35500D03*
X42500Y-38000D03*
X54000Y-17000D03*
X51500Y-13500D03*
X48500Y-19500D03*
X45276Y28276D03*
X50303Y50197D03*
X50945Y59055D03*
X50413Y67913D03*
X51500Y77000D03*
X62500Y-115500D03*
X63000Y-94500D03*
Y-86000D03*
X66083Y-36417D03*
X61023Y-41523D03*
X65945Y-15555D03*
X57000Y-14500D03*
X60000Y-17000D03*
X65803Y11197D03*
X64961Y28039D03*
X62500Y22000D03*
X58661Y41339D03*
X60055Y59055D03*
X59803Y50197D03*
X58602Y66398D03*
X60272Y76772D03*
X70500Y-138000D03*
X73500Y-85500D03*
X72000Y-48000D03*
X80000Y-52500D03*
X69885Y-41000D03*
X75500Y-44500D03*
X74000Y-41500D03*
X78500Y-30500D03*
X81693Y-29693D03*
X80000Y-12000D03*
X79000Y5500D03*
X82000Y1500D03*
X80480Y32480D03*
X79339Y41339D03*
X79945Y59055D03*
X80398Y71398D03*
X80319Y98181D03*
X83000Y-129000D03*
X85504Y-113496D03*
X91000Y-95000D03*
X94500Y-73000D03*
X90500D03*
X86500D03*
X83000Y-50000D03*
X93501Y-31001D03*
X90000Y-30000D03*
X87532Y-9468D03*
X88032Y5532D03*
X93000Y13500D03*
X86500Y31000D03*
X85035Y40965D03*
X85500Y37000D03*
X84500Y69500D03*
X87527Y66500D03*
X87102Y76398D03*
X87000Y81000D03*
X107500Y-141500D03*
X104000Y-134000D03*
X98000Y-115000D03*
X107500Y-90000D03*
X100725Y-79725D03*
X104331Y-41169D03*
X102000Y-23500D03*
X96500Y-22000D03*
X108500Y-7411D03*
X98425Y9425D03*
X109753Y-47247D03*
X110500Y-43000D03*
X120000Y-19500D03*
X115500Y-12000D03*
X117508Y5500D03*
X114500Y-2000D03*
X114000Y28500D03*
X111980Y32480D03*
X115500Y32500D03*
X113000Y41500D03*
X112445Y59055D03*
X113000Y46500D03*
X116398Y61398D03*
X114500Y66000D03*
X113500Y71500D03*
X130000Y-75000D03*
X132000Y-60000D03*
X129500Y-43000D03*
X124000Y-38000D03*
X124500Y22500D03*
X123000Y104000D03*
X128500Y119000D03*
X139000Y-90000D03*
X140000Y-75000D03*
Y-60000D03*
X139500Y-43000D03*
X144331Y-20669D03*
X144500Y-13500D03*
X138500Y11000D03*
X144500Y23500D03*
X148000Y49500D03*
X146500Y54500D03*
X139000Y81000D03*
X147000Y86500D03*
X144500Y151500D03*
X160500Y-43000D03*
X157000Y-23500D03*
X150968Y-9468D03*
X151968Y5532D03*
X150500Y500D03*
Y-4500D03*
X150465Y30965D03*
X150661Y41339D03*
X150208Y36000D03*
X149898Y61398D03*
Y71398D03*
Y66398D03*
Y76398D03*
X150500Y86500D03*
X151000Y97000D03*
Y103000D03*
Y109000D03*
Y115000D03*
Y121000D03*
X173811Y-11811D03*
X163000Y-16500D03*
X173000Y15000D03*
X171803Y50197D03*
X173000Y68000D03*
X175000Y92000D03*
X175500Y104500D03*
X178047Y122047D03*
G54D15*
X-118110Y-137795D03*
Y137795D03*
X177165Y-137795D03*
Y137795D03*
G54D16*
X-122500Y107500D03*
X-109000D03*
X-87598Y-134842D03*
X-60000Y-10000D03*
X-48228Y-134842D03*
X-35000Y-10000D03*
X-10000D03*
Y11000D03*
Y31000D03*
Y52000D03*
X15000Y-10000D03*
X172165Y-109173D03*
Y-99173D03*
Y-89173D03*
Y-79173D03*
Y-69173D03*
Y-59173D03*
Y-49173D03*
Y-39173D03*
Y-29173D03*
X182165Y-109173D03*
Y-99173D03*
Y-89173D03*
Y-79173D03*
Y-69173D03*
Y-59173D03*
Y-49173D03*
Y-39173D03*
Y-29173D03*
Y-19173D03*
G54D17*
G01X-45655Y123032D02*
X-35687Y133000D01*
X157000D01*
X164500Y125500D01*
Y81000D01*
X172311Y73189D01*
X182087D01*
X-59055Y123032D03*
X-52355Y143032D03*
X-45655Y123032D03*
X-38955Y143032D03*
X-32255Y123032D03*
X-25555Y143032D03*
X-18855Y123032D03*
X-12155Y143032D03*
X-5455Y123032D03*
X1245Y143032D03*
X7945Y123032D03*
X68504D03*
X81904D03*
X75204Y143032D03*
X95304Y123032D03*
X88604Y143032D03*
X108704Y123032D03*
X102004Y143032D03*
X122104Y123032D03*
X115404Y143032D03*
X135504Y123032D03*
X128804Y143032D03*
X149764Y-146654D03*
X139764D03*
X150000Y-136000D03*
X140000D03*
X150000Y-114000D03*
X140000D03*
X150000Y-125000D03*
X140000D03*
X150000Y-103500D03*
X140000D03*
G54D18*
X129764Y-146654D03*
X130000Y-136000D03*
Y-114000D03*
Y-125000D03*
Y-103500D03*
X172165Y-19173D03*
G54D19*
G01X-163591Y-100991D02*
X-160300Y-97700D01*
G01D02*
X-157009Y-94409D01*
G01X-163591D02*
X-160300Y-97700D01*
G01D02*
X-157009Y-100991D01*
G01X-159971Y77393D02*
X-156150Y81214D01*
G01X-159971Y85035D02*
X-156150Y81214D01*
G01X-159971Y88193D02*
X-156150Y92014D01*
G01X-159971Y95835D02*
X-156150Y92014D01*
G01X-149500Y-103100D02*
X-146209Y-99809D01*
G01X-152791D02*
X-149500Y-103100D01*
G01X-152791Y-95591D02*
X-149500Y-92300D01*
G01D02*
X-146209Y-89009D01*
G01X-152791D02*
X-149500Y-92300D01*
G01D02*
X-146209Y-95591D01*
G01X-148571Y82793D02*
X-144750Y86614D01*
G01X-156150Y81214D02*
X-152329Y85035D01*
G01X-156150Y81214D02*
X-152329Y77393D01*
G01X-148571Y90435D02*
X-144750Y86614D01*
G01X-156150Y92014D02*
X-152329Y95835D01*
G01X-156150Y92014D02*
X-152329Y88193D01*
G01X-136053Y32947D02*
X-134000Y35000D01*
G01D02*
X-131947Y37053D01*
G01X-136053D02*
X-134000Y35000D01*
G01D02*
X-131947Y32947D01*
G01X-144750Y86614D02*
X-140929Y82793D01*
G01X-144750Y86614D02*
X-140929Y90435D01*
G01X-124101Y-65506D02*
X-122047Y-63453D01*
G01D02*
X-119994Y-61400D01*
G01X-124101D02*
X-122047Y-63453D01*
G01D02*
X-119994Y-65506D01*
G01X-124101Y-29006D02*
X-122047Y-26953D01*
G01D02*
X-119994Y-24900D01*
G01X-124101D02*
X-122047Y-26953D01*
G01D02*
X-119994Y-29006D01*
G01X-129990Y1884D02*
X-127937Y3937D01*
G01D02*
X-125884Y5990D01*
G01X-129990D02*
X-127937Y3937D01*
G01D02*
X-125884Y1884D01*
G01X-129553Y22947D02*
X-127500Y25000D01*
G01D02*
X-125447Y27053D01*
G01X-129553D02*
X-127500Y25000D01*
G01D02*
X-125447Y22947D01*
G01X-129053Y53447D02*
X-127000Y55500D01*
G01D02*
X-124947Y57553D01*
G01X-129053D02*
X-127000Y55500D01*
G01D02*
X-124947Y53447D01*
G01X-130530Y58970D02*
X-128476Y61024D01*
G01D02*
X-126423Y63077D01*
G01X-130530D02*
X-128476Y61024D01*
G01D02*
X-126423Y58970D01*
G01X-128053Y69447D02*
X-126000Y71500D01*
G01D02*
X-123947Y73553D01*
G01X-128053D02*
X-126000Y71500D01*
G01D02*
X-123947Y69447D01*
G01X-121553Y64447D02*
X-119500Y66500D01*
G01X-121553Y68553D02*
X-119500Y66500D01*
G01X-124945Y85055D02*
X-122892Y87108D01*
G01D02*
X-120838Y85055D01*
G01X-131053Y74718D02*
X-129000Y76772D01*
G01D02*
X-126947Y78825D01*
G01X-131053D02*
X-129000Y76772D01*
G01D02*
X-126947Y74718D01*
G01X-128553Y79624D02*
X-126500Y81677D01*
G01D02*
X-124447Y83730D01*
G01X-128553D02*
X-126500Y81677D01*
G01D02*
X-124447Y79624D01*
G01X-131553Y90466D02*
X-129500Y92520D01*
G01D02*
X-127447Y94573D01*
G01X-131553D02*
X-129500Y92520D01*
G01D02*
X-127447Y90466D01*
G01X-122892Y87108D02*
X-120838Y89162D01*
G01X-124945D02*
X-122892Y87108D01*
G01X-124945Y95838D02*
X-122892Y97892D01*
G01D02*
X-120838Y99945D01*
G01X-124945D02*
X-122892Y97892D01*
G01D02*
X-120838Y95838D01*
G01X-130425Y95947D02*
X-128372Y98000D01*
G01D02*
X-126319Y100053D01*
G01X-130425D02*
X-128372Y98000D01*
G01D02*
X-126319Y95947D01*
G01X-129465Y85947D02*
X-127411Y88000D01*
G01D02*
X-125358Y90053D01*
G01X-129465D02*
X-127411Y88000D01*
G01D02*
X-125358Y85947D01*
G01X-120553Y86075D02*
X-118500Y88128D01*
G01X-120553Y90181D02*
X-118500Y88128D01*
G01X-120553Y94858D02*
X-118500Y96911D01*
G01X-120553Y98965D02*
X-118500Y96911D01*
G01X-110104Y-110104D02*
X-108051Y-108051D01*
G01D02*
X-105998Y-105998D01*
G01X-110104D02*
X-108051Y-108051D01*
G01D02*
X-105998Y-110104D01*
G01X-117553Y29447D02*
X-115500Y31500D01*
G01D02*
X-113447Y33553D01*
G01X-117553D02*
X-115500Y31500D01*
G01D02*
X-113447Y29447D01*
G01X-111053D02*
X-109000Y31500D01*
G01X-111053Y33553D02*
X-109000Y31500D01*
G01X-111445Y54555D02*
X-109392Y56608D01*
G01D02*
X-107338Y58662D01*
G01X-111445D02*
X-109392Y56608D01*
G01D02*
X-107338Y54555D01*
G01X-107421Y54947D02*
X-105368Y57000D01*
G01X-107421Y59053D02*
X-105368Y57000D01*
G01X-106577Y58970D02*
X-104524Y61024D01*
G01X-106577Y63077D02*
X-104524Y61024D01*
G01X-111445Y84555D02*
X-109392Y86608D01*
G01D02*
X-107338Y84555D01*
G01X-106325Y78825D02*
X-104272Y76772D01*
G01X-109392Y72500D02*
X-107338Y74553D01*
G01X-111445D02*
X-109392Y72500D01*
G01X-107553Y74933D02*
X-105500Y72880D01*
G01X-105573Y90466D02*
X-103520Y92520D01*
G01X-105573Y94573D02*
X-103520Y92520D01*
G01X-111445Y96838D02*
X-109392Y98892D01*
G01Y86608D02*
X-107338Y88662D01*
G01X-111445D02*
X-109392Y86608D01*
G01X-107053Y94858D02*
X-105000Y96911D01*
G01X-107053Y86075D02*
X-105000Y88128D01*
G01X-107053Y90181D02*
X-105000Y88128D01*
G01X-109392Y98892D02*
X-107338Y100945D01*
G01X-111445D02*
X-109392Y98892D01*
G01X-93589Y-151518D02*
X-91535Y-149465D01*
G01X-93589Y-147411D02*
X-91535Y-149465D01*
G01X-101053Y-101053D02*
X-99000Y-99000D01*
G01D02*
X-96947Y-96947D01*
G01X-99000Y-99000D02*
X-96947Y-101053D01*
G01X-105368Y57000D02*
X-103315Y59053D01*
G01X-105368Y57000D02*
X-103315Y54947D01*
G01X-104524Y61024D02*
X-102470Y63077D01*
G01X-104524Y61024D02*
X-102470Y58970D01*
G01X-104272Y76772D02*
X-102218Y78825D01*
G01X-104272Y76772D02*
X-102218Y74718D01*
G01X-105500Y72880D02*
X-102950D01*
G01X-103520Y92520D02*
X-101466Y94573D01*
G01X-103520Y92520D02*
X-101466Y90466D01*
G01X-105000Y96911D02*
X-102947Y98965D01*
G01X-105000Y96911D02*
X-102947Y94858D01*
G01X-105000Y88128D02*
X-102947Y90181D01*
G01X-105000Y88128D02*
X-102947Y86075D01*
G01X-93842Y105961D02*
X-90551Y109252D01*
G01X-93842Y112543D02*
X-90551Y109252D01*
G01X-93842Y137457D02*
X-90551Y140748D01*
G01X-93842Y144039D02*
X-90551Y140748D01*
G01X-85715Y-151715D02*
X-83661Y-149661D01*
G01D02*
X-81608Y-147608D01*
G01X-85715D02*
X-83661Y-149661D01*
G01D02*
X-81608Y-151715D01*
G01X-91535Y-149465D02*
X-89482Y-147411D01*
G01X-91535Y-149465D02*
X-89482Y-151518D01*
G01X-81762Y-82762D02*
X-79709Y-80709D01*
G01D02*
X-77655Y-82762D01*
G01X-86699Y-65908D02*
X-84646Y-63854D01*
G01D02*
X-82592Y-61801D01*
G01X-86699D02*
X-84646Y-63854D01*
G01D02*
X-82592Y-65908D01*
G01X-82191Y-24691D02*
X-80138Y-22638D01*
G01X-82191Y-20584D02*
X-80138Y-22638D01*
G01D02*
X-78084Y-24691D01*
G01X-82053Y-11553D02*
X-80000Y-9500D01*
G01D02*
X-77947Y-7447D01*
G01X-82053D02*
X-80000Y-9500D01*
G01D02*
X-77947Y-11553D01*
G01X-86553Y72447D02*
X-84500Y74500D01*
G01D02*
X-82447Y76553D01*
G01X-86553D02*
X-84500Y74500D01*
G01D02*
X-82447Y72447D01*
G01X-86042Y77435D02*
X-83988Y79488D01*
G01D02*
X-81935Y81542D01*
G01X-86042D02*
X-83988Y79488D01*
G01D02*
X-81935Y77435D01*
G01X-90551Y109252D02*
X-87261Y112543D01*
G01X-90551Y109252D02*
X-87261Y105961D01*
G01X-90551Y140748D02*
X-87261Y137457D01*
G01X-90551Y140748D02*
X-87261Y144039D01*
G01X-67913Y-149913D02*
X-65860Y-147860D01*
G01X-69967D02*
X-67913Y-149913D01*
G01X-77841Y-151841D02*
X-75787Y-149787D01*
G01D02*
X-73734Y-147734D01*
G01X-77841D02*
X-75787Y-149787D01*
G01D02*
X-73734Y-151841D01*
G01X-66685Y-3922D02*
X-64631Y-1869D01*
G01X-66685Y185D02*
X-64631Y-1869D01*
G01X-60039Y-149961D02*
X-57986Y-147907D01*
G01X-62093D02*
X-60039Y-149961D01*
G01X-54219Y-151888D02*
X-52165Y-149835D01*
G01D02*
X-50112Y-147781D01*
G01X-54219D02*
X-52165Y-149835D01*
G01D02*
X-50112Y-151888D01*
G01X-56782Y-53825D02*
X-54728Y-51772D01*
G01D02*
X-52675Y-49718D01*
G01X-56782D02*
X-54728Y-51772D01*
G01D02*
X-52675Y-53825D01*
G01X-61053Y-2553D02*
X-59000Y-500D01*
G01D02*
X-56947Y1553D01*
G01X-61053D02*
X-59000Y-500D01*
G01D02*
X-56947Y-2553D01*
G01X-64631Y-1869D02*
X-62578Y185D01*
G01X-64631Y-1869D02*
X-62578Y-3922D01*
G01X-55422Y-4422D02*
X-53369Y-2369D01*
G01D02*
X-51315Y-315D01*
G01X-55422D02*
X-53369Y-2369D01*
G01D02*
X-51315Y-4422D01*
G01X-61053Y40947D02*
X-59000Y43000D01*
G01D02*
X-56947Y45053D01*
G01X-59000Y43000D02*
X-56947Y40947D01*
G01X-55553Y71947D02*
X-53500Y74000D01*
G01X-55553Y84947D02*
X-53500Y87000D01*
G01X-55542Y77435D02*
X-53488Y79488D01*
G01D02*
X-51435Y81542D01*
G01X-55542D02*
X-53488Y79488D01*
G01D02*
X-51435Y77435D01*
G01X-53500Y74000D02*
X-51447Y76053D01*
G01X-55553D02*
X-53500Y74000D01*
G01D02*
X-51447Y71947D01*
G01X-60000Y96500D02*
X-57947Y98553D01*
G01X-62053D02*
X-60000Y96500D01*
G01X-53500Y87000D02*
X-51447Y84947D01*
G01X-46345Y-151762D02*
X-44291Y-149709D01*
G01D02*
X-42238Y-147655D01*
G01X-46345D02*
X-44291Y-149709D01*
G01D02*
X-42238Y-151762D01*
G01X-41423Y-90423D02*
X-39370Y-88370D01*
G01D02*
X-37317Y-86317D01*
G01X-41423D02*
X-39370Y-88370D01*
G01D02*
X-37317Y-90423D01*
G01X-50553Y-70053D02*
X-48500Y-68000D01*
G01D02*
X-46447Y-65947D01*
G01X-50553D02*
X-48500Y-68000D01*
G01D02*
X-46447Y-70053D01*
G01X-50553Y-59553D02*
X-48500Y-57500D01*
G01D02*
X-46447Y-55447D01*
G01X-50553D02*
X-48500Y-57500D01*
G01D02*
X-46447Y-59553D01*
G01X-38937Y3937D02*
X-36884Y5990D01*
G01X-40990D02*
X-38937Y3937D01*
G01D02*
X-36884Y1884D01*
G01X-43782Y319D02*
X-41728Y2372D01*
G01X-43782Y4425D02*
X-41728Y2372D01*
G01X-41053Y-1553D02*
X-39000Y500D01*
G01D02*
X-36947Y2553D01*
G01X-44053Y26947D02*
X-42000Y29000D01*
G01D02*
X-39947Y31053D01*
G01X-44053D02*
X-42000Y29000D01*
G01X-42963Y23537D02*
X-40909Y25591D01*
G01D02*
X-38856Y27644D01*
G01X-40909Y25591D02*
X-38856Y23537D01*
G01X-41604Y44998D02*
X-39551Y47051D01*
G01X-41604Y55396D02*
X-39551Y57449D01*
G01D02*
X-37498Y59502D01*
G01X-41604D02*
X-39551Y57449D01*
G01D02*
X-37498Y55396D01*
G01X-46888Y50112D02*
X-44835Y52165D01*
G01D02*
X-42781Y54219D01*
G01X-46888D02*
X-44835Y52165D01*
G01D02*
X-42781Y50112D01*
G01X-39551Y47051D02*
X-37498Y49104D01*
G01X-41604D02*
X-39551Y47051D01*
G01D02*
X-37498Y44998D01*
G01X-47860Y79640D02*
X-45807Y81693D01*
G01D02*
X-43754Y83746D01*
G01X-47860D02*
X-45807Y81693D01*
G01D02*
X-43754Y79640D01*
G01X-30034Y-69573D02*
X-27980Y-67520D01*
G01X-30034Y-65466D02*
X-27980Y-67520D01*
G01D02*
X-25927Y-69573D01*
G01X-38460Y19540D02*
X-36406Y21594D01*
G01X-38460Y23647D02*
X-36406Y21594D01*
G01D02*
X-34353Y19540D01*
G01X-37053Y49947D02*
X-35000Y52000D01*
G01D02*
X-32947Y54053D01*
G01X-37053D02*
X-35000Y52000D01*
G01D02*
X-32947Y49947D01*
G01X-37628Y62522D02*
X-35575Y64575D01*
G01D02*
X-33522Y66628D01*
G01X-37628D02*
X-35575Y64575D01*
G01D02*
X-33522Y62522D01*
G01X-17069Y-110038D02*
X-15016Y-107984D01*
G01D02*
X-12962Y-105931D01*
G01X-17069D02*
X-15016Y-107984D01*
G01D02*
X-12962Y-110038D01*
G01X-22323Y119564D02*
X-18855Y123032D01*
G01D02*
X-15388Y119564D01*
G01X-2053Y-140553D02*
X0Y-138500D01*
G01D02*
X2053Y-136447D01*
G01X-2053D02*
X0Y-138500D01*
G01D02*
X2053Y-140553D01*
G01X-8553Y98947D02*
X-6500Y101000D01*
G01D02*
X-4447Y103053D01*
G01X-8553D02*
X-6500Y101000D01*
G01D02*
X-4447Y98947D01*
G01X12240Y-12760D02*
X15000Y-10000D01*
G01X12240Y-7240D02*
X15000Y-10000D01*
G01X2108Y39285D02*
X4161Y41339D01*
G01D02*
X6215Y43392D01*
G01X2108D02*
X4161Y41339D01*
G01D02*
X6215Y39285D01*
G01X1533Y65860D02*
X3587Y67913D01*
G01D02*
X5640Y69967D01*
G01X1533D02*
X3587Y67913D01*
G01D02*
X5640Y65860D01*
G01X9505Y100056D02*
X12795Y103346D01*
G01D02*
X16086Y106637D01*
G01X9505D02*
X12795Y103346D01*
G01D02*
X16086Y100056D01*
G01X16931Y-110038D02*
X18984Y-107984D01*
G01D02*
X21038Y-105931D01*
G01X16931D02*
X18984Y-107984D01*
G01D02*
X21038Y-110038D01*
G01X22695Y-86801D02*
X24748Y-84748D01*
G01D02*
X26801Y-82695D01*
G01X22695D02*
X24748Y-84748D01*
G01D02*
X26801Y-86801D01*
G01X22695Y-77301D02*
X24748Y-75248D01*
G01D02*
X26801Y-73195D01*
G01X22695D02*
X24748Y-75248D01*
G01D02*
X26801Y-77301D01*
G01X22447Y-57053D02*
X24500Y-55000D01*
G01D02*
X26553Y-52947D01*
G01X22447D02*
X24500Y-55000D01*
G01D02*
X26553Y-57053D01*
G01X20947Y-51053D02*
X23000Y-49000D01*
G01D02*
X25053Y-46947D01*
G01X20947D02*
X23000Y-49000D01*
G01D02*
X25053Y-51053D01*
G01X15000Y-10000D02*
X17760Y-7240D01*
G01X15000Y-10000D02*
X17760Y-12760D01*
G01X15679Y25214D02*
X17732Y27268D01*
G01D02*
X19786Y29321D01*
G01X15679D02*
X17732Y27268D01*
G01D02*
X19786Y25214D01*
G01X19447Y119447D02*
X21500Y121500D01*
G01D02*
X23553Y123553D01*
G01X19447D02*
X21500Y121500D01*
G01D02*
X23553Y119447D01*
G01X25947Y140947D02*
X28000Y143000D01*
G01X25947Y145053D02*
X28000Y143000D01*
G01X33447Y-141053D02*
X35500Y-139000D01*
G01D02*
X37553Y-136947D01*
G01X33447D02*
X35500Y-139000D01*
G01D02*
X37553Y-141053D01*
G01X48500Y-64000D02*
X38000D01*
X35500Y-61500D01*
Y-15000D01*
G01X33127Y105961D02*
X36417Y109252D01*
G01D02*
X39708Y112543D01*
G01X33127D02*
X36417Y109252D01*
G01D02*
X39708Y105961D01*
G01X36417Y140748D02*
X39708Y144039D01*
G01X33127D02*
X36417Y140748D01*
G01X28000Y143000D02*
X30053Y145053D01*
G01X28000Y143000D02*
X30053Y140947D01*
G01X42462Y-110038D02*
X44516Y-107984D01*
G01D02*
X46569Y-105931D01*
G01X42462D02*
X44516Y-107984D01*
G01D02*
X46569Y-110038D01*
G01X43222Y26222D02*
X45276Y28276D01*
G01D02*
X47329Y30329D01*
G01X43222D02*
X45276Y28276D01*
G01D02*
X47329Y26222D01*
G01X48250Y48144D02*
X50303Y50197D01*
G01D02*
X52356Y52250D01*
G01X48250D02*
X50303Y50197D01*
G01D02*
X52356Y48144D01*
G01X48360Y65860D02*
X50413Y67913D01*
G01D02*
X52467Y69967D01*
G01X48360D02*
X50413Y67913D01*
G01D02*
X52467Y65860D01*
G01X60947Y-88053D02*
X63000Y-86000D01*
G01D02*
X65053Y-88053D01*
G01X60947Y-96553D02*
X63000Y-94500D01*
G01D02*
X65053Y-92447D01*
G01X60947D02*
X63000Y-94500D01*
G01D02*
X65053Y-96553D01*
G01X63000Y-86000D02*
X65053Y-83947D01*
G01X60947D02*
X63000Y-86000D01*
G01X67832Y-43053D02*
X69885Y-41000D01*
G01X67832Y-38947D02*
X69885Y-41000D01*
G01X63892Y-17608D02*
X65945Y-15555D01*
G01D02*
X67998Y-13502D01*
G01X63892D02*
X65945Y-15555D01*
G01D02*
X67998Y-17608D01*
G01X62907Y25986D02*
X64961Y28039D01*
G01D02*
X67014Y30093D01*
G01X62907D02*
X64961Y28039D01*
G01D02*
X67014Y25986D01*
G01X57750Y48144D02*
X59803Y50197D01*
G01D02*
X61856Y52250D01*
G01X57750D02*
X59803Y50197D01*
G01D02*
X61856Y48144D01*
G01X58002Y57002D02*
X60055Y59055D01*
G01D02*
X62108Y57002D01*
G01X60055Y59055D02*
X62108Y61108D01*
G01X58002D02*
X60055Y59055D01*
G01X58218Y74718D02*
X60272Y76772D01*
G01D02*
X62325Y78825D01*
G01X58218D02*
X60272Y76772D01*
G01D02*
X62325Y74718D01*
G01X68447Y-140053D02*
X70500Y-138000D01*
G01D02*
X72553Y-135947D01*
G01X68447D02*
X70500Y-138000D01*
G01D02*
X72553Y-140053D01*
G01X69885Y-41000D02*
X71938Y-38947D01*
G01X78266Y96128D02*
X80319Y98181D01*
G01D02*
X82372Y100234D01*
G01X78266D02*
X80319Y98181D01*
G01D02*
X82372Y96128D01*
G01X83451Y-115549D02*
X85504Y-113496D01*
G01D02*
X87557Y-115549D01*
G01X85504Y-113496D02*
X87557Y-111443D01*
G01X83451D02*
X85504Y-113496D01*
G01X88947Y-97053D02*
X91000Y-95000D01*
G01D02*
X93053Y-92947D01*
G01X88947D02*
X91000Y-95000D01*
G01D02*
X93053Y-97053D01*
G01X101947Y-136053D02*
X104000Y-134000D01*
G01D02*
X106053Y-131947D01*
G01X101947D02*
X104000Y-134000D01*
G01D02*
X106053Y-136053D01*
G01X96372Y7372D02*
X98425Y9425D01*
G01D02*
X100478Y11478D01*
G01X96372D02*
X98425Y9425D01*
G01D02*
X100478Y7372D01*
G01X105236Y119564D02*
X108704Y123032D01*
G01X109927Y30427D02*
X111980Y32480D01*
G01X109927Y34534D02*
X111980Y32480D01*
G01X110392Y57002D02*
X112445Y59055D01*
G01D02*
X114498Y57002D01*
G01X112447Y63947D02*
X114500Y66000D01*
G01D02*
X116553Y68053D01*
G01X112447D02*
X114500Y66000D01*
G01X110392Y61108D02*
X112445Y59055D01*
G01X120947Y101947D02*
X123000Y104000D01*
G01X120947Y106053D02*
X123000Y104000D01*
G01X108704Y123032D02*
X112171Y119564D01*
G01X125214Y-151204D02*
X129764Y-146654D01*
G01D02*
X134314Y-142103D01*
G01X125214D02*
X129764Y-146654D01*
G01D02*
X134314Y-151204D01*
G01X125450Y-129550D02*
X130000Y-125000D01*
G01D02*
X134550Y-129550D01*
G01X125450Y-140550D02*
X130000Y-136000D01*
G01D02*
X134550Y-131450D01*
G01X125450D02*
X130000Y-136000D01*
G01D02*
X134550Y-140550D01*
G01X130000Y-125000D02*
X134550Y-120450D01*
G01X125450D02*
X130000Y-125000D01*
G01X125450Y-118550D02*
X130000Y-114000D01*
G01D02*
X134550Y-118550D01*
G01X125450Y-108050D02*
X130000Y-103500D01*
G01D02*
X134550Y-98950D01*
G01X125450D02*
X130000Y-103500D01*
G01D02*
X134550Y-108050D01*
G01X130000Y-114000D02*
X134550Y-109450D01*
G01X125450D02*
X130000Y-114000D01*
G01X127947Y-77053D02*
X130000Y-75000D01*
G01D02*
X132053Y-72947D01*
G01X127947D02*
X130000Y-75000D01*
G01D02*
X132053Y-77053D01*
G01X129947Y-62053D02*
X132000Y-60000D01*
G01D02*
X134053Y-57947D01*
G01X129947D02*
X132000Y-60000D01*
G01D02*
X134053Y-62053D01*
G01X121947Y-40053D02*
X124000Y-38000D01*
G01D02*
X126053Y-35947D01*
G01X121947D02*
X124000Y-38000D01*
G01D02*
X126053Y-40053D01*
G01X127447Y-45053D02*
X129500Y-43000D01*
G01D02*
X131553Y-40947D01*
G01X127447D02*
X129500Y-43000D01*
G01D02*
X131553Y-45053D01*
G01X122447Y20447D02*
X124500Y22500D01*
G01D02*
X126553Y24553D01*
G01X122447D02*
X124500Y22500D01*
G01D02*
X126553Y20447D01*
G01X123000Y104000D02*
X125053Y106053D01*
G01X123000Y104000D02*
X125053Y101947D01*
G01X136947Y-92053D02*
X139000Y-90000D01*
G01D02*
X141053Y-87947D01*
G01X136947D02*
X139000Y-90000D01*
G01D02*
X141053Y-92053D01*
G01X137947Y-77053D02*
X140000Y-75000D01*
G01D02*
X142053Y-72947D01*
G01X137947D02*
X140000Y-75000D01*
G01D02*
X142053Y-77053D01*
G01X137947Y-62053D02*
X140000Y-60000D01*
G01D02*
X142053Y-62053D01*
G01X140000Y-60000D02*
X142053Y-57947D01*
G01X137947D02*
X140000Y-60000D01*
G01X142277Y-22723D02*
X144331Y-20669D01*
G01D02*
X146384Y-22723D01*
G01X142447Y-15553D02*
X144500Y-13500D01*
G01D02*
X146553Y-11447D01*
G01X142447D02*
X144500Y-13500D01*
G01D02*
X146553Y-15553D01*
G01X144331Y-20669D02*
X146384Y-18616D01*
G01X142277D02*
X144331Y-20669D01*
G01X144447Y52447D02*
X146500Y54500D01*
G01X144447Y56553D02*
X146500Y54500D01*
G01D02*
X148553Y52447D01*
G01X137457Y100056D02*
X140748Y103346D01*
G01D02*
X144039Y106637D01*
G01X137457D02*
X140748Y103346D01*
G01D02*
X144039Y100056D01*
G01X142447Y149447D02*
X144500Y151500D01*
G01D02*
X146553Y153553D01*
G01X142447D02*
X144500Y151500D01*
G01D02*
X146553Y149447D01*
G01X158447Y-45053D02*
X160500Y-43000D01*
G01D02*
X162553Y-40947D01*
G01X158447D02*
X160500Y-43000D01*
G01D02*
X162553Y-45053D01*
G01X148608Y39285D02*
X150661Y41339D01*
G01D02*
X152715Y43392D01*
G01X148608D02*
X150661Y41339D01*
G01D02*
X152715Y39285D01*
G01X173000Y68000D02*
X161500D01*
X158102Y71398D01*
X149898D01*
G01X151000Y97000D02*
X153053Y99053D01*
G01X148947D02*
X151000Y97000D01*
G01X148947Y106947D02*
X151000Y109000D01*
G01D02*
X153053Y111053D01*
G01X148947D02*
X151000Y109000D01*
G01D02*
X153053Y106947D01*
G01X148947Y100947D02*
X151000Y103000D01*
G01D02*
X153053Y105053D01*
G01X148947D02*
X151000Y103000D01*
G01D02*
X153053Y100947D01*
G01X148947Y118947D02*
X151000Y121000D01*
G01D02*
X153053Y123053D01*
G01X148947D02*
X151000Y121000D01*
G01D02*
X153053Y118947D01*
G01X148947Y112947D02*
X151000Y115000D01*
G01D02*
X153053Y117053D01*
G01X148947D02*
X151000Y115000D01*
G01D02*
X153053Y112947D01*
G01X171758Y-13864D02*
X173811Y-11811D01*
G01D02*
X175864Y-9758D01*
G01X171758D02*
X173811Y-11811D01*
G01D02*
X175864Y-13864D01*
G01X169750Y48144D02*
X171803Y50197D01*
G01D02*
X173856Y52250D01*
G01X169750D02*
X171803Y50197D01*
G01D02*
X173856Y48144D01*
G01X172947Y89947D02*
X175000Y92000D01*
G01X172947Y94053D02*
X175000Y92000D01*
G01X173447Y102447D02*
X175500Y104500D01*
G01X173447Y106553D02*
X175500Y104500D01*
G01X179405Y-101934D02*
X182165Y-99173D01*
G01D02*
X184926Y-101934D01*
G01X179405Y-111934D02*
X182165Y-109173D01*
G01D02*
X184926Y-106413D01*
G01X179405D02*
X182165Y-109173D01*
G01D02*
X184926Y-111934D01*
G01X179405Y-91934D02*
X182165Y-89173D01*
G01D02*
X184926Y-86413D01*
G01X179405D02*
X182165Y-89173D01*
G01D02*
X184926Y-91934D01*
G01X182165Y-99173D02*
X184926Y-96413D01*
G01X179405D02*
X182165Y-99173D01*
G01X179405Y-81934D02*
X182165Y-79173D01*
G01D02*
X184926Y-76413D01*
G01X179405D02*
X182165Y-79173D01*
G01D02*
X184926Y-81934D01*
G01X179405Y-61934D02*
X182165Y-59173D01*
G01D02*
X184926Y-61934D01*
G01X179405Y-71934D02*
X182165Y-69173D01*
G01D02*
X184926Y-66413D01*
G01X179405D02*
X182165Y-69173D01*
G01D02*
X184926Y-71934D01*
G01X179405Y-51934D02*
X182165Y-49173D01*
G01D02*
X184926Y-46413D01*
G01X179405D02*
X182165Y-49173D01*
G01D02*
X184926Y-51934D01*
G01X182165Y-59173D02*
X184926Y-56413D01*
G01X179405D02*
X182165Y-59173D01*
G01X179405Y-41934D02*
X182165Y-39173D01*
G01D02*
X184926Y-36413D01*
G01X179405D02*
X182165Y-39173D01*
G01D02*
X184926Y-41934D01*
G01X179405Y-31934D02*
X182165Y-29173D01*
G01D02*
X184926Y-31934D01*
G01X178796Y42969D02*
X182087Y46260D01*
G01D02*
X185377Y42969D01*
G01X182087Y46260D02*
X185377Y49550D01*
G01X178796D02*
X182087Y46260D01*
G01X175000Y92000D02*
X177053Y94053D01*
G01X175000Y92000D02*
X177053Y89947D01*
G01X175500Y104500D02*
X177553Y106553D01*
G01X175500Y104500D02*
X177553Y102447D01*
G01X178796Y109898D02*
X182087Y113189D01*
G01D02*
X185377Y109898D01*
G01X175994Y119994D02*
X178047Y122047D01*
G01D02*
X180101Y119994D01*
G01X182087Y113189D02*
X185377Y116480D01*
G01X178796D02*
X182087Y113189D01*
M02*
