G04 ================== begin FILE IDENTIFICATION RECORD ==================*
G04 Layout Name:  F:/产品设计/振镜/驱动板电路/第二版数字/GALVOSERVODRV2.brd*
G04 Film Name:    PAST_TOP*
G04 File Format:  Gerber RS274X*
G04 File Origin:  Cadence Allegro 16.6-P004*
G04 Origin Date:  Thu Oct 06 09:45:19 2016*
G04 *
G04 Layer:  BOARD GEOMETRY/OUTLINE*
G04 Layer:  PACKAGE GEOMETRY/PASTEMASK_TOP*
G04 Layer:  PIN/PASTEMASK_TOP*
G04 *
G04 Offset:    (0.000 0.000)*
G04 Mirror:    No*
G04 Mode:      Positive*
G04 Rotation:  0*
G04 FullContactRelief:  No*
G04 UndefLineWidth:     6.000*
G04 ================== end FILE IDENTIFICATION RECORD ====================*
%FSLAX35Y35*MOIN*%
%IR0*IPPOS*OFA0.00000B0.00000*MIA0B0*SFA1.00000B1.00000*%
%ADD20R,.06X.1*%
%ADD12R,.09X.12*%
%ADD14R,.039X.108*%
%ADD16R,.23622X.23622*%
%ADD23R,.01X.06*%
%ADD24R,.06X.01*%
%ADD19R,.015X.07*%
%ADD10R,.06X.06*%
%ADD17R,.07X.015*%
%ADD11R,.074X.024*%
%ADD22R,.055X.08*%
%ADD21R,.048X.075*%
%ADD18R,.055118X.05*%
%ADD13R,.023622X.011811*%
%ADD15R,.059055X.059055*%
%ADD25R,.1X.06*%
%ADD26C,.006*%
G75*
%LPD*%
G75*
G54D10*
X-122892Y61024D03*
Y76772D03*
Y92520D03*
X-109392Y61024D03*
Y76772D03*
Y92520D03*
G54D11*
X-113559Y-108051D03*
Y-103051D03*
Y-98051D03*
Y-93051D03*
Y-88051D03*
Y-83051D03*
Y-78051D03*
Y-73051D03*
X-91559Y-103051D03*
Y-108051D03*
Y-88051D03*
Y-93051D03*
Y-98051D03*
Y-78051D03*
Y-83051D03*
Y-73051D03*
G54D20*
X-60634Y105315D03*
X-47634D03*
X-32091D03*
X-19091D03*
X67319D03*
X80319D03*
X95862D03*
X108862D03*
G54D21*
X-20795Y-143984D03*
Y-107984D03*
X-4795Y-143984D03*
Y-107984D03*
X14638Y-143984D03*
Y-107984D03*
X30638Y-143984D03*
Y-107984D03*
X50071Y-143984D03*
Y-107984D03*
X66071Y-143984D03*
Y-107984D03*
X85504Y-143984D03*
Y-107984D03*
X101504Y-143984D03*
Y-107984D03*
X131764Y-88866D03*
Y-52866D03*
X147764Y-88866D03*
Y-52866D03*
G54D12*
X-113500Y9000D03*
X-96500D03*
X-76000D03*
X-82028Y33465D03*
X-59000Y9000D03*
X-58028Y33465D03*
G54D13*
X-112008Y29724D03*
Y33465D03*
Y37205D03*
X-100590Y29724D03*
Y37205D03*
Y33465D03*
G54D22*
X10669Y-48954D03*
Y-31754D03*
X30669Y-48954D03*
Y-31754D03*
G54D23*
X67917Y-79725D03*
Y-36417D03*
X79725Y-79725D03*
X77757D03*
X75789D03*
X73821D03*
X71853D03*
X69885D03*
Y-36417D03*
X71853D03*
X73821D03*
X75789D03*
X77757D03*
X79725D03*
X93501Y-79725D03*
X91533D03*
X89565D03*
X87597D03*
X85629D03*
X83661D03*
X81693D03*
Y-36417D03*
X83661D03*
X85629D03*
X87597D03*
X89565D03*
X91533D03*
X93501D03*
X97437Y-79725D03*
X95469D03*
Y-36417D03*
X97437D03*
G54D14*
X-91535Y-143209D03*
Y-126476D03*
X-83661Y-143209D03*
Y-126476D03*
X-75787Y-143209D03*
X-67913D03*
X-75787Y-126476D03*
X-67913D03*
X-60039Y-143209D03*
X-52165D03*
X-60039Y-126476D03*
X-52165D03*
X-44291Y-143209D03*
Y-126476D03*
G54D15*
X-79240Y52165D03*
X-61244D03*
X-39551D03*
X-21555D03*
G54D24*
X61023Y-72831D03*
Y-70863D03*
Y-68895D03*
Y-66927D03*
Y-64959D03*
Y-62991D03*
Y-61023D03*
Y-59055D03*
Y-57087D03*
Y-55119D03*
Y-53151D03*
Y-51183D03*
Y-49215D03*
Y-47247D03*
Y-45279D03*
Y-43311D03*
X104331Y-62991D03*
Y-64959D03*
Y-66927D03*
Y-68895D03*
Y-70863D03*
Y-72831D03*
Y-49215D03*
Y-51183D03*
Y-53151D03*
Y-55119D03*
Y-57087D03*
Y-59055D03*
Y-61023D03*
Y-43311D03*
Y-45279D03*
Y-47247D03*
G54D25*
X165354Y-3547D03*
Y9453D03*
Y63382D03*
Y76382D03*
G54D16*
X-70244Y79488D03*
X-30555D03*
G54D26*
G01X-196850Y-157480D02*
Y157480D01*
X196850D01*
Y-157480D01*
X-196850D01*
G54D17*
X-64173Y-73819D03*
Y-70669D03*
Y-67520D03*
Y-64370D03*
Y-61220D03*
Y-58071D03*
Y-54921D03*
Y-51772D03*
Y-48622D03*
Y-45473D03*
Y-42323D03*
X-14567Y-61220D03*
Y-64370D03*
Y-67520D03*
Y-70669D03*
Y-73819D03*
Y-48622D03*
Y-51772D03*
Y-54921D03*
Y-58071D03*
Y-42323D03*
Y-45473D03*
G54D18*
X-52201Y-108000D03*
X-43500D03*
X15748Y-89567D03*
Y-79724D03*
Y-69882D03*
Y-60039D03*
X24449Y-89567D03*
Y-79724D03*
Y-69882D03*
Y-60039D03*
G54D19*
X-51968Y-82874D03*
X-55118D03*
Y-33268D03*
X-51968D03*
X-39370Y-82874D03*
X-42520D03*
X-45669D03*
X-48819D03*
Y-33268D03*
X-45669D03*
X-42520D03*
X-39370D03*
X-26772Y-82874D03*
X-29921D03*
X-33071D03*
X-36220D03*
Y-33268D03*
X-33071D03*
X-29921D03*
X-26772D03*
X-23622Y-82874D03*
Y-33268D03*
M02*
