G04 ================== begin FILE IDENTIFICATION RECORD ==================*
G04 Layout Name:  F:/产品设计/振镜/驱动板电路/第二版数字/GALVOSERVODRV2.brd*
G04 Film Name:    SILK_BOTTOM*
G04 File Format:  Gerber RS274X*
G04 File Origin:  Cadence Allegro 16.6-P004*
G04 Origin Date:  Thu Oct 06 09:45:18 2016*
G04 *
G04 Layer:  BOARD GEOMETRY/SILKSCREEN_BOTTOM*
G04 Layer:  PACKAGE GEOMETRY/SILKSCREEN_BOTTOM*
G04 Layer:  REF DES/SILKSCREEN_BOTTOM*
G04 Layer:  BOARD GEOMETRY/OUTLINE*
G04 *
G04 Offset:    (0.000 0.000)*
G04 Mirror:    No*
G04 Mode:      Positive*
G04 Rotation:  0*
G04 FullContactRelief:  No*
G04 UndefLineWidth:     6.000*
G04 ================== end FILE IDENTIFICATION RECORD ====================*
%FSLAX35Y35*MOIN*%
%IR0*IPPOS*OFA0.00000B0.00000*MIA0B0*SFA1.00000B1.00000*%
%ADD10C,.006*%
G75*
%LPD*%
G75*
G54D10*
G01X-196850Y-157480D02*
Y157480D01*
X196850D01*
Y-157480D01*
X-196850D01*
G01X-132493Y-65658D02*
X-132263Y-65503D01*
X-131995Y-65400D01*
X-131688D01*
X-131343Y-65555D01*
X-131075Y-65813D01*
X-130883Y-66123D01*
X-130730Y-66640D01*
X-130692Y-67105D01*
X-130768Y-67570D01*
X-130883Y-67880D01*
X-131113Y-68190D01*
X-131382Y-68397D01*
X-131650Y-68500D01*
X-131918D01*
X-132187Y-68397D01*
X-132417Y-68242D01*
X-132608Y-68035D01*
G01X-134750Y-68500D02*
X-135018Y-68448D01*
X-135325Y-68293D01*
X-135517Y-68035D01*
X-135593Y-67673D01*
X-135517Y-67312D01*
X-135287Y-67002D01*
X-134942Y-66847D01*
X-134558D01*
X-134328Y-66743D01*
X-134137Y-66485D01*
X-134060Y-66123D01*
X-134175Y-65762D01*
X-134443Y-65503D01*
X-134750Y-65400D01*
X-135057Y-65503D01*
X-135325Y-65762D01*
X-135440Y-66123D01*
X-135363Y-66485D01*
X-135172Y-66743D01*
X-134942Y-66847D01*
X-134558D01*
X-134213Y-67002D01*
X-133983Y-67312D01*
X-133907Y-67673D01*
X-133983Y-68035D01*
X-134175Y-68293D01*
X-134482Y-68448D01*
X-134750Y-68500D01*
G01X-137198Y-68138D02*
X-137467Y-68397D01*
X-137773Y-68500D01*
X-138080Y-68397D01*
X-138348Y-68087D01*
X-138540Y-67622D01*
X-138617Y-67157D01*
Y-66588D01*
X-138540Y-66123D01*
X-138348Y-65710D01*
X-138118Y-65503D01*
X-137850Y-65400D01*
X-137543Y-65503D01*
X-137313Y-65710D01*
X-137160Y-66020D01*
X-137083Y-66433D01*
X-137160Y-66795D01*
X-137352Y-67157D01*
X-137582Y-67363D01*
X-137850Y-67415D01*
X-138157Y-67312D01*
X-138387Y-67053D01*
X-138617Y-66588D01*
G01X-128883Y-50000D02*
Y-46900D01*
X-129842D01*
X-130148Y-47055D01*
X-130340Y-47262D01*
X-130417Y-47675D01*
X-130340Y-48088D01*
X-130110Y-48347D01*
X-129842Y-48502D01*
X-128883D01*
G01X-129842D02*
X-130417Y-50000D01*
G01X-132750D02*
Y-46900D01*
X-132290Y-47520D01*
G01Y-50000D02*
X-133210D01*
G01X-135850D02*
Y-46900D01*
X-135390Y-47520D01*
G01Y-50000D02*
X-136310D01*
G01X-138107Y-49380D02*
X-138337Y-49742D01*
X-138643Y-49948D01*
X-138988Y-50000D01*
X-139295Y-49948D01*
X-139602Y-49690D01*
X-139793Y-49380D01*
X-139832Y-49070D01*
X-139755Y-48708D01*
X-139487Y-48450D01*
X-139218Y-48347D01*
X-138873D01*
G01X-139218D02*
X-139448Y-48192D01*
X-139640Y-47933D01*
X-139717Y-47623D01*
X-139640Y-47313D01*
X-139448Y-47055D01*
X-139103Y-46900D01*
X-138758Y-46952D01*
X-138413Y-47158D01*
G01X-128883Y-59000D02*
Y-55900D01*
X-129842D01*
X-130148Y-56055D01*
X-130340Y-56262D01*
X-130417Y-56675D01*
X-130340Y-57088D01*
X-130110Y-57347D01*
X-129842Y-57502D01*
X-128883D01*
G01X-129842D02*
X-130417Y-59000D01*
G01X-132750D02*
Y-55900D01*
X-132290Y-56520D01*
G01Y-59000D02*
X-133210D01*
G01X-135850D02*
Y-55900D01*
X-135390Y-56520D01*
G01Y-59000D02*
X-136310D01*
G01X-138222Y-56417D02*
X-138452Y-56107D01*
X-138720Y-55952D01*
X-139027Y-55900D01*
X-139410Y-56003D01*
X-139678Y-56262D01*
X-139755Y-56572D01*
X-139717Y-56882D01*
X-139563Y-57140D01*
X-138797Y-57657D01*
X-138452Y-58018D01*
X-138222Y-58535D01*
X-138145Y-59000D01*
X-139755D01*
G01X-128883Y-42000D02*
Y-38900D01*
X-129842D01*
X-130148Y-39055D01*
X-130340Y-39262D01*
X-130417Y-39675D01*
X-130340Y-40088D01*
X-130110Y-40347D01*
X-129842Y-40502D01*
X-128883D01*
G01X-129842D02*
X-130417Y-42000D01*
G01X-132750D02*
Y-38900D01*
X-132290Y-39520D01*
G01Y-42000D02*
X-133210D01*
G01X-135850D02*
Y-38900D01*
X-135390Y-39520D01*
G01Y-42000D02*
X-136310D01*
G01X-138222Y-40708D02*
X-138490Y-40347D01*
X-138720Y-40140D01*
X-139027Y-40037D01*
X-139295Y-40140D01*
X-139487Y-40347D01*
X-139640Y-40657D01*
X-139678Y-41018D01*
X-139640Y-41328D01*
X-139487Y-41638D01*
X-139257Y-41897D01*
X-138988Y-42000D01*
X-138682Y-41897D01*
X-138413Y-41587D01*
X-138260Y-41122D01*
X-138222Y-40605D01*
X-138298Y-39933D01*
X-138413Y-39572D01*
X-138605Y-39210D01*
X-138873Y-38952D01*
X-139142Y-38900D01*
X-139410Y-39003D01*
X-139602Y-39262D01*
G01X-128383Y-24000D02*
Y-20900D01*
X-129342D01*
X-129648Y-21055D01*
X-129840Y-21262D01*
X-129917Y-21675D01*
X-129840Y-22088D01*
X-129610Y-22347D01*
X-129342Y-22502D01*
X-128383D01*
G01X-129342D02*
X-129917Y-24000D01*
G01X-132250D02*
Y-20900D01*
X-131790Y-21520D01*
G01Y-24000D02*
X-132710D01*
G01X-135350Y-20900D02*
X-135043Y-21003D01*
X-134813Y-21262D01*
X-134660Y-21572D01*
X-134545Y-21985D01*
X-134507Y-22450D01*
X-134545Y-22915D01*
X-134660Y-23328D01*
X-134813Y-23638D01*
X-135043Y-23897D01*
X-135350Y-24000D01*
X-135657Y-23897D01*
X-135887Y-23638D01*
X-136040Y-23328D01*
X-136155Y-22915D01*
X-136193Y-22450D01*
X-136155Y-21985D01*
X-136040Y-21572D01*
X-135887Y-21262D01*
X-135657Y-21003D01*
X-135350Y-20900D01*
G01X-137607Y-23535D02*
X-137837Y-23793D01*
X-138105Y-23948D01*
X-138450Y-24000D01*
X-138795Y-23897D01*
X-139063Y-23690D01*
X-139255Y-23328D01*
X-139293Y-22915D01*
X-139217Y-22502D01*
X-139025Y-22243D01*
X-138757Y-22037D01*
X-138488Y-21985D01*
X-138220Y-22037D01*
X-137875Y-22243D01*
X-137990Y-20900D01*
X-139025D01*
G01X-132493Y-30158D02*
X-132263Y-30003D01*
X-131995Y-29900D01*
X-131688D01*
X-131343Y-30055D01*
X-131075Y-30313D01*
X-130883Y-30623D01*
X-130730Y-31140D01*
X-130692Y-31605D01*
X-130768Y-32070D01*
X-130883Y-32380D01*
X-131113Y-32690D01*
X-131382Y-32897D01*
X-131650Y-33000D01*
X-131918D01*
X-132187Y-32897D01*
X-132417Y-32742D01*
X-132608Y-32535D01*
G01X-134750Y-33000D02*
X-135018Y-32948D01*
X-135325Y-32793D01*
X-135517Y-32535D01*
X-135593Y-32173D01*
X-135517Y-31812D01*
X-135287Y-31502D01*
X-134942Y-31347D01*
X-134558D01*
X-134328Y-31243D01*
X-134137Y-30985D01*
X-134060Y-30623D01*
X-134175Y-30262D01*
X-134443Y-30003D01*
X-134750Y-29900D01*
X-135057Y-30003D01*
X-135325Y-30262D01*
X-135440Y-30623D01*
X-135363Y-30985D01*
X-135172Y-31243D01*
X-134942Y-31347D01*
X-134558D01*
X-134213Y-31502D01*
X-133983Y-31812D01*
X-133907Y-32173D01*
X-133983Y-32535D01*
X-134175Y-32793D01*
X-134482Y-32948D01*
X-134750Y-33000D01*
G01X-137773D02*
X-137850Y-32328D01*
X-137965Y-31760D01*
X-138118Y-31243D01*
X-138310Y-30675D01*
X-138617Y-29900D01*
X-137083D01*
G01X-128883Y-15500D02*
Y-12400D01*
X-129842D01*
X-130148Y-12555D01*
X-130340Y-12762D01*
X-130417Y-13175D01*
X-130340Y-13588D01*
X-130110Y-13847D01*
X-129842Y-14002D01*
X-128883D01*
G01X-129842D02*
X-130417Y-15500D01*
G01X-132750D02*
Y-12400D01*
X-132290Y-13020D01*
G01Y-15500D02*
X-133210D01*
G01X-135850Y-12400D02*
X-135543Y-12503D01*
X-135313Y-12762D01*
X-135160Y-13072D01*
X-135045Y-13485D01*
X-135007Y-13950D01*
X-135045Y-14415D01*
X-135160Y-14828D01*
X-135313Y-15138D01*
X-135543Y-15397D01*
X-135850Y-15500D01*
X-136157Y-15397D01*
X-136387Y-15138D01*
X-136540Y-14828D01*
X-136655Y-14415D01*
X-136693Y-13950D01*
X-136655Y-13485D01*
X-136540Y-13072D01*
X-136387Y-12762D01*
X-136157Y-12503D01*
X-135850Y-12400D01*
G01X-138222Y-14208D02*
X-138490Y-13847D01*
X-138720Y-13640D01*
X-139027Y-13537D01*
X-139295Y-13640D01*
X-139487Y-13847D01*
X-139640Y-14157D01*
X-139678Y-14518D01*
X-139640Y-14828D01*
X-139487Y-15138D01*
X-139257Y-15397D01*
X-138988Y-15500D01*
X-138682Y-15397D01*
X-138413Y-15087D01*
X-138260Y-14622D01*
X-138222Y-14105D01*
X-138298Y-13433D01*
X-138413Y-13072D01*
X-138605Y-12710D01*
X-138873Y-12452D01*
X-139142Y-12400D01*
X-139410Y-12503D01*
X-139602Y-12762D01*
G01X-128336Y-6890D02*
Y-3790D01*
X-129294D01*
X-129601Y-3945D01*
X-129793Y-4152D01*
X-129870Y-4565D01*
X-129793Y-4978D01*
X-129563Y-5236D01*
X-129294Y-5392D01*
X-128336D01*
G01X-129294D02*
X-129870Y-6890D01*
G01X-132203D02*
Y-3790D01*
X-131743Y-4410D01*
G01Y-6890D02*
X-132663D01*
G01X-135303Y-3790D02*
X-134996Y-3893D01*
X-134766Y-4152D01*
X-134613Y-4461D01*
X-134498Y-4875D01*
X-134460Y-5340D01*
X-134498Y-5805D01*
X-134613Y-6218D01*
X-134766Y-6528D01*
X-134996Y-6786D01*
X-135303Y-6890D01*
X-135609Y-6786D01*
X-135840Y-6528D01*
X-135993Y-6218D01*
X-136108Y-5805D01*
X-136146Y-5340D01*
X-136108Y-4875D01*
X-135993Y-4461D01*
X-135840Y-4152D01*
X-135609Y-3893D01*
X-135303Y-3790D01*
G01X-137751Y-6528D02*
X-138019Y-6786D01*
X-138326Y-6890D01*
X-138633Y-6786D01*
X-138901Y-6477D01*
X-139093Y-6012D01*
X-139170Y-5547D01*
Y-4978D01*
X-139093Y-4513D01*
X-138901Y-4100D01*
X-138671Y-3893D01*
X-138403Y-3790D01*
X-138096Y-3893D01*
X-137866Y-4100D01*
X-137713Y-4410D01*
X-137636Y-4823D01*
X-137713Y-5185D01*
X-137904Y-5547D01*
X-138134Y-5753D01*
X-138403Y-5805D01*
X-138709Y-5702D01*
X-138940Y-5443D01*
X-139170Y-4978D01*
G01X-131993Y5842D02*
X-131763Y5997D01*
X-131495Y6100D01*
X-131188D01*
X-130843Y5945D01*
X-130575Y5687D01*
X-130383Y5377D01*
X-130230Y4860D01*
X-130192Y4395D01*
X-130268Y3930D01*
X-130383Y3620D01*
X-130613Y3310D01*
X-130882Y3103D01*
X-131150Y3000D01*
X-131418D01*
X-131687Y3103D01*
X-131917Y3258D01*
X-132108Y3465D01*
G01X-134250Y3000D02*
X-134518Y3052D01*
X-134825Y3207D01*
X-135017Y3465D01*
X-135093Y3827D01*
X-135017Y4188D01*
X-134787Y4498D01*
X-134442Y4653D01*
X-134058D01*
X-133828Y4757D01*
X-133637Y5015D01*
X-133560Y5377D01*
X-133675Y5738D01*
X-133943Y5997D01*
X-134250Y6100D01*
X-134557Y5997D01*
X-134825Y5738D01*
X-134940Y5377D01*
X-134863Y5015D01*
X-134672Y4757D01*
X-134442Y4653D01*
X-134058D01*
X-133713Y4498D01*
X-133483Y4188D01*
X-133407Y3827D01*
X-133483Y3465D01*
X-133675Y3207D01*
X-133982Y3052D01*
X-134250Y3000D01*
G01X-137350D02*
X-137618Y3052D01*
X-137925Y3207D01*
X-138117Y3465D01*
X-138193Y3827D01*
X-138117Y4188D01*
X-137887Y4498D01*
X-137542Y4653D01*
X-137158D01*
X-136928Y4757D01*
X-136737Y5015D01*
X-136660Y5377D01*
X-136775Y5738D01*
X-137043Y5997D01*
X-137350Y6100D01*
X-137657Y5997D01*
X-137925Y5738D01*
X-138040Y5377D01*
X-137963Y5015D01*
X-137772Y4757D01*
X-137542Y4653D01*
X-137158D01*
X-136813Y4498D01*
X-136583Y4188D01*
X-136507Y3827D01*
X-136583Y3465D01*
X-136775Y3207D01*
X-137082Y3052D01*
X-137350Y3000D01*
G01X-129383Y23000D02*
Y26100D01*
X-130342D01*
X-130648Y25945D01*
X-130840Y25738D01*
X-130917Y25325D01*
X-130840Y24912D01*
X-130610Y24653D01*
X-130342Y24498D01*
X-129383D01*
G01X-130342D02*
X-130917Y23000D01*
G01X-132522Y25583D02*
X-132752Y25893D01*
X-133020Y26048D01*
X-133327Y26100D01*
X-133710Y25997D01*
X-133978Y25738D01*
X-134055Y25428D01*
X-134017Y25118D01*
X-133863Y24860D01*
X-133097Y24343D01*
X-132752Y23982D01*
X-132522Y23465D01*
X-132445Y23000D01*
X-134055D01*
G01X-132493Y38342D02*
X-132263Y38497D01*
X-131995Y38600D01*
X-131688D01*
X-131343Y38445D01*
X-131075Y38187D01*
X-130883Y37877D01*
X-130730Y37360D01*
X-130692Y36895D01*
X-130768Y36430D01*
X-130883Y36120D01*
X-131113Y35810D01*
X-131382Y35603D01*
X-131650Y35500D01*
X-131918D01*
X-132187Y35603D01*
X-132417Y35758D01*
X-132608Y35965D01*
G01X-134022Y38083D02*
X-134252Y38393D01*
X-134520Y38548D01*
X-134827Y38600D01*
X-135210Y38497D01*
X-135478Y38238D01*
X-135555Y37928D01*
X-135517Y37618D01*
X-135363Y37360D01*
X-134597Y36843D01*
X-134252Y36482D01*
X-134022Y35965D01*
X-133945Y35500D01*
X-135555D01*
G01X-132493Y49842D02*
X-132263Y49997D01*
X-131995Y50100D01*
X-131688D01*
X-131343Y49945D01*
X-131075Y49687D01*
X-130883Y49377D01*
X-130730Y48860D01*
X-130692Y48395D01*
X-130768Y47930D01*
X-130883Y47620D01*
X-131113Y47310D01*
X-131382Y47103D01*
X-131650Y47000D01*
X-131918D01*
X-132187Y47103D01*
X-132417Y47258D01*
X-132608Y47465D01*
G01X-134750Y47000D02*
Y50100D01*
X-134290Y49480D01*
G01Y47000D02*
X-135210D01*
G01X-125047Y-62929D02*
G03Y-70929I0J-4000D01*
G01Y-62929D02*
X-110047D01*
G01X-125047Y-70929D02*
X-110047D01*
G01X-127047Y-45213D02*
X-108047D01*
Y-53213D01*
X-127047D01*
Y-45213D01*
G01Y-54071D02*
X-108047D01*
Y-62071D01*
X-127047D01*
Y-54071D01*
G01X-108189Y-44354D02*
X-127189D01*
Y-36354D01*
X-108189D01*
Y-44354D01*
G01X-127047Y-18638D02*
X-108047D01*
Y-26638D01*
X-127047D01*
Y-18638D01*
G01X-125047Y-27496D02*
G03Y-35496I0J-4000D01*
G01Y-27496D02*
X-110047D01*
G01X-125047Y-35496D02*
X-110047D01*
G01X-127047Y-9780D02*
X-108047D01*
Y-17779D01*
X-127047D01*
Y-9780D01*
G01Y-921D02*
X-108047D01*
Y-8921D01*
X-127047D01*
Y-921D01*
G01X-125047Y7937D02*
G03Y-63I0J-4000D01*
G01D02*
X-110047D01*
G01X-125047Y7937D02*
X-110047D01*
G01X-108000Y21000D02*
X-127000D01*
Y29000D01*
X-108000D01*
Y21000D01*
G01X-125000Y44000D02*
G02Y52000I0J4000D01*
G01X-110000Y44000D02*
X-125000D01*
G01Y41000D02*
G03Y33000I0J-4000D01*
G01Y41000D02*
X-110000D01*
G01X-125000Y33000D02*
X-110000D01*
G01Y52000D02*
X-125000D01*
G01X-110047Y-62929D02*
G02Y-70929I0J-4000D01*
G01Y-27496D02*
G02Y-35496I0J-4000D01*
G01Y7937D02*
G02Y-63I0J-4000D01*
G01X-110000Y44000D02*
G03Y52000I0J4000D01*
G01Y41000D02*
G02Y33000I0J-4000D01*
G01X-79646Y-117189D02*
X-98646D01*
Y-109189D01*
X-79646D01*
Y-117189D01*
G01Y-126047D02*
X-98646D01*
Y-118047D01*
X-79646D01*
Y-126047D01*
G01Y-108331D02*
X-98646D01*
Y-100331D01*
X-79646D01*
Y-108331D01*
G01Y-98488D02*
X-98646D01*
Y-90488D01*
X-79646D01*
Y-98488D01*
G01X-96504Y-76709D02*
G03Y-84709I0J-4000D01*
G01Y-76709D02*
X-81504D01*
G01X-96504Y-84709D02*
X-81504D01*
G01X-79646Y-70929D02*
X-98646D01*
Y-62929D01*
X-79646D01*
Y-70929D01*
G01Y-62071D02*
X-98646D01*
Y-54071D01*
X-79646D01*
Y-62071D01*
G01X-98504Y-45213D02*
X-79504D01*
Y-53213D01*
X-98504D01*
Y-45213D01*
G01X-79646Y-44354D02*
X-98646D01*
Y-36354D01*
X-79646D01*
Y-44354D01*
G01Y-26638D02*
X-98646D01*
Y-18638D01*
X-79646D01*
Y-26638D01*
G01X-96646Y-35496D02*
G02Y-27496I0J4000D01*
G01X-81646Y-35496D02*
X-96646D01*
G01X-81646Y-27496D02*
X-96646D01*
G01X-98504Y-9780D02*
X-79504D01*
Y-17779D01*
X-98504D01*
Y-9780D01*
G01X-79646Y-8921D02*
X-98646D01*
Y-921D01*
X-79646D01*
Y-8921D01*
G01Y-63D02*
X-98646D01*
Y7937D01*
X-79646D01*
Y-63D01*
G01X-98000Y29000D02*
G03Y21000I0J-4000D01*
G01Y29000D02*
X-83000D01*
G01X-98000Y21000D02*
X-83000D01*
G01X-100000Y41000D02*
X-81000D01*
Y33000D01*
X-100000D01*
Y41000D01*
G01Y52000D02*
X-81000D01*
Y44000D01*
X-100000D01*
Y52000D01*
G01X-92500Y117500D02*
G02Y125500I0J4000D01*
G01Y126500D02*
G02Y134500I0J4000D01*
G01X-95000Y152500D02*
X-76000D01*
Y144500D01*
X-95000D01*
Y152500D01*
G01X-81504Y-76709D02*
G02Y-84709I0J-4000D01*
G01X-81646Y-35496D02*
G03Y-27496I0J4000D01*
G01X-83000Y29000D02*
G02Y21000I0J-4000D01*
G01X-84493Y73342D02*
X-84263Y73497D01*
X-83995Y73600D01*
X-83688D01*
X-83343Y73445D01*
X-83075Y73187D01*
X-82883Y72877D01*
X-82730Y72360D01*
X-82692Y71895D01*
X-82768Y71430D01*
X-82883Y71120D01*
X-83113Y70810D01*
X-83382Y70603D01*
X-83650Y70500D01*
X-83918D01*
X-84187Y70603D01*
X-84417Y70758D01*
X-84608Y70965D01*
G01X-86022Y71792D02*
X-86290Y72153D01*
X-86520Y72360D01*
X-86827Y72463D01*
X-87095Y72360D01*
X-87287Y72153D01*
X-87440Y71843D01*
X-87478Y71482D01*
X-87440Y71172D01*
X-87287Y70862D01*
X-87057Y70603D01*
X-86788Y70500D01*
X-86482Y70603D01*
X-86213Y70913D01*
X-86060Y71378D01*
X-86022Y71895D01*
X-86098Y72567D01*
X-86213Y72928D01*
X-86405Y73290D01*
X-86673Y73548D01*
X-86942Y73600D01*
X-87210Y73497D01*
X-87402Y73238D01*
G01X-77945Y67850D02*
G02Y75850I0J4000D01*
G01X-84493Y84342D02*
X-84263Y84497D01*
X-83995Y84600D01*
X-83688D01*
X-83343Y84445D01*
X-83075Y84187D01*
X-82883Y83877D01*
X-82730Y83360D01*
X-82692Y82895D01*
X-82768Y82430D01*
X-82883Y82120D01*
X-83113Y81810D01*
X-83382Y81603D01*
X-83650Y81500D01*
X-83918D01*
X-84187Y81603D01*
X-84417Y81758D01*
X-84608Y81965D01*
G01X-85907D02*
X-86137Y81707D01*
X-86405Y81552D01*
X-86750Y81500D01*
X-87095Y81603D01*
X-87363Y81810D01*
X-87555Y82172D01*
X-87593Y82585D01*
X-87517Y82998D01*
X-87325Y83257D01*
X-87057Y83463D01*
X-86788Y83515D01*
X-86520Y83463D01*
X-86175Y83257D01*
X-86290Y84600D01*
X-87325D01*
G01X-77945Y78677D02*
G02Y86677I0J4000D01*
G01X-78493Y102842D02*
X-78263Y102997D01*
X-77995Y103100D01*
X-77688D01*
X-77343Y102945D01*
X-77075Y102687D01*
X-76883Y102377D01*
X-76730Y101860D01*
X-76692Y101395D01*
X-76768Y100930D01*
X-76883Y100620D01*
X-77113Y100310D01*
X-77382Y100103D01*
X-77650Y100000D01*
X-77918D01*
X-78187Y100103D01*
X-78417Y100258D01*
X-78608Y100465D01*
G01X-81210Y100000D02*
Y103100D01*
X-79792Y100878D01*
X-81708D01*
G01X-83007Y100620D02*
X-83237Y100258D01*
X-83543Y100052D01*
X-83888Y100000D01*
X-84195Y100052D01*
X-84502Y100310D01*
X-84693Y100620D01*
X-84732Y100930D01*
X-84655Y101292D01*
X-84387Y101550D01*
X-84118Y101653D01*
X-83773D01*
G01X-84118D02*
X-84348Y101808D01*
X-84540Y102067D01*
X-84617Y102377D01*
X-84540Y102687D01*
X-84348Y102945D01*
X-84003Y103100D01*
X-83658Y103048D01*
X-83313Y102842D01*
G01X-74383Y112500D02*
Y115600D01*
X-75342D01*
X-75648Y115445D01*
X-75840Y115238D01*
X-75917Y114825D01*
X-75840Y114412D01*
X-75610Y114153D01*
X-75342Y113998D01*
X-74383D01*
G01X-75342D02*
X-75917Y112500D01*
G01X-77407Y112965D02*
X-77637Y112707D01*
X-77905Y112552D01*
X-78250Y112500D01*
X-78595Y112603D01*
X-78863Y112810D01*
X-79055Y113172D01*
X-79093Y113585D01*
X-79017Y113998D01*
X-78825Y114257D01*
X-78557Y114463D01*
X-78288Y114515D01*
X-78020Y114463D01*
X-77675Y114257D01*
X-77790Y115600D01*
X-78825D01*
G01X-80507Y112965D02*
X-80737Y112707D01*
X-81005Y112552D01*
X-81350Y112500D01*
X-81695Y112603D01*
X-81963Y112810D01*
X-82155Y113172D01*
X-82193Y113585D01*
X-82117Y113998D01*
X-81925Y114257D01*
X-81657Y114463D01*
X-81388Y114515D01*
X-81120Y114463D01*
X-80775Y114257D01*
X-80890Y115600D01*
X-81925D01*
G01X-77500Y117500D02*
X-92500D01*
G01X-77500Y126500D02*
X-92500D01*
G01X-77500Y134500D02*
X-92500D01*
G01X-77500Y125500D02*
X-92500D01*
G01X-70383Y-115000D02*
Y-111900D01*
X-71342D01*
X-71648Y-112055D01*
X-71840Y-112262D01*
X-71917Y-112675D01*
X-71840Y-113088D01*
X-71610Y-113347D01*
X-71342Y-113502D01*
X-70383D01*
G01X-71342D02*
X-71917Y-115000D01*
G01X-73522Y-112417D02*
X-73752Y-112107D01*
X-74020Y-111952D01*
X-74327Y-111900D01*
X-74710Y-112003D01*
X-74978Y-112262D01*
X-75055Y-112572D01*
X-75017Y-112882D01*
X-74863Y-113140D01*
X-74097Y-113657D01*
X-73752Y-114018D01*
X-73522Y-114535D01*
X-73445Y-115000D01*
X-75055D01*
G01X-76622Y-113708D02*
X-76890Y-113347D01*
X-77120Y-113140D01*
X-77427Y-113037D01*
X-77695Y-113140D01*
X-77887Y-113347D01*
X-78040Y-113657D01*
X-78078Y-114018D01*
X-78040Y-114328D01*
X-77887Y-114638D01*
X-77657Y-114897D01*
X-77388Y-115000D01*
X-77082Y-114897D01*
X-76813Y-114587D01*
X-76660Y-114122D01*
X-76622Y-113605D01*
X-76698Y-112933D01*
X-76813Y-112572D01*
X-77005Y-112210D01*
X-77273Y-111952D01*
X-77542Y-111900D01*
X-77810Y-112003D01*
X-78002Y-112262D01*
G01X-70383Y-124000D02*
Y-120900D01*
X-71342D01*
X-71648Y-121055D01*
X-71840Y-121262D01*
X-71917Y-121675D01*
X-71840Y-122088D01*
X-71610Y-122347D01*
X-71342Y-122502D01*
X-70383D01*
G01X-71342D02*
X-71917Y-124000D01*
G01X-73522Y-121417D02*
X-73752Y-121107D01*
X-74020Y-120952D01*
X-74327Y-120900D01*
X-74710Y-121003D01*
X-74978Y-121262D01*
X-75055Y-121572D01*
X-75017Y-121882D01*
X-74863Y-122140D01*
X-74097Y-122657D01*
X-73752Y-123018D01*
X-73522Y-123535D01*
X-73445Y-124000D01*
X-75055D01*
G01X-77810D02*
Y-120900D01*
X-76392Y-123122D01*
X-78308D01*
G01X-70383Y-106000D02*
Y-102900D01*
X-71342D01*
X-71648Y-103055D01*
X-71840Y-103262D01*
X-71917Y-103675D01*
X-71840Y-104088D01*
X-71610Y-104347D01*
X-71342Y-104502D01*
X-70383D01*
G01X-71342D02*
X-71917Y-106000D01*
G01X-73522Y-103417D02*
X-73752Y-103107D01*
X-74020Y-102952D01*
X-74327Y-102900D01*
X-74710Y-103003D01*
X-74978Y-103262D01*
X-75055Y-103572D01*
X-75017Y-103882D01*
X-74863Y-104140D01*
X-74097Y-104657D01*
X-73752Y-105018D01*
X-73522Y-105535D01*
X-73445Y-106000D01*
X-75055D01*
G01X-77350D02*
X-77618Y-105948D01*
X-77925Y-105793D01*
X-78117Y-105535D01*
X-78193Y-105173D01*
X-78117Y-104812D01*
X-77887Y-104502D01*
X-77542Y-104347D01*
X-77158D01*
X-76928Y-104243D01*
X-76737Y-103985D01*
X-76660Y-103623D01*
X-76775Y-103262D01*
X-77043Y-103003D01*
X-77350Y-102900D01*
X-77657Y-103003D01*
X-77925Y-103262D01*
X-78040Y-103623D01*
X-77963Y-103985D01*
X-77772Y-104243D01*
X-77542Y-104347D01*
X-77158D01*
X-76813Y-104502D01*
X-76583Y-104812D01*
X-76507Y-105173D01*
X-76583Y-105535D01*
X-76775Y-105793D01*
X-77082Y-105948D01*
X-77350Y-106000D01*
G01X-70383Y-96000D02*
Y-92900D01*
X-71342D01*
X-71648Y-93055D01*
X-71840Y-93262D01*
X-71917Y-93675D01*
X-71840Y-94088D01*
X-71610Y-94347D01*
X-71342Y-94502D01*
X-70383D01*
G01X-71342D02*
X-71917Y-96000D01*
G01X-73407Y-95380D02*
X-73637Y-95742D01*
X-73943Y-95948D01*
X-74288Y-96000D01*
X-74595Y-95948D01*
X-74902Y-95690D01*
X-75093Y-95380D01*
X-75132Y-95070D01*
X-75055Y-94708D01*
X-74787Y-94450D01*
X-74518Y-94347D01*
X-74173D01*
G01X-74518D02*
X-74748Y-94192D01*
X-74940Y-93933D01*
X-75017Y-93623D01*
X-74940Y-93313D01*
X-74748Y-93055D01*
X-74403Y-92900D01*
X-74058Y-92952D01*
X-73713Y-93158D01*
G01X-76507Y-95380D02*
X-76737Y-95742D01*
X-77043Y-95948D01*
X-77388Y-96000D01*
X-77695Y-95948D01*
X-78002Y-95690D01*
X-78193Y-95380D01*
X-78232Y-95070D01*
X-78155Y-94708D01*
X-77887Y-94450D01*
X-77618Y-94347D01*
X-77273D01*
G01X-77618D02*
X-77848Y-94192D01*
X-78040Y-93933D01*
X-78117Y-93623D01*
X-78040Y-93313D01*
X-77848Y-93055D01*
X-77503Y-92900D01*
X-77158Y-92952D01*
X-76813Y-93158D01*
G01X-70891Y-79836D02*
X-70661Y-79680D01*
X-70393Y-79577D01*
X-70086D01*
X-69741Y-79732D01*
X-69473Y-79990D01*
X-69281Y-80301D01*
X-69128Y-80817D01*
X-69089Y-81282D01*
X-69166Y-81747D01*
X-69281Y-82057D01*
X-69511Y-82367D01*
X-69779Y-82574D01*
X-70048Y-82677D01*
X-70316D01*
X-70584Y-82574D01*
X-70814Y-82419D01*
X-71006Y-82212D01*
G01X-73148Y-82677D02*
Y-79577D01*
X-72688Y-80197D01*
G01Y-82677D02*
X-73608D01*
G01X-76248D02*
Y-79577D01*
X-75788Y-80197D01*
G01Y-82677D02*
X-76708D01*
G01X-67383Y-69000D02*
Y-65900D01*
X-68342D01*
X-68648Y-66055D01*
X-68840Y-66262D01*
X-68917Y-66675D01*
X-68840Y-67088D01*
X-68610Y-67347D01*
X-68342Y-67502D01*
X-67383D01*
G01X-68342D02*
X-68917Y-69000D01*
G01X-71250D02*
Y-65900D01*
X-70790Y-66520D01*
G01Y-69000D02*
X-71710D01*
G01X-74350D02*
Y-65900D01*
X-73890Y-66520D01*
G01Y-69000D02*
X-74810D01*
G01X-77910D02*
Y-65900D01*
X-76492Y-68122D01*
X-78408D01*
G01X-67383Y-59500D02*
Y-56400D01*
X-68342D01*
X-68648Y-56555D01*
X-68840Y-56762D01*
X-68917Y-57175D01*
X-68840Y-57588D01*
X-68610Y-57847D01*
X-68342Y-58002D01*
X-67383D01*
G01X-68342D02*
X-68917Y-59500D01*
G01X-71250D02*
Y-56400D01*
X-70790Y-57020D01*
G01Y-59500D02*
X-71710D01*
G01X-74350D02*
Y-56400D01*
X-73890Y-57020D01*
G01Y-59500D02*
X-74810D01*
G01X-77373D02*
X-77450Y-58828D01*
X-77565Y-58260D01*
X-77718Y-57743D01*
X-77910Y-57175D01*
X-78217Y-56400D01*
X-76683D01*
G01X-67883Y-51000D02*
Y-47900D01*
X-68842D01*
X-69148Y-48055D01*
X-69340Y-48262D01*
X-69417Y-48675D01*
X-69340Y-49088D01*
X-69110Y-49347D01*
X-68842Y-49502D01*
X-67883D01*
G01X-68842D02*
X-69417Y-51000D01*
G01X-71750D02*
Y-47900D01*
X-71290Y-48520D01*
G01Y-51000D02*
X-72210D01*
G01X-74850D02*
Y-47900D01*
X-74390Y-48520D01*
G01Y-51000D02*
X-75310D01*
G01X-77107Y-50535D02*
X-77337Y-50793D01*
X-77605Y-50948D01*
X-77950Y-51000D01*
X-78295Y-50897D01*
X-78563Y-50690D01*
X-78755Y-50328D01*
X-78793Y-49915D01*
X-78717Y-49502D01*
X-78525Y-49243D01*
X-78257Y-49037D01*
X-77988Y-48985D01*
X-77720Y-49037D01*
X-77375Y-49243D01*
X-77490Y-47900D01*
X-78525D01*
G01X-67383Y-42500D02*
Y-39400D01*
X-68342D01*
X-68648Y-39555D01*
X-68840Y-39762D01*
X-68917Y-40175D01*
X-68840Y-40588D01*
X-68610Y-40847D01*
X-68342Y-41002D01*
X-67383D01*
G01X-68342D02*
X-68917Y-42500D01*
G01X-71250D02*
Y-39400D01*
X-70790Y-40020D01*
G01Y-42500D02*
X-71710D01*
G01X-74350D02*
Y-39400D01*
X-73890Y-40020D01*
G01Y-42500D02*
X-74810D01*
G01X-77450D02*
X-77718Y-42448D01*
X-78025Y-42293D01*
X-78217Y-42035D01*
X-78293Y-41673D01*
X-78217Y-41312D01*
X-77987Y-41002D01*
X-77642Y-40847D01*
X-77258D01*
X-77028Y-40743D01*
X-76837Y-40485D01*
X-76760Y-40123D01*
X-76875Y-39762D01*
X-77143Y-39503D01*
X-77450Y-39400D01*
X-77757Y-39503D01*
X-78025Y-39762D01*
X-78140Y-40123D01*
X-78063Y-40485D01*
X-77872Y-40743D01*
X-77642Y-40847D01*
X-77258D01*
X-76913Y-41002D01*
X-76683Y-41312D01*
X-76607Y-41673D01*
X-76683Y-42035D01*
X-76875Y-42293D01*
X-77182Y-42448D01*
X-77450Y-42500D01*
G01X-67883Y-25000D02*
Y-21900D01*
X-68842D01*
X-69148Y-22055D01*
X-69340Y-22262D01*
X-69417Y-22675D01*
X-69340Y-23088D01*
X-69110Y-23347D01*
X-68842Y-23502D01*
X-67883D01*
G01X-68842D02*
X-69417Y-25000D01*
G01X-71750D02*
Y-21900D01*
X-71290Y-22520D01*
G01Y-25000D02*
X-72210D01*
G01X-74850Y-21900D02*
X-74543Y-22003D01*
X-74313Y-22262D01*
X-74160Y-22572D01*
X-74045Y-22985D01*
X-74007Y-23450D01*
X-74045Y-23915D01*
X-74160Y-24328D01*
X-74313Y-24638D01*
X-74543Y-24897D01*
X-74850Y-25000D01*
X-75157Y-24897D01*
X-75387Y-24638D01*
X-75540Y-24328D01*
X-75655Y-23915D01*
X-75693Y-23450D01*
X-75655Y-22985D01*
X-75540Y-22572D01*
X-75387Y-22262D01*
X-75157Y-22003D01*
X-74850Y-21900D01*
G01X-77873Y-25000D02*
X-77950Y-24328D01*
X-78065Y-23760D01*
X-78218Y-23243D01*
X-78410Y-22675D01*
X-78717Y-21900D01*
X-77183D01*
G01X-69993Y-30158D02*
X-69763Y-30003D01*
X-69495Y-29900D01*
X-69188D01*
X-68843Y-30055D01*
X-68575Y-30313D01*
X-68383Y-30623D01*
X-68230Y-31140D01*
X-68192Y-31605D01*
X-68268Y-32070D01*
X-68383Y-32380D01*
X-68613Y-32690D01*
X-68882Y-32897D01*
X-69150Y-33000D01*
X-69418D01*
X-69687Y-32897D01*
X-69917Y-32742D01*
X-70108Y-32535D01*
G01X-71598Y-32638D02*
X-71867Y-32897D01*
X-72173Y-33000D01*
X-72480Y-32897D01*
X-72748Y-32587D01*
X-72940Y-32122D01*
X-73017Y-31657D01*
Y-31088D01*
X-72940Y-30623D01*
X-72748Y-30210D01*
X-72518Y-30003D01*
X-72250Y-29900D01*
X-71943Y-30003D01*
X-71713Y-30210D01*
X-71560Y-30520D01*
X-71483Y-30933D01*
X-71560Y-31295D01*
X-71752Y-31657D01*
X-71982Y-31863D01*
X-72250Y-31915D01*
X-72557Y-31812D01*
X-72787Y-31553D01*
X-73017Y-31088D01*
G01X-75350Y-29900D02*
X-75043Y-30003D01*
X-74813Y-30262D01*
X-74660Y-30572D01*
X-74545Y-30985D01*
X-74507Y-31450D01*
X-74545Y-31915D01*
X-74660Y-32328D01*
X-74813Y-32638D01*
X-75043Y-32897D01*
X-75350Y-33000D01*
X-75657Y-32897D01*
X-75887Y-32638D01*
X-76040Y-32328D01*
X-76155Y-31915D01*
X-76193Y-31450D01*
X-76155Y-30985D01*
X-76040Y-30572D01*
X-75887Y-30262D01*
X-75657Y-30003D01*
X-75350Y-29900D01*
G01X-67883Y-15500D02*
Y-12400D01*
X-68842D01*
X-69148Y-12555D01*
X-69340Y-12762D01*
X-69417Y-13175D01*
X-69340Y-13588D01*
X-69110Y-13847D01*
X-68842Y-14002D01*
X-67883D01*
G01X-68842D02*
X-69417Y-15500D01*
G01X-71750D02*
Y-12400D01*
X-71290Y-13020D01*
G01Y-15500D02*
X-72210D01*
G01X-74850D02*
Y-12400D01*
X-74390Y-13020D01*
G01Y-15500D02*
X-75310D01*
G01X-77950Y-12400D02*
X-77643Y-12503D01*
X-77413Y-12762D01*
X-77260Y-13072D01*
X-77145Y-13485D01*
X-77107Y-13950D01*
X-77145Y-14415D01*
X-77260Y-14828D01*
X-77413Y-15138D01*
X-77643Y-15397D01*
X-77950Y-15500D01*
X-78257Y-15397D01*
X-78487Y-15138D01*
X-78640Y-14828D01*
X-78755Y-14415D01*
X-78793Y-13950D01*
X-78755Y-13485D01*
X-78640Y-13072D01*
X-78487Y-12762D01*
X-78257Y-12503D01*
X-77950Y-12400D01*
G01X-67883Y-6500D02*
Y-3400D01*
X-68842D01*
X-69148Y-3555D01*
X-69340Y-3762D01*
X-69417Y-4175D01*
X-69340Y-4588D01*
X-69110Y-4847D01*
X-68842Y-5002D01*
X-67883D01*
G01X-68842D02*
X-69417Y-6500D01*
G01X-71750D02*
Y-3400D01*
X-71290Y-4020D01*
G01Y-6500D02*
X-72210D01*
G01X-74850Y-3400D02*
X-74543Y-3503D01*
X-74313Y-3762D01*
X-74160Y-4072D01*
X-74045Y-4485D01*
X-74007Y-4950D01*
X-74045Y-5415D01*
X-74160Y-5828D01*
X-74313Y-6138D01*
X-74543Y-6397D01*
X-74850Y-6500D01*
X-75157Y-6397D01*
X-75387Y-6138D01*
X-75540Y-5828D01*
X-75655Y-5415D01*
X-75693Y-4950D01*
X-75655Y-4485D01*
X-75540Y-4072D01*
X-75387Y-3762D01*
X-75157Y-3503D01*
X-74850Y-3400D01*
G01X-77950Y-6500D02*
X-78218Y-6448D01*
X-78525Y-6293D01*
X-78717Y-6035D01*
X-78793Y-5673D01*
X-78717Y-5312D01*
X-78487Y-5002D01*
X-78142Y-4847D01*
X-77758D01*
X-77528Y-4743D01*
X-77337Y-4485D01*
X-77260Y-4123D01*
X-77375Y-3762D01*
X-77643Y-3503D01*
X-77950Y-3400D01*
X-78257Y-3503D01*
X-78525Y-3762D01*
X-78640Y-4123D01*
X-78563Y-4485D01*
X-78372Y-4743D01*
X-78142Y-4847D01*
X-77758D01*
X-77413Y-5002D01*
X-77183Y-5312D01*
X-77107Y-5673D01*
X-77183Y-6035D01*
X-77375Y-6293D01*
X-77682Y-6448D01*
X-77950Y-6500D01*
G01X-67383Y2500D02*
Y5600D01*
X-68342D01*
X-68648Y5445D01*
X-68840Y5238D01*
X-68917Y4825D01*
X-68840Y4412D01*
X-68610Y4153D01*
X-68342Y3998D01*
X-67383D01*
G01X-68342D02*
X-68917Y2500D01*
G01X-71250D02*
Y5600D01*
X-70790Y4980D01*
G01Y2500D02*
X-71710D01*
G01X-74350D02*
Y5600D01*
X-73890Y4980D01*
G01Y2500D02*
X-74810D01*
G01X-77450D02*
Y5600D01*
X-76990Y4980D01*
G01Y2500D02*
X-77910D01*
G01X-68500Y29000D02*
G03Y21000I0J-4000D01*
G01Y29000D02*
X-53500D01*
G01X-68500Y21000D02*
X-53500D01*
G01X-75493Y26342D02*
X-75263Y26497D01*
X-74995Y26600D01*
X-74688D01*
X-74343Y26445D01*
X-74075Y26187D01*
X-73883Y25877D01*
X-73730Y25360D01*
X-73692Y24895D01*
X-73768Y24430D01*
X-73883Y24120D01*
X-74113Y23810D01*
X-74382Y23603D01*
X-74650Y23500D01*
X-74918D01*
X-75187Y23603D01*
X-75417Y23758D01*
X-75608Y23965D01*
G01X-76907Y24120D02*
X-77137Y23758D01*
X-77443Y23552D01*
X-77788Y23500D01*
X-78095Y23552D01*
X-78402Y23810D01*
X-78593Y24120D01*
X-78632Y24430D01*
X-78555Y24792D01*
X-78287Y25050D01*
X-78018Y25153D01*
X-77673D01*
G01X-78018D02*
X-78248Y25308D01*
X-78440Y25567D01*
X-78517Y25877D01*
X-78440Y26187D01*
X-78248Y26445D01*
X-77903Y26600D01*
X-77558Y26548D01*
X-77213Y26342D01*
G01X-74883Y35000D02*
Y38100D01*
X-75842D01*
X-76148Y37945D01*
X-76340Y37738D01*
X-76417Y37325D01*
X-76340Y36912D01*
X-76110Y36653D01*
X-75842Y36498D01*
X-74883D01*
G01X-75842D02*
X-76417Y35000D01*
G01X-77907Y35620D02*
X-78137Y35258D01*
X-78443Y35052D01*
X-78788Y35000D01*
X-79095Y35052D01*
X-79402Y35310D01*
X-79593Y35620D01*
X-79632Y35930D01*
X-79555Y36292D01*
X-79287Y36550D01*
X-79018Y36653D01*
X-78673D01*
G01X-79018D02*
X-79248Y36808D01*
X-79440Y37067D01*
X-79517Y37377D01*
X-79440Y37687D01*
X-79248Y37945D01*
X-78903Y38100D01*
X-78558Y38048D01*
X-78213Y37842D01*
G01X-74883Y46500D02*
Y49600D01*
X-75842D01*
X-76148Y49445D01*
X-76340Y49238D01*
X-76417Y48825D01*
X-76340Y48412D01*
X-76110Y48153D01*
X-75842Y47998D01*
X-74883D01*
G01X-75842D02*
X-76417Y46500D01*
G01X-78750D02*
Y49600D01*
X-78290Y48980D01*
G01Y46500D02*
X-79210D01*
G01X-62945Y67850D02*
X-77945D01*
G01X-62945Y78677D02*
X-77945D01*
G01X-62945Y75850D02*
X-77945D01*
G01X-62945Y86677D02*
X-77945D01*
G01X-72000Y105000D02*
G03Y97000I0J-4000D01*
G01D02*
X-57000D01*
G01X-74000Y115000D02*
X-55000D01*
Y107000D01*
X-74000D01*
Y115000D01*
G01X-72000Y105000D02*
X-57000D01*
G01X-66493Y122342D02*
X-66263Y122497D01*
X-65995Y122600D01*
X-65688D01*
X-65343Y122445D01*
X-65075Y122187D01*
X-64883Y121877D01*
X-64730Y121360D01*
X-64692Y120895D01*
X-64768Y120430D01*
X-64883Y120120D01*
X-65113Y119810D01*
X-65382Y119603D01*
X-65650Y119500D01*
X-65918D01*
X-66187Y119603D01*
X-66417Y119758D01*
X-66608Y119965D01*
G01X-67907Y120120D02*
X-68137Y119758D01*
X-68443Y119552D01*
X-68788Y119500D01*
X-69095Y119552D01*
X-69402Y119810D01*
X-69593Y120120D01*
X-69632Y120430D01*
X-69555Y120792D01*
X-69287Y121050D01*
X-69018Y121153D01*
X-68673D01*
G01X-69018D02*
X-69248Y121308D01*
X-69440Y121567D01*
X-69517Y121877D01*
X-69440Y122187D01*
X-69248Y122445D01*
X-68903Y122600D01*
X-68558Y122548D01*
X-68213Y122342D01*
G01X-71007Y120120D02*
X-71237Y119758D01*
X-71543Y119552D01*
X-71888Y119500D01*
X-72195Y119552D01*
X-72502Y119810D01*
X-72693Y120120D01*
X-72732Y120430D01*
X-72655Y120792D01*
X-72387Y121050D01*
X-72118Y121153D01*
X-71773D01*
G01X-72118D02*
X-72348Y121308D01*
X-72540Y121567D01*
X-72617Y121877D01*
X-72540Y122187D01*
X-72348Y122445D01*
X-72003Y122600D01*
X-71658Y122548D01*
X-71313Y122342D01*
G01X-77500Y117500D02*
G03Y125500I0J4000D01*
G01X-66993Y131342D02*
X-66763Y131497D01*
X-66495Y131600D01*
X-66188D01*
X-65843Y131445D01*
X-65575Y131187D01*
X-65383Y130877D01*
X-65230Y130360D01*
X-65192Y129895D01*
X-65268Y129430D01*
X-65383Y129120D01*
X-65613Y128810D01*
X-65882Y128603D01*
X-66150Y128500D01*
X-66418D01*
X-66687Y128603D01*
X-66917Y128758D01*
X-67108Y128965D01*
G01X-68407Y129120D02*
X-68637Y128758D01*
X-68943Y128552D01*
X-69288Y128500D01*
X-69595Y128552D01*
X-69902Y128810D01*
X-70093Y129120D01*
X-70132Y129430D01*
X-70055Y129792D01*
X-69787Y130050D01*
X-69518Y130153D01*
X-69173D01*
G01X-69518D02*
X-69748Y130308D01*
X-69940Y130567D01*
X-70017Y130877D01*
X-69940Y131187D01*
X-69748Y131445D01*
X-69403Y131600D01*
X-69058Y131548D01*
X-68713Y131342D01*
G01X-71507Y128965D02*
X-71737Y128707D01*
X-72005Y128552D01*
X-72350Y128500D01*
X-72695Y128603D01*
X-72963Y128810D01*
X-73155Y129172D01*
X-73193Y129585D01*
X-73117Y129998D01*
X-72925Y130257D01*
X-72657Y130463D01*
X-72388Y130515D01*
X-72120Y130463D01*
X-71775Y130257D01*
X-71890Y131600D01*
X-72925D01*
G01X-77500Y126500D02*
G03Y134500I0J4000D01*
G01X-67746Y147516D02*
Y150616D01*
X-68704D01*
X-69011Y150461D01*
X-69202Y150254D01*
X-69279Y149841D01*
X-69202Y149427D01*
X-68972Y149169D01*
X-68704Y149014D01*
X-67746D01*
G01X-68704D02*
X-69279Y147516D01*
G01X-70769Y147981D02*
X-70999Y147722D01*
X-71267Y147568D01*
X-71612Y147516D01*
X-71957Y147619D01*
X-72226Y147826D01*
X-72417Y148187D01*
X-72456Y148601D01*
X-72379Y149014D01*
X-72187Y149272D01*
X-71919Y149479D01*
X-71651Y149531D01*
X-71382Y149479D01*
X-71037Y149272D01*
X-71152Y150616D01*
X-72187D01*
G01X-75172Y147516D02*
Y150616D01*
X-73754Y148394D01*
X-75671D01*
G01X-57165Y-104268D02*
X-38165D01*
Y-112268D01*
X-57165D01*
Y-104268D01*
G01X-59993Y33842D02*
X-59763Y33997D01*
X-59495Y34100D01*
X-59188D01*
X-58843Y33945D01*
X-58575Y33687D01*
X-58383Y33377D01*
X-58230Y32860D01*
X-58192Y32395D01*
X-58268Y31930D01*
X-58383Y31620D01*
X-58613Y31310D01*
X-58882Y31103D01*
X-59150Y31000D01*
X-59418D01*
X-59687Y31103D01*
X-59917Y31258D01*
X-60108Y31465D01*
G01X-62710Y31000D02*
Y34100D01*
X-61292Y31878D01*
X-63208D01*
G01X-62945Y67850D02*
G03Y75850I0J4000D01*
G01Y78677D02*
G03Y86677I0J4000D01*
G01X-57000Y105000D02*
G02Y97000I0J-4000D01*
G01X-43383Y-102500D02*
Y-99400D01*
X-44342D01*
X-44648Y-99555D01*
X-44840Y-99762D01*
X-44917Y-100175D01*
X-44840Y-100588D01*
X-44610Y-100847D01*
X-44342Y-101002D01*
X-43383D01*
G01X-44342D02*
X-44917Y-102500D01*
G01X-46407Y-101880D02*
X-46637Y-102242D01*
X-46943Y-102448D01*
X-47288Y-102500D01*
X-47595Y-102448D01*
X-47902Y-102190D01*
X-48093Y-101880D01*
X-48132Y-101570D01*
X-48055Y-101208D01*
X-47787Y-100950D01*
X-47518Y-100847D01*
X-47173D01*
G01X-47518D02*
X-47748Y-100692D01*
X-47940Y-100433D01*
X-48017Y-100123D01*
X-47940Y-99813D01*
X-47748Y-99555D01*
X-47403Y-99400D01*
X-47058Y-99452D01*
X-46713Y-99658D01*
G01X-50810Y-102500D02*
Y-99400D01*
X-49392Y-101622D01*
X-51308D01*
G01X-47000Y-72000D02*
G02Y-64000I0J4000D01*
G01X-32000Y-72000D02*
X-47000D01*
G01X-32000Y-64000D02*
X-47000D01*
G01Y-61500D02*
G02Y-53500I0J4000D01*
G01X-32000Y-61500D02*
X-47000D01*
G01X-32000Y-53500D02*
X-47000D01*
G01Y-51000D02*
G02Y-43000I0J4000D01*
G01X-32000Y-51000D02*
X-47000D01*
G01X-32000Y-43000D02*
X-47000D01*
G01X-38000Y2000D02*
G02Y10000I0J4000D01*
G01Y12000D02*
G02Y20000I0J4000D01*
G01Y25000D02*
G02Y33000I0J4000D01*
G01X-53500Y29000D02*
G02Y21000I0J-4000D01*
G01X-38000Y36500D02*
G02Y44500I0J4000D01*
G01X-38575Y66866D02*
G02Y74866I0J4000D01*
G01Y77693D02*
G02Y85693I0J4000D01*
G01X-38493Y95842D02*
X-38263Y95997D01*
X-37995Y96100D01*
X-37688D01*
X-37343Y95945D01*
X-37075Y95687D01*
X-36883Y95377D01*
X-36730Y94860D01*
X-36692Y94395D01*
X-36768Y93930D01*
X-36883Y93620D01*
X-37113Y93310D01*
X-37382Y93103D01*
X-37650Y93000D01*
X-37918D01*
X-38187Y93103D01*
X-38417Y93258D01*
X-38608Y93465D01*
G01X-39907Y93620D02*
X-40137Y93258D01*
X-40443Y93052D01*
X-40788Y93000D01*
X-41095Y93052D01*
X-41402Y93310D01*
X-41593Y93620D01*
X-41632Y93930D01*
X-41555Y94292D01*
X-41287Y94550D01*
X-41018Y94653D01*
X-40673D01*
G01X-41018D02*
X-41248Y94808D01*
X-41440Y95067D01*
X-41517Y95377D01*
X-41440Y95687D01*
X-41248Y95945D01*
X-40903Y96100D01*
X-40558Y96048D01*
X-40213Y95842D01*
G01X-43122Y95583D02*
X-43352Y95893D01*
X-43620Y96048D01*
X-43927Y96100D01*
X-44310Y95997D01*
X-44578Y95738D01*
X-44655Y95428D01*
X-44617Y95118D01*
X-44463Y94860D01*
X-43697Y94343D01*
X-43352Y93982D01*
X-43122Y93465D01*
X-43045Y93000D01*
X-44655D01*
G01X-48000Y97000D02*
G02Y105000I0J4000D01*
G01X-33000Y97000D02*
X-48000D01*
G01X-31000Y107000D02*
X-50000D01*
Y115000D01*
X-31000D01*
Y107000D01*
G01X-33000Y105000D02*
X-48000D01*
G01X-35883Y116000D02*
Y119100D01*
X-36842D01*
X-37148Y118945D01*
X-37340Y118738D01*
X-37417Y118325D01*
X-37340Y117912D01*
X-37110Y117653D01*
X-36842Y117498D01*
X-35883D01*
G01X-36842D02*
X-37417Y116000D01*
G01X-38907Y116465D02*
X-39137Y116207D01*
X-39405Y116052D01*
X-39750Y116000D01*
X-40095Y116103D01*
X-40363Y116310D01*
X-40555Y116672D01*
X-40593Y117085D01*
X-40517Y117498D01*
X-40325Y117757D01*
X-40057Y117963D01*
X-39788Y118015D01*
X-39520Y117963D01*
X-39175Y117757D01*
X-39290Y119100D01*
X-40325D01*
G01X-42122Y118583D02*
X-42352Y118893D01*
X-42620Y119048D01*
X-42927Y119100D01*
X-43310Y118997D01*
X-43578Y118738D01*
X-43655Y118428D01*
X-43617Y118118D01*
X-43463Y117860D01*
X-42697Y117343D01*
X-42352Y116982D01*
X-42122Y116465D01*
X-42045Y116000D01*
X-43655D01*
G01X-24383Y-140000D02*
Y-136900D01*
X-25342D01*
X-25648Y-137055D01*
X-25840Y-137262D01*
X-25917Y-137675D01*
X-25840Y-138088D01*
X-25610Y-138347D01*
X-25342Y-138502D01*
X-24383D01*
G01X-25342D02*
X-25917Y-140000D01*
G01X-28710D02*
Y-136900D01*
X-27292Y-139122D01*
X-29208D01*
G01X-30622Y-137417D02*
X-30852Y-137107D01*
X-31120Y-136952D01*
X-31427Y-136900D01*
X-31810Y-137003D01*
X-32078Y-137262D01*
X-32155Y-137572D01*
X-32117Y-137882D01*
X-31963Y-138140D01*
X-31197Y-138657D01*
X-30852Y-139018D01*
X-30622Y-139535D01*
X-30545Y-140000D01*
X-32155D01*
G01X-23883Y-131000D02*
Y-127900D01*
X-24842D01*
X-25148Y-128055D01*
X-25340Y-128262D01*
X-25417Y-128675D01*
X-25340Y-129088D01*
X-25110Y-129347D01*
X-24842Y-129502D01*
X-23883D01*
G01X-24842D02*
X-25417Y-131000D01*
G01X-28210D02*
Y-127900D01*
X-26792Y-130122D01*
X-28708D01*
G01X-30850Y-131000D02*
Y-127900D01*
X-30390Y-128520D01*
G01Y-131000D02*
X-31310D01*
G01X-26993Y-118658D02*
X-26763Y-118503D01*
X-26495Y-118400D01*
X-26188D01*
X-25843Y-118555D01*
X-25575Y-118813D01*
X-25383Y-119123D01*
X-25230Y-119640D01*
X-25192Y-120105D01*
X-25268Y-120570D01*
X-25383Y-120880D01*
X-25613Y-121190D01*
X-25882Y-121397D01*
X-26150Y-121500D01*
X-26418D01*
X-26687Y-121397D01*
X-26917Y-121242D01*
X-27108Y-121035D01*
G01X-29250Y-121500D02*
Y-118400D01*
X-28790Y-119020D01*
G01Y-121500D02*
X-29710D01*
G01X-31698Y-121138D02*
X-31967Y-121397D01*
X-32273Y-121500D01*
X-32580Y-121397D01*
X-32848Y-121087D01*
X-33040Y-120622D01*
X-33117Y-120157D01*
Y-119588D01*
X-33040Y-119123D01*
X-32848Y-118710D01*
X-32618Y-118503D01*
X-32350Y-118400D01*
X-32043Y-118503D01*
X-31813Y-118710D01*
X-31660Y-119020D01*
X-31583Y-119433D01*
X-31660Y-119795D01*
X-31852Y-120157D01*
X-32082Y-120363D01*
X-32350Y-120415D01*
X-32657Y-120312D01*
X-32887Y-120053D01*
X-33117Y-119588D01*
G01X-32000Y-72000D02*
G03Y-64000I0J4000D01*
G01X-20493Y-56658D02*
X-20263Y-56503D01*
X-19995Y-56400D01*
X-19688D01*
X-19343Y-56555D01*
X-19075Y-56813D01*
X-18883Y-57123D01*
X-18730Y-57640D01*
X-18692Y-58105D01*
X-18768Y-58570D01*
X-18883Y-58880D01*
X-19113Y-59190D01*
X-19382Y-59397D01*
X-19650Y-59500D01*
X-19918D01*
X-20187Y-59397D01*
X-20417Y-59242D01*
X-20608Y-59035D01*
G01X-22750Y-59500D02*
Y-56400D01*
X-22290Y-57020D01*
G01Y-59500D02*
X-23210D01*
G01X-25007Y-58880D02*
X-25237Y-59242D01*
X-25543Y-59448D01*
X-25888Y-59500D01*
X-26195Y-59448D01*
X-26502Y-59190D01*
X-26693Y-58880D01*
X-26732Y-58570D01*
X-26655Y-58208D01*
X-26387Y-57950D01*
X-26118Y-57847D01*
X-25773D01*
G01X-26118D02*
X-26348Y-57692D01*
X-26540Y-57433D01*
X-26617Y-57123D01*
X-26540Y-56813D01*
X-26348Y-56555D01*
X-26003Y-56400D01*
X-25658Y-56452D01*
X-25313Y-56658D01*
G01X-32000Y-61500D02*
G03Y-53500I0J4000D01*
G01X-20493Y-45658D02*
X-20263Y-45503D01*
X-19995Y-45400D01*
X-19688D01*
X-19343Y-45555D01*
X-19075Y-45813D01*
X-18883Y-46123D01*
X-18730Y-46640D01*
X-18692Y-47105D01*
X-18768Y-47570D01*
X-18883Y-47880D01*
X-19113Y-48190D01*
X-19382Y-48397D01*
X-19650Y-48500D01*
X-19918D01*
X-20187Y-48397D01*
X-20417Y-48242D01*
X-20608Y-48035D01*
G01X-22750Y-48500D02*
Y-45400D01*
X-22290Y-46020D01*
G01Y-48500D02*
X-23210D01*
G01X-25122Y-45917D02*
X-25352Y-45607D01*
X-25620Y-45452D01*
X-25927Y-45400D01*
X-26310Y-45503D01*
X-26578Y-45762D01*
X-26655Y-46072D01*
X-26617Y-46382D01*
X-26463Y-46640D01*
X-25697Y-47157D01*
X-25352Y-47518D01*
X-25122Y-48035D01*
X-25045Y-48500D01*
X-26655D01*
G01X-32000Y-51000D02*
G03Y-43000I0J4000D01*
G01X-28493Y-4158D02*
X-28263Y-4003D01*
X-27995Y-3900D01*
X-27688D01*
X-27343Y-4055D01*
X-27075Y-4313D01*
X-26883Y-4623D01*
X-26730Y-5140D01*
X-26692Y-5605D01*
X-26768Y-6070D01*
X-26883Y-6380D01*
X-27113Y-6690D01*
X-27382Y-6897D01*
X-27650Y-7000D01*
X-27918D01*
X-28187Y-6897D01*
X-28417Y-6742D01*
X-28608Y-6535D01*
G01X-31210Y-7000D02*
Y-3900D01*
X-29792Y-6122D01*
X-31708D01*
G01X-33773Y-7000D02*
X-33850Y-6328D01*
X-33965Y-5760D01*
X-34118Y-5243D01*
X-34310Y-4675D01*
X-34617Y-3900D01*
X-33083D01*
G01X-23000Y2000D02*
X-38000D01*
G01X-28493Y342D02*
X-28263Y497D01*
X-27995Y600D01*
X-27688D01*
X-27343Y445D01*
X-27075Y187D01*
X-26883Y-123D01*
X-26730Y-640D01*
X-26692Y-1105D01*
X-26768Y-1570D01*
X-26883Y-1880D01*
X-27113Y-2190D01*
X-27382Y-2397D01*
X-27650Y-2500D01*
X-27918D01*
X-28187Y-2397D01*
X-28417Y-2242D01*
X-28608Y-2035D01*
G01X-31210Y-2500D02*
Y600D01*
X-29792Y-1622D01*
X-31708D01*
G01X-33850Y-2500D02*
X-34118Y-2448D01*
X-34425Y-2293D01*
X-34617Y-2035D01*
X-34693Y-1673D01*
X-34617Y-1312D01*
X-34387Y-1002D01*
X-34042Y-847D01*
X-33658D01*
X-33428Y-743D01*
X-33237Y-485D01*
X-33160Y-123D01*
X-33275Y238D01*
X-33543Y497D01*
X-33850Y600D01*
X-34157Y497D01*
X-34425Y238D01*
X-34540Y-123D01*
X-34463Y-485D01*
X-34272Y-743D01*
X-34042Y-847D01*
X-33658D01*
X-33313Y-1002D01*
X-33083Y-1312D01*
X-33007Y-1673D01*
X-33083Y-2035D01*
X-33275Y-2293D01*
X-33582Y-2448D01*
X-33850Y-2500D01*
G01X-23000Y10000D02*
X-38000D01*
G01X-23000Y12000D02*
X-38000D01*
G01X-23000Y25000D02*
X-38000D01*
G01X-23000Y20000D02*
X-38000D01*
G01X-23000Y36500D02*
X-38000D01*
G01X-23000Y33000D02*
X-38000D01*
G01X-26993Y54842D02*
X-26763Y54997D01*
X-26495Y55100D01*
X-26188D01*
X-25843Y54945D01*
X-25575Y54687D01*
X-25383Y54377D01*
X-25230Y53860D01*
X-25192Y53395D01*
X-25268Y52930D01*
X-25383Y52620D01*
X-25613Y52310D01*
X-25882Y52103D01*
X-26150Y52000D01*
X-26418D01*
X-26687Y52103D01*
X-26917Y52258D01*
X-27108Y52465D01*
G01X-28598Y52362D02*
X-28867Y52103D01*
X-29173Y52000D01*
X-29480Y52103D01*
X-29748Y52413D01*
X-29940Y52878D01*
X-30017Y53343D01*
Y53912D01*
X-29940Y54377D01*
X-29748Y54790D01*
X-29518Y54997D01*
X-29250Y55100D01*
X-28943Y54997D01*
X-28713Y54790D01*
X-28560Y54480D01*
X-28483Y54067D01*
X-28560Y53705D01*
X-28752Y53343D01*
X-28982Y53137D01*
X-29250Y53085D01*
X-29557Y53188D01*
X-29787Y53447D01*
X-30017Y53912D01*
G01X-31507Y52620D02*
X-31737Y52258D01*
X-32043Y52052D01*
X-32388Y52000D01*
X-32695Y52052D01*
X-33002Y52310D01*
X-33193Y52620D01*
X-33232Y52930D01*
X-33155Y53292D01*
X-32887Y53550D01*
X-32618Y53653D01*
X-32273D01*
G01X-32618D02*
X-32848Y53808D01*
X-33040Y54067D01*
X-33117Y54377D01*
X-33040Y54687D01*
X-32848Y54945D01*
X-32503Y55100D01*
X-32158Y55048D01*
X-31813Y54842D01*
G01X-23000Y44500D02*
X-38000D01*
G01X-27493Y49342D02*
X-27263Y49497D01*
X-26995Y49600D01*
X-26688D01*
X-26343Y49445D01*
X-26075Y49187D01*
X-25883Y48877D01*
X-25730Y48360D01*
X-25692Y47895D01*
X-25768Y47430D01*
X-25883Y47120D01*
X-26113Y46810D01*
X-26382Y46603D01*
X-26650Y46500D01*
X-26918D01*
X-27187Y46603D01*
X-27417Y46758D01*
X-27608Y46965D01*
G01X-29098Y46862D02*
X-29367Y46603D01*
X-29673Y46500D01*
X-29980Y46603D01*
X-30248Y46913D01*
X-30440Y47378D01*
X-30517Y47843D01*
Y48412D01*
X-30440Y48877D01*
X-30248Y49290D01*
X-30018Y49497D01*
X-29750Y49600D01*
X-29443Y49497D01*
X-29213Y49290D01*
X-29060Y48980D01*
X-28983Y48567D01*
X-29060Y48205D01*
X-29252Y47843D01*
X-29482Y47637D01*
X-29750Y47585D01*
X-30057Y47688D01*
X-30287Y47947D01*
X-30517Y48412D01*
G01X-33310Y46500D02*
Y49600D01*
X-31892Y47378D01*
X-33808D01*
G01X-23575Y66866D02*
X-38575D01*
G01X-23575Y74866D02*
X-38575D01*
G01X-23575Y77693D02*
X-38575D01*
G01X-23575Y85693D02*
X-38575D01*
G01X-33000Y97000D02*
G03Y105000I0J4000D01*
G01X-24000Y97000D02*
G02Y105000I0J4000D01*
G01X-3000Y-142500D02*
X-22000D01*
Y-134500D01*
X-3000D01*
Y-142500D01*
G01Y-133500D02*
X-22000D01*
Y-125500D01*
X-3000D01*
Y-133500D01*
G01X-20000Y-116500D02*
G03Y-124500I0J-4000D01*
G01Y-116500D02*
X-5000D01*
G01X-20000Y-124500D02*
X-5000D01*
G01X-19993Y-67158D02*
X-19763Y-67003D01*
X-19495Y-66900D01*
X-19188D01*
X-18843Y-67055D01*
X-18575Y-67313D01*
X-18383Y-67623D01*
X-18230Y-68140D01*
X-18192Y-68605D01*
X-18268Y-69070D01*
X-18383Y-69380D01*
X-18613Y-69690D01*
X-18882Y-69897D01*
X-19150Y-70000D01*
X-19418D01*
X-19687Y-69897D01*
X-19917Y-69742D01*
X-20108Y-69535D01*
G01X-22250Y-70000D02*
Y-66900D01*
X-21790Y-67520D01*
G01Y-70000D02*
X-22710D01*
G01X-25810D02*
Y-66900D01*
X-24392Y-69122D01*
X-26308D01*
G01X-23000Y2000D02*
G03Y10000I0J4000D01*
G01Y12000D02*
G03Y20000I0J4000D01*
G01Y25000D02*
G03Y33000I0J4000D01*
G01Y36500D02*
G03Y44500I0J4000D01*
G01X-15493Y71842D02*
X-15263Y71997D01*
X-14995Y72100D01*
X-14688D01*
X-14343Y71945D01*
X-14075Y71687D01*
X-13883Y71377D01*
X-13730Y70860D01*
X-13692Y70395D01*
X-13768Y69930D01*
X-13883Y69620D01*
X-14113Y69310D01*
X-14382Y69103D01*
X-14650Y69000D01*
X-14918D01*
X-15187Y69103D01*
X-15417Y69258D01*
X-15608Y69465D01*
G01X-17673Y69000D02*
X-17750Y69672D01*
X-17865Y70240D01*
X-18018Y70757D01*
X-18210Y71325D01*
X-18517Y72100D01*
X-16983D01*
G01X-23575Y66866D02*
G03Y74866I0J4000D01*
G01X-15493Y82842D02*
X-15263Y82997D01*
X-14995Y83100D01*
X-14688D01*
X-14343Y82945D01*
X-14075Y82687D01*
X-13883Y82377D01*
X-13730Y81860D01*
X-13692Y81395D01*
X-13768Y80930D01*
X-13883Y80620D01*
X-14113Y80310D01*
X-14382Y80103D01*
X-14650Y80000D01*
X-14918D01*
X-15187Y80103D01*
X-15417Y80258D01*
X-15608Y80465D01*
G01X-17750Y80000D02*
X-18018Y80052D01*
X-18325Y80207D01*
X-18517Y80465D01*
X-18593Y80827D01*
X-18517Y81188D01*
X-18287Y81498D01*
X-17942Y81653D01*
X-17558D01*
X-17328Y81757D01*
X-17137Y82015D01*
X-17060Y82377D01*
X-17175Y82738D01*
X-17443Y82997D01*
X-17750Y83100D01*
X-18057Y82997D01*
X-18325Y82738D01*
X-18440Y82377D01*
X-18363Y82015D01*
X-18172Y81757D01*
X-17942Y81653D01*
X-17558D01*
X-17213Y81498D01*
X-16983Y81188D01*
X-16907Y80827D01*
X-16983Y80465D01*
X-17175Y80207D01*
X-17482Y80052D01*
X-17750Y80000D01*
G01X-23575Y77693D02*
G03Y85693I0J4000D01*
G01X-14493Y95842D02*
X-14263Y95997D01*
X-13995Y96100D01*
X-13688D01*
X-13343Y95945D01*
X-13075Y95687D01*
X-12883Y95377D01*
X-12730Y94860D01*
X-12692Y94395D01*
X-12768Y93930D01*
X-12883Y93620D01*
X-13113Y93310D01*
X-13382Y93103D01*
X-13650Y93000D01*
X-13918D01*
X-14187Y93103D01*
X-14417Y93258D01*
X-14608Y93465D01*
G01X-17210Y93000D02*
Y96100D01*
X-15792Y93878D01*
X-17708D01*
G01X-19850Y93000D02*
Y96100D01*
X-19390Y95480D01*
G01Y93000D02*
X-20310D01*
G01X-9000Y97000D02*
X-24000D01*
G01X-26000Y115000D02*
X-7000D01*
Y107000D01*
X-26000D01*
Y115000D01*
G01X-9000Y105000D02*
X-24000D01*
G01X-12383Y116000D02*
Y119100D01*
X-13342D01*
X-13648Y118945D01*
X-13840Y118738D01*
X-13917Y118325D01*
X-13840Y117912D01*
X-13610Y117653D01*
X-13342Y117498D01*
X-12383D01*
G01X-13342D02*
X-13917Y116000D01*
G01X-15407Y116465D02*
X-15637Y116207D01*
X-15905Y116052D01*
X-16250Y116000D01*
X-16595Y116103D01*
X-16863Y116310D01*
X-17055Y116672D01*
X-17093Y117085D01*
X-17017Y117498D01*
X-16825Y117757D01*
X-16557Y117963D01*
X-16288Y118015D01*
X-16020Y117963D01*
X-15675Y117757D01*
X-15790Y119100D01*
X-16825D01*
G01X-18507Y116620D02*
X-18737Y116258D01*
X-19043Y116052D01*
X-19388Y116000D01*
X-19695Y116052D01*
X-20002Y116310D01*
X-20193Y116620D01*
X-20232Y116930D01*
X-20155Y117292D01*
X-19887Y117550D01*
X-19618Y117653D01*
X-19273D01*
G01X-19618D02*
X-19848Y117808D01*
X-20040Y118067D01*
X-20117Y118377D01*
X-20040Y118687D01*
X-19848Y118945D01*
X-19503Y119100D01*
X-19158Y119048D01*
X-18813Y118842D01*
G01X-5000Y-116500D02*
G02Y-124500I0J-4000D01*
G01X1617Y30500D02*
Y33600D01*
X658D01*
X352Y33445D01*
X160Y33238D01*
X83Y32825D01*
X160Y32412D01*
X390Y32153D01*
X658Y31998D01*
X1617D01*
G01X658D02*
X83Y30500D01*
G01X-1407Y30965D02*
X-1637Y30707D01*
X-1905Y30552D01*
X-2250Y30500D01*
X-2595Y30603D01*
X-2863Y30810D01*
X-3055Y31172D01*
X-3093Y31585D01*
X-3017Y31998D01*
X-2825Y32257D01*
X-2557Y32463D01*
X-2288Y32515D01*
X-2020Y32463D01*
X-1675Y32257D01*
X-1790Y33600D01*
X-2825D01*
G01X-4698Y30862D02*
X-4967Y30603D01*
X-5273Y30500D01*
X-5580Y30603D01*
X-5848Y30913D01*
X-6040Y31378D01*
X-6117Y31843D01*
Y32412D01*
X-6040Y32877D01*
X-5848Y33290D01*
X-5618Y33497D01*
X-5350Y33600D01*
X-5043Y33497D01*
X-4813Y33290D01*
X-4660Y32980D01*
X-4583Y32567D01*
X-4660Y32205D01*
X-4852Y31843D01*
X-5082Y31637D01*
X-5350Y31585D01*
X-5657Y31688D01*
X-5887Y31947D01*
X-6117Y32412D01*
G01X1617Y22000D02*
Y25100D01*
X658D01*
X352Y24945D01*
X160Y24738D01*
X83Y24325D01*
X160Y23912D01*
X390Y23653D01*
X658Y23498D01*
X1617D01*
G01X658D02*
X83Y22000D01*
G01X-1522Y23292D02*
X-1790Y23653D01*
X-2020Y23860D01*
X-2327Y23963D01*
X-2595Y23860D01*
X-2787Y23653D01*
X-2940Y23343D01*
X-2978Y22982D01*
X-2940Y22672D01*
X-2787Y22362D01*
X-2557Y22103D01*
X-2288Y22000D01*
X-1982Y22103D01*
X-1713Y22413D01*
X-1560Y22878D01*
X-1522Y23395D01*
X-1598Y24067D01*
X-1713Y24428D01*
X-1905Y24790D01*
X-2173Y25048D01*
X-2442Y25100D01*
X-2710Y24997D01*
X-2902Y24738D01*
G01X-5350Y25100D02*
X-5043Y24997D01*
X-4813Y24738D01*
X-4660Y24428D01*
X-4545Y24015D01*
X-4507Y23550D01*
X-4545Y23085D01*
X-4660Y22672D01*
X-4813Y22362D01*
X-5043Y22103D01*
X-5350Y22000D01*
X-5657Y22103D01*
X-5887Y22362D01*
X-6040Y22672D01*
X-6155Y23085D01*
X-6193Y23550D01*
X-6155Y24015D01*
X-6040Y24428D01*
X-5887Y24738D01*
X-5657Y24997D01*
X-5350Y25100D01*
G01X-1993Y42842D02*
X-1763Y42997D01*
X-1495Y43100D01*
X-1188D01*
X-843Y42945D01*
X-575Y42687D01*
X-383Y42377D01*
X-230Y41860D01*
X-192Y41395D01*
X-268Y40930D01*
X-383Y40620D01*
X-613Y40310D01*
X-882Y40103D01*
X-1150Y40000D01*
X-1418D01*
X-1687Y40103D01*
X-1917Y40258D01*
X-2108Y40465D01*
G01X-4250Y40000D02*
X-4518Y40052D01*
X-4825Y40207D01*
X-5017Y40465D01*
X-5093Y40827D01*
X-5017Y41188D01*
X-4787Y41498D01*
X-4442Y41653D01*
X-4058D01*
X-3828Y41757D01*
X-3637Y42015D01*
X-3560Y42377D01*
X-3675Y42738D01*
X-3943Y42997D01*
X-4250Y43100D01*
X-4557Y42997D01*
X-4825Y42738D01*
X-4940Y42377D01*
X-4863Y42015D01*
X-4672Y41757D01*
X-4442Y41653D01*
X-4058D01*
X-3713Y41498D01*
X-3483Y41188D01*
X-3407Y40827D01*
X-3483Y40465D01*
X-3675Y40207D01*
X-3982Y40052D01*
X-4250Y40000D01*
G01X-7350Y43100D02*
X-7043Y42997D01*
X-6813Y42738D01*
X-6660Y42428D01*
X-6545Y42015D01*
X-6507Y41550D01*
X-6545Y41085D01*
X-6660Y40672D01*
X-6813Y40362D01*
X-7043Y40103D01*
X-7350Y40000D01*
X-7657Y40103D01*
X-7887Y40362D01*
X-8040Y40672D01*
X-8155Y41085D01*
X-8193Y41550D01*
X-8155Y42015D01*
X-8040Y42428D01*
X-7887Y42738D01*
X-7657Y42997D01*
X-7350Y43100D01*
G01X1617Y49000D02*
Y52100D01*
X658D01*
X352Y51945D01*
X160Y51738D01*
X83Y51325D01*
X160Y50912D01*
X390Y50653D01*
X658Y50498D01*
X1617D01*
G01X658D02*
X83Y49000D01*
G01X-2250D02*
X-2518Y49052D01*
X-2825Y49207D01*
X-3017Y49465D01*
X-3093Y49827D01*
X-3017Y50188D01*
X-2787Y50498D01*
X-2442Y50653D01*
X-2058D01*
X-1828Y50757D01*
X-1637Y51015D01*
X-1560Y51377D01*
X-1675Y51738D01*
X-1943Y51997D01*
X-2250Y52100D01*
X-2557Y51997D01*
X-2825Y51738D01*
X-2940Y51377D01*
X-2863Y51015D01*
X-2672Y50757D01*
X-2442Y50653D01*
X-2058D01*
X-1713Y50498D01*
X-1483Y50188D01*
X-1407Y49827D01*
X-1483Y49465D01*
X-1675Y49207D01*
X-1982Y49052D01*
X-2250Y49000D01*
G01X-4622Y50292D02*
X-4890Y50653D01*
X-5120Y50860D01*
X-5427Y50963D01*
X-5695Y50860D01*
X-5887Y50653D01*
X-6040Y50343D01*
X-6078Y49982D01*
X-6040Y49672D01*
X-5887Y49362D01*
X-5657Y49103D01*
X-5388Y49000D01*
X-5082Y49103D01*
X-4813Y49413D01*
X-4660Y49878D01*
X-4622Y50395D01*
X-4698Y51067D01*
X-4813Y51428D01*
X-5005Y51790D01*
X-5273Y52048D01*
X-5542Y52100D01*
X-5810Y51997D01*
X-6002Y51738D01*
G01X1617Y57500D02*
Y60600D01*
X658D01*
X352Y60445D01*
X160Y60238D01*
X83Y59825D01*
X160Y59412D01*
X390Y59153D01*
X658Y58998D01*
X1617D01*
G01X658D02*
X83Y57500D01*
G01X-2250D02*
X-2518Y57552D01*
X-2825Y57707D01*
X-3017Y57965D01*
X-3093Y58327D01*
X-3017Y58688D01*
X-2787Y58998D01*
X-2442Y59153D01*
X-2058D01*
X-1828Y59257D01*
X-1637Y59515D01*
X-1560Y59877D01*
X-1675Y60238D01*
X-1943Y60497D01*
X-2250Y60600D01*
X-2557Y60497D01*
X-2825Y60238D01*
X-2940Y59877D01*
X-2863Y59515D01*
X-2672Y59257D01*
X-2442Y59153D01*
X-2058D01*
X-1713Y58998D01*
X-1483Y58688D01*
X-1407Y58327D01*
X-1483Y57965D01*
X-1675Y57707D01*
X-1982Y57552D01*
X-2250Y57500D01*
G01X-4507Y58120D02*
X-4737Y57758D01*
X-5043Y57552D01*
X-5388Y57500D01*
X-5695Y57552D01*
X-6002Y57810D01*
X-6193Y58120D01*
X-6232Y58430D01*
X-6155Y58792D01*
X-5887Y59050D01*
X-5618Y59153D01*
X-5273D01*
G01X-5618D02*
X-5848Y59308D01*
X-6040Y59567D01*
X-6117Y59877D01*
X-6040Y60187D01*
X-5848Y60445D01*
X-5503Y60600D01*
X-5158Y60548D01*
X-4813Y60342D01*
G01X2117Y66500D02*
Y69600D01*
X1158D01*
X852Y69445D01*
X660Y69238D01*
X583Y68825D01*
X660Y68412D01*
X890Y68153D01*
X1158Y67998D01*
X2117D01*
G01X1158D02*
X583Y66500D01*
G01X-1098Y66862D02*
X-1367Y66603D01*
X-1673Y66500D01*
X-1980Y66603D01*
X-2248Y66913D01*
X-2440Y67378D01*
X-2517Y67843D01*
Y68412D01*
X-2440Y68877D01*
X-2248Y69290D01*
X-2018Y69497D01*
X-1750Y69600D01*
X-1443Y69497D01*
X-1213Y69290D01*
X-1060Y68980D01*
X-983Y68567D01*
X-1060Y68205D01*
X-1252Y67843D01*
X-1482Y67637D01*
X-1750Y67585D01*
X-2057Y67688D01*
X-2287Y67947D01*
X-2517Y68412D01*
G01X-4850Y69600D02*
X-4543Y69497D01*
X-4313Y69238D01*
X-4160Y68928D01*
X-4045Y68515D01*
X-4007Y68050D01*
X-4045Y67585D01*
X-4160Y67172D01*
X-4313Y66862D01*
X-4543Y66603D01*
X-4850Y66500D01*
X-5157Y66603D01*
X-5387Y66862D01*
X-5540Y67172D01*
X-5655Y67585D01*
X-5693Y68050D01*
X-5655Y68515D01*
X-5540Y68928D01*
X-5387Y69238D01*
X-5157Y69497D01*
X-4850Y69600D01*
G01X2117Y75000D02*
Y78100D01*
X1158D01*
X852Y77945D01*
X660Y77738D01*
X583Y77325D01*
X660Y76912D01*
X890Y76653D01*
X1158Y76498D01*
X2117D01*
G01X1158D02*
X583Y75000D01*
G01X-1750D02*
X-2018Y75052D01*
X-2325Y75207D01*
X-2517Y75465D01*
X-2593Y75827D01*
X-2517Y76188D01*
X-2287Y76498D01*
X-1942Y76653D01*
X-1558D01*
X-1328Y76757D01*
X-1137Y77015D01*
X-1060Y77377D01*
X-1175Y77738D01*
X-1443Y77997D01*
X-1750Y78100D01*
X-2057Y77997D01*
X-2325Y77738D01*
X-2440Y77377D01*
X-2363Y77015D01*
X-2172Y76757D01*
X-1942Y76653D01*
X-1558D01*
X-1213Y76498D01*
X-983Y76188D01*
X-907Y75827D01*
X-983Y75465D01*
X-1175Y75207D01*
X-1482Y75052D01*
X-1750Y75000D01*
G01X-5310D02*
Y78100D01*
X-3892Y75878D01*
X-5808D01*
G01X-9000Y97000D02*
G03Y105000I0J4000D01*
G01X0Y107000D02*
G02Y115000I0J4000D01*
G01X2507Y133342D02*
X2737Y133497D01*
X3005Y133600D01*
X3312D01*
X3657Y133445D01*
X3925Y133187D01*
X4117Y132877D01*
X4270Y132360D01*
X4308Y131895D01*
X4232Y131430D01*
X4117Y131120D01*
X3887Y130810D01*
X3618Y130603D01*
X3350Y130500D01*
X3082D01*
X2813Y130603D01*
X2583Y130758D01*
X2392Y130965D01*
G01X-210Y130500D02*
Y133600D01*
X1208Y131378D01*
X-708D01*
G01X-2122Y131792D02*
X-2390Y132153D01*
X-2620Y132360D01*
X-2927Y132463D01*
X-3195Y132360D01*
X-3387Y132153D01*
X-3540Y131843D01*
X-3578Y131482D01*
X-3540Y131172D01*
X-3387Y130862D01*
X-3157Y130603D01*
X-2888Y130500D01*
X-2582Y130603D01*
X-2313Y130913D01*
X-2160Y131378D01*
X-2122Y131895D01*
X-2198Y132567D01*
X-2313Y132928D01*
X-2505Y133290D01*
X-2773Y133548D01*
X-3042Y133600D01*
X-3310Y133497D01*
X-3502Y133238D01*
G01X32000Y-143000D02*
X13000D01*
Y-135000D01*
X32000D01*
Y-143000D01*
G01X11117Y-140500D02*
Y-137400D01*
X10158D01*
X9852Y-137555D01*
X9660Y-137762D01*
X9583Y-138175D01*
X9660Y-138588D01*
X9890Y-138847D01*
X10158Y-139002D01*
X11117D01*
G01X10158D02*
X9583Y-140500D01*
G01X8093Y-139880D02*
X7863Y-140242D01*
X7557Y-140448D01*
X7212Y-140500D01*
X6905Y-140448D01*
X6598Y-140190D01*
X6407Y-139880D01*
X6368Y-139570D01*
X6445Y-139208D01*
X6713Y-138950D01*
X6982Y-138847D01*
X7327D01*
G01X6982D02*
X6752Y-138692D01*
X6560Y-138433D01*
X6483Y-138123D01*
X6560Y-137813D01*
X6752Y-137555D01*
X7097Y-137400D01*
X7442Y-137452D01*
X7787Y-137658D01*
G01X4878Y-139208D02*
X4610Y-138847D01*
X4380Y-138640D01*
X4073Y-138537D01*
X3805Y-138640D01*
X3613Y-138847D01*
X3460Y-139157D01*
X3422Y-139518D01*
X3460Y-139828D01*
X3613Y-140138D01*
X3843Y-140397D01*
X4112Y-140500D01*
X4418Y-140397D01*
X4687Y-140087D01*
X4840Y-139622D01*
X4878Y-139105D01*
X4802Y-138433D01*
X4687Y-138072D01*
X4495Y-137710D01*
X4227Y-137452D01*
X3958Y-137400D01*
X3690Y-137503D01*
X3498Y-137762D01*
G01X11617Y-130500D02*
Y-127400D01*
X10658D01*
X10352Y-127555D01*
X10160Y-127762D01*
X10083Y-128175D01*
X10160Y-128588D01*
X10390Y-128847D01*
X10658Y-129002D01*
X11617D01*
G01X10658D02*
X10083Y-130500D01*
G01X8593Y-129880D02*
X8363Y-130242D01*
X8057Y-130448D01*
X7712Y-130500D01*
X7405Y-130448D01*
X7098Y-130190D01*
X6907Y-129880D01*
X6868Y-129570D01*
X6945Y-129208D01*
X7213Y-128950D01*
X7482Y-128847D01*
X7827D01*
G01X7482D02*
X7252Y-128692D01*
X7060Y-128433D01*
X6983Y-128123D01*
X7060Y-127813D01*
X7252Y-127555D01*
X7597Y-127400D01*
X7942Y-127452D01*
X8287Y-127658D01*
G01X5493Y-130035D02*
X5263Y-130293D01*
X4995Y-130448D01*
X4650Y-130500D01*
X4305Y-130397D01*
X4037Y-130190D01*
X3845Y-129828D01*
X3807Y-129415D01*
X3883Y-129002D01*
X4075Y-128743D01*
X4343Y-128537D01*
X4612Y-128485D01*
X4880Y-128537D01*
X5225Y-128743D01*
X5110Y-127400D01*
X4075D01*
G01X32000Y-133500D02*
X13000D01*
Y-125500D01*
X32000D01*
Y-133500D01*
G01X8507Y-119158D02*
X8737Y-119003D01*
X9005Y-118900D01*
X9312D01*
X9657Y-119055D01*
X9925Y-119313D01*
X10117Y-119623D01*
X10270Y-120140D01*
X10308Y-120605D01*
X10232Y-121070D01*
X10117Y-121380D01*
X9887Y-121690D01*
X9618Y-121897D01*
X9350Y-122000D01*
X9082D01*
X8813Y-121897D01*
X8583Y-121742D01*
X8392Y-121535D01*
G01X6250Y-122000D02*
Y-118900D01*
X6710Y-119520D01*
G01Y-122000D02*
X5790D01*
G01X3878Y-120708D02*
X3610Y-120347D01*
X3380Y-120140D01*
X3073Y-120037D01*
X2805Y-120140D01*
X2613Y-120347D01*
X2460Y-120657D01*
X2422Y-121018D01*
X2460Y-121328D01*
X2613Y-121638D01*
X2843Y-121897D01*
X3112Y-122000D01*
X3418Y-121897D01*
X3687Y-121587D01*
X3840Y-121122D01*
X3878Y-120605D01*
X3802Y-119933D01*
X3687Y-119572D01*
X3495Y-119210D01*
X3227Y-118952D01*
X2958Y-118900D01*
X2690Y-119003D01*
X2498Y-119262D01*
G01X15000Y-116000D02*
G03Y-124000I0J-4000D01*
G01X8617Y-91000D02*
Y-87900D01*
X7658D01*
X7352Y-88055D01*
X7160Y-88262D01*
X7083Y-88675D01*
X7160Y-89088D01*
X7390Y-89347D01*
X7658Y-89502D01*
X8617D01*
G01X7658D02*
X7083Y-91000D01*
G01X4290D02*
Y-87900D01*
X5708Y-90122D01*
X3792D01*
G01X2378Y-89708D02*
X2110Y-89347D01*
X1880Y-89140D01*
X1573Y-89037D01*
X1305Y-89140D01*
X1113Y-89347D01*
X960Y-89657D01*
X922Y-90018D01*
X960Y-90328D01*
X1113Y-90638D01*
X1343Y-90897D01*
X1612Y-91000D01*
X1918Y-90897D01*
X2187Y-90587D01*
X2340Y-90122D01*
X2378Y-89605D01*
X2302Y-88933D01*
X2187Y-88572D01*
X1995Y-88210D01*
X1727Y-87952D01*
X1458Y-87900D01*
X1190Y-88003D01*
X998Y-88262D01*
G01X10748Y-85567D02*
X29748D01*
Y-93567D01*
X10748D01*
Y-85567D01*
G01X9117Y-81000D02*
Y-77900D01*
X8158D01*
X7852Y-78055D01*
X7660Y-78262D01*
X7583Y-78675D01*
X7660Y-79088D01*
X7890Y-79347D01*
X8158Y-79502D01*
X9117D01*
G01X8158D02*
X7583Y-81000D01*
G01X4790D02*
Y-77900D01*
X6208Y-80122D01*
X4292D01*
G01X2993Y-80535D02*
X2763Y-80793D01*
X2495Y-80948D01*
X2150Y-81000D01*
X1805Y-80897D01*
X1537Y-80690D01*
X1345Y-80328D01*
X1307Y-79915D01*
X1383Y-79502D01*
X1575Y-79243D01*
X1843Y-79037D01*
X2112Y-78985D01*
X2380Y-79037D01*
X2725Y-79243D01*
X2610Y-77900D01*
X1575D01*
G01X10748Y-75724D02*
X29748D01*
Y-83724D01*
X10748D01*
Y-75724D01*
G01X9117Y-71500D02*
Y-68400D01*
X8158D01*
X7852Y-68555D01*
X7660Y-68762D01*
X7583Y-69175D01*
X7660Y-69588D01*
X7890Y-69847D01*
X8158Y-70002D01*
X9117D01*
G01X8158D02*
X7583Y-71500D01*
G01X4790D02*
Y-68400D01*
X6208Y-70622D01*
X4292D01*
G01X1690Y-71500D02*
Y-68400D01*
X3108Y-70622D01*
X1192D01*
G01X10748Y-65882D02*
X29748D01*
Y-73882D01*
X10748D01*
Y-65882D01*
G01Y-56039D02*
X29748D01*
Y-64039D01*
X10748D01*
Y-56039D01*
G01X9117Y-61500D02*
Y-58400D01*
X8158D01*
X7852Y-58555D01*
X7660Y-58762D01*
X7583Y-59175D01*
X7660Y-59588D01*
X7890Y-59847D01*
X8158Y-60002D01*
X9117D01*
G01X8158D02*
X7583Y-61500D01*
G01X4790D02*
Y-58400D01*
X6208Y-60622D01*
X4292D01*
G01X2993Y-60880D02*
X2763Y-61242D01*
X2457Y-61448D01*
X2112Y-61500D01*
X1805Y-61448D01*
X1498Y-61190D01*
X1307Y-60880D01*
X1268Y-60570D01*
X1345Y-60208D01*
X1613Y-59950D01*
X1882Y-59847D01*
X2227D01*
G01X1882D02*
X1652Y-59692D01*
X1460Y-59433D01*
X1383Y-59123D01*
X1460Y-58813D01*
X1652Y-58555D01*
X1997Y-58400D01*
X2342Y-58452D01*
X2687Y-58658D01*
G01X6507Y-39158D02*
X6737Y-39003D01*
X7005Y-38900D01*
X7312D01*
X7657Y-39055D01*
X7925Y-39313D01*
X8117Y-39623D01*
X8270Y-40140D01*
X8308Y-40605D01*
X8232Y-41070D01*
X8117Y-41380D01*
X7887Y-41690D01*
X7618Y-41897D01*
X7350Y-42000D01*
X7082D01*
X6813Y-41897D01*
X6583Y-41742D01*
X6392Y-41535D01*
G01X4250Y-42000D02*
Y-38900D01*
X4710Y-39520D01*
G01Y-42000D02*
X3790D01*
G01X1993Y-41535D02*
X1763Y-41793D01*
X1495Y-41948D01*
X1150Y-42000D01*
X805Y-41897D01*
X537Y-41690D01*
X345Y-41328D01*
X307Y-40915D01*
X383Y-40502D01*
X575Y-40243D01*
X843Y-40037D01*
X1112Y-39985D01*
X1380Y-40037D01*
X1725Y-40243D01*
X1610Y-38900D01*
X575D01*
G01X13732Y-36354D02*
G03Y-44354I0J-4000D01*
G01X22732Y28480D02*
X3732D01*
Y36480D01*
X22732D01*
Y28480D01*
G01Y19622D02*
X3732D01*
Y27622D01*
X22732D01*
Y19622D01*
G01X5874Y45339D02*
G03Y37339I0J-4000D01*
G01D02*
X20874D01*
G01X3858Y54197D02*
X22858D01*
Y46197D01*
X3858D01*
Y54197D01*
G01Y63055D02*
X22858D01*
Y55055D01*
X3858D01*
Y63055D01*
G01X5874Y45339D02*
X20874D01*
G01X3858Y71913D02*
X22858D01*
Y63913D01*
X3858D01*
Y71913D01*
G01Y80772D02*
X22858D01*
Y72772D01*
X3858D01*
Y80772D01*
G01X15000Y107000D02*
X0D01*
G01X15000Y115000D02*
X0D01*
G01X9500Y128000D02*
G02Y136000I0J4000D01*
G01X24500Y128000D02*
X9500D01*
G01X24500Y136000D02*
X9500D01*
G01X20117Y148500D02*
Y151600D01*
X19158D01*
X18852Y151445D01*
X18660Y151238D01*
X18583Y150825D01*
X18660Y150412D01*
X18890Y150153D01*
X19158Y149998D01*
X20117D01*
G01X19158D02*
X18583Y148500D01*
G01X17093Y148965D02*
X16863Y148707D01*
X16595Y148552D01*
X16250Y148500D01*
X15905Y148603D01*
X15637Y148810D01*
X15445Y149172D01*
X15407Y149585D01*
X15483Y149998D01*
X15675Y150257D01*
X15943Y150463D01*
X16212Y150515D01*
X16480Y150463D01*
X16825Y150257D01*
X16710Y151600D01*
X15675D01*
G01X13150Y148500D02*
X12882Y148552D01*
X12575Y148707D01*
X12383Y148965D01*
X12307Y149327D01*
X12383Y149688D01*
X12613Y149998D01*
X12958Y150153D01*
X13342D01*
X13572Y150257D01*
X13763Y150515D01*
X13840Y150877D01*
X13725Y151238D01*
X13457Y151497D01*
X13150Y151600D01*
X12843Y151497D01*
X12575Y151238D01*
X12460Y150877D01*
X12537Y150515D01*
X12728Y150257D01*
X12958Y150153D01*
X13342D01*
X13687Y149998D01*
X13917Y149688D01*
X13993Y149327D01*
X13917Y148965D01*
X13725Y148707D01*
X13418Y148552D01*
X13150Y148500D01*
G01X26500Y139000D02*
X7500D01*
Y147000D01*
X26500D01*
Y139000D01*
G01X15000Y-116000D02*
X30000D01*
G01X15000Y-124000D02*
X30000D01*
G01X13732Y-36354D02*
X28732D01*
G01X13732Y-44354D02*
X28732D01*
G01X20874Y45339D02*
G02Y37339I0J-4000D01*
G01X26007Y86342D02*
X26237Y86497D01*
X26505Y86600D01*
X26812D01*
X27157Y86445D01*
X27425Y86187D01*
X27617Y85877D01*
X27770Y85360D01*
X27808Y84895D01*
X27732Y84430D01*
X27617Y84120D01*
X27387Y83810D01*
X27118Y83603D01*
X26850Y83500D01*
X26582D01*
X26313Y83603D01*
X26083Y83758D01*
X25892Y83965D01*
G01X23290Y83500D02*
Y86600D01*
X24708Y84378D01*
X22792D01*
G01X21493Y83965D02*
X21263Y83707D01*
X20995Y83552D01*
X20650Y83500D01*
X20305Y83603D01*
X20037Y83810D01*
X19845Y84172D01*
X19807Y84585D01*
X19883Y84998D01*
X20075Y85257D01*
X20343Y85463D01*
X20612Y85515D01*
X20880Y85463D01*
X21225Y85257D01*
X21110Y86600D01*
X20075D01*
G01X29117Y93000D02*
Y96100D01*
X28158D01*
X27852Y95945D01*
X27660Y95738D01*
X27583Y95325D01*
X27660Y94912D01*
X27890Y94653D01*
X28158Y94498D01*
X29117D01*
G01X28158D02*
X27583Y93000D01*
G01X26093Y93465D02*
X25863Y93207D01*
X25595Y93052D01*
X25250Y93000D01*
X24905Y93103D01*
X24637Y93310D01*
X24445Y93672D01*
X24407Y94085D01*
X24483Y94498D01*
X24675Y94757D01*
X24943Y94963D01*
X25212Y95015D01*
X25480Y94963D01*
X25825Y94757D01*
X25710Y96100D01*
X24675D01*
G01X22150Y93000D02*
Y96100D01*
X22610Y95480D01*
G01Y93000D02*
X21690D01*
G01X26007Y111842D02*
X26237Y111997D01*
X26505Y112100D01*
X26812D01*
X27157Y111945D01*
X27425Y111687D01*
X27617Y111377D01*
X27770Y110860D01*
X27808Y110395D01*
X27732Y109930D01*
X27617Y109620D01*
X27387Y109310D01*
X27118Y109103D01*
X26850Y109000D01*
X26582D01*
X26313Y109103D01*
X26083Y109258D01*
X25892Y109465D01*
G01X23290Y109000D02*
Y112100D01*
X24708Y109878D01*
X22792D01*
G01X21378Y111583D02*
X21148Y111893D01*
X20880Y112048D01*
X20573Y112100D01*
X20190Y111997D01*
X19922Y111738D01*
X19845Y111428D01*
X19883Y111118D01*
X20037Y110860D01*
X20803Y110343D01*
X21148Y109982D01*
X21378Y109465D01*
X21455Y109000D01*
X19845D01*
G01X15000Y107000D02*
G03Y115000I0J4000D01*
G01X24500Y128000D02*
G03Y136000I0J4000D01*
G01X47117Y-139500D02*
Y-136400D01*
X46158D01*
X45852Y-136555D01*
X45660Y-136762D01*
X45583Y-137175D01*
X45660Y-137588D01*
X45890Y-137847D01*
X46158Y-138002D01*
X47117D01*
G01X46158D02*
X45583Y-139500D01*
G01X44093Y-138880D02*
X43863Y-139242D01*
X43557Y-139448D01*
X43212Y-139500D01*
X42905Y-139448D01*
X42598Y-139190D01*
X42407Y-138880D01*
X42368Y-138570D01*
X42445Y-138208D01*
X42713Y-137950D01*
X42982Y-137847D01*
X43327D01*
G01X42982D02*
X42752Y-137692D01*
X42560Y-137433D01*
X42483Y-137123D01*
X42560Y-136813D01*
X42752Y-136555D01*
X43097Y-136400D01*
X43442Y-136452D01*
X43787Y-136658D01*
G01X40150Y-139500D02*
X39882Y-139448D01*
X39575Y-139293D01*
X39383Y-139035D01*
X39307Y-138673D01*
X39383Y-138312D01*
X39613Y-138002D01*
X39958Y-137847D01*
X40342D01*
X40572Y-137743D01*
X40763Y-137485D01*
X40840Y-137123D01*
X40725Y-136762D01*
X40457Y-136503D01*
X40150Y-136400D01*
X39843Y-136503D01*
X39575Y-136762D01*
X39460Y-137123D01*
X39537Y-137485D01*
X39728Y-137743D01*
X39958Y-137847D01*
X40342D01*
X40687Y-138002D01*
X40917Y-138312D01*
X40993Y-138673D01*
X40917Y-139035D01*
X40725Y-139293D01*
X40418Y-139448D01*
X40150Y-139500D01*
G01X47117Y-130500D02*
Y-127400D01*
X46158D01*
X45852Y-127555D01*
X45660Y-127762D01*
X45583Y-128175D01*
X45660Y-128588D01*
X45890Y-128847D01*
X46158Y-129002D01*
X47117D01*
G01X46158D02*
X45583Y-130500D01*
G01X44093Y-129880D02*
X43863Y-130242D01*
X43557Y-130448D01*
X43212Y-130500D01*
X42905Y-130448D01*
X42598Y-130190D01*
X42407Y-129880D01*
X42368Y-129570D01*
X42445Y-129208D01*
X42713Y-128950D01*
X42982Y-128847D01*
X43327D01*
G01X42982D02*
X42752Y-128692D01*
X42560Y-128433D01*
X42483Y-128123D01*
X42560Y-127813D01*
X42752Y-127555D01*
X43097Y-127400D01*
X43442Y-127452D01*
X43787Y-127658D01*
G01X40227Y-130500D02*
X40150Y-129828D01*
X40035Y-129260D01*
X39882Y-128743D01*
X39690Y-128175D01*
X39383Y-127400D01*
X40917D01*
G01X43507Y-119158D02*
X43737Y-119003D01*
X44005Y-118900D01*
X44312D01*
X44657Y-119055D01*
X44925Y-119313D01*
X45117Y-119623D01*
X45270Y-120140D01*
X45308Y-120605D01*
X45232Y-121070D01*
X45117Y-121380D01*
X44887Y-121690D01*
X44618Y-121897D01*
X44350Y-122000D01*
X44082D01*
X43813Y-121897D01*
X43583Y-121742D01*
X43392Y-121535D01*
G01X41250Y-122000D02*
Y-118900D01*
X41710Y-119520D01*
G01Y-122000D02*
X40790D01*
G01X38227D02*
X38150Y-121328D01*
X38035Y-120760D01*
X37882Y-120243D01*
X37690Y-119675D01*
X37383Y-118900D01*
X38917D01*
G01X30000Y-116000D02*
G02Y-124000I0J-4000D01*
G01X28732Y-36354D02*
G02Y-44354I0J-4000D01*
G01X42007Y-10158D02*
X42237Y-10003D01*
X42505Y-9900D01*
X42812D01*
X43157Y-10055D01*
X43425Y-10313D01*
X43617Y-10623D01*
X43770Y-11140D01*
X43808Y-11605D01*
X43732Y-12070D01*
X43617Y-12380D01*
X43387Y-12690D01*
X43118Y-12897D01*
X42850Y-13000D01*
X42582D01*
X42313Y-12897D01*
X42083Y-12742D01*
X41892Y-12535D01*
G01X40402Y-12638D02*
X40133Y-12897D01*
X39827Y-13000D01*
X39520Y-12897D01*
X39252Y-12587D01*
X39060Y-12122D01*
X38983Y-11657D01*
Y-11088D01*
X39060Y-10623D01*
X39252Y-10210D01*
X39482Y-10003D01*
X39750Y-9900D01*
X40057Y-10003D01*
X40287Y-10210D01*
X40440Y-10520D01*
X40517Y-10933D01*
X40440Y-11295D01*
X40248Y-11657D01*
X40018Y-11863D01*
X39750Y-11915D01*
X39443Y-11812D01*
X39213Y-11553D01*
X38983Y-11088D01*
G01X37378Y-10417D02*
X37148Y-10107D01*
X36880Y-9952D01*
X36573Y-9900D01*
X36190Y-10003D01*
X35922Y-10262D01*
X35845Y-10572D01*
X35883Y-10882D01*
X36037Y-11140D01*
X36803Y-11657D01*
X37148Y-12018D01*
X37378Y-12535D01*
X37455Y-13000D01*
X35845D01*
G01X41507Y-16658D02*
X41737Y-16503D01*
X42005Y-16400D01*
X42312D01*
X42657Y-16555D01*
X42925Y-16813D01*
X43117Y-17123D01*
X43270Y-17640D01*
X43308Y-18105D01*
X43232Y-18570D01*
X43117Y-18880D01*
X42887Y-19190D01*
X42618Y-19397D01*
X42350Y-19500D01*
X42082D01*
X41813Y-19397D01*
X41583Y-19242D01*
X41392Y-19035D01*
G01X39902Y-19138D02*
X39633Y-19397D01*
X39327Y-19500D01*
X39020Y-19397D01*
X38752Y-19087D01*
X38560Y-18622D01*
X38483Y-18157D01*
Y-17588D01*
X38560Y-17123D01*
X38752Y-16710D01*
X38982Y-16503D01*
X39250Y-16400D01*
X39557Y-16503D01*
X39787Y-16710D01*
X39940Y-17020D01*
X40017Y-17433D01*
X39940Y-17795D01*
X39748Y-18157D01*
X39518Y-18363D01*
X39250Y-18415D01*
X38943Y-18312D01*
X38713Y-18053D01*
X38483Y-17588D01*
G01X36150Y-19500D02*
Y-16400D01*
X36610Y-17020D01*
G01Y-19500D02*
X35690D01*
G01X43617Y-2000D02*
Y1100D01*
X42658D01*
X42352Y945D01*
X42160Y738D01*
X42083Y325D01*
X42160Y-88D01*
X42390Y-347D01*
X42658Y-502D01*
X43617D01*
G01X42658D02*
X42083Y-2000D01*
G01X39750D02*
X39482Y-1948D01*
X39175Y-1793D01*
X38983Y-1535D01*
X38907Y-1173D01*
X38983Y-812D01*
X39213Y-502D01*
X39558Y-347D01*
X39942D01*
X40172Y-243D01*
X40363Y15D01*
X40440Y377D01*
X40325Y738D01*
X40057Y997D01*
X39750Y1100D01*
X39443Y997D01*
X39175Y738D01*
X39060Y377D01*
X39137Y15D01*
X39328Y-243D01*
X39558Y-347D01*
X39942D01*
X40287Y-502D01*
X40517Y-812D01*
X40593Y-1173D01*
X40517Y-1535D01*
X40325Y-1793D01*
X40018Y-1948D01*
X39750Y-2000D01*
G01X37302Y-1638D02*
X37033Y-1897D01*
X36727Y-2000D01*
X36420Y-1897D01*
X36152Y-1587D01*
X35960Y-1122D01*
X35883Y-657D01*
Y-88D01*
X35960Y377D01*
X36152Y790D01*
X36382Y997D01*
X36650Y1100D01*
X36957Y997D01*
X37187Y790D01*
X37340Y480D01*
X37417Y67D01*
X37340Y-295D01*
X37148Y-657D01*
X36918Y-863D01*
X36650Y-915D01*
X36343Y-812D01*
X36113Y-553D01*
X35883Y-88D01*
G01X43617Y3500D02*
Y6600D01*
X42658D01*
X42352Y6445D01*
X42160Y6238D01*
X42083Y5825D01*
X42160Y5412D01*
X42390Y5153D01*
X42658Y4998D01*
X43617D01*
G01X42658D02*
X42083Y3500D01*
G01X39750D02*
X39482Y3552D01*
X39175Y3707D01*
X38983Y3965D01*
X38907Y4327D01*
X38983Y4688D01*
X39213Y4998D01*
X39558Y5153D01*
X39942D01*
X40172Y5257D01*
X40363Y5515D01*
X40440Y5877D01*
X40325Y6238D01*
X40057Y6497D01*
X39750Y6600D01*
X39443Y6497D01*
X39175Y6238D01*
X39060Y5877D01*
X39137Y5515D01*
X39328Y5257D01*
X39558Y5153D01*
X39942D01*
X40287Y4998D01*
X40517Y4688D01*
X40593Y4327D01*
X40517Y3965D01*
X40325Y3707D01*
X40018Y3552D01*
X39750Y3500D01*
G01X36650D02*
X36382Y3552D01*
X36075Y3707D01*
X35883Y3965D01*
X35807Y4327D01*
X35883Y4688D01*
X36113Y4998D01*
X36458Y5153D01*
X36842D01*
X37072Y5257D01*
X37263Y5515D01*
X37340Y5877D01*
X37225Y6238D01*
X36957Y6497D01*
X36650Y6600D01*
X36343Y6497D01*
X36075Y6238D01*
X35960Y5877D01*
X36037Y5515D01*
X36228Y5257D01*
X36458Y5153D01*
X36842D01*
X37187Y4998D01*
X37417Y4688D01*
X37493Y4327D01*
X37417Y3965D01*
X37225Y3707D01*
X36918Y3552D01*
X36650Y3500D01*
G01X43617Y-7000D02*
Y-3900D01*
X42658D01*
X42352Y-4055D01*
X42160Y-4262D01*
X42083Y-4675D01*
X42160Y-5088D01*
X42390Y-5347D01*
X42658Y-5502D01*
X43617D01*
G01X42658D02*
X42083Y-7000D01*
G01X39750D02*
X39482Y-6948D01*
X39175Y-6793D01*
X38983Y-6535D01*
X38907Y-6173D01*
X38983Y-5812D01*
X39213Y-5502D01*
X39558Y-5347D01*
X39942D01*
X40172Y-5243D01*
X40363Y-4985D01*
X40440Y-4623D01*
X40325Y-4262D01*
X40057Y-4003D01*
X39750Y-3900D01*
X39443Y-4003D01*
X39175Y-4262D01*
X39060Y-4623D01*
X39137Y-4985D01*
X39328Y-5243D01*
X39558Y-5347D01*
X39942D01*
X40287Y-5502D01*
X40517Y-5812D01*
X40593Y-6173D01*
X40517Y-6535D01*
X40325Y-6793D01*
X40018Y-6948D01*
X39750Y-7000D01*
G01X37493Y-6535D02*
X37263Y-6793D01*
X36995Y-6948D01*
X36650Y-7000D01*
X36305Y-6897D01*
X36037Y-6690D01*
X35845Y-6328D01*
X35807Y-5915D01*
X35883Y-5502D01*
X36075Y-5243D01*
X36343Y-5037D01*
X36612Y-4985D01*
X36880Y-5037D01*
X37225Y-5243D01*
X37110Y-3900D01*
X36075D01*
G01X43617Y14000D02*
Y17100D01*
X42658D01*
X42352Y16945D01*
X42160Y16738D01*
X42083Y16325D01*
X42160Y15912D01*
X42390Y15653D01*
X42658Y15498D01*
X43617D01*
G01X42658D02*
X42083Y14000D01*
G01X39750D02*
X39482Y14052D01*
X39175Y14207D01*
X38983Y14465D01*
X38907Y14827D01*
X38983Y15188D01*
X39213Y15498D01*
X39558Y15653D01*
X39942D01*
X40172Y15757D01*
X40363Y16015D01*
X40440Y16377D01*
X40325Y16738D01*
X40057Y16997D01*
X39750Y17100D01*
X39443Y16997D01*
X39175Y16738D01*
X39060Y16377D01*
X39137Y16015D01*
X39328Y15757D01*
X39558Y15653D01*
X39942D01*
X40287Y15498D01*
X40517Y15188D01*
X40593Y14827D01*
X40517Y14465D01*
X40325Y14207D01*
X40018Y14052D01*
X39750Y14000D01*
G01X36727D02*
X36650Y14672D01*
X36535Y15240D01*
X36382Y15757D01*
X36190Y16325D01*
X35883Y17100D01*
X37417D01*
G01X42007Y11342D02*
X42237Y11497D01*
X42505Y11600D01*
X42812D01*
X43157Y11445D01*
X43425Y11187D01*
X43617Y10877D01*
X43770Y10360D01*
X43808Y9895D01*
X43732Y9430D01*
X43617Y9120D01*
X43387Y8810D01*
X43118Y8603D01*
X42850Y8500D01*
X42582D01*
X42313Y8603D01*
X42083Y8758D01*
X41892Y8965D01*
G01X39750Y8500D02*
X39482Y8552D01*
X39175Y8707D01*
X38983Y8965D01*
X38907Y9327D01*
X38983Y9688D01*
X39213Y9998D01*
X39558Y10153D01*
X39942D01*
X40172Y10257D01*
X40363Y10515D01*
X40440Y10877D01*
X40325Y11238D01*
X40057Y11497D01*
X39750Y11600D01*
X39443Y11497D01*
X39175Y11238D01*
X39060Y10877D01*
X39137Y10515D01*
X39328Y10257D01*
X39558Y10153D01*
X39942D01*
X40287Y9998D01*
X40517Y9688D01*
X40593Y9327D01*
X40517Y8965D01*
X40325Y8707D01*
X40018Y8552D01*
X39750Y8500D01*
G01X36650D02*
Y11600D01*
X37110Y10980D01*
G01Y8500D02*
X36190D01*
G01X33276Y28480D02*
G02Y36480I0J4000D01*
G01X48276Y28480D02*
X33276D01*
G01Y19622D02*
G02Y27622I0J4000D01*
G01X48276Y19622D02*
X33276D01*
G01X48276Y27622D02*
X33276D01*
G01X50276Y37339D02*
X31276D01*
Y45339D01*
X50276D01*
Y37339D01*
G01X48276Y36480D02*
X33276D01*
G01X50276Y46197D02*
X31276D01*
Y54197D01*
X50276D01*
Y46197D01*
G01X31417Y63055D02*
X50417D01*
Y55055D01*
X31417D01*
Y63055D01*
G01X33276Y63913D02*
G02Y71913I0J4000D01*
G01X48276Y63913D02*
X33276D01*
G01X31417Y80772D02*
X50417D01*
Y72772D01*
X31417D01*
Y80772D01*
G01X33500Y81500D02*
G02Y89500I0J4000D01*
G01X48500Y81500D02*
X33500D01*
G01X48276Y71913D02*
X33276D01*
G01X50500Y90500D02*
X31500D01*
Y98500D01*
X50500D01*
Y90500D01*
G01X48500Y89500D02*
X33500D01*
G01X34000Y119000D02*
G02Y127000I0J4000D01*
G01X49000Y119000D02*
X34000D01*
G01X49000Y127000D02*
X34000D01*
G01Y128000D02*
G02Y136000I0J4000D01*
G01X49000Y128000D02*
X34000D01*
G01X49000Y136000D02*
X34000D01*
G01X32000Y152500D02*
X51000D01*
Y144500D01*
X32000D01*
Y152500D01*
G01X67500Y-142000D02*
X48500D01*
Y-134000D01*
X67500D01*
Y-142000D01*
G01Y-133000D02*
X48500D01*
Y-125000D01*
X67500D01*
Y-133000D01*
G01X50500Y-116000D02*
G03Y-124000I0J-4000D01*
G01Y-116000D02*
X65500D01*
G01X50500Y-124000D02*
X65500D01*
G01X53007Y-88158D02*
X53237Y-88003D01*
X53505Y-87900D01*
X53812D01*
X54157Y-88055D01*
X54425Y-88313D01*
X54617Y-88623D01*
X54770Y-89140D01*
X54808Y-89605D01*
X54732Y-90070D01*
X54617Y-90380D01*
X54387Y-90690D01*
X54118Y-90897D01*
X53850Y-91000D01*
X53582D01*
X53313Y-90897D01*
X53083Y-90742D01*
X52892Y-90535D01*
G01X51593Y-90380D02*
X51363Y-90742D01*
X51057Y-90948D01*
X50712Y-91000D01*
X50405Y-90948D01*
X50098Y-90690D01*
X49907Y-90380D01*
X49868Y-90070D01*
X49945Y-89708D01*
X50213Y-89450D01*
X50482Y-89347D01*
X50827D01*
G01X50482D02*
X50252Y-89192D01*
X50060Y-88933D01*
X49983Y-88623D01*
X50060Y-88313D01*
X50252Y-88055D01*
X50597Y-87900D01*
X50942Y-87952D01*
X51287Y-88158D01*
G01X47650Y-87900D02*
X47957Y-88003D01*
X48187Y-88262D01*
X48340Y-88572D01*
X48455Y-88985D01*
X48493Y-89450D01*
X48455Y-89915D01*
X48340Y-90328D01*
X48187Y-90638D01*
X47957Y-90897D01*
X47650Y-91000D01*
X47343Y-90897D01*
X47113Y-90638D01*
X46960Y-90328D01*
X46845Y-89915D01*
X46807Y-89450D01*
X46845Y-88985D01*
X46960Y-88572D01*
X47113Y-88262D01*
X47343Y-88003D01*
X47650Y-87900D01*
G01X53007Y-97658D02*
X53237Y-97503D01*
X53505Y-97400D01*
X53812D01*
X54157Y-97555D01*
X54425Y-97813D01*
X54617Y-98123D01*
X54770Y-98640D01*
X54808Y-99105D01*
X54732Y-99570D01*
X54617Y-99880D01*
X54387Y-100190D01*
X54118Y-100397D01*
X53850Y-100500D01*
X53582D01*
X53313Y-100397D01*
X53083Y-100242D01*
X52892Y-100035D01*
G01X51478Y-97917D02*
X51248Y-97607D01*
X50980Y-97452D01*
X50673Y-97400D01*
X50290Y-97503D01*
X50022Y-97762D01*
X49945Y-98072D01*
X49983Y-98382D01*
X50137Y-98640D01*
X50903Y-99157D01*
X51248Y-99518D01*
X51478Y-100035D01*
X51555Y-100500D01*
X49945D01*
G01X47727D02*
X47650Y-99828D01*
X47535Y-99260D01*
X47382Y-98743D01*
X47190Y-98175D01*
X46883Y-97400D01*
X48417D01*
G01X55507Y-11158D02*
X55737Y-11003D01*
X56005Y-10900D01*
X56312D01*
X56657Y-11055D01*
X56925Y-11313D01*
X57117Y-11623D01*
X57270Y-12140D01*
X57308Y-12605D01*
X57232Y-13070D01*
X57117Y-13380D01*
X56887Y-13690D01*
X56618Y-13897D01*
X56350Y-14000D01*
X56082D01*
X55813Y-13897D01*
X55583Y-13742D01*
X55392Y-13535D01*
G01X53250Y-14000D02*
X52982Y-13948D01*
X52675Y-13793D01*
X52483Y-13535D01*
X52407Y-13173D01*
X52483Y-12812D01*
X52713Y-12502D01*
X53058Y-12347D01*
X53442D01*
X53672Y-12243D01*
X53863Y-11985D01*
X53940Y-11623D01*
X53825Y-11262D01*
X53557Y-11003D01*
X53250Y-10900D01*
X52943Y-11003D01*
X52675Y-11262D01*
X52560Y-11623D01*
X52637Y-11985D01*
X52828Y-12243D01*
X53058Y-12347D01*
X53442D01*
X53787Y-12502D01*
X54017Y-12812D01*
X54093Y-13173D01*
X54017Y-13535D01*
X53825Y-13793D01*
X53518Y-13948D01*
X53250Y-14000D01*
G01X50993Y-13535D02*
X50763Y-13793D01*
X50495Y-13948D01*
X50150Y-14000D01*
X49805Y-13897D01*
X49537Y-13690D01*
X49345Y-13328D01*
X49307Y-12915D01*
X49383Y-12502D01*
X49575Y-12243D01*
X49843Y-12037D01*
X50112Y-11985D01*
X50380Y-12037D01*
X50725Y-12243D01*
X50610Y-10900D01*
X49575D01*
G01X59617Y4000D02*
Y7100D01*
X58658D01*
X58352Y6945D01*
X58160Y6738D01*
X58083Y6325D01*
X58160Y5912D01*
X58390Y5653D01*
X58658Y5498D01*
X59617D01*
G01X58658D02*
X58083Y4000D01*
G01X56402Y4362D02*
X56133Y4103D01*
X55827Y4000D01*
X55520Y4103D01*
X55252Y4413D01*
X55060Y4878D01*
X54983Y5343D01*
Y5912D01*
X55060Y6377D01*
X55252Y6790D01*
X55482Y6997D01*
X55750Y7100D01*
X56057Y6997D01*
X56287Y6790D01*
X56440Y6480D01*
X56517Y6067D01*
X56440Y5705D01*
X56248Y5343D01*
X56018Y5137D01*
X55750Y5085D01*
X55443Y5188D01*
X55213Y5447D01*
X54983Y5912D01*
G01X52650Y4000D02*
X52382Y4052D01*
X52075Y4207D01*
X51883Y4465D01*
X51807Y4827D01*
X51883Y5188D01*
X52113Y5498D01*
X52458Y5653D01*
X52842D01*
X53072Y5757D01*
X53263Y6015D01*
X53340Y6377D01*
X53225Y6738D01*
X52957Y6997D01*
X52650Y7100D01*
X52343Y6997D01*
X52075Y6738D01*
X51960Y6377D01*
X52037Y6015D01*
X52228Y5757D01*
X52458Y5653D01*
X52842D01*
X53187Y5498D01*
X53417Y5188D01*
X53493Y4827D01*
X53417Y4465D01*
X53225Y4207D01*
X52918Y4052D01*
X52650Y4000D01*
G01X59617Y-4000D02*
Y-900D01*
X58658D01*
X58352Y-1055D01*
X58160Y-1262D01*
X58083Y-1675D01*
X58160Y-2088D01*
X58390Y-2347D01*
X58658Y-2502D01*
X59617D01*
G01X58658D02*
X58083Y-4000D01*
G01X55750D02*
Y-900D01*
X56210Y-1520D01*
G01Y-4000D02*
X55290D01*
G01X52650Y-900D02*
X52957Y-1003D01*
X53187Y-1262D01*
X53340Y-1572D01*
X53455Y-1985D01*
X53493Y-2450D01*
X53455Y-2915D01*
X53340Y-3328D01*
X53187Y-3638D01*
X52957Y-3897D01*
X52650Y-4000D01*
X52343Y-3897D01*
X52113Y-3638D01*
X51960Y-3328D01*
X51845Y-2915D01*
X51807Y-2450D01*
X51845Y-1985D01*
X51960Y-1572D01*
X52113Y-1262D01*
X52343Y-1003D01*
X52650Y-900D01*
G01X49550D02*
X49857Y-1003D01*
X50087Y-1262D01*
X50240Y-1572D01*
X50355Y-1985D01*
X50393Y-2450D01*
X50355Y-2915D01*
X50240Y-3328D01*
X50087Y-3638D01*
X49857Y-3897D01*
X49550Y-4000D01*
X49243Y-3897D01*
X49013Y-3638D01*
X48860Y-3328D01*
X48745Y-2915D01*
X48707Y-2450D01*
X48745Y-1985D01*
X48860Y-1572D01*
X49013Y-1262D01*
X49243Y-1003D01*
X49550Y-900D01*
G01X59117Y13500D02*
Y16600D01*
X58158D01*
X57852Y16445D01*
X57660Y16238D01*
X57583Y15825D01*
X57660Y15412D01*
X57890Y15153D01*
X58158Y14998D01*
X59117D01*
G01X58158D02*
X57583Y13500D01*
G01X55250D02*
Y16600D01*
X55710Y15980D01*
G01Y13500D02*
X54790D01*
G01X52150Y16600D02*
X52457Y16497D01*
X52687Y16238D01*
X52840Y15928D01*
X52955Y15515D01*
X52993Y15050D01*
X52955Y14585D01*
X52840Y14172D01*
X52687Y13862D01*
X52457Y13603D01*
X52150Y13500D01*
X51843Y13603D01*
X51613Y13862D01*
X51460Y14172D01*
X51345Y14585D01*
X51307Y15050D01*
X51345Y15515D01*
X51460Y15928D01*
X51613Y16238D01*
X51843Y16497D01*
X52150Y16600D01*
G01X49778Y16083D02*
X49548Y16393D01*
X49280Y16548D01*
X48973Y16600D01*
X48590Y16497D01*
X48322Y16238D01*
X48245Y15928D01*
X48283Y15618D01*
X48437Y15360D01*
X49203Y14843D01*
X49548Y14482D01*
X49778Y13965D01*
X49855Y13500D01*
X48245D01*
G01X48276Y28480D02*
G03Y36480I0J4000D01*
G01Y19622D02*
G03Y27622I0J4000D01*
G01X59117Y40000D02*
Y43100D01*
X58158D01*
X57852Y42945D01*
X57660Y42738D01*
X57583Y42325D01*
X57660Y41912D01*
X57890Y41653D01*
X58158Y41498D01*
X59117D01*
G01X58158D02*
X57583Y40000D01*
G01X55327D02*
X55250Y40672D01*
X55135Y41240D01*
X54982Y41757D01*
X54790Y42325D01*
X54483Y43100D01*
X56017D01*
G01X52878Y41292D02*
X52610Y41653D01*
X52380Y41860D01*
X52073Y41963D01*
X51805Y41860D01*
X51613Y41653D01*
X51460Y41343D01*
X51422Y40982D01*
X51460Y40672D01*
X51613Y40362D01*
X51843Y40103D01*
X52112Y40000D01*
X52418Y40103D01*
X52687Y40413D01*
X52840Y40878D01*
X52878Y41395D01*
X52802Y42067D01*
X52687Y42428D01*
X52495Y42790D01*
X52227Y43048D01*
X51958Y43100D01*
X51690Y42997D01*
X51498Y42738D01*
G01X56342Y47993D02*
X56497Y47763D01*
X56600Y47495D01*
Y47188D01*
X56445Y46843D01*
X56187Y46575D01*
X55877Y46383D01*
X55360Y46230D01*
X54895Y46192D01*
X54430Y46268D01*
X54120Y46383D01*
X53810Y46613D01*
X53603Y46882D01*
X53500Y47150D01*
Y47418D01*
X53603Y47687D01*
X53758Y47917D01*
X53965Y48108D01*
G01X53500Y50173D02*
X54172Y50250D01*
X54740Y50365D01*
X55257Y50518D01*
X55825Y50710D01*
X56600Y51017D01*
Y49483D01*
G01X53500Y53810D02*
X56600D01*
X54378Y52392D01*
Y54308D01*
G01X56507Y60342D02*
X56737Y60497D01*
X57005Y60600D01*
X57312D01*
X57657Y60445D01*
X57925Y60187D01*
X58117Y59877D01*
X58270Y59360D01*
X58308Y58895D01*
X58232Y58430D01*
X58117Y58120D01*
X57887Y57810D01*
X57618Y57603D01*
X57350Y57500D01*
X57082D01*
X56813Y57603D01*
X56583Y57758D01*
X56392Y57965D01*
G01X55093D02*
X54863Y57707D01*
X54595Y57552D01*
X54250Y57500D01*
X53905Y57603D01*
X53637Y57810D01*
X53445Y58172D01*
X53407Y58585D01*
X53483Y58998D01*
X53675Y59257D01*
X53943Y59463D01*
X54212Y59515D01*
X54480Y59463D01*
X54825Y59257D01*
X54710Y60600D01*
X53675D01*
G01X51150Y57500D02*
Y60600D01*
X51610Y59980D01*
G01Y57500D02*
X50690D01*
G01X48276Y63913D02*
G03Y71913I0J4000D01*
G01X48500Y81500D02*
G03Y89500I0J4000D01*
G01X56342Y75993D02*
X56497Y75763D01*
X56600Y75495D01*
Y75188D01*
X56445Y74843D01*
X56187Y74575D01*
X55877Y74383D01*
X55360Y74230D01*
X54895Y74192D01*
X54430Y74268D01*
X54120Y74383D01*
X53810Y74613D01*
X53603Y74882D01*
X53500Y75150D01*
Y75418D01*
X53603Y75687D01*
X53758Y75917D01*
X53965Y76108D01*
G01Y77407D02*
X53707Y77637D01*
X53552Y77905D01*
X53500Y78250D01*
X53603Y78595D01*
X53810Y78863D01*
X54172Y79055D01*
X54585Y79093D01*
X54998Y79017D01*
X55257Y78825D01*
X55463Y78557D01*
X55515Y78288D01*
X55463Y78020D01*
X55257Y77675D01*
X56600Y77790D01*
Y78825D01*
G01X56083Y80622D02*
X56393Y80852D01*
X56548Y81120D01*
X56600Y81427D01*
X56497Y81810D01*
X56238Y82078D01*
X55928Y82155D01*
X55618Y82117D01*
X55360Y81963D01*
X54843Y81197D01*
X54482Y80852D01*
X53965Y80622D01*
X53500Y80545D01*
Y82155D01*
G01X51507Y105342D02*
X51737Y105497D01*
X52005Y105600D01*
X52312D01*
X52657Y105445D01*
X52925Y105187D01*
X53117Y104877D01*
X53270Y104360D01*
X53308Y103895D01*
X53232Y103430D01*
X53117Y103120D01*
X52887Y102810D01*
X52618Y102603D01*
X52350Y102500D01*
X52082D01*
X51813Y102603D01*
X51583Y102758D01*
X51392Y102965D01*
G01X49978Y103792D02*
X49710Y104153D01*
X49480Y104360D01*
X49173Y104463D01*
X48905Y104360D01*
X48713Y104153D01*
X48560Y103843D01*
X48522Y103482D01*
X48560Y103172D01*
X48713Y102862D01*
X48943Y102603D01*
X49212Y102500D01*
X49518Y102603D01*
X49787Y102913D01*
X49940Y103378D01*
X49978Y103895D01*
X49902Y104567D01*
X49787Y104928D01*
X49595Y105290D01*
X49327Y105548D01*
X49058Y105600D01*
X48790Y105497D01*
X48598Y105238D01*
G01X46802Y102862D02*
X46533Y102603D01*
X46227Y102500D01*
X45920Y102603D01*
X45652Y102913D01*
X45460Y103378D01*
X45383Y103843D01*
Y104412D01*
X45460Y104877D01*
X45652Y105290D01*
X45882Y105497D01*
X46150Y105600D01*
X46457Y105497D01*
X46687Y105290D01*
X46840Y104980D01*
X46917Y104567D01*
X46840Y104205D01*
X46648Y103843D01*
X46418Y103637D01*
X46150Y103585D01*
X45843Y103688D01*
X45613Y103947D01*
X45383Y104412D01*
G01X55117Y112500D02*
Y115600D01*
X54158D01*
X53852Y115445D01*
X53660Y115238D01*
X53583Y114825D01*
X53660Y114412D01*
X53890Y114153D01*
X54158Y113998D01*
X55117D01*
G01X54158D02*
X53583Y112500D01*
G01X51327D02*
X51250Y113172D01*
X51135Y113740D01*
X50982Y114257D01*
X50790Y114825D01*
X50483Y115600D01*
X52017D01*
G01X48878Y115083D02*
X48648Y115393D01*
X48380Y115548D01*
X48073Y115600D01*
X47690Y115497D01*
X47422Y115238D01*
X47345Y114928D01*
X47383Y114618D01*
X47537Y114360D01*
X48303Y113843D01*
X48648Y113482D01*
X48878Y112965D01*
X48955Y112500D01*
X47345D01*
G01X49000Y119000D02*
G03Y127000I0J4000D01*
G01Y128000D02*
G03Y136000I0J4000D01*
G01X59617Y147000D02*
Y150100D01*
X58658D01*
X58352Y149945D01*
X58160Y149738D01*
X58083Y149325D01*
X58160Y148912D01*
X58390Y148653D01*
X58658Y148498D01*
X59617D01*
G01X58658D02*
X58083Y147000D01*
G01X55827D02*
X55750Y147672D01*
X55635Y148240D01*
X55482Y148757D01*
X55290Y149325D01*
X54983Y150100D01*
X56517D01*
G01X52650Y147000D02*
Y150100D01*
X53110Y149480D01*
G01Y147000D02*
X52190D01*
G01X65500Y-116000D02*
G02Y-124000I0J-4000D01*
G01X60000Y-103000D02*
G02Y-95000I0J4000D01*
G01X75000Y-103000D02*
X60000D01*
G01Y-94000D02*
G02Y-86000I0J4000D01*
G01X75000Y-94000D02*
X60000D01*
G01X75000Y-95000D02*
X60000D01*
G01X75000Y-86000D02*
X60000D01*
G01Y-61000D02*
G03Y-69000I0J-4000D01*
G01D02*
X75000D01*
G01X60000Y-51000D02*
G03Y-59000I0J-4000D01*
G01Y-51000D02*
X75000D01*
G01X60000Y-59000D02*
X75000D01*
G01X60000Y-61000D02*
X75000D01*
G01X62945Y-7811D02*
G03Y-15811I0J-4000D01*
G01D02*
X77945D01*
G01X60945Y9906D02*
X79945D01*
Y1906D01*
X60945D01*
Y9906D01*
G01Y1047D02*
X79945D01*
Y-6953D01*
X60945D01*
Y1047D01*
G01X62945Y-7811D02*
X77945D01*
G01X79803Y10764D02*
X60803D01*
Y18764D01*
X79803D01*
Y10764D01*
G01X71507Y27842D02*
X71737Y27997D01*
X72005Y28100D01*
X72312D01*
X72657Y27945D01*
X72925Y27687D01*
X73117Y27377D01*
X73270Y26860D01*
X73308Y26395D01*
X73232Y25930D01*
X73117Y25620D01*
X72887Y25310D01*
X72618Y25103D01*
X72350Y25000D01*
X72082D01*
X71813Y25103D01*
X71583Y25258D01*
X71392Y25465D01*
G01X69327Y25000D02*
X69250Y25672D01*
X69135Y26240D01*
X68982Y26757D01*
X68790Y27325D01*
X68483Y28100D01*
X70017D01*
G01X66993Y25620D02*
X66763Y25258D01*
X66457Y25052D01*
X66112Y25000D01*
X65805Y25052D01*
X65498Y25310D01*
X65307Y25620D01*
X65268Y25930D01*
X65345Y26292D01*
X65613Y26550D01*
X65882Y26653D01*
X66227D01*
G01X65882D02*
X65652Y26808D01*
X65460Y27067D01*
X65383Y27377D01*
X65460Y27687D01*
X65652Y27945D01*
X65997Y28100D01*
X66342Y28048D01*
X66687Y27842D01*
G01X61961Y36480D02*
G03Y28480I0J-4000D01*
G01D02*
X76961D01*
G01X78819Y37339D02*
X59819D01*
Y45339D01*
X78819D01*
Y37339D01*
G01X61961Y36480D02*
X76961D01*
G01X61961Y54197D02*
G03Y46197I0J-4000D01*
G01Y54197D02*
X76961D01*
G01X61961Y46197D02*
X76961D01*
G01X61961Y63055D02*
G03Y55055I0J-4000D01*
G01D02*
X76961D01*
G01X55000Y63883D02*
X58100D01*
Y64842D01*
X57945Y65148D01*
X57738Y65340D01*
X57325Y65417D01*
X56912Y65340D01*
X56653Y65110D01*
X56498Y64842D01*
Y63883D01*
G01Y64842D02*
X55000Y65417D01*
G01X56292Y67022D02*
X56653Y67290D01*
X56860Y67520D01*
X56963Y67827D01*
X56860Y68095D01*
X56653Y68287D01*
X56343Y68440D01*
X55982Y68478D01*
X55672Y68440D01*
X55362Y68287D01*
X55103Y68057D01*
X55000Y67788D01*
X55103Y67482D01*
X55413Y67213D01*
X55878Y67060D01*
X56395Y67022D01*
X57067Y67098D01*
X57428Y67213D01*
X57790Y67405D01*
X58048Y67673D01*
X58100Y67942D01*
X57997Y68210D01*
X57738Y68402D01*
G01X55000Y70850D02*
X58100D01*
X57480Y70390D01*
G01X55000D02*
Y71310D01*
G01X78819Y63913D02*
X59819D01*
Y71913D01*
X78819D01*
Y63913D01*
G01X61961Y63055D02*
X76961D01*
G01X61961Y89630D02*
G03Y81630I0J-4000D01*
G01D02*
X76961D01*
G01X61961Y80772D02*
G03Y72772I0J-4000D01*
G01Y80772D02*
X76961D01*
G01X61961Y72772D02*
X76961D01*
G01X71507Y93842D02*
X71737Y93997D01*
X72005Y94100D01*
X72312D01*
X72657Y93945D01*
X72925Y93687D01*
X73117Y93377D01*
X73270Y92860D01*
X73308Y92395D01*
X73232Y91930D01*
X73117Y91620D01*
X72887Y91310D01*
X72618Y91103D01*
X72350Y91000D01*
X72082D01*
X71813Y91103D01*
X71583Y91258D01*
X71392Y91465D01*
G01X69327Y91000D02*
X69250Y91672D01*
X69135Y92240D01*
X68982Y92757D01*
X68790Y93325D01*
X68483Y94100D01*
X70017D01*
G01X66150Y91000D02*
Y94100D01*
X66610Y93480D01*
G01Y91000D02*
X65690D01*
G01X61961Y89630D02*
X76961D01*
G01X56024Y117189D02*
X75024D01*
Y109189D01*
X56024D01*
Y117189D01*
G01X58024Y108331D02*
G03Y100331I0J-4000D01*
G01Y108331D02*
X73024D01*
G01X58024Y100331D02*
X73024D01*
G01X60007Y124342D02*
X60237Y124497D01*
X60505Y124600D01*
X60812D01*
X61157Y124445D01*
X61425Y124187D01*
X61617Y123877D01*
X61770Y123360D01*
X61808Y122895D01*
X61732Y122430D01*
X61617Y122120D01*
X61387Y121810D01*
X61118Y121603D01*
X60850Y121500D01*
X60582D01*
X60313Y121603D01*
X60083Y121758D01*
X59892Y121965D01*
G01X58478Y122792D02*
X58210Y123153D01*
X57980Y123360D01*
X57673Y123463D01*
X57405Y123360D01*
X57213Y123153D01*
X57060Y122843D01*
X57022Y122482D01*
X57060Y122172D01*
X57213Y121862D01*
X57443Y121603D01*
X57712Y121500D01*
X58018Y121603D01*
X58287Y121913D01*
X58440Y122378D01*
X58478Y122895D01*
X58402Y123567D01*
X58287Y123928D01*
X58095Y124290D01*
X57827Y124548D01*
X57558Y124600D01*
X57290Y124497D01*
X57098Y124238D01*
G01X54650Y124600D02*
X54957Y124497D01*
X55187Y124238D01*
X55340Y123928D01*
X55455Y123515D01*
X55493Y123050D01*
X55455Y122585D01*
X55340Y122172D01*
X55187Y121862D01*
X54957Y121603D01*
X54650Y121500D01*
X54343Y121603D01*
X54113Y121862D01*
X53960Y122172D01*
X53845Y122585D01*
X53807Y123050D01*
X53845Y123515D01*
X53960Y123928D01*
X54113Y124238D01*
X54343Y124497D01*
X54650Y124600D01*
G01X60507Y133842D02*
X60737Y133997D01*
X61005Y134100D01*
X61312D01*
X61657Y133945D01*
X61925Y133687D01*
X62117Y133377D01*
X62270Y132860D01*
X62308Y132395D01*
X62232Y131930D01*
X62117Y131620D01*
X61887Y131310D01*
X61618Y131103D01*
X61350Y131000D01*
X61082D01*
X60813Y131103D01*
X60583Y131258D01*
X60392Y131465D01*
G01X58978Y132292D02*
X58710Y132653D01*
X58480Y132860D01*
X58173Y132963D01*
X57905Y132860D01*
X57713Y132653D01*
X57560Y132343D01*
X57522Y131982D01*
X57560Y131672D01*
X57713Y131362D01*
X57943Y131103D01*
X58212Y131000D01*
X58518Y131103D01*
X58787Y131413D01*
X58940Y131878D01*
X58978Y132395D01*
X58902Y133067D01*
X58787Y133428D01*
X58595Y133790D01*
X58327Y134048D01*
X58058Y134100D01*
X57790Y133997D01*
X57598Y133738D01*
G01X55878Y133583D02*
X55648Y133893D01*
X55380Y134048D01*
X55073Y134100D01*
X54690Y133997D01*
X54422Y133738D01*
X54345Y133428D01*
X54383Y133118D01*
X54537Y132860D01*
X55303Y132343D01*
X55648Y131982D01*
X55878Y131465D01*
X55955Y131000D01*
X54345D01*
G01X82117Y-139500D02*
Y-136400D01*
X81158D01*
X80852Y-136555D01*
X80660Y-136762D01*
X80583Y-137175D01*
X80660Y-137588D01*
X80890Y-137847D01*
X81158Y-138002D01*
X82117D01*
G01X81158D02*
X80583Y-139500D01*
G01X77790D02*
Y-136400D01*
X79208Y-138622D01*
X77292D01*
G01X75150Y-136400D02*
X75457Y-136503D01*
X75687Y-136762D01*
X75840Y-137072D01*
X75955Y-137485D01*
X75993Y-137950D01*
X75955Y-138415D01*
X75840Y-138828D01*
X75687Y-139138D01*
X75457Y-139397D01*
X75150Y-139500D01*
X74843Y-139397D01*
X74613Y-139138D01*
X74460Y-138828D01*
X74345Y-138415D01*
X74307Y-137950D01*
X74345Y-137485D01*
X74460Y-137072D01*
X74613Y-136762D01*
X74843Y-136503D01*
X75150Y-136400D01*
G01X82117Y-131000D02*
Y-127900D01*
X81158D01*
X80852Y-128055D01*
X80660Y-128262D01*
X80583Y-128675D01*
X80660Y-129088D01*
X80890Y-129347D01*
X81158Y-129502D01*
X82117D01*
G01X81158D02*
X80583Y-131000D01*
G01X79093Y-130380D02*
X78863Y-130742D01*
X78557Y-130948D01*
X78212Y-131000D01*
X77905Y-130948D01*
X77598Y-130690D01*
X77407Y-130380D01*
X77368Y-130070D01*
X77445Y-129708D01*
X77713Y-129450D01*
X77982Y-129347D01*
X78327D01*
G01X77982D02*
X77752Y-129192D01*
X77560Y-128933D01*
X77483Y-128623D01*
X77560Y-128313D01*
X77752Y-128055D01*
X78097Y-127900D01*
X78442Y-127952D01*
X78787Y-128158D01*
G01X75802Y-130638D02*
X75533Y-130897D01*
X75227Y-131000D01*
X74920Y-130897D01*
X74652Y-130587D01*
X74460Y-130122D01*
X74383Y-129657D01*
Y-129088D01*
X74460Y-128623D01*
X74652Y-128210D01*
X74882Y-128003D01*
X75150Y-127900D01*
X75457Y-128003D01*
X75687Y-128210D01*
X75840Y-128520D01*
X75917Y-128933D01*
X75840Y-129295D01*
X75648Y-129657D01*
X75418Y-129863D01*
X75150Y-129915D01*
X74843Y-129812D01*
X74613Y-129553D01*
X74383Y-129088D01*
G01X79007Y-118658D02*
X79237Y-118503D01*
X79505Y-118400D01*
X79812D01*
X80157Y-118555D01*
X80425Y-118813D01*
X80617Y-119123D01*
X80770Y-119640D01*
X80808Y-120105D01*
X80732Y-120570D01*
X80617Y-120880D01*
X80387Y-121190D01*
X80118Y-121397D01*
X79850Y-121500D01*
X79582D01*
X79313Y-121397D01*
X79083Y-121242D01*
X78892Y-121035D01*
G01X76750Y-121500D02*
Y-118400D01*
X77210Y-119020D01*
G01Y-121500D02*
X76290D01*
G01X73650D02*
X73382Y-121448D01*
X73075Y-121293D01*
X72883Y-121035D01*
X72807Y-120673D01*
X72883Y-120312D01*
X73113Y-120002D01*
X73458Y-119847D01*
X73842D01*
X74072Y-119743D01*
X74263Y-119485D01*
X74340Y-119123D01*
X74225Y-118762D01*
X73957Y-118503D01*
X73650Y-118400D01*
X73343Y-118503D01*
X73075Y-118762D01*
X72960Y-119123D01*
X73037Y-119485D01*
X73228Y-119743D01*
X73458Y-119847D01*
X73842D01*
X74187Y-120002D01*
X74417Y-120312D01*
X74493Y-120673D01*
X74417Y-121035D01*
X74225Y-121293D01*
X73918Y-121448D01*
X73650Y-121500D01*
G01X75000Y-103000D02*
G03Y-95000I0J4000D01*
G01Y-94000D02*
G03Y-86000I0J4000D01*
G01Y-61000D02*
G02Y-69000I0J-4000D01*
G01Y-51000D02*
G02Y-59000I0J-4000D01*
G01X77945Y-7811D02*
G02Y-15811I0J-4000D01*
G01X76961Y36480D02*
G02Y28480I0J-4000D01*
G01Y54197D02*
G02Y46197I0J-4000D01*
G01Y63055D02*
G02Y55055I0J-4000D01*
G01Y89630D02*
G02Y81630I0J-4000D01*
G01Y80772D02*
G02Y72772I0J-4000D01*
G01X98504Y109189D02*
X79504D01*
Y117189D01*
X98504D01*
Y109189D01*
G01X73024Y108331D02*
G02Y100331I0J-4000D01*
G01X81504D02*
G02Y108331I0J4000D01*
G01X103000Y-142000D02*
X84000D01*
Y-134000D01*
X103000D01*
Y-142000D01*
G01Y-133000D02*
X84000D01*
Y-125000D01*
X103000D01*
Y-133000D01*
G01X86000Y-116000D02*
G03Y-124000I0J-4000D01*
G01Y-116000D02*
X101000D01*
G01X86000Y-124000D02*
X101000D01*
G01X85500Y-94000D02*
G02Y-86000I0J4000D01*
G01X100500Y-94000D02*
X85500D01*
G01X95507Y-81658D02*
X95737Y-81503D01*
X96005Y-81400D01*
X96312D01*
X96657Y-81555D01*
X96925Y-81813D01*
X97117Y-82123D01*
X97270Y-82640D01*
X97308Y-83105D01*
X97232Y-83570D01*
X97117Y-83880D01*
X96887Y-84190D01*
X96618Y-84397D01*
X96350Y-84500D01*
X96082D01*
X95813Y-84397D01*
X95583Y-84242D01*
X95392Y-84035D01*
G01X93978Y-81917D02*
X93748Y-81607D01*
X93480Y-81452D01*
X93173Y-81400D01*
X92790Y-81503D01*
X92522Y-81762D01*
X92445Y-82072D01*
X92483Y-82382D01*
X92637Y-82640D01*
X93403Y-83157D01*
X93748Y-83518D01*
X93978Y-84035D01*
X94055Y-84500D01*
X92445D01*
G01X90993Y-83880D02*
X90763Y-84242D01*
X90457Y-84448D01*
X90112Y-84500D01*
X89805Y-84448D01*
X89498Y-84190D01*
X89307Y-83880D01*
X89268Y-83570D01*
X89345Y-83208D01*
X89613Y-82950D01*
X89882Y-82847D01*
X90227D01*
G01X89882D02*
X89652Y-82692D01*
X89460Y-82433D01*
X89383Y-82123D01*
X89460Y-81813D01*
X89652Y-81555D01*
X89997Y-81400D01*
X90342Y-81452D01*
X90687Y-81658D01*
G01X100500Y-86000D02*
X85500D01*
G01X87007Y-64158D02*
X87237Y-64003D01*
X87505Y-63900D01*
X87812D01*
X88157Y-64055D01*
X88425Y-64313D01*
X88617Y-64623D01*
X88770Y-65140D01*
X88808Y-65605D01*
X88732Y-66070D01*
X88617Y-66380D01*
X88387Y-66690D01*
X88118Y-66897D01*
X87850Y-67000D01*
X87582D01*
X87313Y-66897D01*
X87083Y-66742D01*
X86892Y-66535D01*
G01X85478Y-64417D02*
X85248Y-64107D01*
X84980Y-63952D01*
X84673Y-63900D01*
X84290Y-64003D01*
X84022Y-64262D01*
X83945Y-64572D01*
X83983Y-64882D01*
X84137Y-65140D01*
X84903Y-65657D01*
X85248Y-66018D01*
X85478Y-66535D01*
X85555Y-67000D01*
X83945D01*
G01X82302Y-66638D02*
X82033Y-66897D01*
X81727Y-67000D01*
X81420Y-66897D01*
X81152Y-66587D01*
X80960Y-66122D01*
X80883Y-65657D01*
Y-65088D01*
X80960Y-64623D01*
X81152Y-64210D01*
X81382Y-64003D01*
X81650Y-63900D01*
X81957Y-64003D01*
X82187Y-64210D01*
X82340Y-64520D01*
X82417Y-64933D01*
X82340Y-65295D01*
X82148Y-65657D01*
X81918Y-65863D01*
X81650Y-65915D01*
X81343Y-65812D01*
X81113Y-65553D01*
X80883Y-65088D01*
G01X86507Y-53658D02*
X86737Y-53503D01*
X87005Y-53400D01*
X87312D01*
X87657Y-53555D01*
X87925Y-53813D01*
X88117Y-54123D01*
X88270Y-54640D01*
X88308Y-55105D01*
X88232Y-55570D01*
X88117Y-55880D01*
X87887Y-56190D01*
X87618Y-56397D01*
X87350Y-56500D01*
X87082D01*
X86813Y-56397D01*
X86583Y-56242D01*
X86392Y-56035D01*
G01X84978Y-53917D02*
X84748Y-53607D01*
X84480Y-53452D01*
X84173Y-53400D01*
X83790Y-53503D01*
X83522Y-53762D01*
X83445Y-54072D01*
X83483Y-54382D01*
X83637Y-54640D01*
X84403Y-55157D01*
X84748Y-55518D01*
X84978Y-56035D01*
X85055Y-56500D01*
X83445D01*
G01X81150D02*
X80882Y-56448D01*
X80575Y-56293D01*
X80383Y-56035D01*
X80307Y-55673D01*
X80383Y-55312D01*
X80613Y-55002D01*
X80958Y-54847D01*
X81342D01*
X81572Y-54743D01*
X81763Y-54485D01*
X81840Y-54123D01*
X81725Y-53762D01*
X81457Y-53503D01*
X81150Y-53400D01*
X80843Y-53503D01*
X80575Y-53762D01*
X80460Y-54123D01*
X80537Y-54485D01*
X80728Y-54743D01*
X80958Y-54847D01*
X81342D01*
X81687Y-55002D01*
X81917Y-55312D01*
X81993Y-55673D01*
X81917Y-56035D01*
X81725Y-56293D01*
X81418Y-56448D01*
X81150Y-56500D01*
G01X91617Y-13500D02*
Y-10400D01*
X90658D01*
X90352Y-10555D01*
X90160Y-10762D01*
X90083Y-11175D01*
X90160Y-11588D01*
X90390Y-11847D01*
X90658Y-12002D01*
X91617D01*
G01X90658D02*
X90083Y-13500D01*
G01X88402Y-13138D02*
X88133Y-13397D01*
X87827Y-13500D01*
X87520Y-13397D01*
X87252Y-13087D01*
X87060Y-12622D01*
X86983Y-12157D01*
Y-11588D01*
X87060Y-11123D01*
X87252Y-10710D01*
X87482Y-10503D01*
X87750Y-10400D01*
X88057Y-10503D01*
X88287Y-10710D01*
X88440Y-11020D01*
X88517Y-11433D01*
X88440Y-11795D01*
X88248Y-12157D01*
X88018Y-12363D01*
X87750Y-12415D01*
X87443Y-12312D01*
X87213Y-12053D01*
X86983Y-11588D01*
G01X85302Y-13138D02*
X85033Y-13397D01*
X84727Y-13500D01*
X84420Y-13397D01*
X84152Y-13087D01*
X83960Y-12622D01*
X83883Y-12157D01*
Y-11588D01*
X83960Y-11123D01*
X84152Y-10710D01*
X84382Y-10503D01*
X84650Y-10400D01*
X84957Y-10503D01*
X85187Y-10710D01*
X85340Y-11020D01*
X85417Y-11433D01*
X85340Y-11795D01*
X85148Y-12157D01*
X84918Y-12363D01*
X84650Y-12415D01*
X84343Y-12312D01*
X84113Y-12053D01*
X83883Y-11588D01*
G01X92117Y-4500D02*
Y-1400D01*
X91158D01*
X90852Y-1555D01*
X90660Y-1762D01*
X90583Y-2175D01*
X90660Y-2588D01*
X90890Y-2847D01*
X91158Y-3002D01*
X92117D01*
G01X91158D02*
X90583Y-4500D01*
G01X88250D02*
Y-1400D01*
X88710Y-2020D01*
G01Y-4500D02*
X87790D01*
G01X85150Y-1400D02*
X85457Y-1503D01*
X85687Y-1762D01*
X85840Y-2072D01*
X85955Y-2485D01*
X85993Y-2950D01*
X85955Y-3415D01*
X85840Y-3828D01*
X85687Y-4138D01*
X85457Y-4397D01*
X85150Y-4500D01*
X84843Y-4397D01*
X84613Y-4138D01*
X84460Y-3828D01*
X84345Y-3415D01*
X84307Y-2950D01*
X84345Y-2485D01*
X84460Y-2072D01*
X84613Y-1762D01*
X84843Y-1503D01*
X85150Y-1400D01*
G01X82050Y-4500D02*
Y-1400D01*
X82510Y-2020D01*
G01Y-4500D02*
X81590D01*
G01X89007Y7342D02*
X89237Y7497D01*
X89505Y7600D01*
X89812D01*
X90157Y7445D01*
X90425Y7187D01*
X90617Y6877D01*
X90770Y6360D01*
X90808Y5895D01*
X90732Y5430D01*
X90617Y5120D01*
X90387Y4810D01*
X90118Y4603D01*
X89850Y4500D01*
X89582D01*
X89313Y4603D01*
X89083Y4758D01*
X88892Y4965D01*
G01X86750Y4500D02*
X86482Y4552D01*
X86175Y4707D01*
X85983Y4965D01*
X85907Y5327D01*
X85983Y5688D01*
X86213Y5998D01*
X86558Y6153D01*
X86942D01*
X87172Y6257D01*
X87363Y6515D01*
X87440Y6877D01*
X87325Y7238D01*
X87057Y7497D01*
X86750Y7600D01*
X86443Y7497D01*
X86175Y7238D01*
X86060Y6877D01*
X86137Y6515D01*
X86328Y6257D01*
X86558Y6153D01*
X86942D01*
X87287Y5998D01*
X87517Y5688D01*
X87593Y5327D01*
X87517Y4965D01*
X87325Y4707D01*
X87018Y4552D01*
X86750Y4500D01*
G01X84378Y5792D02*
X84110Y6153D01*
X83880Y6360D01*
X83573Y6463D01*
X83305Y6360D01*
X83113Y6153D01*
X82960Y5843D01*
X82922Y5482D01*
X82960Y5172D01*
X83113Y4862D01*
X83343Y4603D01*
X83612Y4500D01*
X83918Y4603D01*
X84187Y4913D01*
X84340Y5378D01*
X84378Y5895D01*
X84302Y6567D01*
X84187Y6928D01*
X83995Y7290D01*
X83727Y7548D01*
X83458Y7600D01*
X83190Y7497D01*
X82998Y7238D01*
G01X95425Y9906D02*
G03Y1906I0J-4000D01*
G01X92117Y13500D02*
Y16600D01*
X91158D01*
X90852Y16445D01*
X90660Y16238D01*
X90583Y15825D01*
X90660Y15412D01*
X90890Y15153D01*
X91158Y14998D01*
X92117D01*
G01X91158D02*
X90583Y13500D01*
G01X88250D02*
Y16600D01*
X88710Y15980D01*
G01Y13500D02*
X87790D01*
G01X85150Y16600D02*
X85457Y16497D01*
X85687Y16238D01*
X85840Y15928D01*
X85955Y15515D01*
X85993Y15050D01*
X85955Y14585D01*
X85840Y14172D01*
X85687Y13862D01*
X85457Y13603D01*
X85150Y13500D01*
X84843Y13603D01*
X84613Y13862D01*
X84460Y14172D01*
X84345Y14585D01*
X84307Y15050D01*
X84345Y15515D01*
X84460Y15928D01*
X84613Y16238D01*
X84843Y16497D01*
X85150Y16600D01*
G01X82893Y14120D02*
X82663Y13758D01*
X82357Y13552D01*
X82012Y13500D01*
X81705Y13552D01*
X81398Y13810D01*
X81207Y14120D01*
X81168Y14430D01*
X81245Y14792D01*
X81513Y15050D01*
X81782Y15153D01*
X82127D01*
G01X81782D02*
X81552Y15308D01*
X81360Y15567D01*
X81283Y15877D01*
X81360Y16187D01*
X81552Y16445D01*
X81897Y16600D01*
X82242Y16548D01*
X82587Y16342D01*
G01X92117Y22000D02*
Y25100D01*
X91158D01*
X90852Y24945D01*
X90660Y24738D01*
X90583Y24325D01*
X90660Y23912D01*
X90890Y23653D01*
X91158Y23498D01*
X92117D01*
G01X91158D02*
X90583Y22000D01*
G01X88250D02*
Y25100D01*
X88710Y24480D01*
G01Y22000D02*
X87790D01*
G01X85150Y25100D02*
X85457Y24997D01*
X85687Y24738D01*
X85840Y24428D01*
X85955Y24015D01*
X85993Y23550D01*
X85955Y23085D01*
X85840Y22672D01*
X85687Y22362D01*
X85457Y22103D01*
X85150Y22000D01*
X84843Y22103D01*
X84613Y22362D01*
X84460Y22672D01*
X84345Y23085D01*
X84307Y23550D01*
X84345Y24015D01*
X84460Y24428D01*
X84613Y24738D01*
X84843Y24997D01*
X85150Y25100D01*
G01X81590Y22000D02*
Y25100D01*
X83008Y22878D01*
X81092D01*
G01X88007Y33342D02*
X88237Y33497D01*
X88505Y33600D01*
X88812D01*
X89157Y33445D01*
X89425Y33187D01*
X89617Y32877D01*
X89770Y32360D01*
X89808Y31895D01*
X89732Y31430D01*
X89617Y31120D01*
X89387Y30810D01*
X89118Y30603D01*
X88850Y30500D01*
X88582D01*
X88313Y30603D01*
X88083Y30758D01*
X87892Y30965D01*
G01X85827Y30500D02*
X85750Y31172D01*
X85635Y31740D01*
X85482Y32257D01*
X85290Y32825D01*
X84983Y33600D01*
X86517D01*
G01X83493Y30965D02*
X83263Y30707D01*
X82995Y30552D01*
X82650Y30500D01*
X82305Y30603D01*
X82037Y30810D01*
X81845Y31172D01*
X81807Y31585D01*
X81883Y31998D01*
X82075Y32257D01*
X82343Y32463D01*
X82612Y32515D01*
X82880Y32463D01*
X83225Y32257D01*
X83110Y33600D01*
X82075D01*
G01X95284Y28480D02*
G02Y36480I0J4000D01*
G01X91117Y39500D02*
Y42600D01*
X90158D01*
X89852Y42445D01*
X89660Y42238D01*
X89583Y41825D01*
X89660Y41412D01*
X89890Y41153D01*
X90158Y40998D01*
X91117D01*
G01X90158D02*
X89583Y39500D01*
G01X87250D02*
X86982Y39552D01*
X86675Y39707D01*
X86483Y39965D01*
X86407Y40327D01*
X86483Y40688D01*
X86713Y40998D01*
X87058Y41153D01*
X87442D01*
X87672Y41257D01*
X87863Y41515D01*
X87940Y41877D01*
X87825Y42238D01*
X87557Y42497D01*
X87250Y42600D01*
X86943Y42497D01*
X86675Y42238D01*
X86560Y41877D01*
X86637Y41515D01*
X86828Y41257D01*
X87058Y41153D01*
X87442D01*
X87787Y40998D01*
X88017Y40688D01*
X88093Y40327D01*
X88017Y39965D01*
X87825Y39707D01*
X87518Y39552D01*
X87250Y39500D01*
G01X84150D02*
Y42600D01*
X84610Y41980D01*
G01Y39500D02*
X83690D01*
G01X88507Y51842D02*
X88737Y51997D01*
X89005Y52100D01*
X89312D01*
X89657Y51945D01*
X89925Y51687D01*
X90117Y51377D01*
X90270Y50860D01*
X90308Y50395D01*
X90232Y49930D01*
X90117Y49620D01*
X89887Y49310D01*
X89618Y49103D01*
X89350Y49000D01*
X89082D01*
X88813Y49103D01*
X88583Y49258D01*
X88392Y49465D01*
G01X86327Y49000D02*
X86250Y49672D01*
X86135Y50240D01*
X85982Y50757D01*
X85790Y51325D01*
X85483Y52100D01*
X87017D01*
G01X83150Y49000D02*
X82882Y49052D01*
X82575Y49207D01*
X82383Y49465D01*
X82307Y49827D01*
X82383Y50188D01*
X82613Y50498D01*
X82958Y50653D01*
X83342D01*
X83572Y50757D01*
X83763Y51015D01*
X83840Y51377D01*
X83725Y51738D01*
X83457Y51997D01*
X83150Y52100D01*
X82843Y51997D01*
X82575Y51738D01*
X82460Y51377D01*
X82537Y51015D01*
X82728Y50757D01*
X82958Y50653D01*
X83342D01*
X83687Y50498D01*
X83917Y50188D01*
X83993Y49827D01*
X83917Y49465D01*
X83725Y49207D01*
X83418Y49052D01*
X83150Y49000D01*
G01X95425Y54197D02*
G03Y46197I0J-4000D01*
G01X88507Y60342D02*
X88737Y60497D01*
X89005Y60600D01*
X89312D01*
X89657Y60445D01*
X89925Y60187D01*
X90117Y59877D01*
X90270Y59360D01*
X90308Y58895D01*
X90232Y58430D01*
X90117Y58120D01*
X89887Y57810D01*
X89618Y57603D01*
X89350Y57500D01*
X89082D01*
X88813Y57603D01*
X88583Y57758D01*
X88392Y57965D01*
G01X87093D02*
X86863Y57707D01*
X86595Y57552D01*
X86250Y57500D01*
X85905Y57603D01*
X85637Y57810D01*
X85445Y58172D01*
X85407Y58585D01*
X85483Y58998D01*
X85675Y59257D01*
X85943Y59463D01*
X86212Y59515D01*
X86480Y59463D01*
X86825Y59257D01*
X86710Y60600D01*
X85675D01*
G01X83993Y58120D02*
X83763Y57758D01*
X83457Y57552D01*
X83112Y57500D01*
X82805Y57552D01*
X82498Y57810D01*
X82307Y58120D01*
X82268Y58430D01*
X82345Y58792D01*
X82613Y59050D01*
X82882Y59153D01*
X83227D01*
G01X82882D02*
X82652Y59308D01*
X82460Y59567D01*
X82383Y59877D01*
X82460Y60187D01*
X82652Y60445D01*
X82997Y60600D01*
X83342Y60548D01*
X83687Y60342D01*
G01X95284Y55055D02*
G02Y63055I0J4000D01*
G01X91617Y66500D02*
Y69600D01*
X90658D01*
X90352Y69445D01*
X90160Y69238D01*
X90083Y68825D01*
X90160Y68412D01*
X90390Y68153D01*
X90658Y67998D01*
X91617D01*
G01X90658D02*
X90083Y66500D01*
G01X88478Y67792D02*
X88210Y68153D01*
X87980Y68360D01*
X87673Y68463D01*
X87405Y68360D01*
X87213Y68153D01*
X87060Y67843D01*
X87022Y67482D01*
X87060Y67172D01*
X87213Y66862D01*
X87443Y66603D01*
X87712Y66500D01*
X88018Y66603D01*
X88287Y66913D01*
X88440Y67378D01*
X88478Y67895D01*
X88402Y68567D01*
X88287Y68928D01*
X88095Y69290D01*
X87827Y69548D01*
X87558Y69600D01*
X87290Y69497D01*
X87098Y69238D01*
G01X85378Y67792D02*
X85110Y68153D01*
X84880Y68360D01*
X84573Y68463D01*
X84305Y68360D01*
X84113Y68153D01*
X83960Y67843D01*
X83922Y67482D01*
X83960Y67172D01*
X84113Y66862D01*
X84343Y66603D01*
X84612Y66500D01*
X84918Y66603D01*
X85187Y66913D01*
X85340Y67378D01*
X85378Y67895D01*
X85302Y68567D01*
X85187Y68928D01*
X84995Y69290D01*
X84727Y69548D01*
X84458Y69600D01*
X84190Y69497D01*
X83998Y69238D01*
G01X91617Y84500D02*
Y87600D01*
X90658D01*
X90352Y87445D01*
X90160Y87238D01*
X90083Y86825D01*
X90160Y86412D01*
X90390Y86153D01*
X90658Y85998D01*
X91617D01*
G01X90658D02*
X90083Y84500D01*
G01X88478Y85792D02*
X88210Y86153D01*
X87980Y86360D01*
X87673Y86463D01*
X87405Y86360D01*
X87213Y86153D01*
X87060Y85843D01*
X87022Y85482D01*
X87060Y85172D01*
X87213Y84862D01*
X87443Y84603D01*
X87712Y84500D01*
X88018Y84603D01*
X88287Y84913D01*
X88440Y85378D01*
X88478Y85895D01*
X88402Y86567D01*
X88287Y86928D01*
X88095Y87290D01*
X87827Y87548D01*
X87558Y87600D01*
X87290Y87497D01*
X87098Y87238D01*
G01X84650Y84500D02*
X84382Y84552D01*
X84075Y84707D01*
X83883Y84965D01*
X83807Y85327D01*
X83883Y85688D01*
X84113Y85998D01*
X84458Y86153D01*
X84842D01*
X85072Y86257D01*
X85263Y86515D01*
X85340Y86877D01*
X85225Y87238D01*
X84957Y87497D01*
X84650Y87600D01*
X84343Y87497D01*
X84075Y87238D01*
X83960Y86877D01*
X84037Y86515D01*
X84228Y86257D01*
X84458Y86153D01*
X84842D01*
X85187Y85998D01*
X85417Y85688D01*
X85493Y85327D01*
X85417Y84965D01*
X85225Y84707D01*
X84918Y84552D01*
X84650Y84500D01*
G01X88507Y77842D02*
X88737Y77997D01*
X89005Y78100D01*
X89312D01*
X89657Y77945D01*
X89925Y77687D01*
X90117Y77377D01*
X90270Y76860D01*
X90308Y76395D01*
X90232Y75930D01*
X90117Y75620D01*
X89887Y75310D01*
X89618Y75103D01*
X89350Y75000D01*
X89082D01*
X88813Y75103D01*
X88583Y75258D01*
X88392Y75465D01*
G01X87093D02*
X86863Y75207D01*
X86595Y75052D01*
X86250Y75000D01*
X85905Y75103D01*
X85637Y75310D01*
X85445Y75672D01*
X85407Y76085D01*
X85483Y76498D01*
X85675Y76757D01*
X85943Y76963D01*
X86212Y77015D01*
X86480Y76963D01*
X86825Y76757D01*
X86710Y78100D01*
X85675D01*
G01X83878Y76292D02*
X83610Y76653D01*
X83380Y76860D01*
X83073Y76963D01*
X82805Y76860D01*
X82613Y76653D01*
X82460Y76343D01*
X82422Y75982D01*
X82460Y75672D01*
X82613Y75362D01*
X82843Y75103D01*
X83112Y75000D01*
X83418Y75103D01*
X83687Y75413D01*
X83840Y75878D01*
X83878Y76395D01*
X83802Y77067D01*
X83687Y77428D01*
X83495Y77790D01*
X83227Y78048D01*
X82958Y78100D01*
X82690Y77997D01*
X82498Y77738D01*
G01X95425Y80772D02*
G03Y72772I0J-4000D01*
G01X91507Y99342D02*
X91737Y99497D01*
X92005Y99600D01*
X92312D01*
X92657Y99445D01*
X92925Y99187D01*
X93117Y98877D01*
X93270Y98360D01*
X93308Y97895D01*
X93232Y97430D01*
X93117Y97120D01*
X92887Y96810D01*
X92618Y96603D01*
X92350Y96500D01*
X92082D01*
X91813Y96603D01*
X91583Y96758D01*
X91392Y96965D01*
G01X90093D02*
X89863Y96707D01*
X89595Y96552D01*
X89250Y96500D01*
X88905Y96603D01*
X88637Y96810D01*
X88445Y97172D01*
X88407Y97585D01*
X88483Y97998D01*
X88675Y98257D01*
X88943Y98463D01*
X89212Y98515D01*
X89480Y98463D01*
X89825Y98257D01*
X89710Y99600D01*
X88675D01*
G01X86802Y96862D02*
X86533Y96603D01*
X86227Y96500D01*
X85920Y96603D01*
X85652Y96913D01*
X85460Y97378D01*
X85383Y97843D01*
Y98412D01*
X85460Y98877D01*
X85652Y99290D01*
X85882Y99497D01*
X86150Y99600D01*
X86457Y99497D01*
X86687Y99290D01*
X86840Y98980D01*
X86917Y98567D01*
X86840Y98205D01*
X86648Y97843D01*
X86418Y97637D01*
X86150Y97585D01*
X85843Y97688D01*
X85613Y97947D01*
X85383Y98412D01*
G01X96504Y100331D02*
X81504D01*
G01X96504Y108331D02*
X81504D01*
G01X92117Y117500D02*
Y120600D01*
X91158D01*
X90852Y120445D01*
X90660Y120238D01*
X90583Y119825D01*
X90660Y119412D01*
X90890Y119153D01*
X91158Y118998D01*
X92117D01*
G01X91158D02*
X90583Y117500D01*
G01X88978Y118792D02*
X88710Y119153D01*
X88480Y119360D01*
X88173Y119463D01*
X87905Y119360D01*
X87713Y119153D01*
X87560Y118843D01*
X87522Y118482D01*
X87560Y118172D01*
X87713Y117862D01*
X87943Y117603D01*
X88212Y117500D01*
X88518Y117603D01*
X88787Y117913D01*
X88940Y118378D01*
X88978Y118895D01*
X88902Y119567D01*
X88787Y119928D01*
X88595Y120290D01*
X88327Y120548D01*
X88058Y120600D01*
X87790Y120497D01*
X87598Y120238D01*
G01X85802Y117862D02*
X85533Y117603D01*
X85227Y117500D01*
X84920Y117603D01*
X84652Y117913D01*
X84460Y118378D01*
X84383Y118843D01*
Y119412D01*
X84460Y119877D01*
X84652Y120290D01*
X84882Y120497D01*
X85150Y120600D01*
X85457Y120497D01*
X85687Y120290D01*
X85840Y119980D01*
X85917Y119567D01*
X85840Y119205D01*
X85648Y118843D01*
X85418Y118637D01*
X85150Y118585D01*
X84843Y118688D01*
X84613Y118947D01*
X84383Y119412D01*
G01X101000Y-116000D02*
G02Y-124000I0J-4000D01*
G01X100500Y-94000D02*
G03Y-86000I0J4000D01*
G01X105007Y-41158D02*
X105237Y-41003D01*
X105505Y-40900D01*
X105812D01*
X106157Y-41055D01*
X106425Y-41313D01*
X106617Y-41623D01*
X106770Y-42140D01*
X106808Y-42605D01*
X106732Y-43070D01*
X106617Y-43380D01*
X106387Y-43690D01*
X106118Y-43897D01*
X105850Y-44000D01*
X105582D01*
X105313Y-43897D01*
X105083Y-43742D01*
X104892Y-43535D01*
G01X103478Y-41417D02*
X103248Y-41107D01*
X102980Y-40952D01*
X102673Y-40900D01*
X102290Y-41003D01*
X102022Y-41262D01*
X101945Y-41572D01*
X101983Y-41882D01*
X102137Y-42140D01*
X102903Y-42657D01*
X103248Y-43018D01*
X103478Y-43535D01*
X103555Y-44000D01*
X101945D01*
G01X99650D02*
Y-40900D01*
X100110Y-41520D01*
G01Y-44000D02*
X99190D01*
G01X105007Y-30658D02*
X105237Y-30503D01*
X105505Y-30400D01*
X105812D01*
X106157Y-30555D01*
X106425Y-30813D01*
X106617Y-31123D01*
X106770Y-31640D01*
X106808Y-32105D01*
X106732Y-32570D01*
X106617Y-32880D01*
X106387Y-33190D01*
X106118Y-33397D01*
X105850Y-33500D01*
X105582D01*
X105313Y-33397D01*
X105083Y-33242D01*
X104892Y-33035D01*
G01X103478Y-30917D02*
X103248Y-30607D01*
X102980Y-30452D01*
X102673Y-30400D01*
X102290Y-30503D01*
X102022Y-30762D01*
X101945Y-31072D01*
X101983Y-31382D01*
X102137Y-31640D01*
X102903Y-32157D01*
X103248Y-32518D01*
X103478Y-33035D01*
X103555Y-33500D01*
X101945D01*
G01X99190D02*
Y-30400D01*
X100608Y-32622D01*
X98692D01*
G01X112284Y-15811D02*
X93284D01*
Y-7811D01*
X112284D01*
Y-15811D01*
G01X93425Y1047D02*
X112425D01*
Y-6953D01*
X93425D01*
Y1047D01*
G01X95425Y1906D02*
X110425D01*
G01X112284Y10764D02*
X93284D01*
Y18764D01*
X112284D01*
Y10764D01*
G01X95425Y9906D02*
X110425D01*
G01X93425Y27622D02*
X112425D01*
Y19622D01*
X93425D01*
Y27622D01*
G01X110284Y28480D02*
X95284D01*
G01X112284Y37339D02*
X93284D01*
Y45339D01*
X112284D01*
Y37339D01*
G01X110284Y36480D02*
X95284D01*
G01X95425Y54197D02*
X110425D01*
G01X95425Y46197D02*
X110425D01*
G01X110284Y55055D02*
X95284D01*
G01X112284Y63913D02*
X93284D01*
Y71913D01*
X112284D01*
Y63913D01*
G01X110284Y63055D02*
X95284D01*
G01X93425Y89630D02*
X112425D01*
Y81630D01*
X93425D01*
Y89630D01*
G01X95425Y80772D02*
X110425D01*
G01X95425Y72772D02*
X110425D01*
G01X103000Y117000D02*
X122000D01*
Y109000D01*
X103000D01*
Y117000D01*
G01X105000Y100000D02*
G02Y108000I0J4000D01*
G01X120000Y100000D02*
X105000D01*
G01X120000Y108000D02*
X105000D01*
G01X96504Y100331D02*
G03Y108331I0J4000D01*
G01X112000Y-86000D02*
G03Y-94000I0J-4000D01*
G01D02*
X127000D01*
G01X112000Y-71000D02*
G03Y-79000I0J-4000D01*
G01D02*
X127000D01*
G01X122007Y-82158D02*
X122237Y-82003D01*
X122505Y-81900D01*
X122812D01*
X123157Y-82055D01*
X123425Y-82313D01*
X123617Y-82623D01*
X123770Y-83140D01*
X123808Y-83605D01*
X123732Y-84070D01*
X123617Y-84380D01*
X123387Y-84690D01*
X123118Y-84897D01*
X122850Y-85000D01*
X122582D01*
X122313Y-84897D01*
X122083Y-84742D01*
X121892Y-84535D01*
G01X120478Y-82417D02*
X120248Y-82107D01*
X119980Y-81952D01*
X119673Y-81900D01*
X119290Y-82003D01*
X119022Y-82262D01*
X118945Y-82572D01*
X118983Y-82882D01*
X119137Y-83140D01*
X119903Y-83657D01*
X120248Y-84018D01*
X120478Y-84535D01*
X120555Y-85000D01*
X118945D01*
G01X117378Y-82417D02*
X117148Y-82107D01*
X116880Y-81952D01*
X116573Y-81900D01*
X116190Y-82003D01*
X115922Y-82262D01*
X115845Y-82572D01*
X115883Y-82882D01*
X116037Y-83140D01*
X116803Y-83657D01*
X117148Y-84018D01*
X117378Y-84535D01*
X117455Y-85000D01*
X115845D01*
G01X112000Y-86000D02*
X127000D01*
G01X121507Y-67158D02*
X121737Y-67003D01*
X122005Y-66900D01*
X122312D01*
X122657Y-67055D01*
X122925Y-67313D01*
X123117Y-67623D01*
X123270Y-68140D01*
X123308Y-68605D01*
X123232Y-69070D01*
X123117Y-69380D01*
X122887Y-69690D01*
X122618Y-69897D01*
X122350Y-70000D01*
X122082D01*
X121813Y-69897D01*
X121583Y-69742D01*
X121392Y-69535D01*
G01X119978Y-67417D02*
X119748Y-67107D01*
X119480Y-66952D01*
X119173Y-66900D01*
X118790Y-67003D01*
X118522Y-67262D01*
X118445Y-67572D01*
X118483Y-67882D01*
X118637Y-68140D01*
X119403Y-68657D01*
X119748Y-69018D01*
X119978Y-69535D01*
X120055Y-70000D01*
X118445D01*
G01X116993Y-69535D02*
X116763Y-69793D01*
X116495Y-69948D01*
X116150Y-70000D01*
X115805Y-69897D01*
X115537Y-69690D01*
X115345Y-69328D01*
X115307Y-68915D01*
X115383Y-68502D01*
X115575Y-68243D01*
X115843Y-68037D01*
X116112Y-67985D01*
X116380Y-68037D01*
X116725Y-68243D01*
X116610Y-66900D01*
X115575D01*
G01X112000Y-71000D02*
X127000D01*
G01X112000Y-56000D02*
G03Y-64000I0J-4000D01*
G01D02*
X127000D01*
G01X121507Y-52158D02*
X121737Y-52003D01*
X122005Y-51900D01*
X122312D01*
X122657Y-52055D01*
X122925Y-52313D01*
X123117Y-52623D01*
X123270Y-53140D01*
X123308Y-53605D01*
X123232Y-54070D01*
X123117Y-54380D01*
X122887Y-54690D01*
X122618Y-54897D01*
X122350Y-55000D01*
X122082D01*
X121813Y-54897D01*
X121583Y-54742D01*
X121392Y-54535D01*
G01X119978Y-52417D02*
X119748Y-52107D01*
X119480Y-51952D01*
X119173Y-51900D01*
X118790Y-52003D01*
X118522Y-52262D01*
X118445Y-52572D01*
X118483Y-52882D01*
X118637Y-53140D01*
X119403Y-53657D01*
X119748Y-54018D01*
X119978Y-54535D01*
X120055Y-55000D01*
X118445D01*
G01X116878Y-53708D02*
X116610Y-53347D01*
X116380Y-53140D01*
X116073Y-53037D01*
X115805Y-53140D01*
X115613Y-53347D01*
X115460Y-53657D01*
X115422Y-54018D01*
X115460Y-54328D01*
X115613Y-54638D01*
X115843Y-54897D01*
X116112Y-55000D01*
X116418Y-54897D01*
X116687Y-54587D01*
X116840Y-54122D01*
X116878Y-53605D01*
X116802Y-52933D01*
X116687Y-52572D01*
X116495Y-52210D01*
X116227Y-51952D01*
X115958Y-51900D01*
X115690Y-52003D01*
X115498Y-52262D01*
G01X112000Y-56000D02*
X127000D01*
G01X112000Y-28000D02*
G03Y-36000I0J-4000D01*
G01D02*
X127000D01*
G01X112000Y-39000D02*
G03Y-47000I0J-4000D01*
G01Y-39000D02*
X127000D01*
G01X112000Y-47000D02*
X127000D01*
G01X112000Y-28000D02*
X127000D01*
G01X120007Y-19658D02*
X120237Y-19503D01*
X120505Y-19400D01*
X120812D01*
X121157Y-19555D01*
X121425Y-19813D01*
X121617Y-20123D01*
X121770Y-20640D01*
X121808Y-21105D01*
X121732Y-21570D01*
X121617Y-21880D01*
X121387Y-22190D01*
X121118Y-22397D01*
X120850Y-22500D01*
X120582D01*
X120313Y-22397D01*
X120083Y-22242D01*
X119892Y-22035D01*
G01X117750Y-22500D02*
X117482Y-22448D01*
X117175Y-22293D01*
X116983Y-22035D01*
X116907Y-21673D01*
X116983Y-21312D01*
X117213Y-21002D01*
X117558Y-20847D01*
X117942D01*
X118172Y-20743D01*
X118363Y-20485D01*
X118440Y-20123D01*
X118325Y-19762D01*
X118057Y-19503D01*
X117750Y-19400D01*
X117443Y-19503D01*
X117175Y-19762D01*
X117060Y-20123D01*
X117137Y-20485D01*
X117328Y-20743D01*
X117558Y-20847D01*
X117942D01*
X118287Y-21002D01*
X118517Y-21312D01*
X118593Y-21673D01*
X118517Y-22035D01*
X118325Y-22293D01*
X118018Y-22448D01*
X117750Y-22500D01*
G01X115493Y-21880D02*
X115263Y-22242D01*
X114957Y-22448D01*
X114612Y-22500D01*
X114305Y-22448D01*
X113998Y-22190D01*
X113807Y-21880D01*
X113768Y-21570D01*
X113845Y-21208D01*
X114113Y-20950D01*
X114382Y-20847D01*
X114727D01*
G01X114382D02*
X114152Y-20692D01*
X113960Y-20433D01*
X113883Y-20123D01*
X113960Y-19813D01*
X114152Y-19555D01*
X114497Y-19400D01*
X114842Y-19452D01*
X115187Y-19658D01*
G01X123617Y-14000D02*
Y-10900D01*
X122658D01*
X122352Y-11055D01*
X122160Y-11262D01*
X122083Y-11675D01*
X122160Y-12088D01*
X122390Y-12347D01*
X122658Y-12502D01*
X123617D01*
G01X122658D02*
X122083Y-14000D01*
G01X120402Y-13638D02*
X120133Y-13897D01*
X119827Y-14000D01*
X119520Y-13897D01*
X119252Y-13587D01*
X119060Y-13122D01*
X118983Y-12657D01*
Y-12088D01*
X119060Y-11623D01*
X119252Y-11210D01*
X119482Y-11003D01*
X119750Y-10900D01*
X120057Y-11003D01*
X120287Y-11210D01*
X120440Y-11520D01*
X120517Y-11933D01*
X120440Y-12295D01*
X120248Y-12657D01*
X120018Y-12863D01*
X119750Y-12915D01*
X119443Y-12812D01*
X119213Y-12553D01*
X118983Y-12088D01*
G01X116650Y-14000D02*
Y-10900D01*
X117110Y-11520D01*
G01Y-14000D02*
X116190D01*
G01X123117Y-4500D02*
Y-1400D01*
X122158D01*
X121852Y-1555D01*
X121660Y-1762D01*
X121583Y-2175D01*
X121660Y-2588D01*
X121890Y-2847D01*
X122158Y-3002D01*
X123117D01*
G01X122158D02*
X121583Y-4500D01*
G01X119902Y-4138D02*
X119633Y-4397D01*
X119327Y-4500D01*
X119020Y-4397D01*
X118752Y-4087D01*
X118560Y-3622D01*
X118483Y-3157D01*
Y-2588D01*
X118560Y-2123D01*
X118752Y-1710D01*
X118982Y-1503D01*
X119250Y-1400D01*
X119557Y-1503D01*
X119787Y-1710D01*
X119940Y-2020D01*
X120017Y-2433D01*
X119940Y-2795D01*
X119748Y-3157D01*
X119518Y-3363D01*
X119250Y-3415D01*
X118943Y-3312D01*
X118713Y-3053D01*
X118483Y-2588D01*
G01X116227Y-4500D02*
X116150Y-3828D01*
X116035Y-3260D01*
X115882Y-2743D01*
X115690Y-2175D01*
X115383Y-1400D01*
X116917D01*
G01X123617Y4000D02*
Y7100D01*
X122658D01*
X122352Y6945D01*
X122160Y6738D01*
X122083Y6325D01*
X122160Y5912D01*
X122390Y5653D01*
X122658Y5498D01*
X123617D01*
G01X122658D02*
X122083Y4000D01*
G01X120402Y4362D02*
X120133Y4103D01*
X119827Y4000D01*
X119520Y4103D01*
X119252Y4413D01*
X119060Y4878D01*
X118983Y5343D01*
Y5912D01*
X119060Y6377D01*
X119252Y6790D01*
X119482Y6997D01*
X119750Y7100D01*
X120057Y6997D01*
X120287Y6790D01*
X120440Y6480D01*
X120517Y6067D01*
X120440Y5705D01*
X120248Y5343D01*
X120018Y5137D01*
X119750Y5085D01*
X119443Y5188D01*
X119213Y5447D01*
X118983Y5912D01*
G01X116190Y4000D02*
Y7100D01*
X117608Y4878D01*
X115692D01*
G01X110425Y9906D02*
G02Y1906I0J-4000D01*
G01X123117Y13000D02*
Y16100D01*
X122158D01*
X121852Y15945D01*
X121660Y15738D01*
X121583Y15325D01*
X121660Y14912D01*
X121890Y14653D01*
X122158Y14498D01*
X123117D01*
G01X122158D02*
X121583Y13000D01*
G01X119902Y13362D02*
X119633Y13103D01*
X119327Y13000D01*
X119020Y13103D01*
X118752Y13413D01*
X118560Y13878D01*
X118483Y14343D01*
Y14912D01*
X118560Y15377D01*
X118752Y15790D01*
X118982Y15997D01*
X119250Y16100D01*
X119557Y15997D01*
X119787Y15790D01*
X119940Y15480D01*
X120017Y15067D01*
X119940Y14705D01*
X119748Y14343D01*
X119518Y14137D01*
X119250Y14085D01*
X118943Y14188D01*
X118713Y14447D01*
X118483Y14912D01*
G01X116993Y13465D02*
X116763Y13207D01*
X116495Y13052D01*
X116150Y13000D01*
X115805Y13103D01*
X115537Y13310D01*
X115345Y13672D01*
X115307Y14085D01*
X115383Y14498D01*
X115575Y14757D01*
X115843Y14963D01*
X116112Y15015D01*
X116380Y14963D01*
X116725Y14757D01*
X116610Y16100D01*
X115575D01*
G01X122617Y22000D02*
Y25100D01*
X121658D01*
X121352Y24945D01*
X121160Y24738D01*
X121083Y24325D01*
X121160Y23912D01*
X121390Y23653D01*
X121658Y23498D01*
X122617D01*
G01X121658D02*
X121083Y22000D01*
G01X118827D02*
X118750Y22672D01*
X118635Y23240D01*
X118482Y23757D01*
X118290Y24325D01*
X117983Y25100D01*
X119517D01*
G01X116302Y22362D02*
X116033Y22103D01*
X115727Y22000D01*
X115420Y22103D01*
X115152Y22413D01*
X114960Y22878D01*
X114883Y23343D01*
Y23912D01*
X114960Y24377D01*
X115152Y24790D01*
X115382Y24997D01*
X115650Y25100D01*
X115957Y24997D01*
X116187Y24790D01*
X116340Y24480D01*
X116417Y24067D01*
X116340Y23705D01*
X116148Y23343D01*
X115918Y23137D01*
X115650Y23085D01*
X115343Y23188D01*
X115113Y23447D01*
X114883Y23912D01*
G01X120842Y29993D02*
X120997Y29763D01*
X121100Y29495D01*
Y29188D01*
X120945Y28843D01*
X120687Y28575D01*
X120377Y28383D01*
X119860Y28230D01*
X119395Y28192D01*
X118930Y28268D01*
X118620Y28383D01*
X118310Y28613D01*
X118103Y28882D01*
X118000Y29150D01*
Y29418D01*
X118103Y29687D01*
X118258Y29917D01*
X118465Y30108D01*
G01X118000Y32173D02*
X118672Y32250D01*
X119240Y32365D01*
X119757Y32518D01*
X120325Y32710D01*
X121100Y33017D01*
Y31483D01*
G01X119292Y34622D02*
X119653Y34890D01*
X119860Y35120D01*
X119963Y35427D01*
X119860Y35695D01*
X119653Y35887D01*
X119343Y36040D01*
X118982Y36078D01*
X118672Y36040D01*
X118362Y35887D01*
X118103Y35657D01*
X118000Y35388D01*
X118103Y35082D01*
X118413Y34813D01*
X118878Y34660D01*
X119395Y34622D01*
X120067Y34698D01*
X120428Y34813D01*
X120790Y35005D01*
X121048Y35273D01*
X121100Y35542D01*
X120997Y35810D01*
X120738Y36002D01*
G01X110284Y28480D02*
G03Y36480I0J4000D01*
G01X122117Y40000D02*
Y43100D01*
X121158D01*
X120852Y42945D01*
X120660Y42738D01*
X120583Y42325D01*
X120660Y41912D01*
X120890Y41653D01*
X121158Y41498D01*
X122117D01*
G01X121158D02*
X120583Y40000D01*
G01X118327D02*
X118250Y40672D01*
X118135Y41240D01*
X117982Y41757D01*
X117790Y42325D01*
X117483Y43100D01*
X119017D01*
G01X115227Y40000D02*
X115150Y40672D01*
X115035Y41240D01*
X114882Y41757D01*
X114690Y42325D01*
X114383Y43100D01*
X115917D01*
G01X122617Y48500D02*
Y51600D01*
X121658D01*
X121352Y51445D01*
X121160Y51238D01*
X121083Y50825D01*
X121160Y50412D01*
X121390Y50153D01*
X121658Y49998D01*
X122617D01*
G01X121658D02*
X121083Y48500D01*
G01X118827D02*
X118750Y49172D01*
X118635Y49740D01*
X118482Y50257D01*
X118290Y50825D01*
X117983Y51600D01*
X119517D01*
G01X115650Y48500D02*
X115382Y48552D01*
X115075Y48707D01*
X114883Y48965D01*
X114807Y49327D01*
X114883Y49688D01*
X115113Y49998D01*
X115458Y50153D01*
X115842D01*
X116072Y50257D01*
X116263Y50515D01*
X116340Y50877D01*
X116225Y51238D01*
X115957Y51497D01*
X115650Y51600D01*
X115343Y51497D01*
X115075Y51238D01*
X114960Y50877D01*
X115037Y50515D01*
X115228Y50257D01*
X115458Y50153D01*
X115842D01*
X116187Y49998D01*
X116417Y49688D01*
X116493Y49327D01*
X116417Y48965D01*
X116225Y48707D01*
X115918Y48552D01*
X115650Y48500D01*
G01X110425Y54197D02*
G02Y46197I0J-4000D01*
G01X120842Y56993D02*
X120997Y56763D01*
X121100Y56495D01*
Y56188D01*
X120945Y55843D01*
X120687Y55575D01*
X120377Y55383D01*
X119860Y55230D01*
X119395Y55192D01*
X118930Y55268D01*
X118620Y55383D01*
X118310Y55613D01*
X118103Y55882D01*
X118000Y56150D01*
Y56418D01*
X118103Y56687D01*
X118258Y56917D01*
X118465Y57108D01*
G01Y58407D02*
X118207Y58637D01*
X118052Y58905D01*
X118000Y59250D01*
X118103Y59595D01*
X118310Y59863D01*
X118672Y60055D01*
X119085Y60093D01*
X119498Y60017D01*
X119757Y59825D01*
X119963Y59557D01*
X120015Y59288D01*
X119963Y59020D01*
X119757Y58675D01*
X121100Y58790D01*
Y59825D01*
G01X118000Y62810D02*
X121100D01*
X118878Y61392D01*
Y63308D01*
G01X110284Y55055D02*
G03Y63055I0J4000D01*
G01X122617Y66500D02*
Y69600D01*
X121658D01*
X121352Y69445D01*
X121160Y69238D01*
X121083Y68825D01*
X121160Y68412D01*
X121390Y68153D01*
X121658Y67998D01*
X122617D01*
G01X121658D02*
X121083Y66500D01*
G01X119478Y67792D02*
X119210Y68153D01*
X118980Y68360D01*
X118673Y68463D01*
X118405Y68360D01*
X118213Y68153D01*
X118060Y67843D01*
X118022Y67482D01*
X118060Y67172D01*
X118213Y66862D01*
X118443Y66603D01*
X118712Y66500D01*
X119018Y66603D01*
X119287Y66913D01*
X119440Y67378D01*
X119478Y67895D01*
X119402Y68567D01*
X119287Y68928D01*
X119095Y69290D01*
X118827Y69548D01*
X118558Y69600D01*
X118290Y69497D01*
X118098Y69238D01*
G01X115190Y66500D02*
Y69600D01*
X116608Y67378D01*
X114692D01*
G01X123117Y84000D02*
Y87100D01*
X122158D01*
X121852Y86945D01*
X121660Y86738D01*
X121583Y86325D01*
X121660Y85912D01*
X121890Y85653D01*
X122158Y85498D01*
X123117D01*
G01X122158D02*
X121583Y84000D01*
G01X119978Y85292D02*
X119710Y85653D01*
X119480Y85860D01*
X119173Y85963D01*
X118905Y85860D01*
X118713Y85653D01*
X118560Y85343D01*
X118522Y84982D01*
X118560Y84672D01*
X118713Y84362D01*
X118943Y84103D01*
X119212Y84000D01*
X119518Y84103D01*
X119787Y84413D01*
X119940Y84878D01*
X119978Y85395D01*
X119902Y86067D01*
X119787Y86428D01*
X119595Y86790D01*
X119327Y87048D01*
X119058Y87100D01*
X118790Y86997D01*
X118598Y86738D01*
G01X116993Y84620D02*
X116763Y84258D01*
X116457Y84052D01*
X116112Y84000D01*
X115805Y84052D01*
X115498Y84310D01*
X115307Y84620D01*
X115268Y84930D01*
X115345Y85292D01*
X115613Y85550D01*
X115882Y85653D01*
X116227D01*
G01X115882D02*
X115652Y85808D01*
X115460Y86067D01*
X115383Y86377D01*
X115460Y86687D01*
X115652Y86945D01*
X115997Y87100D01*
X116342Y87048D01*
X116687Y86842D01*
G01X123617Y75500D02*
Y78600D01*
X122658D01*
X122352Y78445D01*
X122160Y78238D01*
X122083Y77825D01*
X122160Y77412D01*
X122390Y77153D01*
X122658Y76998D01*
X123617D01*
G01X122658D02*
X122083Y75500D01*
G01X120478Y76792D02*
X120210Y77153D01*
X119980Y77360D01*
X119673Y77463D01*
X119405Y77360D01*
X119213Y77153D01*
X119060Y76843D01*
X119022Y76482D01*
X119060Y76172D01*
X119213Y75862D01*
X119443Y75603D01*
X119712Y75500D01*
X120018Y75603D01*
X120287Y75913D01*
X120440Y76378D01*
X120478Y76895D01*
X120402Y77567D01*
X120287Y77928D01*
X120095Y78290D01*
X119827Y78548D01*
X119558Y78600D01*
X119290Y78497D01*
X119098Y78238D01*
G01X117378Y78083D02*
X117148Y78393D01*
X116880Y78548D01*
X116573Y78600D01*
X116190Y78497D01*
X115922Y78238D01*
X115845Y77928D01*
X115883Y77618D01*
X116037Y77360D01*
X116803Y76843D01*
X117148Y76482D01*
X117378Y75965D01*
X117455Y75500D01*
X115845D01*
G01X110425Y80772D02*
G02Y72772I0J-4000D01*
G01X116007Y98842D02*
X116237Y98997D01*
X116505Y99100D01*
X116812D01*
X117157Y98945D01*
X117425Y98687D01*
X117617Y98377D01*
X117770Y97860D01*
X117808Y97395D01*
X117732Y96930D01*
X117617Y96620D01*
X117387Y96310D01*
X117118Y96103D01*
X116850Y96000D01*
X116582D01*
X116313Y96103D01*
X116083Y96258D01*
X115892Y96465D01*
G01X114478Y97292D02*
X114210Y97653D01*
X113980Y97860D01*
X113673Y97963D01*
X113405Y97860D01*
X113213Y97653D01*
X113060Y97343D01*
X113022Y96982D01*
X113060Y96672D01*
X113213Y96362D01*
X113443Y96103D01*
X113712Y96000D01*
X114018Y96103D01*
X114287Y96413D01*
X114440Y96878D01*
X114478Y97395D01*
X114402Y98067D01*
X114287Y98428D01*
X114095Y98790D01*
X113827Y99048D01*
X113558Y99100D01*
X113290Y98997D01*
X113098Y98738D01*
G01X110727Y96000D02*
X110650Y96672D01*
X110535Y97240D01*
X110382Y97757D01*
X110190Y98325D01*
X109883Y99100D01*
X111417D01*
G01X119117Y118000D02*
Y121100D01*
X118158D01*
X117852Y120945D01*
X117660Y120738D01*
X117583Y120325D01*
X117660Y119912D01*
X117890Y119653D01*
X118158Y119498D01*
X119117D01*
G01X118158D02*
X117583Y118000D01*
G01X115327D02*
X115250Y118672D01*
X115135Y119240D01*
X114982Y119757D01*
X114790Y120325D01*
X114483Y121100D01*
X116017D01*
G01X112150D02*
X112457Y120997D01*
X112687Y120738D01*
X112840Y120428D01*
X112955Y120015D01*
X112993Y119550D01*
X112955Y119085D01*
X112840Y118672D01*
X112687Y118362D01*
X112457Y118103D01*
X112150Y118000D01*
X111843Y118103D01*
X111613Y118362D01*
X111460Y118672D01*
X111345Y119085D01*
X111307Y119550D01*
X111345Y120015D01*
X111460Y120428D01*
X111613Y120738D01*
X111843Y120997D01*
X112150Y121100D01*
G01X127000Y-86000D02*
G02Y-94000I0J-4000D01*
G01Y-71000D02*
G02Y-79000I0J-4000D01*
G01Y-56000D02*
G02Y-64000I0J-4000D01*
G01Y-28000D02*
G02Y-36000I0J-4000D01*
G01Y-39000D02*
G02Y-47000I0J-4000D01*
G01X126780Y-24669D02*
G02Y-16669I0J4000D01*
G01X141780Y-24669D02*
X126780D01*
G01X144000Y-16000D02*
X125000D01*
Y-8000D01*
X144000D01*
Y-16000D01*
G01X141780Y-16669D02*
X126780D01*
G01X125000Y1000D02*
X144000D01*
Y-7000D01*
X125000D01*
Y1000D01*
G01X124921Y9906D02*
X143921D01*
Y1906D01*
X124921D01*
Y9906D01*
G01X143780Y10764D02*
X124780D01*
Y18764D01*
X143780D01*
Y10764D01*
G01X124921Y27622D02*
X143921D01*
Y19622D01*
X124921D01*
Y27622D01*
G01X126780Y28480D02*
G02Y36480I0J4000D01*
G01X141780Y28480D02*
X126780D01*
G01X143780Y37339D02*
X124780D01*
Y45339D01*
X143780D01*
Y37339D01*
G01X141780Y36480D02*
X126780D01*
G01X143780Y46197D02*
X124780D01*
Y54197D01*
X143780D01*
Y46197D01*
G01X126780Y55055D02*
G02Y63055I0J4000D01*
G01X141780Y55055D02*
X126780D01*
G01X124921Y71913D02*
X143921D01*
Y63913D01*
X124921D01*
Y71913D01*
G01X141780Y63055D02*
X126780D01*
G01X143780Y81630D02*
X124780D01*
Y89630D01*
X143780D01*
Y81630D01*
G01X124921Y80772D02*
X143921D01*
Y72772D01*
X124921D01*
Y80772D01*
G01X128748Y109189D02*
G02Y117189I0J4000D01*
G01X143748Y109189D02*
X128748D01*
G01X120000Y100000D02*
G03Y108000I0J4000D01*
G01X143748Y117189D02*
X128748D01*
G01X140000Y-86000D02*
X159000D01*
Y-94000D01*
X140000D01*
Y-86000D01*
G01Y-71000D02*
X159000D01*
Y-79000D01*
X140000D01*
Y-71000D01*
G01X154117Y-85000D02*
Y-81900D01*
X153158D01*
X152852Y-82055D01*
X152660Y-82262D01*
X152583Y-82675D01*
X152660Y-83088D01*
X152890Y-83347D01*
X153158Y-83502D01*
X154117D01*
G01X153158D02*
X152583Y-85000D01*
G01X149790D02*
Y-81900D01*
X151208Y-84122D01*
X149292D01*
G01X147150Y-85000D02*
X146882Y-84948D01*
X146575Y-84793D01*
X146383Y-84535D01*
X146307Y-84173D01*
X146383Y-83812D01*
X146613Y-83502D01*
X146958Y-83347D01*
X147342D01*
X147572Y-83243D01*
X147763Y-82985D01*
X147840Y-82623D01*
X147725Y-82262D01*
X147457Y-82003D01*
X147150Y-81900D01*
X146843Y-82003D01*
X146575Y-82262D01*
X146460Y-82623D01*
X146537Y-82985D01*
X146728Y-83243D01*
X146958Y-83347D01*
X147342D01*
X147687Y-83502D01*
X147917Y-83812D01*
X147993Y-84173D01*
X147917Y-84535D01*
X147725Y-84793D01*
X147418Y-84948D01*
X147150Y-85000D01*
G01X140000Y-56000D02*
X159000D01*
Y-64000D01*
X140000D01*
Y-56000D01*
G01X154117Y-70000D02*
Y-66900D01*
X153158D01*
X152852Y-67055D01*
X152660Y-67262D01*
X152583Y-67675D01*
X152660Y-68088D01*
X152890Y-68347D01*
X153158Y-68502D01*
X154117D01*
G01X153158D02*
X152583Y-70000D01*
G01X149790D02*
Y-66900D01*
X151208Y-69122D01*
X149292D01*
G01X147802Y-69638D02*
X147533Y-69897D01*
X147227Y-70000D01*
X146920Y-69897D01*
X146652Y-69587D01*
X146460Y-69122D01*
X146383Y-68657D01*
Y-68088D01*
X146460Y-67623D01*
X146652Y-67210D01*
X146882Y-67003D01*
X147150Y-66900D01*
X147457Y-67003D01*
X147687Y-67210D01*
X147840Y-67520D01*
X147917Y-67933D01*
X147840Y-68295D01*
X147648Y-68657D01*
X147418Y-68863D01*
X147150Y-68915D01*
X146843Y-68812D01*
X146613Y-68553D01*
X146383Y-68088D01*
G01X153617Y-55000D02*
Y-51900D01*
X152658D01*
X152352Y-52055D01*
X152160Y-52262D01*
X152083Y-52675D01*
X152160Y-53088D01*
X152390Y-53347D01*
X152658Y-53502D01*
X153617D01*
G01X152658D02*
X152083Y-55000D01*
G01X150593Y-54535D02*
X150363Y-54793D01*
X150095Y-54948D01*
X149750Y-55000D01*
X149405Y-54897D01*
X149137Y-54690D01*
X148945Y-54328D01*
X148907Y-53915D01*
X148983Y-53502D01*
X149175Y-53243D01*
X149443Y-53037D01*
X149712Y-52985D01*
X149980Y-53037D01*
X150325Y-53243D01*
X150210Y-51900D01*
X149175D01*
G01X146650D02*
X146957Y-52003D01*
X147187Y-52262D01*
X147340Y-52572D01*
X147455Y-52985D01*
X147493Y-53450D01*
X147455Y-53915D01*
X147340Y-54328D01*
X147187Y-54638D01*
X146957Y-54897D01*
X146650Y-55000D01*
X146343Y-54897D01*
X146113Y-54638D01*
X145960Y-54328D01*
X145845Y-53915D01*
X145807Y-53450D01*
X145845Y-52985D01*
X145960Y-52572D01*
X146113Y-52262D01*
X146343Y-52003D01*
X146650Y-51900D01*
G01X152507Y-35158D02*
X152737Y-35003D01*
X153005Y-34900D01*
X153312D01*
X153657Y-35055D01*
X153925Y-35313D01*
X154117Y-35623D01*
X154270Y-36140D01*
X154308Y-36605D01*
X154232Y-37070D01*
X154117Y-37380D01*
X153887Y-37690D01*
X153618Y-37897D01*
X153350Y-38000D01*
X153082D01*
X152813Y-37897D01*
X152583Y-37742D01*
X152392Y-37535D01*
G01X150978Y-35417D02*
X150748Y-35107D01*
X150480Y-34952D01*
X150173Y-34900D01*
X149790Y-35003D01*
X149522Y-35262D01*
X149445Y-35572D01*
X149483Y-35882D01*
X149637Y-36140D01*
X150403Y-36657D01*
X150748Y-37018D01*
X150978Y-37535D01*
X151055Y-38000D01*
X149445D01*
G01X147150Y-34900D02*
X147457Y-35003D01*
X147687Y-35262D01*
X147840Y-35572D01*
X147955Y-35985D01*
X147993Y-36450D01*
X147955Y-36915D01*
X147840Y-37328D01*
X147687Y-37638D01*
X147457Y-37897D01*
X147150Y-38000D01*
X146843Y-37897D01*
X146613Y-37638D01*
X146460Y-37328D01*
X146345Y-36915D01*
X146307Y-36450D01*
X146345Y-35985D01*
X146460Y-35572D01*
X146613Y-35262D01*
X146843Y-35003D01*
X147150Y-34900D01*
G01X142000Y-39000D02*
G03Y-47000I0J-4000D01*
G01Y-39000D02*
X157000D01*
G01X142000Y-47000D02*
X157000D01*
G01X143000Y-25500D02*
X162000D01*
Y-33500D01*
X143000D01*
Y-25500D01*
G01X141780Y-24669D02*
G03Y-16669I0J4000D01*
G01Y28480D02*
G03Y36480I0J4000D01*
G01Y55055D02*
G03Y63055I0J4000D01*
G01X143748Y109189D02*
G03Y117189I0J4000D01*
G01X146007Y121342D02*
X146237Y121497D01*
X146505Y121600D01*
X146812D01*
X147157Y121445D01*
X147425Y121187D01*
X147617Y120877D01*
X147770Y120360D01*
X147808Y119895D01*
X147732Y119430D01*
X147617Y119120D01*
X147387Y118810D01*
X147118Y118603D01*
X146850Y118500D01*
X146582D01*
X146313Y118603D01*
X146083Y118758D01*
X145892Y118965D01*
G01X144478Y119792D02*
X144210Y120153D01*
X143980Y120360D01*
X143673Y120463D01*
X143405Y120360D01*
X143213Y120153D01*
X143060Y119843D01*
X143022Y119482D01*
X143060Y119172D01*
X143213Y118862D01*
X143443Y118603D01*
X143712Y118500D01*
X144018Y118603D01*
X144287Y118913D01*
X144440Y119378D01*
X144478Y119895D01*
X144402Y120567D01*
X144287Y120928D01*
X144095Y121290D01*
X143827Y121548D01*
X143558Y121600D01*
X143290Y121497D01*
X143098Y121238D01*
G01X140650Y118500D02*
X140382Y118552D01*
X140075Y118707D01*
X139883Y118965D01*
X139807Y119327D01*
X139883Y119688D01*
X140113Y119998D01*
X140458Y120153D01*
X140842D01*
X141072Y120257D01*
X141263Y120515D01*
X141340Y120877D01*
X141225Y121238D01*
X140957Y121497D01*
X140650Y121600D01*
X140343Y121497D01*
X140075Y121238D01*
X139960Y120877D01*
X140037Y120515D01*
X140228Y120257D01*
X140458Y120153D01*
X140842D01*
X141187Y119998D01*
X141417Y119688D01*
X141493Y119327D01*
X141417Y118965D01*
X141225Y118707D01*
X140918Y118552D01*
X140650Y118500D01*
G01X138500Y130000D02*
G02Y138000I0J4000D01*
G01X153500Y130000D02*
X138500D01*
G01X155500Y139000D02*
X136500D01*
Y147000D01*
X155500D01*
Y139000D01*
G01X153500Y138000D02*
X138500D01*
G01X157000Y-39000D02*
G02Y-47000I0J-4000D01*
G01X156117Y-24000D02*
Y-20900D01*
X155158D01*
X154852Y-21055D01*
X154660Y-21262D01*
X154583Y-21675D01*
X154660Y-22088D01*
X154890Y-22347D01*
X155158Y-22502D01*
X156117D01*
G01X155158D02*
X154583Y-24000D01*
G01X151790D02*
Y-20900D01*
X153208Y-23122D01*
X151292D01*
G01X149227Y-24000D02*
X149150Y-23328D01*
X149035Y-22760D01*
X148882Y-22243D01*
X148690Y-21675D01*
X148383Y-20900D01*
X149917D01*
G01X172323Y-15811D02*
X153323D01*
Y-7811D01*
X172323D01*
Y-15811D01*
G01Y-6953D02*
X153323D01*
Y1047D01*
X172323D01*
Y-6953D01*
G01X155323Y1906D02*
G02Y9906I0J4000D01*
G01X170323Y1906D02*
X155323D01*
G01X172323Y10764D02*
X153323D01*
Y18764D01*
X172323D01*
Y10764D01*
G01X170323Y9906D02*
X155323D01*
G01X172323Y28480D02*
X153323D01*
Y36480D01*
X172323D01*
Y28480D01*
G01Y19622D02*
X153323D01*
Y27622D01*
X172323D01*
Y19622D01*
G01X155465Y45339D02*
G03Y37339I0J-4000D01*
G01D02*
X170465D01*
G01X172323Y55055D02*
X153323D01*
Y63055D01*
X172323D01*
Y55055D01*
G01X155465Y45339D02*
X170465D01*
G01X155323Y46197D02*
G02Y54197I0J4000D01*
G01X170323Y46197D02*
X155323D01*
G01X170323Y54197D02*
X155323D01*
G01X153500Y72000D02*
X172500D01*
Y64000D01*
X153500D01*
Y72000D01*
G01X155500Y72772D02*
G02Y80772I0J4000D01*
G01X170500Y72772D02*
X155500D01*
G01X170500Y80772D02*
X155500D01*
G01Y82500D02*
G02Y90500I0J4000D01*
G01X170500Y82500D02*
X155500D01*
G01X153500Y99500D02*
X172500D01*
Y91500D01*
X153500D01*
Y99500D01*
G01X170500Y90500D02*
X155500D01*
G01X153465Y117189D02*
X172465D01*
Y109189D01*
X153465D01*
Y117189D01*
G01X155500Y108500D02*
G03Y100500I0J-4000D01*
G01Y108500D02*
X170500D01*
G01X155500Y100500D02*
X170500D01*
G01X155465Y126047D02*
G03Y118047I0J-4000D01*
G01D02*
X170465D01*
G01X164507Y135342D02*
X164737Y135497D01*
X165005Y135600D01*
X165312D01*
X165657Y135445D01*
X165925Y135187D01*
X166117Y134877D01*
X166270Y134360D01*
X166308Y133895D01*
X166232Y133430D01*
X166117Y133120D01*
X165887Y132810D01*
X165618Y132603D01*
X165350Y132500D01*
X165082D01*
X164813Y132603D01*
X164583Y132758D01*
X164392Y132965D01*
G01X162327Y132500D02*
X162250Y133172D01*
X162135Y133740D01*
X161982Y134257D01*
X161790Y134825D01*
X161483Y135600D01*
X163017D01*
G01X159878Y135083D02*
X159648Y135393D01*
X159380Y135548D01*
X159073Y135600D01*
X158690Y135497D01*
X158422Y135238D01*
X158345Y134928D01*
X158383Y134618D01*
X158537Y134360D01*
X159303Y133843D01*
X159648Y133482D01*
X159878Y132965D01*
X159955Y132500D01*
X158345D01*
G01X153500Y130000D02*
G03Y138000I0J4000D01*
G01X155465Y126047D02*
X170465D01*
G01X164617Y141500D02*
Y144600D01*
X163658D01*
X163352Y144445D01*
X163160Y144238D01*
X163083Y143825D01*
X163160Y143412D01*
X163390Y143153D01*
X163658Y142998D01*
X164617D01*
G01X163658D02*
X163083Y141500D01*
G01X160827D02*
X160750Y142172D01*
X160635Y142740D01*
X160482Y143257D01*
X160290Y143825D01*
X159983Y144600D01*
X161517D01*
G01X158493Y141965D02*
X158263Y141707D01*
X157995Y141552D01*
X157650Y141500D01*
X157305Y141603D01*
X157037Y141810D01*
X156845Y142172D01*
X156807Y142585D01*
X156883Y142998D01*
X157075Y143257D01*
X157343Y143463D01*
X157612Y143515D01*
X157880Y143463D01*
X158225Y143257D01*
X158110Y144600D01*
X157075D01*
G01X180617Y-10000D02*
Y-6900D01*
X179658D01*
X179352Y-7055D01*
X179160Y-7262D01*
X179083Y-7675D01*
X179160Y-8088D01*
X179390Y-8347D01*
X179658Y-8502D01*
X180617D01*
G01X179658D02*
X179083Y-10000D01*
G01X177402Y-9638D02*
X177133Y-9897D01*
X176827Y-10000D01*
X176520Y-9897D01*
X176252Y-9587D01*
X176060Y-9122D01*
X175983Y-8657D01*
Y-8088D01*
X176060Y-7623D01*
X176252Y-7210D01*
X176482Y-7003D01*
X176750Y-6900D01*
X177057Y-7003D01*
X177287Y-7210D01*
X177440Y-7520D01*
X177517Y-7933D01*
X177440Y-8295D01*
X177248Y-8657D01*
X177018Y-8863D01*
X176750Y-8915D01*
X176443Y-8812D01*
X176213Y-8553D01*
X175983Y-8088D01*
G01X174378Y-8708D02*
X174110Y-8347D01*
X173880Y-8140D01*
X173573Y-8037D01*
X173305Y-8140D01*
X173113Y-8347D01*
X172960Y-8657D01*
X172922Y-9018D01*
X172960Y-9328D01*
X173113Y-9638D01*
X173343Y-9897D01*
X173612Y-10000D01*
X173918Y-9897D01*
X174187Y-9587D01*
X174340Y-9122D01*
X174378Y-8605D01*
X174302Y-7933D01*
X174187Y-7572D01*
X173995Y-7210D01*
X173727Y-6952D01*
X173458Y-6900D01*
X173190Y-7003D01*
X172998Y-7262D01*
G01X180617Y-14500D02*
Y-11400D01*
X179658D01*
X179352Y-11555D01*
X179160Y-11762D01*
X179083Y-12175D01*
X179160Y-12588D01*
X179390Y-12847D01*
X179658Y-13002D01*
X180617D01*
G01X179658D02*
X179083Y-14500D01*
G01X177402Y-14138D02*
X177133Y-14397D01*
X176827Y-14500D01*
X176520Y-14397D01*
X176252Y-14087D01*
X176060Y-13622D01*
X175983Y-13157D01*
Y-12588D01*
X176060Y-12123D01*
X176252Y-11710D01*
X176482Y-11503D01*
X176750Y-11400D01*
X177057Y-11503D01*
X177287Y-11710D01*
X177440Y-12020D01*
X177517Y-12433D01*
X177440Y-12795D01*
X177248Y-13157D01*
X177018Y-13363D01*
X176750Y-13415D01*
X176443Y-13312D01*
X176213Y-13053D01*
X175983Y-12588D01*
G01X174493Y-13880D02*
X174263Y-14242D01*
X173957Y-14448D01*
X173612Y-14500D01*
X173305Y-14448D01*
X172998Y-14190D01*
X172807Y-13880D01*
X172768Y-13570D01*
X172845Y-13208D01*
X173113Y-12950D01*
X173382Y-12847D01*
X173727D01*
G01X173382D02*
X173152Y-12692D01*
X172960Y-12433D01*
X172883Y-12123D01*
X172960Y-11813D01*
X173152Y-11555D01*
X173497Y-11400D01*
X173842Y-11452D01*
X174187Y-11658D01*
G01X170323Y1906D02*
G03Y9906I0J4000D01*
G01X180617Y10500D02*
Y13600D01*
X179658D01*
X179352Y13445D01*
X179160Y13238D01*
X179083Y12825D01*
X179160Y12412D01*
X179390Y12153D01*
X179658Y11998D01*
X180617D01*
G01X179658D02*
X179083Y10500D01*
G01X177402Y10862D02*
X177133Y10603D01*
X176827Y10500D01*
X176520Y10603D01*
X176252Y10913D01*
X176060Y11378D01*
X175983Y11843D01*
Y12412D01*
X176060Y12877D01*
X176252Y13290D01*
X176482Y13497D01*
X176750Y13600D01*
X177057Y13497D01*
X177287Y13290D01*
X177440Y12980D01*
X177517Y12567D01*
X177440Y12205D01*
X177248Y11843D01*
X177018Y11637D01*
X176750Y11585D01*
X176443Y11688D01*
X176213Y11947D01*
X175983Y12412D01*
G01X174378Y13083D02*
X174148Y13393D01*
X173880Y13548D01*
X173573Y13600D01*
X173190Y13497D01*
X172922Y13238D01*
X172845Y12928D01*
X172883Y12618D01*
X173037Y12360D01*
X173803Y11843D01*
X174148Y11482D01*
X174378Y10965D01*
X174455Y10500D01*
X172845D01*
G01X181117Y30000D02*
Y33100D01*
X180158D01*
X179852Y32945D01*
X179660Y32738D01*
X179583Y32325D01*
X179660Y31912D01*
X179890Y31653D01*
X180158Y31498D01*
X181117D01*
G01X180158D02*
X179583Y30000D01*
G01X177250D02*
X176982Y30052D01*
X176675Y30207D01*
X176483Y30465D01*
X176407Y30827D01*
X176483Y31188D01*
X176713Y31498D01*
X177058Y31653D01*
X177442D01*
X177672Y31757D01*
X177863Y32015D01*
X177940Y32377D01*
X177825Y32738D01*
X177557Y32997D01*
X177250Y33100D01*
X176943Y32997D01*
X176675Y32738D01*
X176560Y32377D01*
X176637Y32015D01*
X176828Y31757D01*
X177058Y31653D01*
X177442D01*
X177787Y31498D01*
X178017Y31188D01*
X178093Y30827D01*
X178017Y30465D01*
X177825Y30207D01*
X177518Y30052D01*
X177250Y30000D01*
G01X174878Y32583D02*
X174648Y32893D01*
X174380Y33048D01*
X174073Y33100D01*
X173690Y32997D01*
X173422Y32738D01*
X173345Y32428D01*
X173383Y32118D01*
X173537Y31860D01*
X174303Y31343D01*
X174648Y30982D01*
X174878Y30465D01*
X174955Y30000D01*
X173345D01*
G01X180617Y20000D02*
Y23100D01*
X179658D01*
X179352Y22945D01*
X179160Y22738D01*
X179083Y22325D01*
X179160Y21912D01*
X179390Y21653D01*
X179658Y21498D01*
X180617D01*
G01X179658D02*
X179083Y20000D01*
G01X176750D02*
X176482Y20052D01*
X176175Y20207D01*
X175983Y20465D01*
X175907Y20827D01*
X175983Y21188D01*
X176213Y21498D01*
X176558Y21653D01*
X176942D01*
X177172Y21757D01*
X177363Y22015D01*
X177440Y22377D01*
X177325Y22738D01*
X177057Y22997D01*
X176750Y23100D01*
X176443Y22997D01*
X176175Y22738D01*
X176060Y22377D01*
X176137Y22015D01*
X176328Y21757D01*
X176558Y21653D01*
X176942D01*
X177287Y21498D01*
X177517Y21188D01*
X177593Y20827D01*
X177517Y20465D01*
X177325Y20207D01*
X177018Y20052D01*
X176750Y20000D01*
G01X173650Y23100D02*
X173957Y22997D01*
X174187Y22738D01*
X174340Y22428D01*
X174455Y22015D01*
X174493Y21550D01*
X174455Y21085D01*
X174340Y20672D01*
X174187Y20362D01*
X173957Y20103D01*
X173650Y20000D01*
X173343Y20103D01*
X173113Y20362D01*
X172960Y20672D01*
X172845Y21085D01*
X172807Y21550D01*
X172845Y22015D01*
X172960Y22428D01*
X173113Y22738D01*
X173343Y22997D01*
X173650Y23100D01*
G01X170465Y45339D02*
G02Y37339I0J-4000D01*
G01X181117Y57000D02*
Y60100D01*
X180158D01*
X179852Y59945D01*
X179660Y59738D01*
X179583Y59325D01*
X179660Y58912D01*
X179890Y58653D01*
X180158Y58498D01*
X181117D01*
G01X180158D02*
X179583Y57000D01*
G01X177978Y58292D02*
X177710Y58653D01*
X177480Y58860D01*
X177173Y58963D01*
X176905Y58860D01*
X176713Y58653D01*
X176560Y58343D01*
X176522Y57982D01*
X176560Y57672D01*
X176713Y57362D01*
X176943Y57103D01*
X177212Y57000D01*
X177518Y57103D01*
X177787Y57413D01*
X177940Y57878D01*
X177978Y58395D01*
X177902Y59067D01*
X177787Y59428D01*
X177595Y59790D01*
X177327Y60048D01*
X177058Y60100D01*
X176790Y59997D01*
X176598Y59738D01*
G01X174993Y57465D02*
X174763Y57207D01*
X174495Y57052D01*
X174150Y57000D01*
X173805Y57103D01*
X173537Y57310D01*
X173345Y57672D01*
X173307Y58085D01*
X173383Y58498D01*
X173575Y58757D01*
X173843Y58963D01*
X174112Y59015D01*
X174380Y58963D01*
X174725Y58757D01*
X174610Y60100D01*
X173575D01*
G01X170323Y46197D02*
G03Y54197I0J4000D01*
G01X180617Y66500D02*
Y69600D01*
X179658D01*
X179352Y69445D01*
X179160Y69238D01*
X179083Y68825D01*
X179160Y68412D01*
X179390Y68153D01*
X179658Y67998D01*
X180617D01*
G01X179658D02*
X179083Y66500D01*
G01X177478Y67792D02*
X177210Y68153D01*
X176980Y68360D01*
X176673Y68463D01*
X176405Y68360D01*
X176213Y68153D01*
X176060Y67843D01*
X176022Y67482D01*
X176060Y67172D01*
X176213Y66862D01*
X176443Y66603D01*
X176712Y66500D01*
X177018Y66603D01*
X177287Y66913D01*
X177440Y67378D01*
X177478Y67895D01*
X177402Y68567D01*
X177287Y68928D01*
X177095Y69290D01*
X176827Y69548D01*
X176558Y69600D01*
X176290Y69497D01*
X176098Y69238D01*
G01X173727Y66500D02*
X173650Y67172D01*
X173535Y67740D01*
X173382Y68257D01*
X173190Y68825D01*
X172883Y69600D01*
X174417D01*
G01X170500Y72772D02*
G03Y80772I0J4000D01*
G01Y82500D02*
G03Y90500I0J4000D01*
G01X181117Y96500D02*
Y99600D01*
X180158D01*
X179852Y99445D01*
X179660Y99238D01*
X179583Y98825D01*
X179660Y98412D01*
X179890Y98153D01*
X180158Y97998D01*
X181117D01*
G01X180158D02*
X179583Y96500D01*
G01X177327D02*
X177250Y97172D01*
X177135Y97740D01*
X176982Y98257D01*
X176790Y98825D01*
X176483Y99600D01*
X178017D01*
G01X173690Y96500D02*
Y99600D01*
X175108Y97378D01*
X173192D01*
G01X170500Y108500D02*
G02Y100500I0J-4000D01*
G01X170465Y126047D02*
G02Y118047I0J-4000D01*
G01X180007Y3342D02*
X180237Y3497D01*
X180505Y3600D01*
X180812D01*
X181157Y3445D01*
X181425Y3187D01*
X181617Y2877D01*
X181770Y2360D01*
X181808Y1895D01*
X181732Y1430D01*
X181617Y1120D01*
X181387Y810D01*
X181118Y603D01*
X180850Y500D01*
X180582D01*
X180313Y603D01*
X180083Y758D01*
X179892Y965D01*
G01X177750Y500D02*
X177482Y552D01*
X177175Y707D01*
X176983Y965D01*
X176907Y1327D01*
X176983Y1688D01*
X177213Y1998D01*
X177558Y2153D01*
X177942D01*
X178172Y2257D01*
X178363Y2515D01*
X178440Y2877D01*
X178325Y3238D01*
X178057Y3497D01*
X177750Y3600D01*
X177443Y3497D01*
X177175Y3238D01*
X177060Y2877D01*
X177137Y2515D01*
X177328Y2257D01*
X177558Y2153D01*
X177942D01*
X178287Y1998D01*
X178517Y1688D01*
X178593Y1327D01*
X178517Y965D01*
X178325Y707D01*
X178018Y552D01*
X177750Y500D01*
G01X174190D02*
Y3600D01*
X175608Y1378D01*
X173692D01*
G01X181007Y42342D02*
X181237Y42497D01*
X181505Y42600D01*
X181812D01*
X182157Y42445D01*
X182425Y42187D01*
X182617Y41877D01*
X182770Y41360D01*
X182808Y40895D01*
X182732Y40430D01*
X182617Y40120D01*
X182387Y39810D01*
X182118Y39603D01*
X181850Y39500D01*
X181582D01*
X181313Y39603D01*
X181083Y39758D01*
X180892Y39965D01*
G01X179593D02*
X179363Y39707D01*
X179095Y39552D01*
X178750Y39500D01*
X178405Y39603D01*
X178137Y39810D01*
X177945Y40172D01*
X177907Y40585D01*
X177983Y40998D01*
X178175Y41257D01*
X178443Y41463D01*
X178712Y41515D01*
X178980Y41463D01*
X179325Y41257D01*
X179210Y42600D01*
X178175D01*
G01X175650Y39500D02*
X175382Y39552D01*
X175075Y39707D01*
X174883Y39965D01*
X174807Y40327D01*
X174883Y40688D01*
X175113Y40998D01*
X175458Y41153D01*
X175842D01*
X176072Y41257D01*
X176263Y41515D01*
X176340Y41877D01*
X176225Y42238D01*
X175957Y42497D01*
X175650Y42600D01*
X175343Y42497D01*
X175075Y42238D01*
X174960Y41877D01*
X175037Y41515D01*
X175228Y41257D01*
X175458Y41153D01*
X175842D01*
X176187Y40998D01*
X176417Y40688D01*
X176493Y40327D01*
X176417Y39965D01*
X176225Y39707D01*
X175918Y39552D01*
X175650Y39500D01*
G01X181507Y52842D02*
X181737Y52997D01*
X182005Y53100D01*
X182312D01*
X182657Y52945D01*
X182925Y52687D01*
X183117Y52377D01*
X183270Y51860D01*
X183308Y51395D01*
X183232Y50930D01*
X183117Y50620D01*
X182887Y50310D01*
X182618Y50103D01*
X182350Y50000D01*
X182082D01*
X181813Y50103D01*
X181583Y50258D01*
X181392Y50465D01*
G01X179327Y50000D02*
X179250Y50672D01*
X179135Y51240D01*
X178982Y51757D01*
X178790Y52325D01*
X178483Y53100D01*
X180017D01*
G01X176227Y50000D02*
X176150Y50672D01*
X176035Y51240D01*
X175882Y51757D01*
X175690Y52325D01*
X175383Y53100D01*
X176917D01*
G01X180507Y79342D02*
X180737Y79497D01*
X181005Y79600D01*
X181312D01*
X181657Y79445D01*
X181925Y79187D01*
X182117Y78877D01*
X182270Y78360D01*
X182308Y77895D01*
X182232Y77430D01*
X182117Y77120D01*
X181887Y76810D01*
X181618Y76603D01*
X181350Y76500D01*
X181082D01*
X180813Y76603D01*
X180583Y76758D01*
X180392Y76965D01*
G01X179093D02*
X178863Y76707D01*
X178595Y76552D01*
X178250Y76500D01*
X177905Y76603D01*
X177637Y76810D01*
X177445Y77172D01*
X177407Y77585D01*
X177483Y77998D01*
X177675Y78257D01*
X177943Y78463D01*
X178212Y78515D01*
X178480Y78463D01*
X178825Y78257D01*
X178710Y79600D01*
X177675D01*
G01X175227Y76500D02*
X175150Y77172D01*
X175035Y77740D01*
X174882Y78257D01*
X174690Y78825D01*
X174383Y79600D01*
X175917D01*
G01X181007Y89842D02*
X181237Y89997D01*
X181505Y90100D01*
X181812D01*
X182157Y89945D01*
X182425Y89687D01*
X182617Y89377D01*
X182770Y88860D01*
X182808Y88395D01*
X182732Y87930D01*
X182617Y87620D01*
X182387Y87310D01*
X182118Y87103D01*
X181850Y87000D01*
X181582D01*
X181313Y87103D01*
X181083Y87258D01*
X180892Y87465D01*
G01X179593D02*
X179363Y87207D01*
X179095Y87052D01*
X178750Y87000D01*
X178405Y87103D01*
X178137Y87310D01*
X177945Y87672D01*
X177907Y88085D01*
X177983Y88498D01*
X178175Y88757D01*
X178443Y88963D01*
X178712Y89015D01*
X178980Y88963D01*
X179325Y88757D01*
X179210Y90100D01*
X178175D01*
G01X176493Y87465D02*
X176263Y87207D01*
X175995Y87052D01*
X175650Y87000D01*
X175305Y87103D01*
X175037Y87310D01*
X174845Y87672D01*
X174807Y88085D01*
X174883Y88498D01*
X175075Y88757D01*
X175343Y88963D01*
X175612Y89015D01*
X175880Y88963D01*
X176225Y88757D01*
X176110Y90100D01*
X175075D01*
G01X180007Y109342D02*
X180237Y109497D01*
X180505Y109600D01*
X180812D01*
X181157Y109445D01*
X181425Y109187D01*
X181617Y108877D01*
X181770Y108360D01*
X181808Y107895D01*
X181732Y107430D01*
X181617Y107120D01*
X181387Y106810D01*
X181118Y106603D01*
X180850Y106500D01*
X180582D01*
X180313Y106603D01*
X180083Y106758D01*
X179892Y106965D01*
G01X177827Y106500D02*
X177750Y107172D01*
X177635Y107740D01*
X177482Y108257D01*
X177290Y108825D01*
X176983Y109600D01*
X178517D01*
G01X174650D02*
X174957Y109497D01*
X175187Y109238D01*
X175340Y108928D01*
X175455Y108515D01*
X175493Y108050D01*
X175455Y107585D01*
X175340Y107172D01*
X175187Y106862D01*
X174957Y106603D01*
X174650Y106500D01*
X174343Y106603D01*
X174113Y106862D01*
X173960Y107172D01*
X173845Y107585D01*
X173807Y108050D01*
X173845Y108515D01*
X173960Y108928D01*
X174113Y109238D01*
X174343Y109497D01*
X174650Y109600D01*
G01X182617Y117500D02*
Y120600D01*
X181658D01*
X181352Y120445D01*
X181160Y120238D01*
X181083Y119825D01*
X181160Y119412D01*
X181390Y119153D01*
X181658Y118998D01*
X182617D01*
G01X181658D02*
X181083Y117500D01*
G01X179593Y117965D02*
X179363Y117707D01*
X179095Y117552D01*
X178750Y117500D01*
X178405Y117603D01*
X178137Y117810D01*
X177945Y118172D01*
X177907Y118585D01*
X177983Y118998D01*
X178175Y119257D01*
X178443Y119463D01*
X178712Y119515D01*
X178980Y119463D01*
X179325Y119257D01*
X179210Y120600D01*
X178175D01*
G01X175727Y117500D02*
X175650Y118172D01*
X175535Y118740D01*
X175382Y119257D01*
X175190Y119825D01*
X174883Y120600D01*
X176417D01*
G01X181007Y125342D02*
X181237Y125497D01*
X181505Y125600D01*
X181812D01*
X182157Y125445D01*
X182425Y125187D01*
X182617Y124877D01*
X182770Y124360D01*
X182808Y123895D01*
X182732Y123430D01*
X182617Y123120D01*
X182387Y122810D01*
X182118Y122603D01*
X181850Y122500D01*
X181582D01*
X181313Y122603D01*
X181083Y122758D01*
X180892Y122965D01*
G01X178290Y122500D02*
Y125600D01*
X179708Y123378D01*
X177792D01*
G01X175190Y122500D02*
Y125600D01*
X176608Y123378D01*
X174692D01*
M02*
