G04 ================== begin FILE IDENTIFICATION RECORD ==================*
G04 Layout Name:  F:/产品设计/振镜/驱动板电路/第二版数字/GALVOSERVODRV2.brd*
G04 Film Name:    SILK_TOP*
G04 File Format:  Gerber RS274X*
G04 File Origin:  Cadence Allegro 16.6-P004*
G04 Origin Date:  Thu Oct 06 09:45:18 2016*
G04 *
G04 Layer:  BOARD GEOMETRY/SILKSCREEN_TOP*
G04 Layer:  REF DES/SILKSCREEN_TOP*
G04 Layer:  PACKAGE GEOMETRY/SILKSCREEN_TOP*
G04 Layer:  BOARD GEOMETRY/OUTLINE*
G04 *
G04 Offset:    (0.000 0.000)*
G04 Mirror:    No*
G04 Mode:      Positive*
G04 Rotation:  0*
G04 FullContactRelief:  No*
G04 UndefLineWidth:     6.000*
G04 ================== end FILE IDENTIFICATION RECORD ====================*
%FSLAX35Y35*MOIN*%
%IR0*IPPOS*OFA0.00000B0.00000*MIA0B0*SFA1.00000B1.00000*%
%ADD10C,.001*%
%ADD11C,.005*%
%ADD12C,.006*%
%ADD13C,.008*%
%ADD14C,.006299*%
%ADD15C,.01*%
G75*
%LPD*%
G75*
G36*
G01X-103645Y-42697D02*
G03I-1414J0D01*
G37*
G36*
G01X-103586Y-13000D02*
G03I-1414J0D01*
G37*
G36*
G01X27457Y23248D02*
G03I-1414J0D01*
G37*
G36*
G01Y58681D02*
G03I-1414J0D01*
G37*
G36*
G01X81591Y5532D02*
G03I-1414J0D01*
G37*
G36*
G01Y40965D02*
G03I-1414J0D01*
G37*
G36*
G01Y76398D02*
G03I-1414J0D01*
G37*
G36*
G01X132772Y5532D02*
G03I-1414J0D01*
G37*
G36*
G01Y40965D02*
G03I-1414J0D01*
G37*
G36*
G01Y76398D02*
G03I-1414J0D01*
G37*
G54D10*
G01X-107559Y-110551D02*
X-97559D01*
Y-70551D01*
X-107559D01*
Y-110551D01*
G54D11*
G01X-122500Y104000D02*
X-119000D01*
Y111000D01*
X-126000D01*
Y104000D01*
X-122500D01*
G01X-109000D02*
X-105500D01*
Y111000D01*
X-112500D01*
Y104000D01*
X-109000D01*
G01X-82028Y26465D02*
Y21465D01*
X-58028D01*
Y26465D01*
G01Y40465D02*
Y45465D01*
X-82028D01*
Y40465D01*
G01X-78028Y25465D02*
G03X-62028I8000J8000D01*
G01X-78028Y41465D02*
G02X-62028I8000J-8000D01*
G01X-60000Y-13500D02*
X-56500D01*
Y-6500D01*
X-63500D01*
Y-13500D01*
X-60000D01*
G01X-35000D02*
X-31500D01*
Y-6500D01*
X-38500D01*
Y-13500D01*
X-35000D01*
G01X-21795Y-113984D02*
Y-137984D01*
G01X-5362Y-125984D02*
G03I-7433J0D01*
G01X-17795Y-138984D02*
X-7795D01*
G01X-23795Y-112984D02*
X-25795D01*
Y-138984D01*
X-23795D01*
G01X-8095Y-112984D02*
X-17495D01*
G01X-10000Y-13500D02*
X-6500D01*
Y-6500D01*
X-13500D01*
Y-13500D01*
X-10000D01*
G01Y7500D02*
X-6500D01*
Y14500D01*
X-13500D01*
Y7500D01*
X-10000D01*
G01Y27500D02*
X-6500D01*
Y34500D01*
X-13500D01*
Y27500D01*
X-10000D01*
G01Y48500D02*
X-6500D01*
Y55500D01*
X-13500D01*
Y48500D01*
X-10000D01*
G01X-3795Y-113484D02*
Y-137984D01*
G01X-1795Y-112984D02*
X205D01*
Y-138984D01*
X-1795D01*
G01X11638Y-112984D02*
X9638D01*
Y-138984D01*
X11638D01*
G01X15000Y-13500D02*
X18500D01*
Y-6500D01*
X11500D01*
Y-13500D01*
X15000D01*
G01X13638Y-113984D02*
Y-137984D01*
G01X30071Y-125984D02*
G03I-7433J0D01*
G01X17638Y-138984D02*
X27638D01*
G01X27338Y-112984D02*
X17938D01*
G01X31638Y-113484D02*
Y-137984D01*
G01X33638Y-112984D02*
X35638D01*
Y-138984D01*
X33638D01*
G01X49071Y-113984D02*
Y-137984D01*
G01X65504Y-125984D02*
G03I-7433J0D01*
G01X53071Y-138984D02*
X63071D01*
G01X47071Y-112984D02*
X45071D01*
Y-138984D01*
X47071D01*
G01X62771Y-112984D02*
X53371D01*
G01X67071Y-113484D02*
Y-137984D01*
G01X69071Y-112984D02*
X71071D01*
Y-138984D01*
X69071D01*
G01X84504Y-113984D02*
Y-137984D01*
G01X100937Y-125984D02*
G03I-7433J0D01*
G01X88504Y-138984D02*
X98504D01*
G01X82504Y-112984D02*
X80504D01*
Y-138984D01*
X82504D01*
G01X98204Y-112984D02*
X88804D01*
G01X102504Y-113484D02*
Y-137984D01*
G01X104504Y-112984D02*
X106504D01*
Y-138984D01*
X104504D01*
G01X130764Y-58866D02*
Y-82866D01*
G01X128764Y-57866D02*
X126764D01*
Y-83866D01*
X128764D01*
G01X147197Y-70866D02*
G03I-7433J0D01*
G01X134764Y-83866D02*
X144764D01*
G01X144464Y-57866D02*
X135064D01*
G01X148764Y-58366D02*
Y-82866D01*
G01X150764Y-57866D02*
X152764D01*
Y-83866D01*
X150764D01*
G54D12*
G01X-100689Y-143209D02*
Y-151674D01*
G01D02*
X-72637D01*
G01X-100689Y-126476D02*
Y-146161D01*
G01Y-126476D02*
Y-118011D01*
G01D02*
X-35137D01*
G01Y-151674D02*
X-63189D01*
G01X-35137D02*
Y-143209D01*
G01Y-126476D02*
Y-146161D01*
G01Y-126476D02*
Y-118011D01*
G01X-230300Y-123100D02*
X-192800D01*
Y-148100D01*
X-137800D01*
Y16900D01*
X-192800D01*
Y-10600D01*
X-230300D01*
Y-123100D01*
G01X-221650Y119414D02*
X-196850D01*
Y53814D01*
X-221650D01*
Y119414D01*
G01X-196850Y-157480D02*
Y157480D01*
X196850D01*
Y-157480D01*
X-196850D01*
G01X-192317Y-155000D02*
Y-150000D01*
X-190797D01*
X-190290Y-150250D01*
X-189910Y-150833D01*
X-189783Y-151500D01*
X-189910Y-152167D01*
X-190227Y-152667D01*
X-190797Y-152917D01*
X-192317D01*
G01X-187153Y-150833D02*
X-186773Y-150333D01*
X-186330Y-150083D01*
X-185823Y-150000D01*
X-185190Y-150167D01*
X-184747Y-150583D01*
X-184620Y-151083D01*
X-184683Y-151584D01*
X-184937Y-152000D01*
X-186203Y-152833D01*
X-186773Y-153417D01*
X-187153Y-154250D01*
X-187280Y-155000D01*
X-184620D01*
G01X-196850Y148414D02*
X-186850D01*
Y24814D01*
X-196850D01*
Y148414D01*
G01X-188593Y150591D02*
Y153691D01*
X-187673D01*
X-187366Y153536D01*
X-187136Y153174D01*
X-187060Y152761D01*
X-187136Y152347D01*
X-187328Y152037D01*
X-187673Y151882D01*
X-188593D01*
G01X-184726Y150591D02*
Y153691D01*
X-185186Y153071D01*
G01Y150591D02*
X-184266D01*
G01X-186850Y148414D02*
X-137650D01*
Y24814D01*
X-186850D01*
Y148414D01*
G01X-119913Y-153396D02*
Y-156496D01*
G01X-120795Y-153396D02*
X-119031D01*
G01X-117541Y-153913D02*
X-117311Y-153603D01*
X-117043Y-153448D01*
X-116736Y-153396D01*
X-116353Y-153499D01*
X-116085Y-153758D01*
X-116008Y-154068D01*
X-116046Y-154378D01*
X-116200Y-154636D01*
X-116966Y-155153D01*
X-117311Y-155514D01*
X-117541Y-156031D01*
X-117618Y-156496D01*
X-116008D01*
G01X-129693Y8000D02*
Y11100D01*
X-128927D01*
X-128620Y10945D01*
X-128390Y10738D01*
X-128198Y10428D01*
X-128045Y10067D01*
X-128007Y9550D01*
X-128045Y9033D01*
X-128198Y8672D01*
X-128390Y8362D01*
X-128620Y8155D01*
X-128927Y8000D01*
X-129693D01*
G01X-126478Y10583D02*
X-126248Y10893D01*
X-125980Y11048D01*
X-125673Y11100D01*
X-125290Y10997D01*
X-125022Y10738D01*
X-124945Y10428D01*
X-124983Y10118D01*
X-125137Y9860D01*
X-125903Y9343D01*
X-126248Y8982D01*
X-126478Y8465D01*
X-126555Y8000D01*
X-124945D01*
G01X-125392Y56024D02*
X-104392D01*
Y66024D01*
X-125392D01*
X-127892Y63524D01*
Y58524D01*
X-125392Y56024D01*
G01Y71772D02*
X-104392D01*
Y81772D01*
X-125392D01*
X-127892Y79272D01*
Y74272D01*
X-125392Y71772D01*
G01Y87520D02*
X-104392D01*
Y97520D01*
X-125392D01*
X-127892Y95020D01*
Y90020D01*
X-125392Y87520D01*
G01X-125287Y115521D02*
Y112421D01*
G01X-126169Y115521D02*
X-124405D01*
G01X-122954Y112421D02*
Y115521D01*
X-122034D01*
X-121727Y115366D01*
X-121497Y115005D01*
X-121420Y114591D01*
X-121497Y114178D01*
X-121689Y113868D01*
X-122034Y113713D01*
X-122954D01*
G01X-119930Y112886D02*
X-119701Y112628D01*
X-119432Y112473D01*
X-119087Y112421D01*
X-118742Y112524D01*
X-118474Y112731D01*
X-118282Y113093D01*
X-118244Y113506D01*
X-118320Y113920D01*
X-118512Y114178D01*
X-118780Y114384D01*
X-119049Y114436D01*
X-119317Y114384D01*
X-119662Y114178D01*
X-119547Y115521D01*
X-118512D01*
G01X-107559Y-60197D02*
X-97559D01*
Y-40197D01*
X-107559D01*
Y-60197D01*
G01X-107500Y-30500D02*
X-97500D01*
Y-10500D01*
X-107500D01*
Y-30500D01*
G01X-106918Y-5589D02*
Y-7811D01*
X-106764Y-8276D01*
X-106458Y-8586D01*
X-106074Y-8689D01*
X-105691Y-8586D01*
X-105384Y-8276D01*
X-105231Y-7811D01*
Y-5589D01*
G01X-102974Y-8689D02*
Y-5589D01*
X-103434Y-6209D01*
G01Y-8689D02*
X-102514D01*
G01X-99874D02*
X-99606Y-8637D01*
X-99299Y-8482D01*
X-99108Y-8224D01*
X-99031Y-7862D01*
X-99108Y-7501D01*
X-99338Y-7191D01*
X-99683Y-7036D01*
X-100066D01*
X-100296Y-6932D01*
X-100488Y-6674D01*
X-100564Y-6312D01*
X-100449Y-5951D01*
X-100181Y-5692D01*
X-99874Y-5589D01*
X-99568Y-5692D01*
X-99299Y-5951D01*
X-99184Y-6312D01*
X-99261Y-6674D01*
X-99453Y-6932D01*
X-99683Y-7036D01*
X-100066D01*
X-100411Y-7191D01*
X-100641Y-7501D01*
X-100718Y-7862D01*
X-100641Y-8224D01*
X-100449Y-8482D01*
X-100143Y-8637D01*
X-99874Y-8689D01*
G01X-108693Y44100D02*
Y41878D01*
X-108540Y41413D01*
X-108233Y41103D01*
X-107850Y41000D01*
X-107467Y41103D01*
X-107160Y41413D01*
X-107007Y41878D01*
Y44100D01*
G01X-104290Y41000D02*
Y44100D01*
X-105708Y41878D01*
X-103792D01*
G01X-111787Y115521D02*
Y112421D01*
G01X-112669Y115521D02*
X-110905D01*
G01X-109454Y112421D02*
Y115521D01*
X-108534D01*
X-108227Y115366D01*
X-107997Y115005D01*
X-107920Y114591D01*
X-107997Y114178D01*
X-108189Y113868D01*
X-108534Y113713D01*
X-109454D01*
G01X-105587Y112421D02*
Y115521D01*
X-106047Y114901D01*
G01Y112421D02*
X-105127D01*
G01X-118929Y154675D02*
Y151575D01*
G01X-119810Y154675D02*
X-118047D01*
G01X-115829Y151575D02*
Y154675D01*
X-116289Y154055D01*
G01Y151575D02*
X-115369D01*
G01X-104693Y-65900D02*
Y-68122D01*
X-104540Y-68587D01*
X-104233Y-68897D01*
X-103850Y-69000D01*
X-103467Y-68897D01*
X-103160Y-68587D01*
X-103007Y-68122D01*
Y-65900D01*
G01X-101478Y-67708D02*
X-101210Y-67347D01*
X-100980Y-67140D01*
X-100673Y-67037D01*
X-100405Y-67140D01*
X-100213Y-67347D01*
X-100060Y-67657D01*
X-100022Y-68018D01*
X-100060Y-68328D01*
X-100213Y-68638D01*
X-100443Y-68897D01*
X-100712Y-69000D01*
X-101018Y-68897D01*
X-101287Y-68587D01*
X-101440Y-68122D01*
X-101478Y-67605D01*
X-101402Y-66933D01*
X-101287Y-66572D01*
X-101095Y-66210D01*
X-100827Y-65952D01*
X-100558Y-65900D01*
X-100290Y-66003D01*
X-100098Y-66262D01*
G01X-105992Y-35286D02*
Y-37508D01*
X-105839Y-37973D01*
X-105533Y-38282D01*
X-105149Y-38386D01*
X-104766Y-38282D01*
X-104459Y-37973D01*
X-104306Y-37508D01*
Y-35286D01*
G01X-102049Y-38386D02*
Y-35286D01*
X-102509Y-35906D01*
G01Y-38386D02*
X-101589D01*
G01X-99601Y-38024D02*
X-99333Y-38282D01*
X-99026Y-38386D01*
X-98719Y-38282D01*
X-98451Y-37973D01*
X-98259Y-37508D01*
X-98182Y-37042D01*
Y-36474D01*
X-98259Y-36009D01*
X-98451Y-35596D01*
X-98681Y-35389D01*
X-98949Y-35286D01*
X-99256Y-35389D01*
X-99486Y-35596D01*
X-99639Y-35906D01*
X-99716Y-36319D01*
X-99639Y-36681D01*
X-99448Y-37042D01*
X-99218Y-37249D01*
X-98949Y-37301D01*
X-98643Y-37198D01*
X-98412Y-36939D01*
X-98182Y-36474D01*
G01X-102963Y61171D02*
Y58071D01*
X-101430D01*
G01X-99940Y58536D02*
X-99710Y58278D01*
X-99442Y58123D01*
X-99097Y58071D01*
X-98752Y58174D01*
X-98483Y58381D01*
X-98292Y58742D01*
X-98253Y59156D01*
X-98330Y59569D01*
X-98522Y59828D01*
X-98790Y60034D01*
X-99058Y60086D01*
X-99326Y60034D01*
X-99672Y59828D01*
X-99556Y61171D01*
X-98522D01*
G01X-102963Y76919D02*
Y73819D01*
X-101430D01*
G01X-99825Y75110D02*
X-99556Y75472D01*
X-99326Y75679D01*
X-99020Y75782D01*
X-98752Y75679D01*
X-98560Y75472D01*
X-98407Y75162D01*
X-98368Y74800D01*
X-98407Y74490D01*
X-98560Y74180D01*
X-98790Y73922D01*
X-99058Y73819D01*
X-99365Y73922D01*
X-99633Y74232D01*
X-99786Y74697D01*
X-99825Y75214D01*
X-99748Y75886D01*
X-99633Y76247D01*
X-99442Y76609D01*
X-99173Y76867D01*
X-98905Y76919D01*
X-98636Y76816D01*
X-98445Y76557D01*
G01X-70551Y109252D02*
G03I-15000J0D01*
G01X-102963Y92667D02*
Y89567D01*
X-101430D01*
G01X-98636D02*
Y92667D01*
X-100055Y90445D01*
X-98138D01*
G01X-102493Y121936D02*
X-102723Y122091D01*
X-102991Y122194D01*
X-103298D01*
X-103643Y122039D01*
X-103911Y121781D01*
X-104103Y121471D01*
X-104256Y120955D01*
X-104295Y120490D01*
X-104218Y120024D01*
X-104103Y119714D01*
X-103873Y119404D01*
X-103605Y119198D01*
X-103336Y119094D01*
X-103068D01*
X-102800Y119198D01*
X-102570Y119353D01*
X-102378Y119559D01*
G01X-101079Y119714D02*
X-100850Y119353D01*
X-100543Y119146D01*
X-100198Y119094D01*
X-99891Y119146D01*
X-99585Y119404D01*
X-99393Y119714D01*
X-99354Y120024D01*
X-99431Y120386D01*
X-99700Y120644D01*
X-99968Y120748D01*
X-100313D01*
G01X-99968D02*
X-99738Y120903D01*
X-99546Y121161D01*
X-99470Y121471D01*
X-99546Y121781D01*
X-99738Y122039D01*
X-100083Y122194D01*
X-100428Y122143D01*
X-100773Y121936D01*
G01X-97213Y119094D02*
X-97136Y119766D01*
X-97021Y120334D01*
X-96868Y120851D01*
X-96676Y121419D01*
X-96370Y122194D01*
X-97903D01*
G01X-102650Y129810D02*
X-102880Y129965D01*
X-103149Y130068D01*
X-103455D01*
X-103800Y129913D01*
X-104069Y129655D01*
X-104260Y129345D01*
X-104414Y128829D01*
X-104452Y128364D01*
X-104375Y127898D01*
X-104260Y127588D01*
X-104030Y127278D01*
X-103762Y127072D01*
X-103494Y126968D01*
X-103225D01*
X-102957Y127072D01*
X-102727Y127227D01*
X-102535Y127433D01*
G01X-101237Y127588D02*
X-101007Y127227D01*
X-100700Y127020D01*
X-100355Y126968D01*
X-100049Y127020D01*
X-99742Y127278D01*
X-99550Y127588D01*
X-99512Y127898D01*
X-99589Y128260D01*
X-99857Y128518D01*
X-100125Y128622D01*
X-100470D01*
G01X-100125D02*
X-99895Y128777D01*
X-99704Y129035D01*
X-99627Y129345D01*
X-99704Y129655D01*
X-99895Y129913D01*
X-100240Y130068D01*
X-100585Y130017D01*
X-100930Y129810D01*
G01X-97294Y126968D02*
X-97025Y127020D01*
X-96719Y127175D01*
X-96527Y127433D01*
X-96450Y127795D01*
X-96527Y128157D01*
X-96757Y128467D01*
X-97102Y128622D01*
X-97485D01*
X-97715Y128725D01*
X-97907Y128983D01*
X-97984Y129345D01*
X-97869Y129707D01*
X-97600Y129965D01*
X-97294Y130068D01*
X-96987Y129965D01*
X-96719Y129707D01*
X-96604Y129345D01*
X-96680Y128983D01*
X-96872Y128725D01*
X-97102Y128622D01*
X-97485D01*
X-97830Y128467D01*
X-98060Y128157D01*
X-98137Y127795D01*
X-98060Y127433D01*
X-97869Y127175D01*
X-97562Y127020D01*
X-97294Y126968D01*
G01X-70551Y140748D02*
G03I-15000J0D01*
G01X-98885Y152045D02*
Y150525D01*
G01X-97801Y151348D02*
X-99968D01*
G01X-92143Y-155702D02*
Y-153702D01*
X-92383Y-154102D01*
G01Y-155702D02*
X-91903D01*
G01X-92523Y-114546D02*
X-92403Y-114346D01*
X-92263Y-114246D01*
X-92103Y-114213D01*
X-91903Y-114279D01*
X-91763Y-114446D01*
X-91723Y-114646D01*
X-91743Y-114846D01*
X-91823Y-115013D01*
X-92223Y-115346D01*
X-92403Y-115579D01*
X-92523Y-115913D01*
X-92563Y-116213D01*
X-91723D01*
G01X-93121Y34596D02*
Y31496D01*
X-91587D01*
G01X-89982Y34079D02*
X-89752Y34389D01*
X-89484Y34544D01*
X-89177Y34596D01*
X-88794Y34493D01*
X-88526Y34234D01*
X-88449Y33924D01*
X-88487Y33614D01*
X-88641Y33356D01*
X-89407Y32839D01*
X-89752Y32478D01*
X-89982Y31961D01*
X-90059Y31496D01*
X-88449D01*
G01X-81240Y57165D02*
Y61165D01*
X-78240D01*
Y57165D01*
X-81240D01*
G01X-83240Y88165D02*
X-86240D01*
Y61165D01*
X-55240D01*
Y88165D01*
X-58240D01*
G01X-83240D02*
X-82240D01*
G01X-72528Y52313D02*
Y50091D01*
X-72375Y49626D01*
X-72068Y49316D01*
X-71685Y49213D01*
X-71301Y49316D01*
X-70995Y49626D01*
X-70841Y50091D01*
Y52313D01*
G01X-69313Y51796D02*
X-69083Y52106D01*
X-68815Y52261D01*
X-68508Y52313D01*
X-68125Y52209D01*
X-67856Y51951D01*
X-67780Y51641D01*
X-67818Y51331D01*
X-67971Y51073D01*
X-68738Y50556D01*
X-69083Y50194D01*
X-69313Y49678D01*
X-69390Y49213D01*
X-67780D01*
G01X-72240Y57165D02*
Y61165D01*
X-69240D01*
Y57165D01*
X-72240D01*
G01X-72218Y97955D02*
Y99475D01*
G01X-73301Y98652D02*
X-71134D01*
G01X-64787Y-109500D02*
Y-107000D01*
X-64253D01*
X-64040Y-107125D01*
X-63880Y-107292D01*
X-63747Y-107542D01*
X-63640Y-107833D01*
X-63613Y-108250D01*
X-63640Y-108667D01*
X-63747Y-108958D01*
X-63880Y-109208D01*
X-64040Y-109375D01*
X-64253Y-109500D01*
X-64787D01*
G01X-62587Y-109000D02*
X-62427Y-109292D01*
X-62213Y-109458D01*
X-61973Y-109500D01*
X-61760Y-109458D01*
X-61547Y-109250D01*
X-61413Y-109000D01*
X-61387Y-108750D01*
X-61440Y-108458D01*
X-61627Y-108250D01*
X-61813Y-108167D01*
X-62053D01*
G01X-61813D02*
X-61653Y-108042D01*
X-61520Y-107833D01*
X-61467Y-107583D01*
X-61520Y-107333D01*
X-61653Y-107125D01*
X-61893Y-107000D01*
X-62133Y-107042D01*
X-62373Y-107208D01*
G01X-62787Y-1979D02*
Y-5079D01*
G01X-63669Y-1979D02*
X-61905D01*
G01X-60454Y-5079D02*
Y-1979D01*
X-59534D01*
X-59227Y-2134D01*
X-58997Y-2496D01*
X-58920Y-2909D01*
X-58997Y-3322D01*
X-59189Y-3632D01*
X-59534Y-3787D01*
X-60454D01*
G01X-56587Y-5079D02*
X-56319Y-5027D01*
X-56012Y-4872D01*
X-55820Y-4614D01*
X-55744Y-4252D01*
X-55820Y-3890D01*
X-56050Y-3581D01*
X-56395Y-3425D01*
X-56779D01*
X-57009Y-3322D01*
X-57200Y-3064D01*
X-57277Y-2702D01*
X-57162Y-2340D01*
X-56894Y-2082D01*
X-56587Y-1979D01*
X-56280Y-2082D01*
X-56012Y-2340D01*
X-55897Y-2702D01*
X-55974Y-3064D01*
X-56165Y-3322D01*
X-56395Y-3425D01*
X-56779D01*
X-57124Y-3581D01*
X-57354Y-3890D01*
X-57430Y-4252D01*
X-57354Y-4614D01*
X-57162Y-4872D01*
X-56855Y-5027D01*
X-56587Y-5079D01*
G01X-62240Y57165D02*
Y61165D01*
X-59240D01*
Y57165D01*
X-62240D01*
G01X-56078Y96346D02*
X-56308Y96501D01*
X-56576Y96604D01*
X-56882D01*
X-57228Y96449D01*
X-57496Y96191D01*
X-57688Y95880D01*
X-57841Y95364D01*
X-57879Y94899D01*
X-57803Y94434D01*
X-57688Y94124D01*
X-57458Y93814D01*
X-57189Y93607D01*
X-56921Y93504D01*
X-56653D01*
X-56384Y93607D01*
X-56154Y93762D01*
X-55963Y93969D01*
G01X-54664Y94124D02*
X-54434Y93762D01*
X-54128Y93556D01*
X-53783Y93504D01*
X-53476Y93556D01*
X-53169Y93814D01*
X-52978Y94124D01*
X-52939Y94434D01*
X-53016Y94796D01*
X-53284Y95054D01*
X-53553Y95157D01*
X-53898D01*
G01X-53553D02*
X-53323Y95312D01*
X-53131Y95570D01*
X-53054Y95880D01*
X-53131Y96191D01*
X-53323Y96449D01*
X-53668Y96604D01*
X-54013Y96552D01*
X-54358Y96346D01*
G01X-51449Y94796D02*
X-51181Y95157D01*
X-50951Y95364D01*
X-50644Y95467D01*
X-50376Y95364D01*
X-50184Y95157D01*
X-50031Y94847D01*
X-49992Y94486D01*
X-50031Y94176D01*
X-50184Y93866D01*
X-50414Y93607D01*
X-50682Y93504D01*
X-50989Y93607D01*
X-51258Y93917D01*
X-51411Y94382D01*
X-51449Y94899D01*
X-51373Y95570D01*
X-51258Y95932D01*
X-51066Y96294D01*
X-50798Y96552D01*
X-50529Y96604D01*
X-50261Y96501D01*
X-50069Y96242D01*
G01X-59634Y113815D02*
X-66134D01*
Y96815D01*
X-64634D01*
X-59634D01*
G01X-66555Y115532D02*
Y155532D01*
X15945D01*
Y115532D01*
X-66555D01*
G01X-45454Y-154913D02*
Y-152913D01*
X-45694Y-153313D01*
G01Y-154913D02*
X-45214D01*
G01X-44594Y-154513D02*
X-44474Y-154746D01*
X-44314Y-154879D01*
X-44134Y-154913D01*
X-43974Y-154879D01*
X-43814Y-154713D01*
X-43714Y-154513D01*
X-43694Y-154313D01*
X-43734Y-154079D01*
X-43874Y-153913D01*
X-44014Y-153846D01*
X-44194D01*
G01X-44014D02*
X-43894Y-153746D01*
X-43794Y-153579D01*
X-43754Y-153379D01*
X-43794Y-153179D01*
X-43894Y-153013D01*
X-44074Y-152913D01*
X-44254Y-152946D01*
X-44434Y-153079D01*
G01X-44823Y-115902D02*
Y-113902D01*
X-45063Y-114302D01*
G01Y-115902D02*
X-44583D01*
G01X-43283D02*
Y-113902D01*
X-44023Y-115336D01*
X-43023D01*
G01X-40693Y-24400D02*
Y-26622D01*
X-40540Y-27087D01*
X-40233Y-27397D01*
X-39850Y-27500D01*
X-39467Y-27397D01*
X-39160Y-27087D01*
X-39007Y-26622D01*
Y-24400D01*
G01X-36827Y-27500D02*
X-36750Y-26828D01*
X-36635Y-26260D01*
X-36482Y-25743D01*
X-36290Y-25175D01*
X-35983Y-24400D01*
X-37517D01*
G01X-47193Y7500D02*
Y10600D01*
X-46427D01*
X-46120Y10445D01*
X-45890Y10238D01*
X-45698Y9928D01*
X-45545Y9567D01*
X-45507Y9050D01*
X-45545Y8533D01*
X-45698Y8172D01*
X-45890Y7862D01*
X-46120Y7655D01*
X-46427Y7500D01*
X-47193D01*
G01X-43250D02*
Y10600D01*
X-43710Y9980D01*
G01Y7500D02*
X-42790D01*
G01X-41551Y57165D02*
Y61165D01*
X-38551D01*
Y57165D01*
X-41551D01*
G01X-43551Y88165D02*
X-46551D01*
Y61165D01*
X-15551D01*
Y88165D01*
X-18551D01*
G01X-48634Y96815D02*
X-42134D01*
Y96915D01*
Y113815D01*
X-48634D01*
G01X-43551Y88165D02*
X-42551D01*
G01X-34066Y-150955D02*
X-33874Y-151265D01*
X-33644Y-151472D01*
X-33376Y-151575D01*
X-33069Y-151472D01*
X-32839Y-151265D01*
X-32609Y-150955D01*
X-32532Y-150542D01*
Y-148475D01*
G01X-31042Y-151110D02*
X-30812Y-151368D01*
X-30544Y-151523D01*
X-30199Y-151575D01*
X-29854Y-151472D01*
X-29586Y-151265D01*
X-29394Y-150903D01*
X-29356Y-150490D01*
X-29432Y-150076D01*
X-29624Y-149818D01*
X-29892Y-149612D01*
X-30160Y-149560D01*
X-30429Y-149612D01*
X-30774Y-149818D01*
X-30659Y-148475D01*
X-29624D01*
G01X-37787Y-1979D02*
Y-5079D01*
G01X-38669Y-1979D02*
X-36905D01*
G01X-35454Y-5079D02*
Y-1979D01*
X-34534D01*
X-34227Y-2134D01*
X-33997Y-2495D01*
X-33920Y-2909D01*
X-33997Y-3322D01*
X-34189Y-3632D01*
X-34534Y-3787D01*
X-35454D01*
G01X-31664Y-5079D02*
X-31587Y-4407D01*
X-31472Y-3839D01*
X-31319Y-3322D01*
X-31127Y-2754D01*
X-30820Y-1979D01*
X-32354D01*
G01X-21506Y5537D02*
X-39506D01*
Y15537D01*
X-21506D01*
Y5537D01*
G01Y27191D02*
X-39506D01*
Y37191D01*
X-21506D01*
Y27191D01*
G01X-33158Y52313D02*
Y50091D01*
X-33005Y49626D01*
X-32698Y49316D01*
X-32315Y49213D01*
X-31931Y49316D01*
X-31625Y49626D01*
X-31471Y50091D01*
Y52313D01*
G01X-30058Y49833D02*
X-29828Y49471D01*
X-29521Y49264D01*
X-29176Y49213D01*
X-28870Y49264D01*
X-28563Y49522D01*
X-28371Y49833D01*
X-28333Y50143D01*
X-28410Y50504D01*
X-28678Y50763D01*
X-28946Y50866D01*
X-29291D01*
G01X-28946D02*
X-28716Y51021D01*
X-28525Y51279D01*
X-28448Y51589D01*
X-28525Y51899D01*
X-28716Y52158D01*
X-29061Y52313D01*
X-29406Y52261D01*
X-29751Y52054D01*
G01X-32551Y57165D02*
Y61165D01*
X-29551D01*
Y57165D01*
X-32551D01*
G01X-27534Y96346D02*
X-27764Y96501D01*
X-28033Y96604D01*
X-28339D01*
X-28684Y96449D01*
X-28953Y96191D01*
X-29144Y95880D01*
X-29298Y95364D01*
X-29336Y94899D01*
X-29259Y94434D01*
X-29144Y94124D01*
X-28914Y93814D01*
X-28646Y93607D01*
X-28378Y93504D01*
X-28109D01*
X-27841Y93607D01*
X-27611Y93762D01*
X-27419Y93969D01*
G01X-26121Y94124D02*
X-25891Y93762D01*
X-25584Y93556D01*
X-25239Y93504D01*
X-24933Y93556D01*
X-24626Y93814D01*
X-24434Y94124D01*
X-24396Y94434D01*
X-24473Y94796D01*
X-24741Y95054D01*
X-25009Y95157D01*
X-25354D01*
G01X-25009D02*
X-24779Y95312D01*
X-24588Y95570D01*
X-24511Y95880D01*
X-24588Y96191D01*
X-24779Y96449D01*
X-25124Y96604D01*
X-25469Y96552D01*
X-25814Y96346D01*
G01X-21718Y93504D02*
Y96604D01*
X-23136Y94382D01*
X-21219D01*
G01X-31091Y113815D02*
X-37591D01*
Y113715D01*
Y96815D01*
X-31091D01*
G01X-16387Y-153130D02*
X-16081Y-153388D01*
X-15736Y-153543D01*
X-15429D01*
X-15122Y-153388D01*
X-14892Y-153130D01*
X-14777Y-152768D01*
X-14854Y-152407D01*
X-15046Y-152097D01*
X-15391Y-151890D01*
X-15851Y-151787D01*
X-16119Y-151580D01*
X-16234Y-151218D01*
X-16157Y-150857D01*
X-15966Y-150598D01*
X-15697Y-150443D01*
X-15429D01*
X-15161Y-150547D01*
X-14931Y-150805D01*
G01X-13632Y-150443D02*
X-13096Y-153543D01*
X-12482Y-150443D01*
X-11869Y-153543D01*
X-11332Y-150443D01*
G01X-9382Y-153543D02*
Y-150443D01*
X-9842Y-151063D01*
G01Y-153543D02*
X-8922D01*
G01X-13883Y-125307D02*
X-11610Y-126993D01*
G01X-11196Y-126150D02*
X-14296D01*
G01X-13883Y-126993D02*
X-11610Y-125307D01*
G01X-12746Y-125000D02*
Y-127300D01*
G01X-12787Y-1979D02*
Y-5079D01*
G01X-13669Y-1979D02*
X-11905D01*
G01X-10454Y-5079D02*
Y-1979D01*
X-9534D01*
X-9227Y-2134D01*
X-8997Y-2496D01*
X-8920Y-2909D01*
X-8997Y-3322D01*
X-9189Y-3632D01*
X-9534Y-3787D01*
X-10454D01*
G01X-7239Y-4717D02*
X-6970Y-4976D01*
X-6664Y-5079D01*
X-6357Y-4976D01*
X-6089Y-4666D01*
X-5897Y-4200D01*
X-5820Y-3736D01*
Y-3167D01*
X-5897Y-2702D01*
X-6089Y-2289D01*
X-6319Y-2082D01*
X-6587Y-1979D01*
X-6894Y-2082D01*
X-7124Y-2289D01*
X-7277Y-2599D01*
X-7354Y-3012D01*
X-7277Y-3374D01*
X-7085Y-3736D01*
X-6855Y-3942D01*
X-6587Y-3994D01*
X-6280Y-3890D01*
X-6050Y-3632D01*
X-5820Y-3167D01*
G01X-20363Y10974D02*
Y8752D01*
X-20209Y8287D01*
X-19903Y7977D01*
X-19519Y7874D01*
X-19136Y7977D01*
X-18829Y8287D01*
X-18676Y8752D01*
Y10974D01*
G01X-17071Y8236D02*
X-16803Y7977D01*
X-16496Y7874D01*
X-16189Y7977D01*
X-15921Y8287D01*
X-15729Y8752D01*
X-15653Y9217D01*
Y9786D01*
X-15729Y10251D01*
X-15921Y10664D01*
X-16151Y10871D01*
X-16419Y10974D01*
X-16726Y10871D01*
X-16956Y10664D01*
X-17109Y10354D01*
X-17186Y9941D01*
X-17109Y9579D01*
X-16918Y9217D01*
X-16688Y9011D01*
X-16419Y8959D01*
X-16113Y9062D01*
X-15883Y9321D01*
X-15653Y9786D01*
G01X-12787Y19021D02*
Y15921D01*
G01X-13669Y19021D02*
X-11905D01*
G01X-10454Y15921D02*
Y19021D01*
X-9534D01*
X-9227Y18866D01*
X-8997Y18504D01*
X-8920Y18091D01*
X-8997Y17678D01*
X-9189Y17368D01*
X-9534Y17213D01*
X-10454D01*
G01X-7315D02*
X-7047Y17575D01*
X-6817Y17781D01*
X-6510Y17884D01*
X-6242Y17781D01*
X-6050Y17575D01*
X-5897Y17265D01*
X-5859Y16903D01*
X-5897Y16593D01*
X-6050Y16283D01*
X-6280Y16024D01*
X-6549Y15921D01*
X-6855Y16024D01*
X-7124Y16334D01*
X-7277Y16800D01*
X-7315Y17316D01*
X-7239Y17988D01*
X-7124Y18350D01*
X-6932Y18711D01*
X-6664Y18970D01*
X-6395Y19021D01*
X-6127Y18918D01*
X-5935Y18660D01*
G01X-20363Y32628D02*
Y30406D01*
X-20209Y29941D01*
X-19903Y29631D01*
X-19519Y29528D01*
X-19136Y29631D01*
X-18829Y29941D01*
X-18676Y30406D01*
Y32628D01*
G01X-17148Y32111D02*
X-16918Y32421D01*
X-16649Y32576D01*
X-16343Y32628D01*
X-15959Y32524D01*
X-15691Y32266D01*
X-15614Y31956D01*
X-15653Y31646D01*
X-15806Y31388D01*
X-16573Y30871D01*
X-16918Y30509D01*
X-17148Y29992D01*
X-17224Y29528D01*
X-15614D01*
G01X-13319D02*
Y32628D01*
X-13779Y32008D01*
G01Y29528D02*
X-12859D01*
G01X-12787Y39021D02*
Y35921D01*
G01X-13669Y39021D02*
X-11905D01*
G01X-10454Y35921D02*
Y39021D01*
X-9534D01*
X-9227Y38866D01*
X-8997Y38504D01*
X-8920Y38091D01*
X-8997Y37678D01*
X-9189Y37368D01*
X-9534Y37213D01*
X-10454D01*
G01X-7315Y38504D02*
X-7085Y38814D01*
X-6817Y38970D01*
X-6510Y39021D01*
X-6127Y38918D01*
X-5859Y38660D01*
X-5782Y38350D01*
X-5820Y38040D01*
X-5974Y37781D01*
X-6740Y37264D01*
X-7085Y36903D01*
X-7315Y36386D01*
X-7392Y35921D01*
X-5782D01*
G01X-12787Y60021D02*
Y56921D01*
G01X-13669Y60021D02*
X-11905D01*
G01X-10454Y56921D02*
Y60021D01*
X-9534D01*
X-9227Y59866D01*
X-8997Y59504D01*
X-8920Y59091D01*
X-8997Y58678D01*
X-9189Y58368D01*
X-9534Y58213D01*
X-10454D01*
G01X-6127Y56921D02*
Y60021D01*
X-7545Y57800D01*
X-5629D01*
G01X-22551Y57165D02*
Y61165D01*
X-19551D01*
Y57165D01*
X-22551D01*
G01X-12099Y96346D02*
X-12329Y96501D01*
X-12598Y96604D01*
X-12904D01*
X-13249Y96449D01*
X-13518Y96191D01*
X-13709Y95880D01*
X-13862Y95364D01*
X-13901Y94899D01*
X-13824Y94434D01*
X-13709Y94124D01*
X-13479Y93814D01*
X-13211Y93607D01*
X-12943Y93504D01*
X-12674D01*
X-12406Y93607D01*
X-12176Y93762D01*
X-11984Y93969D01*
G01X-10686Y94124D02*
X-10456Y93762D01*
X-10149Y93556D01*
X-9804Y93504D01*
X-9497Y93556D01*
X-9191Y93814D01*
X-8999Y94124D01*
X-8961Y94434D01*
X-9038Y94796D01*
X-9306Y95054D01*
X-9574Y95157D01*
X-9919D01*
G01X-9574D02*
X-9344Y95312D01*
X-9153Y95570D01*
X-9076Y95880D01*
X-9153Y96191D01*
X-9344Y96449D01*
X-9689Y96604D01*
X-10034Y96552D01*
X-10379Y96346D01*
G01X-7394Y93866D02*
X-7126Y93607D01*
X-6819Y93504D01*
X-6512Y93607D01*
X-6244Y93917D01*
X-6052Y94382D01*
X-5976Y94847D01*
Y95416D01*
X-6052Y95880D01*
X-6244Y96294D01*
X-6474Y96501D01*
X-6742Y96604D01*
X-7049Y96501D01*
X-7279Y96294D01*
X-7432Y95984D01*
X-7509Y95570D01*
X-7432Y95209D01*
X-7241Y94847D01*
X-7011Y94640D01*
X-6742Y94589D01*
X-6436Y94692D01*
X-6206Y94950D01*
X-5976Y95416D01*
G01X-20091Y96815D02*
X-13591D01*
Y113815D01*
X-15091D01*
X-20091D01*
G01X22795Y103346D02*
G03I-15000J0D01*
G01X12213Y-1979D02*
Y-5079D01*
G01X11331Y-1979D02*
X13095D01*
G01X14546Y-5079D02*
Y-1979D01*
X15466D01*
X15773Y-2134D01*
X16003Y-2495D01*
X16080Y-2909D01*
X16003Y-3322D01*
X15811Y-3632D01*
X15466Y-3787D01*
X14546D01*
G01X17570Y-4459D02*
X17800Y-4820D01*
X18106Y-5027D01*
X18451Y-5079D01*
X18758Y-5027D01*
X19065Y-4769D01*
X19256Y-4459D01*
X19295Y-4149D01*
X19218Y-3787D01*
X18950Y-3529D01*
X18681Y-3425D01*
X18336D01*
G01X18681D02*
X18911Y-3270D01*
X19103Y-3012D01*
X19180Y-2702D01*
X19103Y-2392D01*
X18911Y-2134D01*
X18566Y-1979D01*
X18221Y-2030D01*
X17876Y-2237D01*
G01X19046Y-153130D02*
X19352Y-153388D01*
X19698Y-153543D01*
X20004D01*
X20311Y-153388D01*
X20541Y-153130D01*
X20656Y-152768D01*
X20579Y-152407D01*
X20388Y-152097D01*
X20043Y-151890D01*
X19582Y-151787D01*
X19314Y-151580D01*
X19199Y-151218D01*
X19276Y-150857D01*
X19467Y-150598D01*
X19736Y-150443D01*
X20004D01*
X20272Y-150547D01*
X20502Y-150805D01*
G01X21801Y-150443D02*
X22337Y-153543D01*
X22951Y-150443D01*
X23564Y-153543D01*
X24101Y-150443D01*
G01X25322Y-150960D02*
X25552Y-150650D01*
X25821Y-150495D01*
X26127Y-150443D01*
X26511Y-150547D01*
X26779Y-150805D01*
X26856Y-151115D01*
X26818Y-151425D01*
X26664Y-151683D01*
X25898Y-152200D01*
X25552Y-152562D01*
X25322Y-153078D01*
X25246Y-153543D01*
X26856D01*
G01X21550Y-125307D02*
X23824Y-126993D01*
G01X24237Y-126150D02*
X21137D01*
G01X21550Y-126993D02*
X23824Y-125307D01*
G01X22687Y-125000D02*
Y-127300D01*
G01X15070Y-49316D02*
X16757Y-47043D01*
G01X15914Y-46629D02*
Y-49729D01*
G01X16757Y-49316D02*
X15070Y-47043D01*
G01X14764Y-48179D02*
X17064D01*
G01X19150Y-28000D02*
Y-26605D01*
X18383Y-24900D01*
G01X19917D02*
X19150Y-26605D01*
G01X22250Y-28000D02*
Y-24900D01*
X21790Y-25520D01*
G01Y-28000D02*
X22710D01*
G01X23543Y5748D02*
X33543D01*
Y25748D01*
X23543D01*
Y5748D01*
G01X23929Y30659D02*
Y28437D01*
X24082Y27972D01*
X24389Y27662D01*
X24772Y27559D01*
X25155Y27662D01*
X25462Y27972D01*
X25615Y28437D01*
Y30659D01*
G01X27144Y30142D02*
X27374Y30452D01*
X27642Y30607D01*
X27949Y30659D01*
X28332Y30556D01*
X28600Y30297D01*
X28677Y29988D01*
X28639Y29677D01*
X28485Y29419D01*
X27719Y28902D01*
X27374Y28541D01*
X27144Y28024D01*
X27067Y27559D01*
X28677D01*
G01X30972Y30659D02*
X30665Y30556D01*
X30435Y30297D01*
X30282Y29988D01*
X30167Y29574D01*
X30129Y29109D01*
X30167Y28644D01*
X30282Y28231D01*
X30435Y27921D01*
X30665Y27662D01*
X30972Y27559D01*
X31279Y27662D01*
X31509Y27921D01*
X31662Y28231D01*
X31777Y28644D01*
X31815Y29109D01*
X31777Y29574D01*
X31662Y29988D01*
X31509Y30297D01*
X31279Y30556D01*
X30972Y30659D01*
G01X23543Y41181D02*
X33543D01*
Y61181D01*
X23543D01*
Y41181D01*
G01X23929Y66092D02*
Y63870D01*
X24082Y63405D01*
X24389Y63095D01*
X24772Y62992D01*
X25155Y63095D01*
X25462Y63405D01*
X25615Y63870D01*
Y66092D01*
G01X27872Y62992D02*
Y66092D01*
X27412Y65472D01*
G01Y62992D02*
X28332D01*
G01X30129Y63457D02*
X30359Y63199D01*
X30627Y63044D01*
X30972Y62992D01*
X31317Y63095D01*
X31585Y63302D01*
X31777Y63664D01*
X31815Y64077D01*
X31739Y64490D01*
X31547Y64749D01*
X31279Y64955D01*
X31010Y65007D01*
X30742Y64955D01*
X30397Y64749D01*
X30512Y66092D01*
X31547D01*
G01X21762Y91575D02*
Y92495D01*
G01X21090Y91996D02*
X22434D01*
G01X56417Y109252D02*
G03I-15000J0D01*
G01X24318Y122920D02*
X24088Y123075D01*
X23820Y123179D01*
X23513D01*
X23168Y123024D01*
X22900Y122765D01*
X22708Y122455D01*
X22555Y121939D01*
X22516Y121474D01*
X22593Y121009D01*
X22708Y120699D01*
X22938Y120389D01*
X23206Y120182D01*
X23475Y120079D01*
X23743D01*
X24012Y120182D01*
X24242Y120337D01*
X24433Y120544D01*
G01X25846Y121370D02*
X26115Y121732D01*
X26345Y121939D01*
X26652Y122042D01*
X26920Y121939D01*
X27112Y121732D01*
X27265Y121422D01*
X27303Y121060D01*
X27265Y120750D01*
X27112Y120440D01*
X26881Y120182D01*
X26613Y120079D01*
X26306Y120182D01*
X26038Y120492D01*
X25885Y120957D01*
X25846Y121474D01*
X25923Y122145D01*
X26038Y122507D01*
X26230Y122869D01*
X26498Y123127D01*
X26767Y123179D01*
X27035Y123075D01*
X27226Y122817D01*
G01X30135Y120079D02*
Y123179D01*
X28716Y120957D01*
X30633D01*
G01X24318Y128826D02*
X24088Y128981D01*
X23820Y129084D01*
X23513D01*
X23168Y128929D01*
X22900Y128671D01*
X22708Y128361D01*
X22555Y127844D01*
X22516Y127379D01*
X22593Y126914D01*
X22708Y126604D01*
X22938Y126294D01*
X23206Y126088D01*
X23475Y125984D01*
X23743D01*
X24012Y126088D01*
X24242Y126243D01*
X24433Y126449D01*
G01X25846Y127276D02*
X26115Y127638D01*
X26345Y127844D01*
X26652Y127948D01*
X26920Y127844D01*
X27112Y127638D01*
X27265Y127328D01*
X27303Y126966D01*
X27265Y126656D01*
X27112Y126346D01*
X26881Y126088D01*
X26613Y125984D01*
X26306Y126088D01*
X26038Y126397D01*
X25885Y126863D01*
X25846Y127379D01*
X25923Y128051D01*
X26038Y128413D01*
X26230Y128774D01*
X26498Y129033D01*
X26767Y129084D01*
X27035Y128981D01*
X27226Y128723D01*
G01X28832Y126449D02*
X29061Y126191D01*
X29330Y126036D01*
X29675Y125984D01*
X30020Y126088D01*
X30288Y126294D01*
X30480Y126656D01*
X30518Y127069D01*
X30442Y127483D01*
X30250Y127741D01*
X29981Y127948D01*
X29713Y127999D01*
X29445Y127948D01*
X29100Y127741D01*
X29215Y129084D01*
X30250D01*
G01X56417Y140748D02*
G03I-15000J0D01*
G01X17039Y153691D02*
Y151469D01*
X17192Y151004D01*
X17499Y150694D01*
X17882Y150591D01*
X18266Y150694D01*
X18572Y151004D01*
X18726Y151469D01*
Y153691D01*
G01X20982Y150591D02*
X21251Y150642D01*
X21557Y150797D01*
X21749Y151056D01*
X21826Y151417D01*
X21749Y151779D01*
X21519Y152089D01*
X21174Y152244D01*
X20791D01*
X20561Y152347D01*
X20369Y152606D01*
X20292Y152967D01*
X20407Y153329D01*
X20676Y153587D01*
X20982Y153691D01*
X21289Y153587D01*
X21557Y153329D01*
X21672Y152967D01*
X21596Y152606D01*
X21404Y152347D01*
X21174Y152244D01*
X20791D01*
X20446Y152089D01*
X20216Y151779D01*
X20139Y151417D01*
X20216Y151056D01*
X20407Y150797D01*
X20714Y150642D01*
X20982Y150591D01*
G01X27451Y152520D02*
Y151600D01*
G01X28122Y152098D02*
X26779D01*
G01X33807Y-91500D02*
Y-88400D01*
X34573D01*
X34880Y-88555D01*
X35110Y-88762D01*
X35302Y-89072D01*
X35455Y-89433D01*
X35493Y-89950D01*
X35455Y-90467D01*
X35302Y-90828D01*
X35110Y-91138D01*
X34880Y-91345D01*
X34573Y-91500D01*
X33807D01*
G01X37673D02*
X37750Y-90828D01*
X37865Y-90260D01*
X38018Y-89743D01*
X38210Y-89175D01*
X38517Y-88400D01*
X36983D01*
G01X33807Y-81500D02*
Y-78400D01*
X34573D01*
X34880Y-78555D01*
X35110Y-78762D01*
X35302Y-79072D01*
X35455Y-79433D01*
X35493Y-79950D01*
X35455Y-80467D01*
X35302Y-80828D01*
X35110Y-81138D01*
X34880Y-81345D01*
X34573Y-81500D01*
X33807D01*
G01X37022Y-80208D02*
X37290Y-79847D01*
X37520Y-79640D01*
X37827Y-79537D01*
X38095Y-79640D01*
X38287Y-79847D01*
X38440Y-80157D01*
X38478Y-80518D01*
X38440Y-80828D01*
X38287Y-81138D01*
X38057Y-81397D01*
X37788Y-81500D01*
X37482Y-81397D01*
X37213Y-81087D01*
X37060Y-80622D01*
X37022Y-80105D01*
X37098Y-79433D01*
X37213Y-79072D01*
X37405Y-78710D01*
X37673Y-78452D01*
X37942Y-78400D01*
X38210Y-78503D01*
X38402Y-78762D01*
G01X33807Y-72000D02*
Y-68900D01*
X34573D01*
X34880Y-69055D01*
X35110Y-69262D01*
X35302Y-69572D01*
X35455Y-69933D01*
X35493Y-70450D01*
X35455Y-70967D01*
X35302Y-71328D01*
X35110Y-71638D01*
X34880Y-71845D01*
X34573Y-72000D01*
X33807D01*
G01X36907Y-71535D02*
X37137Y-71793D01*
X37405Y-71948D01*
X37750Y-72000D01*
X38095Y-71897D01*
X38363Y-71690D01*
X38555Y-71328D01*
X38593Y-70915D01*
X38517Y-70502D01*
X38325Y-70243D01*
X38057Y-70037D01*
X37788Y-69985D01*
X37520Y-70037D01*
X37175Y-70243D01*
X37290Y-68900D01*
X38325D01*
G01X33807Y-62000D02*
Y-58900D01*
X34573D01*
X34880Y-59055D01*
X35110Y-59262D01*
X35302Y-59572D01*
X35455Y-59933D01*
X35493Y-60450D01*
X35455Y-60967D01*
X35302Y-61328D01*
X35110Y-61638D01*
X34880Y-61845D01*
X34573Y-62000D01*
X33807D01*
G01X38210D02*
Y-58900D01*
X36792Y-61122D01*
X38708D01*
G01X54479Y-153130D02*
X54786Y-153388D01*
X55131Y-153543D01*
X55437D01*
X55744Y-153388D01*
X55974Y-153130D01*
X56089Y-152768D01*
X56012Y-152407D01*
X55821Y-152097D01*
X55476Y-151890D01*
X55016Y-151787D01*
X54747Y-151580D01*
X54632Y-151218D01*
X54709Y-150857D01*
X54900Y-150598D01*
X55169Y-150443D01*
X55437D01*
X55706Y-150547D01*
X55936Y-150805D01*
G01X57234Y-150443D02*
X57770Y-153543D01*
X58384Y-150443D01*
X58997Y-153543D01*
X59534Y-150443D01*
G01X60641Y-152923D02*
X60871Y-153285D01*
X61177Y-153492D01*
X61522Y-153543D01*
X61829Y-153492D01*
X62136Y-153233D01*
X62327Y-152923D01*
X62366Y-152613D01*
X62289Y-152252D01*
X62021Y-151993D01*
X61752Y-151890D01*
X61407D01*
G01X61752D02*
X61982Y-151735D01*
X62174Y-151477D01*
X62251Y-151167D01*
X62174Y-150857D01*
X61982Y-150598D01*
X61637Y-150443D01*
X61292Y-150495D01*
X60947Y-150702D01*
G01X56983Y-125307D02*
X59257Y-126993D01*
G01X59670Y-126150D02*
X56570D01*
G01X56983Y-126993D02*
X59257Y-125307D01*
G01X58120Y-125000D02*
Y-127300D01*
G01X55384Y97480D02*
Y98400D01*
G01X54712Y97902D02*
X56056D01*
G01X68319Y113815D02*
X61819D01*
Y96815D01*
X63319D01*
X68319D01*
G01X61004Y115532D02*
Y155532D01*
X143504D01*
Y115532D01*
X61004D01*
G01X79047Y-28396D02*
Y-30618D01*
X79200Y-31083D01*
X79507Y-31393D01*
X79890Y-31496D01*
X80274Y-31393D01*
X80580Y-31083D01*
X80734Y-30618D01*
Y-28396D01*
G01X82990Y-31496D02*
Y-28396D01*
X82530Y-29016D01*
G01Y-31496D02*
X83450D01*
G01X77677Y-11968D02*
X87677D01*
Y8032D01*
X77677D01*
Y-11968D01*
G01X78063Y12943D02*
Y10721D01*
X78216Y10256D01*
X78522Y9946D01*
X78906Y9842D01*
X79289Y9946D01*
X79596Y10256D01*
X79749Y10721D01*
Y12943D01*
G01X82006Y9842D02*
Y12943D01*
X81546Y12322D01*
G01Y9842D02*
X82466D01*
G01X85029D02*
X85106Y10514D01*
X85221Y11082D01*
X85374Y11599D01*
X85566Y12168D01*
X85873Y12943D01*
X84339D01*
G01X77677Y23465D02*
X87677D01*
Y43465D01*
X77677D01*
Y23465D01*
G01X78063Y48376D02*
Y46154D01*
X78216Y45689D01*
X78522Y45379D01*
X78906Y45276D01*
X79289Y45379D01*
X79596Y45689D01*
X79749Y46154D01*
Y48376D01*
G01X82006Y45276D02*
Y48376D01*
X81546Y47756D01*
G01Y45276D02*
X82466D01*
G01X84263Y45896D02*
X84492Y45534D01*
X84799Y45327D01*
X85144Y45276D01*
X85451Y45327D01*
X85758Y45586D01*
X85949Y45896D01*
X85988Y46206D01*
X85911Y46567D01*
X85643Y46826D01*
X85374Y46929D01*
X85029D01*
G01X85374D02*
X85604Y47084D01*
X85796Y47342D01*
X85873Y47652D01*
X85796Y47962D01*
X85604Y48220D01*
X85259Y48376D01*
X84914Y48324D01*
X84569Y48117D01*
G01X77677Y58898D02*
X87677D01*
Y78898D01*
X77677D01*
Y58898D01*
G01X78063Y83809D02*
Y81587D01*
X78216Y81122D01*
X78522Y80812D01*
X78906Y80709D01*
X79289Y80812D01*
X79596Y81122D01*
X79749Y81587D01*
Y83809D01*
G01X82006Y80709D02*
Y83809D01*
X81546Y83189D01*
G01Y80709D02*
X82466D01*
G01X85106Y83809D02*
X84799Y83705D01*
X84569Y83447D01*
X84416Y83137D01*
X84301Y82724D01*
X84263Y82259D01*
X84301Y81794D01*
X84416Y81380D01*
X84569Y81070D01*
X84799Y80812D01*
X85106Y80709D01*
X85412Y80812D01*
X85643Y81070D01*
X85796Y81380D01*
X85911Y81794D01*
X85949Y82259D01*
X85911Y82724D01*
X85796Y83137D01*
X85643Y83447D01*
X85412Y83705D01*
X85106Y83809D01*
G01X71875Y96346D02*
X71645Y96501D01*
X71377Y96604D01*
X71070D01*
X70725Y96449D01*
X70457Y96191D01*
X70265Y95880D01*
X70112Y95364D01*
X70074Y94899D01*
X70150Y94434D01*
X70265Y94124D01*
X70495Y93814D01*
X70764Y93607D01*
X71032Y93504D01*
X71300D01*
X71569Y93607D01*
X71799Y93762D01*
X71990Y93969D01*
G01X73404Y94796D02*
X73672Y95157D01*
X73902Y95364D01*
X74209Y95467D01*
X74477Y95364D01*
X74669Y95157D01*
X74822Y94847D01*
X74860Y94486D01*
X74822Y94176D01*
X74669Y93866D01*
X74438Y93607D01*
X74170Y93504D01*
X73864Y93607D01*
X73595Y93917D01*
X73442Y94382D01*
X73404Y94899D01*
X73480Y95570D01*
X73595Y95932D01*
X73787Y96294D01*
X74055Y96552D01*
X74324Y96604D01*
X74592Y96501D01*
X74784Y96242D01*
G01X76389Y94124D02*
X76618Y93762D01*
X76925Y93556D01*
X77270Y93504D01*
X77577Y93556D01*
X77884Y93814D01*
X78075Y94124D01*
X78114Y94434D01*
X78037Y94796D01*
X77769Y95054D01*
X77500Y95157D01*
X77155D01*
G01X77500D02*
X77730Y95312D01*
X77922Y95570D01*
X77999Y95880D01*
X77922Y96191D01*
X77730Y96449D01*
X77385Y96604D01*
X77040Y96552D01*
X76695Y96346D01*
G01X79319Y96815D02*
X85819D01*
Y96915D01*
Y113815D01*
X79319D01*
G01X89912Y-153130D02*
X90219Y-153388D01*
X90564Y-153543D01*
X90870D01*
X91177Y-153388D01*
X91407Y-153130D01*
X91522Y-152768D01*
X91445Y-152407D01*
X91254Y-152097D01*
X90909Y-151890D01*
X90449Y-151787D01*
X90180Y-151580D01*
X90065Y-151218D01*
X90142Y-150857D01*
X90334Y-150598D01*
X90602Y-150443D01*
X90870D01*
X91139Y-150547D01*
X91369Y-150805D01*
G01X92667Y-150443D02*
X93204Y-153543D01*
X93817Y-150443D01*
X94430Y-153543D01*
X94967Y-150443D01*
G01X97377Y-153543D02*
Y-150443D01*
X95958Y-152665D01*
X97875D01*
G01X92416Y-125307D02*
X94690Y-126993D01*
G01X95103Y-126150D02*
X92003D01*
G01X92416Y-126993D02*
X94690Y-125307D01*
G01X93553Y-125000D02*
Y-127300D01*
G01X96862Y113815D02*
X90362D01*
Y113715D01*
Y96815D01*
X96862D01*
G01X100418Y96346D02*
X100188Y96501D01*
X99920Y96604D01*
X99614D01*
X99268Y96449D01*
X99000Y96191D01*
X98809Y95880D01*
X98655Y95364D01*
X98617Y94899D01*
X98694Y94434D01*
X98809Y94124D01*
X99038Y93814D01*
X99307Y93607D01*
X99575Y93504D01*
X99844D01*
X100112Y93607D01*
X100342Y93762D01*
X100534Y93969D01*
G01X101947Y94796D02*
X102215Y95157D01*
X102445Y95364D01*
X102752Y95467D01*
X103020Y95364D01*
X103212Y95157D01*
X103365Y94847D01*
X103404Y94486D01*
X103365Y94176D01*
X103212Y93866D01*
X102982Y93607D01*
X102714Y93504D01*
X102407Y93607D01*
X102138Y93917D01*
X101985Y94382D01*
X101947Y94899D01*
X102024Y95570D01*
X102138Y95932D01*
X102330Y96294D01*
X102598Y96552D01*
X102867Y96604D01*
X103135Y96501D01*
X103327Y96242D01*
G01X105775Y93504D02*
Y96604D01*
X105315Y95984D01*
G01Y93504D02*
X106235D01*
G01X117383Y-147880D02*
X117575Y-148190D01*
X117805Y-148397D01*
X118073Y-148500D01*
X118380Y-148397D01*
X118610Y-148190D01*
X118840Y-147880D01*
X118917Y-147467D01*
Y-145400D01*
G01X120598Y-148138D02*
X120867Y-148397D01*
X121173Y-148500D01*
X121480Y-148397D01*
X121748Y-148087D01*
X121940Y-147622D01*
X122017Y-147157D01*
Y-146588D01*
X121940Y-146123D01*
X121748Y-145710D01*
X121518Y-145503D01*
X121250Y-145400D01*
X120943Y-145503D01*
X120713Y-145710D01*
X120560Y-146020D01*
X120483Y-146433D01*
X120560Y-146795D01*
X120752Y-147157D01*
X120982Y-147363D01*
X121250Y-147415D01*
X121557Y-147312D01*
X121787Y-147053D01*
X122017Y-146588D01*
G01X117883Y-136880D02*
X118075Y-137190D01*
X118305Y-137397D01*
X118573Y-137500D01*
X118880Y-137397D01*
X119110Y-137190D01*
X119340Y-136880D01*
X119417Y-136467D01*
Y-134400D01*
G01X121750Y-137500D02*
X122018Y-137448D01*
X122325Y-137293D01*
X122517Y-137035D01*
X122593Y-136673D01*
X122517Y-136312D01*
X122287Y-136002D01*
X121942Y-135847D01*
X121558D01*
X121328Y-135743D01*
X121137Y-135485D01*
X121060Y-135123D01*
X121175Y-134762D01*
X121443Y-134503D01*
X121750Y-134400D01*
X122057Y-134503D01*
X122325Y-134762D01*
X122440Y-135123D01*
X122363Y-135485D01*
X122172Y-135743D01*
X121942Y-135847D01*
X121558D01*
X121213Y-136002D01*
X120983Y-136312D01*
X120907Y-136673D01*
X120983Y-137035D01*
X121175Y-137293D01*
X121482Y-137448D01*
X121750Y-137500D01*
G01X115383Y-114880D02*
X115575Y-115190D01*
X115805Y-115397D01*
X116073Y-115500D01*
X116380Y-115397D01*
X116610Y-115190D01*
X116840Y-114880D01*
X116917Y-114467D01*
Y-112400D01*
G01X119250Y-115500D02*
Y-112400D01*
X118790Y-113020D01*
G01Y-115500D02*
X119710D01*
G01X122350Y-112400D02*
X122043Y-112503D01*
X121813Y-112762D01*
X121660Y-113072D01*
X121545Y-113485D01*
X121507Y-113950D01*
X121545Y-114415D01*
X121660Y-114828D01*
X121813Y-115138D01*
X122043Y-115397D01*
X122350Y-115500D01*
X122657Y-115397D01*
X122887Y-115138D01*
X123040Y-114828D01*
X123155Y-114415D01*
X123193Y-113950D01*
X123155Y-113485D01*
X123040Y-113072D01*
X122887Y-112762D01*
X122657Y-112503D01*
X122350Y-112400D01*
G01X118383Y-126380D02*
X118575Y-126690D01*
X118805Y-126897D01*
X119073Y-127000D01*
X119380Y-126897D01*
X119610Y-126690D01*
X119840Y-126380D01*
X119917Y-125967D01*
Y-123900D01*
G01X122173Y-127000D02*
X122250Y-126328D01*
X122365Y-125760D01*
X122518Y-125243D01*
X122710Y-124675D01*
X123017Y-123900D01*
X121483D01*
G01X115883Y-104380D02*
X116075Y-104690D01*
X116305Y-104897D01*
X116573Y-105000D01*
X116880Y-104897D01*
X117110Y-104690D01*
X117340Y-104380D01*
X117417Y-103967D01*
Y-101900D01*
G01X119750Y-105000D02*
Y-101900D01*
X119290Y-102520D01*
G01Y-105000D02*
X120210D01*
G01X122850D02*
Y-101900D01*
X122390Y-102520D01*
G01Y-105000D02*
X123310D01*
G01X115854Y96346D02*
X115623Y96501D01*
X115355Y96604D01*
X115049D01*
X114704Y96449D01*
X114435Y96191D01*
X114243Y95880D01*
X114090Y95364D01*
X114052Y94899D01*
X114129Y94434D01*
X114243Y94124D01*
X114473Y93814D01*
X114742Y93607D01*
X115010Y93504D01*
X115279D01*
X115547Y93607D01*
X115777Y93762D01*
X115969Y93969D01*
G01X117382Y94796D02*
X117650Y95157D01*
X117880Y95364D01*
X118187Y95467D01*
X118455Y95364D01*
X118647Y95157D01*
X118800Y94847D01*
X118839Y94486D01*
X118800Y94176D01*
X118647Y93866D01*
X118417Y93607D01*
X118149Y93504D01*
X117842Y93607D01*
X117574Y93917D01*
X117420Y94382D01*
X117382Y94899D01*
X117458Y95570D01*
X117574Y95932D01*
X117765Y96294D01*
X118034Y96552D01*
X118302Y96604D01*
X118570Y96501D01*
X118762Y96242D01*
G01X120482Y94796D02*
X120750Y95157D01*
X120980Y95364D01*
X121287Y95467D01*
X121555Y95364D01*
X121747Y95157D01*
X121900Y94847D01*
X121939Y94486D01*
X121900Y94176D01*
X121747Y93866D01*
X121517Y93607D01*
X121249Y93504D01*
X120942Y93607D01*
X120673Y93917D01*
X120520Y94382D01*
X120482Y94899D01*
X120559Y95570D01*
X120673Y95932D01*
X120865Y96294D01*
X121134Y96552D01*
X121402Y96604D01*
X121670Y96501D01*
X121862Y96242D01*
G01X107862Y96815D02*
X114362D01*
Y113815D01*
X112862D01*
X107862D01*
G01X154764Y-151654D02*
Y-141654D01*
X124764D01*
Y-151654D01*
X154764D01*
G01X155000Y-141000D02*
Y-131000D01*
X125000D01*
Y-141000D01*
X155000D01*
G01Y-130000D02*
Y-120000D01*
X125000D01*
Y-130000D01*
X155000D01*
G01Y-119000D02*
Y-109000D01*
X125000D01*
Y-119000D01*
X155000D01*
G01Y-108500D02*
Y-98500D01*
X125000D01*
Y-108500D01*
X155000D01*
G01X128858Y-11968D02*
X138858D01*
Y8032D01*
X128858D01*
Y-11968D01*
G01X130228Y12943D02*
Y10721D01*
X130381Y10256D01*
X130688Y9946D01*
X131071Y9842D01*
X131455Y9946D01*
X131761Y10256D01*
X131915Y10721D01*
Y12943D01*
G01X134171Y9842D02*
Y12943D01*
X133711Y12322D01*
G01Y9842D02*
X134631D01*
G01X136543Y11134D02*
X136811Y11496D01*
X137041Y11702D01*
X137348Y11806D01*
X137616Y11702D01*
X137808Y11496D01*
X137961Y11186D01*
X138000Y10824D01*
X137961Y10514D01*
X137808Y10204D01*
X137578Y9946D01*
X137310Y9842D01*
X137003Y9946D01*
X136735Y10256D01*
X136581Y10721D01*
X136543Y11238D01*
X136620Y11909D01*
X136735Y12271D01*
X136926Y12632D01*
X137195Y12891D01*
X137463Y12943D01*
X137731Y12839D01*
X137923Y12581D01*
G01X128858Y23465D02*
X138858D01*
Y43465D01*
X128858D01*
Y23465D01*
G01X130228Y48376D02*
Y46154D01*
X130381Y45689D01*
X130688Y45379D01*
X131071Y45276D01*
X131455Y45379D01*
X131761Y45689D01*
X131915Y46154D01*
Y48376D01*
G01X134171Y45276D02*
Y48376D01*
X133711Y47756D01*
G01Y45276D02*
X134631D01*
G01X137731D02*
Y48376D01*
X136313Y46154D01*
X138230D01*
G01X128858Y58898D02*
X138858D01*
Y78898D01*
X128858D01*
Y58898D01*
G01X130228Y83809D02*
Y81587D01*
X130381Y81122D01*
X130688Y80812D01*
X131071Y80709D01*
X131455Y80812D01*
X131761Y81122D01*
X131915Y81587D01*
Y83809D01*
G01X134171Y80709D02*
Y83809D01*
X133711Y83189D01*
G01Y80709D02*
X134631D01*
G01X137271D02*
Y83809D01*
X136811Y83189D01*
G01Y80709D02*
X137731D01*
G01X150748Y103346D02*
G03I-15000J0D01*
G01X138676Y-70189D02*
X140950Y-71875D01*
G01X141363Y-71032D02*
X138263D01*
G01X138676Y-71875D02*
X140950Y-70189D01*
G01X139813Y-69882D02*
Y-72182D01*
G01X135188Y-47815D02*
X135494Y-48073D01*
X135839Y-48228D01*
X136146D01*
X136453Y-48073D01*
X136683Y-47815D01*
X136798Y-47453D01*
X136721Y-47092D01*
X136529Y-46782D01*
X136184Y-46575D01*
X135724Y-46472D01*
X135456Y-46265D01*
X135341Y-45903D01*
X135418Y-45542D01*
X135609Y-45283D01*
X135878Y-45128D01*
X136146D01*
X136414Y-45232D01*
X136644Y-45490D01*
G01X137942Y-45128D02*
X138479Y-48228D01*
X139092Y-45128D01*
X139706Y-48228D01*
X140242Y-45128D01*
G01X141349Y-47763D02*
X141579Y-48022D01*
X141848Y-48177D01*
X142192Y-48228D01*
X142538Y-48125D01*
X142806Y-47918D01*
X142998Y-47557D01*
X143036Y-47143D01*
X142959Y-46730D01*
X142768Y-46472D01*
X142499Y-46265D01*
X142231Y-46213D01*
X141962Y-46265D01*
X141618Y-46472D01*
X141733Y-45128D01*
X142768D01*
G01X144598Y153691D02*
Y151469D01*
X144751Y151004D01*
X145058Y150694D01*
X145441Y150591D01*
X145825Y150694D01*
X146131Y151004D01*
X146285Y151469D01*
Y153691D01*
G01X148541Y150591D02*
Y153691D01*
X148081Y153071D01*
G01Y150591D02*
X149001D01*
G01X150913Y153174D02*
X151143Y153484D01*
X151411Y153639D01*
X151718Y153691D01*
X152101Y153587D01*
X152370Y153329D01*
X152446Y153019D01*
X152408Y152709D01*
X152255Y152451D01*
X151488Y151934D01*
X151143Y151572D01*
X150913Y151056D01*
X150836Y150591D01*
X152446D01*
G01X156854Y-2547D02*
Y-9047D01*
X173854D01*
Y-7547D01*
Y-2547D01*
G01Y8453D02*
Y14953D01*
X173754D01*
X156854D01*
Y8453D01*
G01Y64382D02*
Y57882D01*
X173854D01*
Y59382D01*
Y64382D01*
G01Y75382D02*
Y81882D01*
X173754D01*
X156854D01*
Y75382D01*
G01X149715Y91575D02*
Y92495D01*
G01X149043Y91996D02*
X150386D01*
G01X167706Y-120443D02*
X167898Y-120753D01*
X168128Y-120960D01*
X168396Y-121063D01*
X168703Y-120960D01*
X168933Y-120753D01*
X169163Y-120443D01*
X169240Y-120030D01*
Y-117963D01*
G01X170844Y-119771D02*
X171113Y-119410D01*
X171343Y-119203D01*
X171650Y-119100D01*
X171918Y-119203D01*
X172110Y-119410D01*
X172263Y-119720D01*
X172301Y-120081D01*
X172263Y-120391D01*
X172110Y-120701D01*
X171879Y-120960D01*
X171611Y-121063D01*
X171305Y-120960D01*
X171036Y-120650D01*
X170883Y-120185D01*
X170844Y-119668D01*
X170921Y-118996D01*
X171036Y-118635D01*
X171228Y-118273D01*
X171496Y-118015D01*
X171764Y-117963D01*
X172033Y-118066D01*
X172224Y-118325D01*
G01X167165Y-114173D02*
Y-14173D01*
X187165D01*
Y-114173D01*
X167165D01*
G01X177165Y-14173D02*
Y-24173D01*
X167165D01*
G01X161883Y16500D02*
Y19600D01*
X162842D01*
X163148Y19445D01*
X163340Y19238D01*
X163417Y18825D01*
X163340Y18412D01*
X163110Y18153D01*
X162842Y17998D01*
X161883D01*
G01X162842D02*
X163417Y16500D01*
G01X165673D02*
X165750Y17172D01*
X165865Y17740D01*
X166018Y18257D01*
X166210Y18825D01*
X166517Y19600D01*
X164983D01*
G01X168007Y17120D02*
X168237Y16758D01*
X168543Y16552D01*
X168888Y16500D01*
X169195Y16552D01*
X169502Y16810D01*
X169693Y17120D01*
X169732Y17430D01*
X169655Y17792D01*
X169387Y18050D01*
X169118Y18153D01*
X168773D01*
G01X169118D02*
X169348Y18308D01*
X169540Y18567D01*
X169617Y18877D01*
X169540Y19187D01*
X169348Y19445D01*
X169003Y19600D01*
X168658Y19548D01*
X168313Y19342D01*
G01X161883Y83000D02*
Y86100D01*
X162842D01*
X163148Y85945D01*
X163340Y85738D01*
X163417Y85325D01*
X163340Y84912D01*
X163110Y84653D01*
X162842Y84498D01*
X161883D01*
G01X162842D02*
X163417Y83000D01*
G01X164907Y83465D02*
X165137Y83207D01*
X165405Y83052D01*
X165750Y83000D01*
X166095Y83103D01*
X166363Y83310D01*
X166555Y83672D01*
X166593Y84085D01*
X166517Y84498D01*
X166325Y84757D01*
X166057Y84963D01*
X165788Y85015D01*
X165520Y84963D01*
X165175Y84757D01*
X165290Y86100D01*
X166325D01*
G01X168122Y84292D02*
X168390Y84653D01*
X168620Y84860D01*
X168927Y84963D01*
X169195Y84860D01*
X169387Y84653D01*
X169540Y84343D01*
X169578Y83982D01*
X169540Y83672D01*
X169387Y83362D01*
X169157Y83103D01*
X168888Y83000D01*
X168582Y83103D01*
X168313Y83413D01*
X168160Y83878D01*
X168122Y84395D01*
X168198Y85067D01*
X168313Y85428D01*
X168505Y85790D01*
X168773Y86048D01*
X169042Y86100D01*
X169310Y85997D01*
X169502Y85738D01*
G01X176347Y-152412D02*
Y-155512D01*
G01X175465Y-152412D02*
X177229D01*
G01X178604Y-154892D02*
X178834Y-155254D01*
X179140Y-155460D01*
X179485Y-155512D01*
X179792Y-155460D01*
X180099Y-155202D01*
X180290Y-154892D01*
X180329Y-154582D01*
X180252Y-154220D01*
X179984Y-153962D01*
X179715Y-153858D01*
X179370D01*
G01X179715D02*
X179945Y-153704D01*
X180137Y-153445D01*
X180214Y-153135D01*
X180137Y-152825D01*
X179945Y-152567D01*
X179600Y-152412D01*
X179255Y-152464D01*
X178910Y-152670D01*
G01X179587Y53760D02*
X177087Y51260D01*
Y-8740D01*
X187087D01*
Y51260D01*
X184587Y53760D01*
X179587D01*
G01Y120689D02*
X177087Y118189D01*
Y58189D01*
X187087D01*
Y118189D01*
X184587Y120689D01*
X179587D01*
G01X176347Y154675D02*
Y151575D01*
G01X175465Y154675D02*
X177229D01*
G01X179907Y151575D02*
Y154675D01*
X178488Y152453D01*
X180405D01*
G01X187078Y-8238D02*
X187270Y-8548D01*
X187500Y-8755D01*
X187768Y-8858D01*
X188075Y-8755D01*
X188305Y-8548D01*
X188535Y-8238D01*
X188612Y-7825D01*
Y-5758D01*
G01X190945Y-8858D02*
Y-5758D01*
X190485Y-6378D01*
G01Y-8858D02*
X191405D01*
G01X193202Y-8238D02*
X193432Y-8600D01*
X193738Y-8807D01*
X194083Y-8858D01*
X194390Y-8807D01*
X194697Y-8548D01*
X194888Y-8238D01*
X194927Y-7928D01*
X194850Y-7567D01*
X194582Y-7308D01*
X194313Y-7205D01*
X193968D01*
G01X194313D02*
X194543Y-7050D01*
X194735Y-6792D01*
X194812Y-6482D01*
X194735Y-6172D01*
X194543Y-5913D01*
X194198Y-5758D01*
X193853Y-5810D01*
X193508Y-6017D01*
G01X187078Y58691D02*
X187270Y58381D01*
X187500Y58174D01*
X187768Y58071D01*
X188075Y58174D01*
X188305Y58381D01*
X188535Y58691D01*
X188612Y59104D01*
Y61171D01*
G01X190945Y58071D02*
Y61171D01*
X190485Y60551D01*
G01Y58071D02*
X191405D01*
G01X193316Y60654D02*
X193547Y60964D01*
X193815Y61119D01*
X194122Y61171D01*
X194505Y61068D01*
X194773Y60809D01*
X194850Y60499D01*
X194812Y60189D01*
X194658Y59931D01*
X193892Y59414D01*
X193547Y59052D01*
X193316Y58536D01*
X193240Y58071D01*
X194850D01*
G54D13*
G01X-105610Y-137795D02*
G03I-12500J0D01*
G01Y137795D02*
G03I-12500J0D01*
G01X-103925Y-72651D02*
G03I-1334J0D01*
G01X-109449Y27756D02*
X-103149D01*
Y39174D01*
X-109449D01*
Y27756D01*
G01X-109199Y37865D02*
X-103199D01*
G01X66677Y-42071D02*
X98677D01*
Y-74071D01*
X66677D01*
Y-42071D01*
G01X71091Y-45071D02*
G03I-1414J0D01*
G01X189665Y-137795D02*
G03I-12500J0D01*
G01Y137795D02*
G03I-12500J0D01*
G54D14*
G01X-57087Y-75787D02*
X-21654D01*
Y-40354D01*
X-57087D01*
Y-75787D01*
G01X-48543Y-46071D02*
G03I-2827J0D01*
G54D15*
G01X-120500Y1000D02*
Y17000D01*
G01X-89500Y3500D02*
Y14500D01*
X-92000Y17000D01*
X-123500D01*
Y1000D01*
X-92000D01*
X-89500Y3500D01*
G01X-105500Y1000D02*
Y17000D01*
G01X-83000Y14500D02*
Y3500D01*
X-80500Y1000D01*
X-49000D01*
Y17000D01*
X-80500D01*
X-83000Y14500D01*
G01X-67000Y17000D02*
Y1000D01*
G01X-36500Y-112000D02*
Y-104000D01*
X-59500D01*
Y-112000D01*
X-36500D01*
G01X-56500Y-108000D02*
X-58500D01*
G01X-52000Y17000D02*
Y1000D01*
G01X-38500Y-110000D02*
Y-108000D01*
G01X-37500Y-109000D02*
X-39500D01*
G01X8748Y-85567D02*
Y-93567D01*
X31748D01*
Y-85567D01*
X8748D01*
G01X10748Y-87567D02*
Y-89567D01*
G01X9748Y-88567D02*
X11748D01*
G01X8748Y-75724D02*
Y-83724D01*
X31748D01*
Y-75724D01*
X8748D01*
G01X10748Y-77724D02*
Y-79724D01*
G01X9748Y-78724D02*
X11748D01*
G01X8748Y-65882D02*
Y-73882D01*
X31748D01*
Y-65882D01*
X8748D01*
G01X10748Y-67882D02*
Y-69882D01*
G01X9748Y-68882D02*
X11748D01*
G01X8748Y-56039D02*
Y-64039D01*
X31748D01*
Y-56039D01*
X8748D01*
G01X6669Y-30354D02*
X4669Y-32354D01*
Y-48354D01*
X6669Y-50354D01*
G01X10748Y-58039D02*
Y-60039D01*
G01X9748Y-59039D02*
X11748D01*
G01X14669Y-50354D02*
X26669D01*
G01X14669Y-30354D02*
X26669D01*
G01X28748Y-89567D02*
X30748D01*
G01X28748Y-79724D02*
X30748D01*
G01X28748Y-69882D02*
X30748D01*
G01X34669Y-30354D02*
X36669Y-32354D01*
Y-48354D01*
X34669Y-50354D01*
G01X28748Y-60039D02*
X30748D01*
M02*
