G04 ================== begin FILE IDENTIFICATION RECORD ==================*
G04 Layout Name:  F:/产品设计/振镜/驱动板电路/第二版数字/GALVOSERVODRV2.brd*
G04 Film Name:    SOLD_TOP*
G04 File Format:  Gerber RS274X*
G04 File Origin:  Cadence Allegro 16.6-P004*
G04 Origin Date:  Thu Oct 06 09:45:19 2016*
G04 *
G04 Layer:  BOARD GEOMETRY/OUTLINE*
G04 Layer:  BOARD GEOMETRY/SOLDERMASK_TOP*
G04 Layer:  PACKAGE GEOMETRY/SOLDERMASK_TOP*
G04 Layer:  PIN/SOLDERMASK_TOP*
G04 *
G04 Offset:    (0.000 0.000)*
G04 Mirror:    No*
G04 Mode:      Positive*
G04 Rotation:  0*
G04 FullContactRelief:  No*
G04 UndefLineWidth:     6.000*
G04 ================== end FILE IDENTIFICATION RECORD ====================*
%FSLAX35Y35*MOIN*%
%IR0*IPPOS*OFA0.00000B0.00000*MIA0B0*SFA1.00000B1.00000*%
%ADD22R,.045X.114*%
%ADD15C,.21*%
%ADD40R,.106X.066*%
%ADD29R,.066X.106*%
%ADD10C,.15*%
%ADD12C,.187*%
%ADD25R,.24622X.24622*%
%ADD20R,.1X.13*%
%AMMACRO32*
4,1,8,-.015,-.086,
-.015,-.054,
-.039,-.054,
-.039,.086,
.039,.086,
.039,-.054,
.015,-.054,
.015,-.086,
-.015,-.086,
0.0*
%
%ADD32MACRO32*%
%ADD19R,.08X.03*%
%ADD35R,.014X.064*%
%ADD31R,.027X.042*%
%ADD28R,.025X.08*%
%ADD16R,.07X.07*%
%ADD36R,.064X.014*%
%ADD26R,.08X.025*%
%ADD38C,.07*%
%ADD34R,.065X.09*%
%ADD30C,.09*%
%ADD23C,.046*%
%ADD17C,.065*%
%ADD13C,.074*%
%ADD33R,.058X.085*%
%ADD18R,.078X.028*%
%ADD11C,.075*%
%ADD37R,.07X.07*%
%ADD27R,.065118X.06*%
%ADD21R,.033622X.021811*%
%ADD39R,.09X.09*%
%ADD14R,.075X.075*%
%ADD24R,.069055X.069055*%
%ADD41C,.006*%
G75*
%LPD*%
G75*
G54D10*
X-154900Y-130100D03*
Y-500D03*
G54D11*
X-160300Y-86900D03*
Y-97700D03*
Y-76100D03*
X-159900Y-65300D03*
X-160300Y-54500D03*
Y-43700D03*
Y-32900D03*
X-149500Y-103100D03*
Y-92300D03*
Y-81500D03*
Y-59900D03*
Y-70700D03*
Y-49100D03*
Y-38300D03*
X-90551Y109252D03*
Y140748D03*
X-80551Y109252D03*
Y140748D03*
X2795Y103346D03*
X12795D03*
X36417Y109252D03*
Y140748D03*
X46417Y109252D03*
Y140748D03*
X130748Y103346D03*
X140748D03*
X182087Y-3740D03*
Y6260D03*
Y16260D03*
Y26260D03*
Y36260D03*
Y63189D03*
Y73189D03*
Y83189D03*
Y93189D03*
Y103189D03*
G54D20*
X-113500Y9000D03*
X-96500D03*
X-76000D03*
X-82028Y33465D03*
X-59000Y9000D03*
X-58028Y33465D03*
G54D21*
X-112008Y29724D03*
Y33465D03*
Y37205D03*
X-100590Y29724D03*
Y37205D03*
Y33465D03*
G54D30*
X-59055Y123032D03*
X-52355Y143032D03*
X-45655Y123032D03*
X-38955Y143032D03*
X-32255Y123032D03*
X-25555Y143032D03*
X-18855Y123032D03*
X-12155Y143032D03*
X-5455Y123032D03*
X1245Y143032D03*
X7945Y123032D03*
X68504D03*
X81904D03*
X75204Y143032D03*
X95304Y123032D03*
X88604Y143032D03*
X108704Y123032D03*
X102004Y143032D03*
X122104Y123032D03*
X115404Y143032D03*
X135504Y123032D03*
X128804Y143032D03*
G54D12*
X-150450Y36614D03*
Y136614D03*
G54D13*
X-156150Y70414D03*
Y81214D03*
Y92014D03*
Y102814D03*
X-144750Y65014D03*
Y86614D03*
Y75814D03*
Y97414D03*
Y108214D03*
G54D31*
X-36406Y3937D03*
Y25591D03*
X-24606Y3937D03*
Y25591D03*
G54D40*
X165354Y-3547D03*
Y9453D03*
Y63382D03*
Y76382D03*
G54D22*
X-91535Y-143209D03*
Y-126476D03*
X-83661Y-143209D03*
Y-126476D03*
X-75787Y-143209D03*
X-67913D03*
X-75787Y-126476D03*
X-67913D03*
X-60039Y-143209D03*
X-52165D03*
X-60039Y-126476D03*
X-52165D03*
X-44291Y-143209D03*
Y-126476D03*
G54D41*
G01X-196850Y-157480D02*
Y157480D01*
X196850D01*
Y-157480D01*
X-196850D01*
G54D14*
X-149500Y-27500D03*
X182087Y46260D03*
Y113189D03*
G54D23*
X-87598Y-134842D03*
X-48228D03*
G54D32*
X-30506Y10437D03*
Y32091D03*
G54D24*
X-79240Y52165D03*
X-61244D03*
X-39551D03*
X-21555D03*
G54D33*
X-20795Y-143984D03*
Y-107984D03*
X-4795Y-143984D03*
Y-107984D03*
X14638Y-143984D03*
Y-107984D03*
X30638Y-143984D03*
Y-107984D03*
X50071Y-143984D03*
Y-107984D03*
X66071Y-143984D03*
Y-107984D03*
X85504Y-143984D03*
Y-107984D03*
X101504Y-143984D03*
Y-107984D03*
X131764Y-88866D03*
Y-52866D03*
X147764Y-88866D03*
Y-52866D03*
G54D15*
X-118110Y-137795D03*
Y137795D03*
X177165Y-137795D03*
Y137795D03*
G54D34*
X10669Y-48954D03*
Y-31754D03*
X30669Y-48954D03*
Y-31754D03*
G54D16*
X-122892Y61024D03*
Y76772D03*
Y92520D03*
X-109392Y61024D03*
Y76772D03*
Y92520D03*
G54D25*
X-70244Y79488D03*
X-30555D03*
G54D17*
X-122500Y107500D03*
X-109000D03*
X-60000Y-10000D03*
X-35000D03*
X-10000D03*
Y11000D03*
Y31000D03*
Y52000D03*
X15000Y-10000D03*
G54D26*
X-64173Y-73819D03*
Y-70669D03*
Y-67520D03*
Y-64370D03*
Y-61220D03*
Y-58071D03*
Y-54921D03*
Y-51772D03*
Y-48622D03*
Y-45473D03*
Y-42323D03*
X-14567Y-61220D03*
Y-64370D03*
Y-67520D03*
Y-70669D03*
Y-73819D03*
Y-48622D03*
Y-51772D03*
Y-54921D03*
Y-58071D03*
Y-42323D03*
Y-45473D03*
G54D35*
X67917Y-79725D03*
Y-36417D03*
X79725Y-79725D03*
X77757D03*
X75789D03*
X73821D03*
X71853D03*
X69885D03*
Y-36417D03*
X71853D03*
X73821D03*
X75789D03*
X77757D03*
X79725D03*
X93501Y-79725D03*
X91533D03*
X89565D03*
X87597D03*
X85629D03*
X83661D03*
X81693D03*
Y-36417D03*
X83661D03*
X85629D03*
X87597D03*
X89565D03*
X91533D03*
X93501D03*
X97437Y-79725D03*
X95469D03*
Y-36417D03*
X97437D03*
G54D27*
X-52201Y-108000D03*
X-43500D03*
X15748Y-89567D03*
Y-79724D03*
Y-69882D03*
Y-60039D03*
X24449Y-89567D03*
Y-79724D03*
Y-69882D03*
Y-60039D03*
G54D18*
X-113559Y-108051D03*
Y-103051D03*
Y-98051D03*
Y-93051D03*
Y-88051D03*
Y-83051D03*
Y-78051D03*
Y-73051D03*
X-91559Y-103051D03*
Y-108051D03*
Y-88051D03*
Y-93051D03*
Y-98051D03*
Y-78051D03*
Y-83051D03*
Y-73051D03*
G54D36*
X61023Y-72831D03*
Y-70863D03*
Y-68895D03*
Y-66927D03*
Y-64959D03*
Y-62991D03*
Y-61023D03*
Y-59055D03*
Y-57087D03*
Y-55119D03*
Y-53151D03*
Y-51183D03*
Y-49215D03*
Y-47247D03*
Y-45279D03*
Y-43311D03*
X104331Y-62991D03*
Y-64959D03*
Y-66927D03*
Y-68895D03*
Y-70863D03*
Y-72831D03*
Y-49215D03*
Y-51183D03*
Y-53151D03*
Y-55119D03*
Y-57087D03*
Y-59055D03*
Y-61023D03*
Y-43311D03*
Y-45279D03*
Y-47247D03*
G54D37*
X129764Y-146654D03*
X130000Y-136000D03*
Y-114000D03*
Y-125000D03*
Y-103500D03*
X172165Y-19173D03*
G54D28*
X-51968Y-82874D03*
X-55118D03*
Y-33268D03*
X-51968D03*
X-39370Y-82874D03*
X-42520D03*
X-45669D03*
X-48819D03*
Y-33268D03*
X-45669D03*
X-42520D03*
X-39370D03*
X-26772Y-82874D03*
X-29921D03*
X-33071D03*
X-36220D03*
Y-33268D03*
X-33071D03*
X-29921D03*
X-26772D03*
X-23622Y-82874D03*
Y-33268D03*
G54D19*
X-113159Y-57697D03*
Y-52697D03*
Y-47697D03*
Y-42697D03*
X-113100Y-28000D03*
Y-23000D03*
Y-18000D03*
Y-13000D03*
X-91959Y-52697D03*
Y-57697D03*
Y-42697D03*
Y-47697D03*
X-91900Y-23000D03*
Y-28000D03*
Y-13000D03*
Y-18000D03*
X17943Y8248D03*
Y13248D03*
Y18248D03*
Y23248D03*
Y43681D03*
Y48681D03*
Y53681D03*
Y58681D03*
X39143Y18248D03*
Y13248D03*
Y8248D03*
Y23248D03*
Y43681D03*
Y58681D03*
Y53681D03*
Y48681D03*
X72077Y-9468D03*
Y-4468D03*
Y532D03*
Y5532D03*
Y25965D03*
Y30965D03*
Y35965D03*
Y40965D03*
Y61398D03*
Y66398D03*
Y71398D03*
Y76398D03*
X93277Y-9468D03*
Y5532D03*
Y532D03*
Y-4468D03*
Y30965D03*
Y25965D03*
Y40965D03*
Y35965D03*
Y71398D03*
Y66398D03*
Y61398D03*
Y76398D03*
X123258Y-9468D03*
Y-4468D03*
Y532D03*
Y5532D03*
Y25965D03*
Y30965D03*
Y35965D03*
Y40965D03*
Y61398D03*
Y66398D03*
Y71398D03*
Y76398D03*
X144458Y-9468D03*
Y5532D03*
Y532D03*
Y-4468D03*
Y30965D03*
Y25965D03*
Y40965D03*
Y35965D03*
Y71398D03*
Y66398D03*
Y61398D03*
Y76398D03*
G54D38*
X149764Y-146654D03*
X139764D03*
X150000Y-136000D03*
X140000D03*
X150000Y-114000D03*
X140000D03*
X150000Y-125000D03*
X140000D03*
X150000Y-103500D03*
X140000D03*
G54D29*
X-60634Y105315D03*
X-47634D03*
X-32091D03*
X-19091D03*
X67319D03*
X80319D03*
X95862D03*
X108862D03*
G54D39*
X172165Y-109173D03*
Y-99173D03*
Y-89173D03*
Y-79173D03*
Y-69173D03*
Y-59173D03*
Y-49173D03*
Y-39173D03*
Y-29173D03*
X182165Y-109173D03*
Y-99173D03*
Y-89173D03*
Y-79173D03*
Y-69173D03*
Y-59173D03*
Y-49173D03*
Y-39173D03*
Y-29173D03*
Y-19173D03*
M02*
