G04 ================== begin FILE IDENTIFICATION RECORD ==================*
G04 Layout Name:  GALVO_CTRL.brd*
G04 Film Name:    BOTTOM*
G04 File Format:  Gerber RS274X*
G04 File Origin:  Cadence Allegro 16.6-P004*
G04 Origin Date:  Tue Aug 01 21:47:15 2017*
G04 *
G04 Layer:  ETCH/BOTTOM*
G04 Layer:  PIN/BOTTOM*
G04 Layer:  VIA CLASS/BOTTOM*
G04 *
G04 Offset:    (0.000 0.000)*
G04 Mirror:    No*
G04 Mode:      Positive*
G04 Rotation:  0*
G04 FullContactRelief:  No*
G04 UndefLineWidth:     0.000*
G04 ================== end FILE IDENTIFICATION RECORD ====================*
%FSLAX25Y25*MOIN*%
%IR0*IPPOS*OFA0.00000B0.00000*MIA0B0*SFA1.00000B1.00000*%
%ADD10C,.118*%
%ADD11R,.03X.04*%
%ADD22R,.04X.03*%
%ADD18R,.05X.06*%
%ADD20R,.06X.05*%
%ADD21R,.013X.065*%
%ADD15C,.04*%
%ADD17R,.025X.075*%
%ADD13C,.06*%
%ADD12C,.024*%
%ADD16C,.045*%
%ADD19C,.028*%
%ADD14R,.06X.06*%
%ADD23C,.01*%
%ADD24C,.02*%
%ADD25C,.012*%
%ADD26C,.015*%
G75*
%LPD*%
G75*
G54D10*
X-104331Y-94488D03*
Y94488D03*
X104331Y-94488D03*
Y94488D03*
G54D20*
X-38500Y100000D03*
X-29500D03*
X500D03*
X9500D03*
X38500D03*
X47500D03*
X74500D03*
X83500D03*
X106500Y69000D03*
X97500D03*
G54D11*
X-102000Y-67200D03*
Y-61000D03*
Y-35800D03*
Y-42000D03*
X-80000Y-72200D03*
Y-66000D03*
Y-40800D03*
Y-47000D03*
X-70000Y-42200D03*
Y-36000D03*
Y-23200D03*
Y-17000D03*
X-77000D03*
Y-23200D03*
Y54500D03*
X-69500D03*
X-77000Y60700D03*
X-69500D03*
X-28000Y-97200D03*
Y-91000D03*
X-39000Y-97200D03*
Y-91000D03*
Y-72200D03*
Y-66000D03*
X-32000Y-72200D03*
Y-66000D03*
Y-30800D03*
Y-37000D03*
X-39000Y-30800D03*
Y-37000D03*
X-32000Y-54200D03*
Y-48000D03*
X-39000Y-54200D03*
Y-48000D03*
X-32000Y-12800D03*
Y-19000D03*
Y-1000D03*
X-39000D03*
Y-12800D03*
Y-19000D03*
X-32000Y5200D03*
X-39000D03*
X-40000Y54800D03*
X-33000D03*
X-40000Y61000D03*
X-33000D03*
X-44000Y81000D03*
Y87200D03*
X-3000Y-39800D03*
Y-46000D03*
X-13000Y-39800D03*
Y-46000D03*
X-26000Y55000D03*
X-4500Y54800D03*
X-19500Y55100D03*
X-26000Y61200D03*
X-24000Y80800D03*
X-5000D03*
X-4500Y61000D03*
X-19500Y61300D03*
X-24000Y87000D03*
X-5000D03*
X16000Y-77200D03*
Y-71000D03*
X4000Y-39800D03*
Y-46000D03*
X11000Y-46200D03*
Y-40000D03*
X9500Y54800D03*
X2500D03*
X25000D03*
X14000Y80800D03*
X9500Y61000D03*
X2500D03*
X25000D03*
X14000Y87000D03*
X57000Y-77200D03*
Y-71000D03*
X56000Y-39800D03*
Y-46000D03*
X30000Y-39800D03*
Y-46000D03*
X39000Y54800D03*
X32000D03*
X55000Y55000D03*
X53000Y80800D03*
X33000Y81000D03*
X39000Y61000D03*
X32000D03*
X55000Y61200D03*
X53000Y87000D03*
X33000Y87200D03*
X73000Y-89200D03*
Y-67800D03*
Y-74000D03*
Y-83000D03*
X78000Y-35200D03*
Y-29000D03*
X71000Y-45800D03*
Y-52000D03*
Y-28800D03*
Y-35000D03*
Y-8800D03*
Y-15000D03*
X78000Y-8800D03*
Y-15000D03*
Y9200D03*
Y3000D03*
X71000Y9200D03*
Y3000D03*
X69000Y54800D03*
X76000Y55000D03*
X62000D03*
X69000Y61000D03*
X76000Y61200D03*
X62000D03*
X110000Y-71800D03*
Y-78000D03*
Y-55800D03*
Y-62000D03*
Y-9200D03*
Y-3000D03*
Y-25200D03*
Y-19000D03*
X102000Y55000D03*
X109000D03*
X88000Y54800D03*
X95000D03*
X102000Y61200D03*
X109000D03*
X88000Y61000D03*
X95000D03*
G54D12*
X-86000Y-66500D03*
X-96000Y-71500D03*
X-86000Y-56500D03*
X-96000Y-66500D03*
Y-61500D03*
X-86000Y-71500D03*
Y-36500D03*
X-96000Y-51500D03*
Y-41500D03*
Y-36500D03*
X-86000Y-46500D03*
Y-41500D03*
X-91500Y-20000D03*
X-75500Y-90000D03*
Y-85000D03*
X-72000Y-87500D03*
Y-82000D03*
X-66000Y-42000D03*
X-36000Y-91000D03*
X-35600Y-66000D03*
X-35400Y-72200D03*
Y-54200D03*
X-39000Y-44500D03*
X-32000Y-41000D03*
X-39000D03*
X-35400Y-19000D03*
X-35500Y-1000D03*
X-35400Y-12800D03*
X-35500Y5200D03*
X-45500Y100000D03*
X-14400Y-91500D03*
Y-96500D03*
X-19600Y-101500D03*
Y-86500D03*
X-14700D03*
X-19600Y-96500D03*
Y-91500D03*
X-9045Y-62400D03*
X-21500Y-71500D03*
X-2045Y-62400D03*
X-27300Y-51700D03*
X-8750Y-49250D03*
X-5134Y-22247D03*
X-10253D03*
X-7693Y-18807D03*
X-14Y-22247D03*
X-2574Y-18807D03*
X-4800Y4400D03*
X-8500Y21000D03*
Y27200D03*
X-19400Y28100D03*
X-19272Y24500D03*
X-1000Y31500D03*
X-18966Y84000D03*
X-5000Y73500D03*
X-22500Y100000D03*
X-23866Y93400D03*
X-18984Y89118D03*
X-6500Y100000D03*
X10165Y-83835D03*
X24000Y-81500D03*
X2955Y-62400D03*
X15800Y-43500D03*
X7600Y-46200D03*
X7400Y-40000D03*
X15700Y-16500D03*
X12787Y-13300D03*
X12000Y-22500D03*
X7666Y-22247D03*
X2546Y-18807D03*
X15000Y4400D03*
X18045Y3045D03*
X4268Y26700D03*
X12200Y1000D03*
X11400Y4400D03*
X17068Y23700D03*
X22188D03*
X14508Y26700D03*
X19628D03*
X11948Y23700D03*
X9388Y26700D03*
X6828Y23700D03*
X27000Y24000D03*
X3000Y31200D03*
X23500Y33200D03*
X14508Y34500D03*
X1000Y44000D03*
X19628Y33500D03*
X19467Y84000D03*
X25000Y64300D03*
X2500D03*
X16300Y100000D03*
X14567Y93400D03*
X19449Y89118D03*
X25000Y98400D03*
X40000Y-85000D03*
X57000D03*
X46200D03*
X29000D03*
X57000Y-67500D03*
X57090Y-58910D03*
X41620Y-67300D03*
X35710D03*
X34250Y-62400D03*
X29800Y-67300D03*
X44250Y-62400D03*
X39250D03*
X57030Y-51030D03*
X54030Y-54970D03*
X49300Y-49900D03*
X52000Y-41000D03*
X44000Y-50000D03*
X49000Y-43500D03*
X41380Y-38000D03*
X46500D03*
X36260D03*
X33000Y-17000D03*
X36320Y-21500D03*
X46500Y-22700D03*
X41293Y-17500D03*
X31768Y26700D03*
X50800Y27700D03*
X57000Y4000D03*
X44568Y23700D03*
X49688D03*
X42008Y26700D03*
X47128D03*
X39448Y23700D03*
X36888Y26700D03*
X34328Y23700D03*
X40600Y800D03*
X31000Y33200D03*
X42008Y34400D03*
X51000Y31500D03*
X48500Y93400D03*
X53000D03*
X54300Y100000D03*
X31500D03*
X63200Y-85000D03*
X75000Y-62000D03*
X65000Y-82000D03*
X76600Y-74000D03*
X75000Y-45800D03*
Y-52000D03*
X71000Y-40000D03*
X77940Y-49060D03*
X74500Y-15000D03*
X60400Y6200D03*
X74400Y2800D03*
Y9000D03*
X59800Y27200D03*
X64000Y9000D03*
X75728Y25000D03*
X75000Y29400D03*
X79900Y32500D03*
X57900Y84000D03*
X71500Y69000D03*
X69000Y65100D03*
X70626Y72574D03*
X64000Y98200D03*
X68000Y100000D03*
X57882Y89118D03*
X70626Y95374D03*
X90000Y-95200D03*
X106000Y-78000D03*
Y-71800D03*
X90500Y-69600D03*
X95500D03*
X106000Y-55800D03*
X99500Y-35500D03*
X87000Y-35200D03*
X90500Y-48400D03*
X106500Y-25200D03*
X93500Y85968D03*
X109500Y76000D03*
X90500Y78000D03*
X93500Y82032D03*
X87000Y69000D03*
X90500Y90000D03*
X87000Y94500D03*
G54D21*
X-15373Y-29843D03*
X-12813D03*
X-10253D03*
X-7693D03*
X-5134D03*
X-2573D03*
Y-7243D03*
X-5134D03*
X-7693D03*
X-10253D03*
X-12813D03*
X-15373D03*
X-13Y-29843D03*
X2547D03*
X5107D03*
X7667D03*
X10227D03*
X12787D03*
Y-7243D03*
X10227D03*
X7667D03*
X5107D03*
X2547D03*
X-13D03*
X4268Y17700D03*
X6828D03*
X9388D03*
X11948D03*
X14508D03*
X17068D03*
X19628D03*
X22188D03*
Y40300D03*
X19628D03*
X17068D03*
X14508D03*
X11948D03*
X9388D03*
X6828D03*
X4268D03*
X28607Y-29843D03*
X31167D03*
X33727D03*
X36287D03*
X38847D03*
X41407D03*
X43967D03*
X46527D03*
X49087D03*
X51647D03*
X54207D03*
Y-7243D03*
X51647D03*
X49087D03*
X46527D03*
X43967D03*
X41407D03*
X38847D03*
X36287D03*
X33727D03*
X31167D03*
X28607D03*
X31768Y17700D03*
X34328D03*
X36888D03*
X39448D03*
X42008D03*
X44568D03*
X47128D03*
X49688D03*
Y40300D03*
X47128D03*
X44568D03*
X42008D03*
X39448D03*
X36888D03*
X34328D03*
X31768D03*
X56767Y-29843D03*
Y-7243D03*
G54D13*
X-96457Y-25000D03*
X-86457D03*
X-96457Y-15000D03*
X-86457D03*
X-96457Y-5000D03*
X-86457D03*
X-96457Y5000D03*
X-86457D03*
X-96457Y15000D03*
X-86457D03*
X-96457Y25000D03*
X-60000Y-80000D03*
Y-70000D03*
Y-60000D03*
Y-50000D03*
Y-40000D03*
Y-30000D03*
Y-20000D03*
Y-10000D03*
Y0D03*
Y10000D03*
Y20000D03*
Y30000D03*
Y40000D03*
Y50000D03*
X-66500Y87500D03*
X-76500D03*
X-60000Y60000D03*
X-66500Y99000D03*
X-76500D03*
X-50000Y-80000D03*
Y-70000D03*
Y-60000D03*
Y-50000D03*
Y-40000D03*
Y-30000D03*
Y-20000D03*
Y-10000D03*
Y0D03*
Y10000D03*
Y20000D03*
Y30000D03*
Y40000D03*
Y50000D03*
X20750Y-99000D03*
X30750D03*
X40750D03*
X50750D03*
X60750D03*
X86457Y-5000D03*
Y-15000D03*
Y25000D03*
Y15000D03*
Y5000D03*
X96457Y-5000D03*
Y-15000D03*
Y-25000D03*
Y25000D03*
Y15000D03*
Y5000D03*
G54D22*
X-9300Y1000D03*
X-15500D03*
X800Y8000D03*
X-15700D03*
X-9500D03*
X1000Y1000D03*
X3800Y-99000D03*
X10000D03*
X22800Y-89000D03*
X29000D03*
X10200D03*
X4000D03*
X28500Y1000D03*
X7000Y8000D03*
X28300D03*
X7200Y1000D03*
X1300Y74000D03*
X7500D03*
X57000Y-89000D03*
X46200D03*
X40000D03*
X34700Y1000D03*
X44800Y8000D03*
X51000D03*
X34500D03*
X51200Y1000D03*
X45000D03*
X83800Y-99000D03*
X63200Y-89000D03*
X84000D03*
X82200Y76000D03*
X76000D03*
X75800Y69000D03*
X82000D03*
X82200Y92000D03*
X76000D03*
X90000Y-99000D03*
X90200Y-89000D03*
X105200Y76000D03*
X99000D03*
G54D23*
G01X-66500Y99000D02*
X-71400Y94100D01*
Y82600D01*
X-76400Y77600D01*
X-96300D01*
X-102400Y71500D01*
Y38800D01*
X-110000Y31200D01*
Y-70000D01*
X-98000Y-82000D01*
X-72000D01*
G01X-76500Y99000D02*
X-81400Y94100D01*
Y82400D01*
X-84000Y79800D01*
X-97200D01*
X-104300Y72700D01*
Y40200D01*
X-112500Y32000D01*
Y-71000D01*
X-98500Y-85000D01*
X-75500D01*
G01X-102000Y-67200D02*
X-96700D01*
X-96000Y-66500D01*
G01X-102000Y-61000D02*
X-96500D01*
X-96000Y-61500D01*
G01Y-51500D02*
Y-46500D01*
X-86000Y-36500D01*
G01X-86457Y-25000D02*
X-92457Y-31000D01*
X-99500D01*
X-105000Y-25500D01*
Y29000D01*
X-99000Y35000D01*
X-43500D01*
X-38900Y39600D01*
X-34272D01*
G01X-102000Y-42000D02*
X-96500D01*
X-96000Y-41500D01*
G01X-102000Y-35800D02*
X-96700D01*
X-96000Y-36500D01*
G01X-70000Y-17000D02*
Y-13500D01*
X-73500Y-10000D01*
X-91457D01*
X-96457Y-5000D01*
G01Y-25000D02*
X-102000Y-19457D01*
Y28000D01*
X-98000Y32000D01*
X-72000D01*
X-65000Y25000D01*
X-41500D01*
X-38000Y28500D01*
X-29500D01*
X-24900Y33100D01*
X-20900D01*
X-19272Y34728D01*
Y39600D01*
G01X-80000Y-66000D02*
X-85500D01*
X-86000Y-66500D01*
G01X-50000Y-80000D02*
X-55500Y-85500D01*
X-64000D01*
X-70000Y-79500D01*
Y-53000D01*
X-76000Y-47000D01*
X-80000D01*
G01X-60000Y-80000D02*
X-65000D01*
X-67000Y-78000D01*
Y-52000D01*
X-78200Y-40800D01*
X-80000D01*
G01Y-72200D02*
X-85300D01*
X-86000Y-71500D01*
G01X-70000Y-42200D02*
X-66200D01*
X-66000Y-42000D01*
G01X-80000Y-47000D02*
X-85500D01*
X-86000Y-46500D01*
G01X-60000Y-40000D02*
X-55000Y-45000D01*
X-47500D01*
X-44700Y-47800D01*
Y-77400D01*
X-33500Y-88600D01*
Y-94200D01*
X-30500Y-97200D01*
X-28000D01*
G01X-80000Y-40800D02*
X-85300D01*
X-86000Y-41500D01*
G01X-70000Y-23200D02*
X-66800D01*
X-65000Y-25000D01*
X-31500D01*
X-28000Y-28500D01*
Y-46700D01*
X-21700Y-53000D01*
Y-61800D01*
X-12500Y-71000D01*
X1500D01*
X2955Y-72455D01*
Y-77600D01*
G01X-77000Y-23200D02*
X-70000D01*
G01X-86457Y-5000D02*
X-46800D01*
X-44700Y-7100D01*
X-31400D01*
X-28300Y-10200D01*
Y-19700D01*
X-25900Y-22100D01*
X-16200D01*
X-9200Y-15100D01*
X1347D01*
X2547Y-13900D01*
G01X-77000Y54500D02*
X-69500D01*
G01X-29272Y39600D02*
Y45772D01*
X-31500Y48000D01*
X-41000D01*
X-44000Y45000D01*
X-64000D01*
X-69500Y50500D01*
Y54500D01*
G01X-24272Y39600D02*
Y44272D01*
X-30000Y50000D01*
X-42000D01*
X-47000Y55000D01*
X-63800D01*
X-69500Y60700D01*
G01X-60000Y70000D02*
Y60000D01*
G01X-77000Y60700D02*
X-69500D01*
G01X-39000Y-97200D02*
X-34700Y-101500D01*
X-19600D01*
G01X-39000Y-91000D02*
X-36000D01*
G01X-39000Y-66000D02*
X-35600D01*
G01X-32000D02*
X-35600D01*
G01X-32000Y-72200D02*
X-35400D01*
G01X-39000D02*
X-35400D01*
G01X-50000Y-40000D02*
X-49000D01*
X-42700Y-46300D01*
Y-76400D01*
X-39500Y-79600D01*
X-36300D01*
X-34791Y-81109D01*
X-32091Y-78409D01*
X-30677Y-79823D01*
X-33377Y-82523D01*
X-31962Y-83938D01*
X-29263Y-81238D01*
X-27848Y-82652D01*
X-30548Y-85352D01*
X-28000Y-87900D01*
Y-91000D01*
G01X-32000Y-54200D02*
X-35400D01*
G01X-39000D02*
X-35400D01*
G01X-39000Y-48000D02*
Y-44500D01*
G01X-32000Y-37000D02*
Y-41000D01*
G01X-39000Y-37000D02*
Y-41000D01*
G01X-32000Y-19000D02*
X-35400D01*
G01X-39000D02*
X-35400D01*
G01X-32000Y-12800D02*
X-35400D01*
G01X-39000D02*
X-35400D01*
G01X-39000D02*
X-44500D01*
Y-20300D01*
X-41900Y-22900D01*
X-29900D01*
X-28300Y-24500D01*
X-12813D01*
Y-29843D01*
G01X-32000Y-1000D02*
X-35500D01*
G01X-39000D02*
X-35500D01*
G01X-39000Y5200D02*
X-35500D01*
G01D02*
X-32000D01*
G01X-12400Y68300D02*
X-25000D01*
X-29500Y63800D01*
Y54800D01*
X-33000D01*
G01X-44000Y81000D02*
X-52000D01*
Y82500D01*
G01X-32000Y61000D02*
X-33000D01*
G01X-40000D02*
X-33000D01*
G01X-5000Y73500D02*
X-7700Y76200D01*
X-30000D01*
X-40000Y66200D01*
Y61000D01*
G01X-44000Y87200D02*
Y91500D01*
X-52000D01*
G01X3800Y-99000D02*
X-2000D01*
X-2045Y-98955D01*
Y-89000D01*
G01D02*
Y-77600D01*
G01X4000Y-89000D02*
X-2045D01*
G01X-21500Y-71500D02*
Y-79700D01*
X-14700Y-86500D01*
G01X-28000Y-97200D02*
X-27300Y-96500D01*
X-19600D01*
G01X-28000Y-91000D02*
X-27500Y-91500D01*
X-19600D01*
G01X-7045Y-56400D02*
Y-60400D01*
X-9045Y-62400D01*
G01X-2045Y-56400D02*
Y-62400D01*
G01X-23000Y-43500D02*
X-18700D01*
X-16200Y-46000D01*
X-13000D01*
G01X-3000D02*
X4000D01*
G01X-3000Y-39800D02*
X4000D01*
G01X-5134Y-29843D02*
Y-22247D01*
G01X-10253Y-29843D02*
Y-22247D01*
G01X-7693Y-29843D02*
Y-18807D01*
G01X-2574Y-29843D02*
Y-18807D01*
G01X-2573Y-29843D02*
Y-18807D01*
X-2574Y-18807D01*
G01X-17100Y-37200D02*
X-15373Y-35474D01*
Y-29843D01*
G01X-23000Y-16500D02*
Y-16700D01*
X-14900D01*
Y-13200D01*
X-13D01*
Y-7243D01*
G01X-23000Y-7500D02*
Y-7243D01*
G01D02*
Y3000D01*
X-18000Y8000D01*
X-15700D01*
G01X-23000Y-7243D02*
X-15373D01*
G01X-12813D02*
Y-3687D01*
X-15500Y-1000D01*
Y1000D01*
G01X-10253Y-7243D02*
Y47D01*
X-9300Y1000D01*
G01X-4800Y4400D02*
Y8000D01*
X-9500D01*
G01X-29272Y18400D02*
Y25028D01*
X-23400Y30900D01*
X-20000D01*
X-15000Y35900D01*
Y45000D01*
X-17000Y47000D01*
X-21000D01*
X-26000Y52000D01*
Y55000D01*
G01X-9300Y1000D02*
X-4400D01*
X-600Y4800D01*
X800D01*
Y8000D01*
G01X-4500Y54800D02*
Y47000D01*
X6828D01*
Y40300D01*
G01X-19500Y55100D02*
X-9500D01*
Y44000D01*
X1000D01*
G01X-19500Y55100D02*
X-22700D01*
Y61200D01*
X-26000D01*
G01X22800Y-89000D02*
Y-96950D01*
X20750Y-99000D01*
G01X24000Y-67500D02*
X28200Y-71700D01*
X34250D01*
Y-77600D01*
G01X24000Y-67500D02*
X16000D01*
Y-71000D01*
G01Y-77200D02*
X8355D01*
X7955Y-77600D01*
G01X16000Y-77200D02*
X23300D01*
X24000Y-76500D01*
G01X2955Y-56400D02*
Y-62400D01*
G01X21000Y-43500D02*
X24900D01*
X27400Y-46000D01*
X30000D01*
G01X11000Y-46200D02*
X7600D01*
G01X4000Y-46000D02*
X7400D01*
X7600Y-46200D01*
G01X7955Y-56400D02*
Y-46555D01*
X7600Y-46200D01*
G01X10227Y-29843D02*
Y-24273D01*
X12000Y-22500D01*
G01X12787Y-29843D02*
X10227D01*
G01X11000Y-40000D02*
X7400D01*
G01X4000Y-39800D02*
X7200D01*
X7400Y-40000D01*
G01X5107Y-29843D02*
Y-24806D01*
X7666Y-22247D01*
G01X2546Y-29843D02*
Y-18807D01*
G01X2547Y-29843D02*
Y-18808D01*
X2546Y-18807D01*
G01X-14Y-29843D02*
Y-22247D01*
G01X-13Y-29843D02*
Y-22247D01*
X-14Y-22247D01*
G01X26200Y-37100D02*
X28607Y-34693D01*
Y-29843D01*
G01X21000Y-16500D02*
X28400D01*
X31000Y-13900D01*
X43967D01*
Y-7243D01*
G01X15000Y4400D02*
Y-2200D01*
X1287D01*
X-13Y-3500D01*
Y-7243D01*
G01X12787D02*
Y-13300D01*
G01X28607Y-7243D02*
X21000D01*
G01D02*
Y-7500D01*
G01X28300Y8000D02*
X21000D01*
Y-7243D01*
G01X2547D02*
Y-13900D01*
G01D02*
X10227D01*
Y-7243D01*
G01X15000Y4400D02*
X11400Y8000D01*
X7000D01*
G01X4268Y17700D02*
Y26700D01*
G01X1000Y1000D02*
X4400Y4400D01*
X11400D01*
G01X17068Y17700D02*
Y23700D01*
G01X22188Y17700D02*
Y23700D01*
G01X14508Y17700D02*
Y26700D01*
G01X19628Y17700D02*
Y26700D01*
G01X11948Y17700D02*
Y23700D01*
G01X9388Y17700D02*
Y26700D01*
G01X6828Y17700D02*
Y23700D01*
G01X4268Y40300D02*
Y32468D01*
X3000Y31200D01*
G01X2500Y54800D02*
Y49100D01*
X11948D01*
Y40300D01*
G01X17068D02*
Y53500D01*
X17500D01*
G01X9500Y54800D02*
X17500D01*
Y53500D01*
G01X25000Y54800D02*
Y47400D01*
X34328D01*
Y40300D01*
G01X19628D02*
Y33500D01*
G01X33000Y81000D02*
X25000D01*
G01Y61000D02*
Y64300D01*
G01X2500Y61000D02*
Y64300D01*
G01X14000Y87000D02*
X14567D01*
G01X33000Y87200D02*
Y91500D01*
X25000D01*
G01X50750Y-99000D02*
X55550Y-103800D01*
X76000D01*
X80800Y-99000D01*
X83800D01*
G01X40000Y-89000D02*
Y-85000D01*
G01X46200Y-89000D02*
Y-85000D01*
G01X73000Y-89200D02*
X70300D01*
X66500Y-93000D01*
X37000D01*
X34500Y-90500D01*
Y-86000D01*
X39250Y-81250D01*
Y-77600D01*
G01X29000Y-89000D02*
Y-85000D01*
G01X34250Y-56400D02*
Y-62400D01*
G01X110000Y-19000D02*
X106000D01*
X105000Y-20000D01*
X72500D01*
X63500Y-29000D01*
Y-58700D01*
X58600Y-63600D01*
X52400D01*
X44250Y-71750D01*
Y-77600D01*
G01X57000Y-77200D02*
X56600Y-77600D01*
X49250D01*
G01X44250Y-56400D02*
Y-62400D01*
G01X39250Y-56400D02*
Y-62400D01*
G01X49300Y-49900D02*
X49250Y-49950D01*
Y-56400D01*
G01X56000Y-46000D02*
X53200D01*
X49300Y-49900D01*
G01X56000Y-39800D02*
X53200D01*
X52000Y-41000D01*
G01X56767Y-29843D02*
X54207D01*
G01X33000Y-17000D02*
Y-23000D01*
X31167Y-24833D01*
Y-29843D01*
G01X49087D02*
Y-43413D01*
X49000Y-43500D01*
G01X38847Y-29843D02*
Y-35467D01*
X41380Y-38000D01*
G01X46500D02*
Y-37613D01*
X46527Y-37586D01*
Y-29843D01*
G01X33727D02*
Y-35467D01*
X36260Y-38000D01*
G01X36287Y-29843D02*
Y-21533D01*
X36320Y-21500D01*
G01X46500Y-22700D02*
X44000Y-25200D01*
Y-29810D01*
X43967Y-29843D01*
G01X41293Y-17500D02*
X41407Y-17614D01*
Y-29843D01*
G01X31167Y-7243D02*
Y-3667D01*
X28500Y-1000D01*
Y1000D01*
G01X54207Y-7243D02*
Y-13693D01*
X54000Y-13900D01*
G01X86457Y5000D02*
X78457Y-3000D01*
X69000D01*
X58100Y-13900D01*
X54000D01*
G01D02*
X46527D01*
Y-7243D01*
G01X33727D02*
Y27D01*
X34700Y1000D01*
G01X60400Y6200D02*
X60200D01*
X58400Y8000D01*
X51000D01*
G01D02*
Y11500D01*
X34500D01*
Y8000D01*
G01X31768Y17700D02*
Y26700D01*
G01X51200Y1000D02*
X56767D01*
Y-7243D01*
G01X45000Y1000D02*
Y4000D01*
X57000D01*
G01X44568Y17700D02*
Y23700D01*
G01X49688Y17700D02*
Y23700D01*
G01X42008Y17700D02*
Y26700D01*
G01X47128Y17700D02*
Y26700D01*
G01X39448Y17700D02*
Y23700D01*
G01X36888Y17700D02*
Y26700D01*
G01X34328Y17700D02*
Y23700D01*
G01X44800Y8000D02*
X40400D01*
X34700Y2300D01*
Y1000D01*
G01X31768Y40300D02*
Y33968D01*
X31000Y33200D01*
G01X47000Y53500D02*
Y48500D01*
X44568Y46068D01*
Y40300D01*
G01X39000Y54800D02*
X45700D01*
X47000Y53500D01*
G01X32000Y54800D02*
X32100D01*
Y50100D01*
X39448D01*
Y40300D01*
G01X55000Y61200D02*
X51500Y57700D01*
Y49500D01*
X47128Y45128D01*
Y40300D01*
G01X55000Y61200D02*
X62000D01*
G01X47500Y100000D02*
X54300D01*
G01X38500D02*
X31500D01*
G01X57000Y-89000D02*
Y-85000D01*
G01X63200Y-89000D02*
Y-85000D01*
G01X73000Y-89200D02*
X73200Y-89000D01*
X84000D01*
G01X65000Y-67500D02*
X57000D01*
G01D02*
Y-71000D01*
G01X65000Y-67500D02*
X69500D01*
Y-83000D01*
X73000D01*
G01D02*
Y-83800D01*
X90200D01*
Y-89000D01*
G01X110000Y-62000D02*
X89500D01*
X80500Y-71000D01*
Y-77600D01*
G01X65000Y-76500D02*
X64300Y-77200D01*
X57000D01*
G01X73000Y-74000D02*
X76600D01*
G01X71000Y-45800D02*
X75000D01*
G01X95500Y-56400D02*
Y-37000D01*
X89500Y-31000D01*
X83500D01*
X81500Y-29000D01*
X78000D01*
G01X71000Y-52000D02*
X75000D01*
G01X78000Y-35200D02*
X87000D01*
G01X71000Y-28800D02*
X71600D01*
X78000Y-35200D01*
G01X56767Y-29843D02*
X60843D01*
X61000Y-30000D01*
G01D02*
Y-34000D01*
X56000Y-39000D01*
Y-39800D01*
G01X61000Y-30000D02*
Y-27000D01*
X66000Y-22000D01*
Y-11000D01*
X68200Y-8800D01*
X71000D01*
G01Y-35000D02*
Y-40000D01*
G01Y2800D02*
X68800D01*
X58757Y-7243D01*
X56767D01*
G01X71000Y-15000D02*
X74500D01*
G01X78000D02*
X74500D01*
G01X78000Y-8800D02*
X71000D01*
G01Y2800D02*
X74400D01*
G01X71000Y3000D02*
Y2800D01*
G01X78000Y3000D02*
Y2800D01*
X74400D01*
G01X78000Y9200D02*
Y9000D01*
X74400D01*
G01X71000Y9200D02*
Y9000D01*
X74400D01*
G01X70728Y18400D02*
Y25128D01*
X75000Y29400D01*
G01X65728Y18400D02*
Y26472D01*
X56500Y35700D01*
Y43500D01*
X62000Y49000D01*
Y55000D01*
G01X60728Y18400D02*
Y12272D01*
X64000Y9000D01*
G01X86457Y25000D02*
X83200D01*
X75100Y33100D01*
X62700D01*
X60728Y35072D01*
Y39600D01*
G01X71500Y69000D02*
X65500D01*
Y54800D01*
X69000D01*
G01X88000Y61000D02*
X84500D01*
Y49900D01*
X65728D01*
Y39600D01*
G01X70728D02*
Y47600D01*
X95000D01*
Y54800D01*
G01X82000Y69000D02*
Y55000D01*
X76000D01*
G01X75728Y39600D02*
X81857D01*
X96457Y25000D01*
G01X75800Y69000D02*
X71500D01*
G01X69000Y61000D02*
X76000D01*
Y61200D01*
G01X69000Y61000D02*
Y65100D01*
G01X76000Y76000D02*
Y72574D01*
X70626D01*
G01X82000Y69000D02*
X87000D01*
G01X83500Y100000D02*
X90500D01*
Y90000D01*
G01X76000Y92000D02*
Y95374D01*
X70626D01*
G01X90000Y-99000D02*
Y-95200D01*
G01X110000Y-78000D02*
X106000D01*
G01X110000Y-71800D02*
Y-62000D01*
G01Y-71800D02*
X106000D01*
G01X90500Y-77600D02*
Y-69600D01*
G01X95500Y-77600D02*
Y-69600D01*
G01X110000Y-55800D02*
X106000D01*
G01X90500Y-56400D02*
Y-48400D01*
G01X110000Y-25200D02*
X106500D01*
G01X110000Y-19000D02*
Y-9200D01*
G01Y-3000D02*
X104457D01*
X96457Y5000D01*
G01X109000Y55000D02*
Y48900D01*
X105500Y45400D01*
Y21500D01*
X110000Y17000D01*
G01X99000Y80468D02*
X113000D01*
Y55000D01*
X109000D01*
G01Y61200D02*
X105500D01*
Y55000D01*
X102000D01*
G01D02*
X98500D01*
Y64700D01*
X93300D01*
X91000Y67000D01*
Y71500D01*
X87000Y75500D01*
Y94500D01*
G01X95000Y54800D02*
X88000D01*
G01X99000Y80468D02*
X93500Y85968D01*
G01X99000Y76000D02*
Y80468D01*
G01X105200Y76000D02*
Y70300D01*
X106500Y69000D01*
G01X105200Y76000D02*
X109500D01*
G01X102000Y61200D02*
X106500Y65700D01*
Y69000D01*
G01X95000Y61000D02*
X88000D01*
G54D14*
X-86457Y25000D03*
X-86500Y87500D03*
Y99000D03*
X-50000Y60000D03*
X70750Y-99000D03*
X86457Y-25000D03*
G54D24*
G01X24000Y-67500D02*
Y-61000D01*
X21000Y-58000D01*
G01D02*
Y-43500D01*
G01D02*
X15800D01*
G01X27000Y-22000D02*
X21000Y-28000D01*
Y-34500D01*
G01Y-16500D02*
X15700D01*
G01X25000Y91500D02*
Y98400D01*
G01X64000Y91500D02*
Y98200D01*
G54D15*
G01X-12500Y98500D02*
Y91500D01*
G01X25000Y82500D02*
Y81000D01*
G01D02*
Y75600D01*
G01X64000Y82500D02*
Y75800D01*
X-93399Y56999D03*
Y41599D03*
Y72399D03*
X-69000Y41599D03*
Y72399D03*
X-31100Y68300D03*
X-22500Y10500D03*
X-9100Y35100D03*
X-12400Y68300D03*
X-12500Y98500D03*
X27000Y-22000D03*
X25000Y75600D03*
X34900Y68300D03*
X56900D03*
X41900D03*
X64000Y75800D03*
X100900Y34900D03*
G54D25*
G01X-37466Y82700D02*
Y74900D01*
X-43400D01*
Y54800D01*
X-40000D01*
G01X-24000Y80800D02*
X-31066D01*
X-32966Y82700D01*
G01X-38500Y100000D02*
X-45500D01*
G01X-44000Y87200D02*
X-37966D01*
X-37466Y87700D01*
G01X-4500Y61000D02*
X2500D01*
G01X-19500Y61300D02*
X-4500D01*
Y61000D01*
G01X-5000Y80800D02*
X-12500D01*
Y82500D01*
G01X-5000Y80800D02*
X-933D01*
X967Y82700D01*
G01X-29500Y100000D02*
X-22500D01*
G01X-24000Y87000D02*
X-21102D01*
X-18984Y89118D01*
G01X500Y100000D02*
X-6500D01*
G01X14508Y34500D02*
X9388D01*
Y40300D01*
G01X22188D02*
Y34512D01*
X23500Y33200D01*
G01X14508Y40300D02*
Y34500D01*
G01X6828Y40300D02*
Y30000D01*
G01X25000Y61000D02*
X17500D01*
G01D02*
Y62500D01*
G01Y60500D02*
Y61000D01*
G01X9500D02*
X16000D01*
X17500Y62500D01*
G01X2500Y61000D02*
X9500D01*
G01X14000Y80800D02*
X7367D01*
X5467Y82700D01*
G01X9500Y100000D02*
X16300D01*
G01X14567Y87000D02*
X17331D01*
X19449Y89118D01*
G01X36888Y40300D02*
Y34400D01*
X42008D01*
G01D02*
Y40300D01*
G01X49688D02*
Y34400D01*
X42008D01*
G01X55000Y55000D02*
Y49600D01*
X49688Y44288D01*
Y40300D01*
G01X34328D02*
Y31500D01*
G01X39000Y61000D02*
X45500D01*
X47000Y62500D01*
G01X53000Y80800D02*
X45800D01*
X43900Y82700D01*
G01X53000Y87000D02*
X55764D01*
X57882Y89118D01*
G01X82200Y76000D02*
Y80300D01*
X80900Y81600D01*
G01X74500Y100000D02*
X68000D01*
G01X82200Y92000D02*
Y87900D01*
X80900Y86600D01*
G01X97500Y69000D02*
Y71000D01*
X90500Y78000D01*
G54D16*
X-60000D03*
Y70000D03*
X-50000D03*
X-54500Y100500D03*
X110000Y8000D03*
Y26000D03*
Y17000D03*
G54D26*
G01X-91500Y-20000D02*
X-83000D01*
X-80000Y-17000D01*
X-77000D01*
G01X-70000Y-36000D02*
X-69000Y-35000D01*
X-46200D01*
X-42000Y-30800D01*
X-39000D01*
G01X-70000Y-36000D02*
X-85500D01*
X-86000Y-36500D01*
G01X-52000Y82500D02*
X-60000D01*
Y78000D01*
G01X-35400Y-30800D02*
Y-44600D01*
X-32000Y-48000D01*
G01Y-30800D02*
X-35400D01*
G01D02*
X-39000D01*
G01X-32000Y-48000D02*
Y-48200D01*
X-28500Y-51700D01*
X-27300D01*
G01X-22500Y10500D02*
X-34272D01*
Y18400D01*
G01X10000Y-99000D02*
Y-103200D01*
X-7045D01*
Y-77600D01*
G01X21000Y-58000D02*
X15500Y-63500D01*
X7000D01*
X3000Y-67500D01*
X-11000D01*
X-13000Y-65500D01*
Y-46000D01*
G01Y-39800D02*
X-14500D01*
X-17100Y-37200D01*
G01D02*
X-19800Y-34500D01*
X-23000D01*
G01X21000D02*
X20000Y-35500D01*
X-4700D01*
X-9000Y-39800D01*
X-13000D01*
G01X-19400Y28100D02*
X-19500Y28000D01*
X-21400D01*
X-24272Y25128D01*
Y18400D01*
G01X-19272D02*
Y24500D01*
G01X-15700Y8000D02*
Y11500D01*
X-4500D01*
G01D02*
X28300D01*
Y8000D01*
G01X-4500Y11500D02*
Y30500D01*
X-9100Y35100D01*
G01X7500Y68300D02*
X-12400D01*
G01X1300Y74000D02*
X-5000D01*
Y73500D01*
G01Y87000D02*
Y91500D01*
X-12500D01*
G01X34250Y-77600D02*
X32300D01*
X24300Y-85600D01*
X18200D01*
X14800Y-89000D01*
X10200D01*
G01X10000Y-99000D02*
Y-89200D01*
X10200Y-89000D01*
G01X24000Y-76500D02*
Y-81500D01*
G01X21000Y-34500D02*
X23600D01*
X26200Y-37100D01*
G01D02*
X28900Y-39800D01*
X30000D01*
G01X7200Y1000D02*
X12200D01*
G01X6828Y30000D02*
X32828D01*
X34328Y31500D01*
G01X34900Y68300D02*
X7500D01*
G01Y74000D02*
Y68300D01*
G01X25000Y61000D02*
X32000D01*
G01X34328Y31500D02*
X51000D01*
G01X39000Y61000D02*
X32000D01*
G01X73000Y-67800D02*
Y-64000D01*
X75000Y-62000D01*
G01X65000Y-76500D02*
Y-82000D01*
G01X75728Y18400D02*
Y25000D01*
G01X95500Y-56400D02*
X96100Y-55800D01*
X106000D01*
G54D17*
X-34272Y18400D03*
X-29272D03*
Y39600D03*
X-34272D03*
X-2045Y-56400D03*
X-7045D03*
Y-77600D03*
X-2045D03*
X-24272Y18400D03*
X-19272D03*
Y39600D03*
X-24272D03*
X7955Y-56400D03*
X2955D03*
Y-77600D03*
X7955D03*
X49250Y-56400D03*
X44250D03*
X39250D03*
X34250D03*
Y-77600D03*
X39250D03*
X44250D03*
X49250D03*
X80500Y-56400D03*
Y-77600D03*
X60728Y18400D03*
X65728D03*
X70728D03*
X75728D03*
Y39600D03*
X70728D03*
X65728D03*
X60728D03*
X95500Y-56400D03*
X90500D03*
X85500D03*
Y-77600D03*
X90500D03*
X95500D03*
G54D18*
X-52000Y82500D03*
Y91500D03*
X-23000Y-34500D03*
Y-43500D03*
Y-7500D03*
Y-16500D03*
X-12500Y82500D03*
Y91500D03*
X24000Y-76500D03*
Y-67500D03*
X21000Y-34500D03*
Y-43500D03*
Y-7500D03*
Y-16500D03*
X17500Y53500D03*
X25000Y82500D03*
X17500Y62500D03*
X25000Y91500D03*
X47000Y53500D03*
Y62500D03*
X65000Y-76500D03*
Y-67500D03*
X64000Y82500D03*
Y91500D03*
G54D19*
X-32966Y82700D03*
X-37466D03*
Y87700D03*
X-32966D03*
X5467Y82700D03*
X967D03*
Y87700D03*
X5467D03*
X39400Y82700D03*
X43900D03*
Y87700D03*
X39400D03*
X75900Y81600D03*
X80900D03*
Y86600D03*
X75900D03*
M02*
