G04 ================== begin FILE IDENTIFICATION RECORD ==================*
G04 Layout Name:  GALVO_CTRL.brd*
G04 Film Name:    LAYER5*
G04 File Format:  Gerber RS274X*
G04 File Origin:  Cadence Allegro 16.6-P004*
G04 Origin Date:  Tue Aug 01 21:47:15 2017*
G04 *
G04 Layer:  ETCH/LAYER5*
G04 Layer:  PIN/LAYER5*
G04 Layer:  VIA CLASS/LAYER5*
G04 *
G04 Offset:    (0.000 0.000)*
G04 Mirror:    No*
G04 Mode:      Positive*
G04 Rotation:  0*
G04 FullContactRelief:  No*
G04 UndefLineWidth:     0.000*
G04 ================== end FILE IDENTIFICATION RECORD ====================*
%FSLAX25Y25*MOIN*%
%IR0*IPPOS*OFA0.00000B0.00000*MIA0B0*SFA1.00000B1.00000*%
%ADD10C,.118*%
%ADD14C,.04*%
%ADD12C,.06*%
%ADD11C,.024*%
%ADD16C,.055*%
%ADD15C,.028*%
%ADD13R,.06X.06*%
%ADD17C,.02*%
%ADD18C,.03*%
%ADD19C,.015*%
%ADD20C,.08*%
%ADD25C,.144004*%
%ADD24C,.062004*%
%ADD23C,.046004*%
%ADD21C,.086004*%
%ADD22R,.086004X.086004*%
G75*
%LPD*%
G75*
G36*
G01X-79000Y-34500D02*
Y19000D01*
X-84878D01*
G03X-88035I-1578J-4000D01*
G01X-94878D01*
G03X-98035I-1579J-4000D01*
G01X-104000D01*
Y33000D01*
X-65000D01*
Y-4000D01*
X-61578D01*
G03X-58422I1579J4000D01*
G01X-51578D01*
G03X-48422I1578J4000D01*
G01X-42000D01*
Y-34500D01*
X-47702D01*
G02X-47897Y-33751I0J400D01*
G03X-52103I-2103J3751D01*
G02X-52298Y-34500I-196J-349D01*
G01X-57702D01*
G02X-57897Y-33751I0J400D01*
G03X-62103I-2103J3751D01*
G02X-62298Y-34500I-196J-349D01*
G01X-79000D01*
G37*
G36*
G01X-25923Y-66000D02*
Y-53543D01*
G03Y-49857I-1377J1843D01*
G01Y-19976D01*
X-12200D01*
G02X-11912Y-20653I0J-400D01*
G03X-8041Y-21616I1659J-1594D01*
G02X-7662Y-21107I385J110D01*
G03X-7465Y-21096I-32J2300D01*
G02X-7260Y-21371I20J-199D01*
G03X-2921Y-21616I2127J-876D01*
G02X-2542Y-21107I385J110D01*
G03X-2346Y-21096I-32J2300D01*
G02X-2141Y-21371I20J-199D01*
G03X2198Y-21616I2127J-876D01*
G02X2577Y-21107I385J110D01*
G03X4527Y-19976I-31J2300D01*
G01X5718D01*
G02X6007Y-20653I0J-400D01*
G03X9324I1659J-1594D01*
G02X9613Y-19976I288J277D01*
G01X23899D01*
G02X24254Y-20562I0J-400D01*
G03X29746I2746J-1438D01*
G02X30101Y-19976I354J186D01*
G01X33865D01*
G02X34229Y-20543I0J-400D01*
G03X38412I2092J-957D01*
G02X38775Y-19976I364J167D01*
G01X59000D01*
Y3692D01*
G02X59548Y4063I400J0D01*
G03X62690Y6420I852J2137D01*
G02X63223Y6835I398J38D01*
G03X61710Y8780I777J2165D01*
G02X61177Y8365I-398J-38D01*
G03X58685Y4667I-777J-2165D01*
G02X58387Y4000I-298J-267D01*
G01X20137D01*
G03X17342Y5235I-2093J-955D01*
G02X17098Y5343I-61J190D01*
G03X12700Y4400I-2098J-943D01*
G02X12300Y4000I-400J0D01*
G01X-2100D01*
G02X-2500Y4400I0J400D01*
G03X-7100I-2300J0D01*
G02X-7500Y4000I-400J0D01*
G01X-15000D01*
Y29836D01*
X-2588D01*
G03X533Y29785I1588J1664D01*
G01X590Y29836D01*
X1148D01*
G03X2432Y28971I1852J1364D01*
G02X2620Y28304I-99J-388D01*
G03X4163Y24402I1648J-1604D01*
G02X4543Y23958I-18J-400D01*
G03X9082Y24162I2286J-258D01*
G02X9286Y24402I196J40D01*
G03X9490I102J2298D01*
G02X9695Y24162I9J-200D01*
G03X14202I2253J-462D01*
G02X14406Y24402I196J40D01*
G03X14610I102J2298D01*
G02X14815Y24162I9J-200D01*
G03X19322I2253J-462D01*
G02X19526Y24402I196J40D01*
G03X19730I102J2298D01*
G02X19935Y24162I9J-200D01*
G03X24302Y22793I2253J-462D01*
G02X25015Y22838I368J-158D01*
G03X24886Y24907I1985J1162D01*
G02X24173Y24862I-368J158D01*
G03X22293Y25998I-1985J-1162D01*
G02X21914Y26442I18J400D01*
G03X17375Y26238I-2286J258D01*
G02X17170Y25998I-196J-40D01*
G03X16966I-102J-2298D01*
G02X16761Y26238I-9J200D01*
G03X12255I-2253J462D01*
G02X12050Y25998I-196J-40D01*
G03X11846I-102J-2298D01*
G02X11641Y26238I-9J200D01*
G03X7135I-2253J462D01*
G02X6930Y25998I-196J-40D01*
G03X6726I-102J-2298D01*
G02X6521Y26238I-9J200D01*
G03X4836Y28929I-2253J462D01*
G02X4648Y29596I99J388D01*
G03X4852Y29836I-1649J1604D01*
G01X48732D01*
G02X49038Y29178I0J-400D01*
G03X48807Y28849I1762J-1478D01*
G02X48263Y28701I-347J200D01*
G03X44875Y26238I-1135J-2001D01*
G02X44670Y25998I-196J-40D01*
G03X44466I-102J-2298D01*
G02X44261Y26238I-9J200D01*
G03X39755I-2253J462D01*
G02X39550Y25998I-196J-40D01*
G03X39346I-102J-2298D01*
G02X39141Y26238I-9J200D01*
G03X34635I-2253J462D01*
G02X34430Y25998I-196J-40D01*
G03X34226I-102J-2298D01*
G02X34021Y26238I-9J200D01*
G03X31663Y24402I-2253J462D01*
G02X32043Y23958I-18J-400D01*
G03X36582Y24162I2286J-258D01*
G02X36786Y24402I196J40D01*
G03X36990I102J2298D01*
G02X37195Y24162I9J-200D01*
G03X41702I2253J-462D01*
G02X41906Y24402I196J40D01*
G03X42110I102J2298D01*
G02X42315Y24162I9J-200D01*
G03X46822I2253J-462D01*
G02X47026Y24402I196J40D01*
G03X47230I102J2298D01*
G02X47435Y24162I9J-200D01*
G03X51579Y25010I2253J-462D01*
G02X51744Y25602I329J228D01*
G03X52382Y29370I-944J2098D01*
G02X52398Y29674I138J145D01*
G03X52588Y29836I-1398J1827D01*
G01X58286D01*
G02X58510Y29104I0J-400D01*
G03X61090I1290J-1904D01*
G02X61314Y29836I224J331D01*
G01X72300D01*
G02X72700Y29430I0J-400D01*
G03X74030Y27314I2300J-30D01*
G02X74138Y26662I-169J-363D01*
G03X76698Y27086I1590J-1662D01*
G02X76590Y27738I169J363D01*
G03X77300Y29430I-1590J1662D01*
G02X77700Y29836I400J5D01*
G01X92000D01*
Y66000D01*
X71117D01*
G03X66883I-2117J-900D01*
G01X59840D01*
G02X59504Y66617I0J400D01*
G03X55571Y71101I-2604J1683D01*
G02X55000Y71462I-171J361D01*
G01Y92264D01*
G03Y94536I-2000J1136D01*
G01Y97805D01*
X55128Y97854D01*
G03Y102146I-828J2146D01*
G01X55000Y102195D01*
Y103000D01*
X113041D01*
Y28592D01*
G02X112356Y28311I-400J0D01*
G03Y23689I-2356J-2311D01*
G02X113041Y23408I286J-280D01*
G01Y19592D01*
G02X112356Y19311I-400J0D01*
G03Y14689I-2356J-2311D01*
G02X113041Y14409I286J-280D01*
G01Y10592D01*
G02X112356Y10311I-400J0D01*
G03Y5689I-2356J-2311D01*
G02X113041Y5408I286J-280D01*
G01Y-66000D01*
X58744D01*
G03X55256I-1744J-1500D01*
G01X43518D01*
G03X39722I-1898J-1300D01*
G01X37608D01*
G03X33812I-1898J-1300D01*
G01X31698D01*
G03X27902I-1898J-1300D01*
G01X-25923D01*
G37*
%LPC*%
G75*
G36*
G01X95074Y84292D02*
G03Y83708I274J-292D01*
G02X91926I-1575J-1677D01*
G03Y84292I-274J292D01*
G02X95074I1575J1677D01*
G37*
G36*
G01X93376Y-8000D02*
X89537D01*
G02Y-2000I-3081J3000D01*
G01X93376D01*
G02Y-8000I3081J-3000D01*
G37*
G36*
G01X90757Y-28000D02*
Y-29300D01*
X82157D01*
Y-20700D01*
X90757D01*
Y-22000D01*
X93376D01*
G02Y-28000I3081J-3000D01*
G01X90757D01*
G37*
G36*
G01X77247Y-46291D02*
G03X77683Y-46774I391J-85D01*
G02X75693Y-48569I257J-2286D01*
G03X75257Y-48086I-391J85D01*
G02X77247Y-46291I-257J2286D01*
G37*
G36*
G01X56482Y-56691D02*
G02X55091Y-57772I608J-2218D01*
G03X54638Y-57189I-348J198D01*
G02X54578Y-52736I-608J2218D01*
G03X55022Y-52152I95J388D01*
G02X56482Y-53264I2008J1122D01*
G03X56038Y-53848I-95J-388D01*
G02X56029Y-56108I-2008J-1122D01*
G03X56482Y-56691I348J-198D01*
G37*
G36*
G01X41380Y-63269D02*
G02Y-61531I-2130J869D01*
G03X42120I370J151D01*
G02Y-63269I2130J-869D01*
G03X41380I-370J-151D01*
G37*
G36*
G01X84D02*
G02Y-61531I-2130J869D01*
G03X825I370J151D01*
G02Y-63269I2130J-869D01*
G03X84I-370J-151D01*
G37*
G54D25*
X104331Y94488D03*
G54D24*
X64000Y75800D03*
X100900Y34900D03*
G54D23*
X-8750Y-49250D03*
X-8500Y21000D03*
X15800Y-43500D03*
X7600Y-46200D03*
X49300Y-49900D03*
X36260Y-38000D03*
X41380D03*
X46500D03*
X49000Y-43500D03*
X46500Y-22700D03*
X57900Y84000D03*
X57882Y89118D03*
X75000Y-62000D03*
X71000Y-40000D03*
X74500Y-15000D03*
X74400Y2800D03*
X87000Y69000D03*
X70626Y72574D03*
X87000Y94500D03*
X70626Y95374D03*
X90500Y-48400D03*
X106000Y-55800D03*
X106500Y-25200D03*
X90500Y78000D03*
Y90000D03*
G54D21*
X-96457Y25000D03*
X-60000Y-20000D03*
Y-10000D03*
X-50000Y-20000D03*
Y-10000D03*
X86457Y5000D03*
Y-15000D03*
Y25000D03*
Y15000D03*
X96457Y5000D03*
Y-15000D03*
Y25000D03*
Y15000D03*
G54D22*
X-86457Y25000D03*
%LPD*%
G75*
G54D10*
X-104331Y-94488D03*
Y94488D03*
X104331Y-94488D03*
Y94488D03*
G54D20*
G01X-36000Y-91000D02*
Y-101000D01*
X-88000D01*
Y-81000D01*
X-96000D01*
G01D02*
X-111000D01*
Y-56500D01*
G01D02*
Y56999D01*
X-93399D01*
G01X-35400Y-79000D02*
X-36000D01*
Y-91000D01*
G01X-9045Y-79000D02*
X-35400D01*
G01X-9045Y-62400D02*
Y-79000D01*
G54D11*
X-86000Y-66500D03*
X-96000Y-71500D03*
X-86000Y-56500D03*
X-96000Y-66500D03*
Y-61500D03*
X-86000Y-71500D03*
Y-36500D03*
X-96000Y-51500D03*
Y-41500D03*
Y-36500D03*
X-86000Y-46500D03*
Y-41500D03*
X-91500Y-20000D03*
X-75500Y-90000D03*
Y-85000D03*
X-72000Y-87500D03*
Y-82000D03*
X-66000Y-42000D03*
X-36000Y-91000D03*
X-35600Y-66000D03*
X-35400Y-72200D03*
Y-54200D03*
X-39000Y-44500D03*
X-32000Y-41000D03*
X-39000D03*
X-35400Y-19000D03*
X-35500Y-1000D03*
X-35400Y-12800D03*
X-35500Y5200D03*
X-45500Y100000D03*
X-14400Y-91500D03*
Y-96500D03*
X-19600Y-101500D03*
Y-86500D03*
X-14700D03*
X-19600Y-96500D03*
Y-91500D03*
X-9045Y-62400D03*
X-21500Y-71500D03*
X-2045Y-62400D03*
X-27300Y-51700D03*
X-8750Y-49250D03*
X-5134Y-22247D03*
X-10253D03*
X-7693Y-18807D03*
X-14Y-22247D03*
X-2574Y-18807D03*
X-4800Y4400D03*
X-8500Y21000D03*
Y27200D03*
X-19400Y28100D03*
X-19272Y24500D03*
X-1000Y31500D03*
X-18966Y84000D03*
X-5000Y73500D03*
X-22500Y100000D03*
X-23866Y93400D03*
X-18984Y89118D03*
X-6500Y100000D03*
X10165Y-83835D03*
X24000Y-81500D03*
X2955Y-62400D03*
X15800Y-43500D03*
X7600Y-46200D03*
X7400Y-40000D03*
X15700Y-16500D03*
X12787Y-13300D03*
X12000Y-22500D03*
X7666Y-22247D03*
X2546Y-18807D03*
X15000Y4400D03*
X18045Y3045D03*
X4268Y26700D03*
X12200Y1000D03*
X11400Y4400D03*
X17068Y23700D03*
X22188D03*
X14508Y26700D03*
X19628D03*
X11948Y23700D03*
X9388Y26700D03*
X6828Y23700D03*
X27000Y24000D03*
X3000Y31200D03*
X23500Y33200D03*
X14508Y34500D03*
X1000Y44000D03*
X19628Y33500D03*
X19467Y84000D03*
X25000Y64300D03*
X2500D03*
X16300Y100000D03*
X14567Y93400D03*
X19449Y89118D03*
X25000Y98400D03*
X40000Y-85000D03*
X57000D03*
X46200D03*
X29000D03*
X57000Y-67500D03*
X57090Y-58910D03*
X41620Y-67300D03*
X35710D03*
X34250Y-62400D03*
X29800Y-67300D03*
X44250Y-62400D03*
X39250D03*
X57030Y-51030D03*
X54030Y-54970D03*
X49300Y-49900D03*
X52000Y-41000D03*
X44000Y-50000D03*
X49000Y-43500D03*
X41380Y-38000D03*
X46500D03*
X36260D03*
X33000Y-17000D03*
X36320Y-21500D03*
X46500Y-22700D03*
X41293Y-17500D03*
X31768Y26700D03*
X50800Y27700D03*
X57000Y4000D03*
X44568Y23700D03*
X49688D03*
X42008Y26700D03*
X47128D03*
X39448Y23700D03*
X36888Y26700D03*
X34328Y23700D03*
X40600Y800D03*
X31000Y33200D03*
X42008Y34400D03*
X51000Y31500D03*
X48500Y93400D03*
X53000D03*
X54300Y100000D03*
X31500D03*
X63200Y-85000D03*
X75000Y-62000D03*
X65000Y-82000D03*
X76600Y-74000D03*
X75000Y-45800D03*
Y-52000D03*
X71000Y-40000D03*
X77940Y-49060D03*
X74500Y-15000D03*
X60400Y6200D03*
X74400Y2800D03*
Y9000D03*
X59800Y27200D03*
X64000Y9000D03*
X75728Y25000D03*
X75000Y29400D03*
X79900Y32500D03*
X57900Y84000D03*
X71500Y69000D03*
X69000Y65100D03*
X70626Y72574D03*
X64000Y98200D03*
X68000Y100000D03*
X57882Y89118D03*
X70626Y95374D03*
X90000Y-95200D03*
X106000Y-78000D03*
Y-71800D03*
X90500Y-69600D03*
X95500D03*
X106000Y-55800D03*
X99500Y-35500D03*
X87000Y-35200D03*
X90500Y-48400D03*
X106500Y-25200D03*
X93500Y85968D03*
X109500Y76000D03*
X90500Y78000D03*
X93500Y82032D03*
X87000Y69000D03*
X90500Y90000D03*
X87000Y94500D03*
G54D12*
G01X-96457Y25000D02*
X-86457D01*
G01D02*
X-81957D01*
G01X-64500Y-30000D02*
X-70000D01*
G01X-60000D02*
X-64500D01*
G01Y-10000D02*
X-68000D01*
G01X-60000D02*
X-64500D01*
G01Y-20000D02*
X-68500D01*
G01X-60000D02*
X-64500D01*
G01X-81957Y25000D02*
X-78000D01*
X-96457Y-25000D03*
X-86457D03*
X-96457Y-15000D03*
X-86457D03*
X-96457Y-5000D03*
X-86457D03*
X-96457Y5000D03*
X-86457D03*
X-96457Y15000D03*
X-86457D03*
X-96457Y25000D03*
X-60000Y-80000D03*
Y-70000D03*
Y-60000D03*
Y-50000D03*
Y-40000D03*
Y-30000D03*
Y-20000D03*
Y-10000D03*
Y0D03*
Y10000D03*
Y20000D03*
Y30000D03*
Y40000D03*
Y50000D03*
X-66500Y87500D03*
X-76500D03*
X-60000Y60000D03*
X-66500Y99000D03*
X-76500D03*
X-50000Y-80000D03*
Y-70000D03*
Y-60000D03*
Y-50000D03*
Y-40000D03*
Y-30000D03*
Y-20000D03*
Y-10000D03*
Y0D03*
Y10000D03*
Y20000D03*
Y30000D03*
Y40000D03*
Y50000D03*
X86457Y-5000D03*
Y-15000D03*
Y25000D03*
Y15000D03*
Y5000D03*
X96457Y-5000D03*
Y-15000D03*
Y-25000D03*
Y25000D03*
Y15000D03*
Y5000D03*
G54D13*
X-86457Y25000D03*
X-86500Y87500D03*
Y99000D03*
X-50000Y60000D03*
X86457Y-25000D03*
G54D14*
G01X-96457Y15000D02*
X-86457D01*
G01X-96457Y5000D02*
X-86457D01*
G01X-93399Y41599D02*
X-79000D01*
G01X-60000Y-30000D02*
X-50000D01*
G01X-60000Y-10000D02*
X-50000D01*
G01X-60000Y-20000D02*
X-50000D01*
G01X-60000Y0D02*
X-50000D01*
G01X-60000Y10000D02*
X-50000D01*
G01X-60000Y20000D02*
X-50000D01*
G01X-60000Y50000D02*
X-50000D01*
G01X-60000Y40000D02*
X-50000D01*
G01X-60000Y30000D02*
X-50000D01*
G01X-60000Y60000D02*
X-50000D01*
G01X86457Y-5000D02*
X96457D01*
G01Y-25000D02*
X86457D01*
X-93399Y56999D03*
Y41599D03*
Y72399D03*
X-69000Y41599D03*
X-60000Y78000D03*
Y70000D03*
X-69000Y72399D03*
X-50000Y70000D03*
X-31100Y68300D03*
X-54500Y100500D03*
X-22500Y10500D03*
X-9100Y35100D03*
X-12400Y68300D03*
X-12500Y98500D03*
X27000Y-22000D03*
X25000Y75600D03*
X34900Y68300D03*
X56900D03*
X41900D03*
X64000Y75800D03*
X110000Y8000D03*
Y26000D03*
Y17000D03*
X100900Y34900D03*
G54D15*
X-32966Y82700D03*
X-37466D03*
Y87700D03*
X-32966D03*
X5467Y82700D03*
X967D03*
Y87700D03*
X5467D03*
X39400Y82700D03*
X43900D03*
Y87700D03*
X39400D03*
X75900Y81600D03*
X80900D03*
Y86600D03*
X75900D03*
G54D16*
X20750Y-99000D03*
X30750D03*
X40750D03*
X50750D03*
X60750D03*
X70750D03*
G54D17*
G01X-96000Y-71500D02*
Y-81000D01*
G01X-86000Y-56500D02*
X-111000D01*
G01X-86457Y20500D02*
Y25000D01*
G01D02*
Y29500D01*
G01X-96457Y20500D02*
Y25000D01*
G01D02*
Y29500D01*
G01X-100957Y25000D02*
X-96457D01*
G01X-66000Y-42000D02*
Y-56500D01*
X-86000D01*
G01X-60000Y-30000D02*
Y-25500D01*
G01Y-14500D02*
Y-10000D01*
G01D02*
Y-5500D01*
G01Y-24500D02*
Y-20000D01*
G01D02*
Y-15500D01*
G01X-35400Y-72200D02*
Y-79000D01*
G01X-24000Y-58000D02*
X-35400D01*
Y-54200D01*
G01X-50000Y-30000D02*
Y-25500D01*
G01Y-30000D02*
X-45500D01*
G01X-21000Y-23000D02*
Y-12800D01*
X-35400D01*
G01X-50000Y-14500D02*
Y-10000D01*
G01D02*
Y-5500D01*
G01Y-10000D02*
X-45500D01*
G01X-50000Y-24500D02*
Y-20000D01*
G01D02*
Y-15500D01*
G01Y-20000D02*
X-45500D01*
G01X-35500Y5200D02*
X-12000D01*
G01X20750Y-99000D02*
X-9045D01*
Y-79000D01*
G01X21000Y-22000D02*
Y-17000D01*
X33000D01*
G01X50000Y-62000D02*
Y-85000D01*
X46200D01*
G01X83000Y-64000D02*
Y-95200D01*
X90000D01*
G01X61000Y-64000D02*
Y-85000D01*
X63200D01*
G01X106000Y-71800D02*
Y-62000D01*
G54D18*
G01X-79000Y41599D02*
Y65500D01*
X-42500D01*
Y28100D01*
X-19400D01*
G01X-86500Y87500D02*
Y56999D01*
X-93399D01*
G01X-86500Y99000D02*
Y87500D01*
G54D19*
G01X3000Y31200D02*
X0Y28200D01*
M02*
