G04 ================== begin FILE IDENTIFICATION RECORD ==================*
G04 Layout Name:  GALVO_CTRL.brd*
G04 Film Name:    LAYER4*
G04 File Format:  Gerber RS274X*
G04 File Origin:  Cadence Allegro 16.6-P004*
G04 Origin Date:  Tue Aug 01 21:47:15 2017*
G04 *
G04 Layer:  ETCH/LAYER4*
G04 Layer:  PIN/LAYER4*
G04 Layer:  VIA CLASS/LAYER4*
G04 *
G04 Offset:    (0.000 0.000)*
G04 Mirror:    No*
G04 Mode:      Positive*
G04 Rotation:  0*
G04 FullContactRelief:  No*
G04 UndefLineWidth:     0.000*
G04 ================== end FILE IDENTIFICATION RECORD ====================*
%FSLAX25Y25*MOIN*%
%IR0*IPPOS*OFA0.00000B0.00000*MIA0B0*SFA1.00000B1.00000*%
%ADD10C,.118*%
%ADD14C,.04*%
%ADD12C,.06*%
%ADD11C,.024*%
%ADD16C,.055*%
%ADD15C,.028*%
%ADD13R,.06X.06*%
%ADD17C,.01*%
%ADD18C,.02*%
%ADD19C,.03*%
%ADD20C,.015*%
%ADD21C,.025*%
%ADD25C,.050004*%
%ADD23C,.066004*%
%ADD22C,.086004*%
%ADD24R,.086004X.086004*%
G75*
%LPD*%
G75*
G36*
G01X-56949Y33031D02*
X-57007Y33088D01*
G03X-62982Y33098I-2993J-3088D01*
G01X-63041Y33042D01*
X-63785Y33043D01*
Y32041D01*
X-63808Y31998D01*
G03X-63785Y27959I3808J-1998D01*
G01Y22041D01*
G03Y17959I3785J-2041D01*
G01Y12041D01*
G03Y7959I3785J-2041D01*
G01Y2041D01*
G03X-64300Y-62I3785J-2041D01*
G02X-64698Y-468I-400J-6D01*
G01X-78000Y-536D01*
Y-10967D01*
X-84964D01*
G03X-87950I-1493J-4033D01*
G01X-94964D01*
G03X-97950I-1493J-4033D01*
G01X-104000D01*
Y11000D01*
X-98035D01*
G03X-94878I1578J4000D01*
G01X-88035D01*
G03X-84878I1579J4000D01*
G01X-79000D01*
Y65000D01*
X-36898D01*
Y32996D01*
X-46932Y33014D01*
X-46990Y33071D01*
G03X-53000Y33081I-3010J-3071D01*
G01X-53058Y33024D01*
X-56949Y33031D01*
G37*
G36*
G01X-68500Y-34501D02*
Y-4332D01*
X-28356D01*
Y-34501D01*
X-47704D01*
G02X-47899Y-33752I0J400D01*
G03X-52101I-2101J3752D01*
G02X-52296Y-34501I-195J-349D01*
G01X-57704D01*
G02X-57899Y-33752I0J400D01*
G03X-62101I-2101J3752D01*
G02X-62296Y-34501I-195J-349D01*
G01X-68500D01*
G37*
G36*
G01X74000Y-26000D02*
Y-32868D01*
X-32000D01*
Y-26000D01*
X74000D01*
G37*
G36*
G01X68000Y-33545D02*
Y-11000D01*
X83435D01*
G02X83692Y-11706I0J-400D01*
G03X89221I2765J-3294D01*
G02X89479Y-11000I257J306D01*
G01X93435D01*
G02X93692Y-11706I0J-400D01*
G03X99221I2765J-3294D01*
G02X99479Y-11000I257J306D01*
G01X103000D01*
Y-33545D01*
X101058D01*
G03X97942I-1558J-1955D01*
G01X88874D01*
G03X85126I-1874J-1655D01*
G01X68000D01*
G37*
%LPC*%
G75*
G54D25*
X-35400Y-19000D03*
Y-12800D03*
X74500Y-15000D03*
G54D23*
X-69000Y41599D03*
G54D22*
X-96457Y-5000D03*
X-86457D03*
X-96457Y5000D03*
X-86457D03*
X-60000Y40000D03*
Y50000D03*
Y60000D03*
X-50000Y40000D03*
Y50000D03*
X-60000Y-20000D03*
Y-10000D03*
X-50000Y-20000D03*
Y-10000D03*
X96457Y-25000D03*
G54D24*
X-50000Y60000D03*
X86457Y-25000D03*
%LPD*%
G75*
G54D10*
X-104331Y-94488D03*
Y94488D03*
X104331Y-94488D03*
Y94488D03*
G54D20*
G01X-12500Y98500D02*
X-14500Y96500D01*
X-50500D01*
X-54500Y100500D01*
G01X-8750Y-49250D02*
X-7500Y-50500D01*
X29800D01*
G01X-1000Y31500D02*
X-1500Y31000D01*
X-12272D01*
Y24500D01*
X-19272D01*
G01X-1000Y31500D02*
Y19500D01*
X75728D01*
Y25000D01*
G01X19628Y33500D02*
Y44000D01*
X1000D01*
G01X19467Y84000D02*
X10000D01*
G01X16300Y100000D02*
X10000D01*
G01X14567Y93400D02*
X10000D01*
G54D11*
X-86000Y-66500D03*
X-96000Y-71500D03*
X-86000Y-56500D03*
X-96000Y-66500D03*
Y-61500D03*
X-86000Y-71500D03*
Y-36500D03*
X-96000Y-51500D03*
Y-41500D03*
Y-36500D03*
X-86000Y-46500D03*
Y-41500D03*
X-91500Y-20000D03*
X-75500Y-90000D03*
Y-85000D03*
X-72000Y-87500D03*
Y-82000D03*
X-66000Y-42000D03*
X-36000Y-91000D03*
X-35600Y-66000D03*
X-35400Y-72200D03*
Y-54200D03*
X-39000Y-44500D03*
X-32000Y-41000D03*
X-39000D03*
X-35400Y-19000D03*
X-35500Y-1000D03*
X-35400Y-12800D03*
X-35500Y5200D03*
X-45500Y100000D03*
X-14400Y-91500D03*
Y-96500D03*
X-19600Y-101500D03*
Y-86500D03*
X-14700D03*
X-19600Y-96500D03*
Y-91500D03*
X-9045Y-62400D03*
X-21500Y-71500D03*
X-2045Y-62400D03*
X-27300Y-51700D03*
X-8750Y-49250D03*
X-5134Y-22247D03*
X-10253D03*
X-7693Y-18807D03*
X-14Y-22247D03*
X-2574Y-18807D03*
X-4800Y4400D03*
X-8500Y21000D03*
Y27200D03*
X-19400Y28100D03*
X-19272Y24500D03*
X-1000Y31500D03*
X-18966Y84000D03*
X-5000Y73500D03*
X-22500Y100000D03*
X-23866Y93400D03*
X-18984Y89118D03*
X-6500Y100000D03*
X10165Y-83835D03*
X24000Y-81500D03*
X2955Y-62400D03*
X15800Y-43500D03*
X7600Y-46200D03*
X7400Y-40000D03*
X15700Y-16500D03*
X12787Y-13300D03*
X12000Y-22500D03*
X7666Y-22247D03*
X2546Y-18807D03*
X15000Y4400D03*
X18045Y3045D03*
X4268Y26700D03*
X12200Y1000D03*
X11400Y4400D03*
X17068Y23700D03*
X22188D03*
X14508Y26700D03*
X19628D03*
X11948Y23700D03*
X9388Y26700D03*
X6828Y23700D03*
X27000Y24000D03*
X3000Y31200D03*
X23500Y33200D03*
X14508Y34500D03*
X1000Y44000D03*
X19628Y33500D03*
X19467Y84000D03*
X25000Y64300D03*
X2500D03*
X16300Y100000D03*
X14567Y93400D03*
X19449Y89118D03*
X25000Y98400D03*
X40000Y-85000D03*
X57000D03*
X46200D03*
X29000D03*
X57000Y-67500D03*
X57090Y-58910D03*
X41620Y-67300D03*
X35710D03*
X34250Y-62400D03*
X29800Y-67300D03*
X44250Y-62400D03*
X39250D03*
X57030Y-51030D03*
X54030Y-54970D03*
X49300Y-49900D03*
X52000Y-41000D03*
X44000Y-50000D03*
X49000Y-43500D03*
X41380Y-38000D03*
X46500D03*
X36260D03*
X33000Y-17000D03*
X36320Y-21500D03*
X46500Y-22700D03*
X41293Y-17500D03*
X31768Y26700D03*
X50800Y27700D03*
X57000Y4000D03*
X44568Y23700D03*
X49688D03*
X42008Y26700D03*
X47128D03*
X39448Y23700D03*
X36888Y26700D03*
X34328Y23700D03*
X40600Y800D03*
X31000Y33200D03*
X42008Y34400D03*
X51000Y31500D03*
X48500Y93400D03*
X53000D03*
X54300Y100000D03*
X31500D03*
X63200Y-85000D03*
X75000Y-62000D03*
X65000Y-82000D03*
X76600Y-74000D03*
X75000Y-45800D03*
Y-52000D03*
X71000Y-40000D03*
X77940Y-49060D03*
X74500Y-15000D03*
X60400Y6200D03*
X74400Y2800D03*
Y9000D03*
X59800Y27200D03*
X64000Y9000D03*
X75728Y25000D03*
X75000Y29400D03*
X79900Y32500D03*
X57900Y84000D03*
X71500Y69000D03*
X69000Y65100D03*
X70626Y72574D03*
X64000Y98200D03*
X68000Y100000D03*
X57882Y89118D03*
X70626Y95374D03*
X90000Y-95200D03*
X106000Y-78000D03*
Y-71800D03*
X90500Y-69600D03*
X95500D03*
X106000Y-55800D03*
X99500Y-35500D03*
X87000Y-35200D03*
X90500Y-48400D03*
X106500Y-25200D03*
X93500Y85968D03*
X109500Y76000D03*
X90500Y78000D03*
X93500Y82032D03*
X87000Y69000D03*
X90500Y90000D03*
X87000Y94500D03*
G54D21*
G01X-86457Y500D02*
Y5000D01*
G01D02*
Y9500D01*
G01X-96457Y500D02*
Y5000D01*
G01D02*
Y9500D01*
G01X-100957Y5000D02*
X-96457D01*
G01X-60000Y-30000D02*
Y-25500D01*
G01X-64500Y-30000D02*
X-60000D01*
G01Y-14500D02*
Y-10000D01*
G01D02*
Y-5500D01*
G01X-64500Y-10000D02*
X-60000D01*
G01Y-24500D02*
Y-20000D01*
G01D02*
Y-15500D01*
G01X-64500Y-20000D02*
X-60000D01*
G01Y55500D02*
Y60000D01*
G01Y45500D02*
Y50000D01*
G01D02*
Y54500D01*
G01X-64500Y50000D02*
X-60000D01*
G01D02*
X-55500D01*
G01X-60000Y35500D02*
Y40000D01*
G01D02*
Y44500D01*
G01X-64500Y40000D02*
X-60000D01*
G01D02*
X-55500D01*
G01X-60000Y60000D02*
Y64500D01*
G01X-64500Y60000D02*
X-60000D01*
G01D02*
X-55500D01*
G01X-50000Y-14500D02*
Y-10000D01*
G01D02*
Y-5500D01*
G01Y-24500D02*
Y-20000D01*
G01D02*
Y-15500D01*
G01Y55500D02*
Y60000D01*
G01Y45500D02*
Y50000D01*
G01D02*
Y54500D01*
G01X-54500Y50000D02*
X-50000D01*
G01D02*
X-45500D01*
G01X-50000Y35500D02*
Y40000D01*
G01D02*
Y44500D01*
G01X-54500Y40000D02*
X-50000D01*
G01D02*
X-45500D01*
G01X-50000Y60000D02*
Y64500D01*
G01X-54500Y60000D02*
X-50000D01*
G01X96457Y-29500D02*
Y-25000D01*
G01X86457Y-29500D02*
Y-25000D01*
G01X96457D02*
Y-20500D01*
G01Y-25000D02*
X100957D01*
G01X86457D02*
Y-20500D01*
G54D12*
G01X-90957Y5000D02*
X-86457D01*
G01X-91957D02*
X-90957D01*
G01X-96457D02*
X-91957D01*
G01X-86457D02*
X-81957D01*
G01X-50000Y-30000D02*
X-60000D01*
G01X-50000Y-10000D02*
X-60000D01*
G01X-50000Y-20000D02*
X-60000D01*
G01X-81957Y5000D02*
X-78000D01*
G01X-42000Y-30000D02*
X-50000D01*
G01X-42500Y-20000D02*
X-50000D01*
G01X-43000Y-10000D02*
X-50000D01*
G01X-41000Y38000D02*
Y19000D01*
X-17000Y-5000D01*
X86457D01*
G01X96457D02*
X86457D01*
G01X81957Y-25000D02*
X77000D01*
G01X86457D02*
X81957D01*
G01X96457D02*
X86457D01*
X-96457D03*
X-86457D03*
X-96457Y-15000D03*
X-86457D03*
X-96457Y-5000D03*
X-86457D03*
X-96457Y5000D03*
X-86457D03*
X-96457Y15000D03*
X-86457D03*
X-96457Y25000D03*
X-60000Y-80000D03*
Y-70000D03*
Y-60000D03*
Y-50000D03*
Y-40000D03*
Y-30000D03*
Y-20000D03*
Y-10000D03*
Y0D03*
Y10000D03*
Y20000D03*
Y30000D03*
Y40000D03*
Y50000D03*
X-66500Y87500D03*
X-76500D03*
X-60000Y60000D03*
X-66500Y99000D03*
X-76500D03*
X-50000Y-80000D03*
Y-70000D03*
Y-60000D03*
Y-50000D03*
Y-40000D03*
Y-30000D03*
Y-20000D03*
Y-10000D03*
Y0D03*
Y10000D03*
Y20000D03*
Y30000D03*
Y40000D03*
Y50000D03*
X86457Y-5000D03*
Y-15000D03*
Y25000D03*
Y15000D03*
Y5000D03*
X96457Y-5000D03*
Y-15000D03*
Y-25000D03*
Y25000D03*
Y15000D03*
Y5000D03*
G54D13*
X-86457Y25000D03*
X-86500Y87500D03*
Y99000D03*
X-50000Y60000D03*
X86457Y-25000D03*
G54D14*
G01X-60000Y78000D02*
X-31100D01*
Y68300D01*
G01X10000Y84000D02*
Y60000D01*
X-50000D01*
G01X64000Y15000D02*
X-18000D01*
X-22500Y10500D01*
G01X25000Y75600D02*
X56900D01*
Y68300D01*
G01X10000Y93400D02*
Y84000D01*
G01Y100000D02*
Y93400D01*
G01X64000Y9000D02*
Y15000D01*
G01D02*
X86457D01*
G01X100900Y34900D02*
Y58900D01*
X64000D01*
Y75800D01*
X-93399Y56999D03*
Y41599D03*
Y72399D03*
X-69000Y41599D03*
X-60000Y78000D03*
Y70000D03*
X-69000Y72399D03*
X-50000Y70000D03*
X-31100Y68300D03*
X-54500Y100500D03*
X-22500Y10500D03*
X-9100Y35100D03*
X-12400Y68300D03*
X-12500Y98500D03*
X27000Y-22000D03*
X25000Y75600D03*
X34900Y68300D03*
X56900D03*
X41900D03*
X64000Y75800D03*
X110000Y8000D03*
Y26000D03*
Y17000D03*
X100900Y34900D03*
G54D15*
X-32966Y82700D03*
X-37466D03*
Y87700D03*
X-32966D03*
X5467Y82700D03*
X967D03*
Y87700D03*
X5467D03*
X39400Y82700D03*
X43900D03*
Y87700D03*
X39400D03*
X75900Y81600D03*
X80900D03*
Y86600D03*
X75900D03*
G54D16*
X20750Y-99000D03*
X30750D03*
X40750D03*
X50750D03*
X60750D03*
X70750D03*
G54D17*
G01X-75500Y-90000D02*
X-93500D01*
X-109500Y-74000D01*
Y35300D01*
X-104000Y40800D01*
Y72700D01*
X-96850Y79850D01*
X-84150D01*
X-76500Y87500D01*
G01X-72000Y-87500D02*
X-92500D01*
X-107500Y-72500D01*
Y33900D01*
X-101600Y39800D01*
Y72300D01*
X-96500Y77400D01*
X-76600D01*
X-66500Y87500D01*
G01X-96000Y-41500D02*
X-87000Y-50500D01*
X-76500D01*
X-62000Y-65000D01*
X-57500D01*
X-52500Y-70000D01*
X-50000D01*
G01X-60000D02*
X-77500Y-52500D01*
X-89000D01*
X-98500Y-43000D01*
Y-39000D01*
X-96000Y-36500D01*
G01X-39000Y-44500D02*
X-13500D01*
X-8750Y-49250D01*
G01X3000Y31200D02*
X4200Y30000D01*
X27800D01*
X31000Y33200D01*
G01X57030Y-51030D02*
X53470D01*
X50000Y-54500D01*
Y-89750D01*
X40750Y-99000D01*
G01X50750D02*
X52500Y-97250D01*
Y-63500D01*
X57090Y-58910D01*
G01X60750Y-99000D02*
X68500Y-91250D01*
Y-65500D01*
X57970Y-54970D01*
X54030D01*
G01X40600Y800D02*
X64300D01*
X69500Y6000D01*
X78300D01*
X82300Y10000D01*
X108000D01*
X110000Y8000D01*
G01X70750Y-99000D02*
Y-61250D01*
X77940Y-54060D01*
Y-49060D01*
G54D18*
G01X29800Y-67300D02*
Y-50500D01*
G01D02*
Y-46700D01*
X71000D01*
Y-40000D01*
G54D19*
G01D02*
X110000D01*
Y8000D01*
M02*
