G04 ================== begin FILE IDENTIFICATION RECORD ==================*
G04 Layout Name:  GALVO_CTRL.brd*
G04 Film Name:    SMB*
G04 File Format:  Gerber RS274X*
G04 File Origin:  Cadence Allegro 16.6-P004*
G04 Origin Date:  Tue Aug 01 21:47:15 2017*
G04 *
G04 Layer:  VIA CLASS/SOLDERMASK_BOTTOM*
G04 Layer:  PIN/SOLDERMASK_BOTTOM*
G04 *
G04 Offset:    (0.000 0.000)*
G04 Mirror:    No*
G04 Mode:      Positive*
G04 Rotation:  0*
G04 FullContactRelief:  No*
G04 UndefLineWidth:     0.000*
G04 ================== end FILE IDENTIFICATION RECORD ====================*
%FSLAX25Y25*MOIN*%
%IR0*IPPOS*OFA0.00000B0.00000*MIA0B0*SFA1.00000B1.00000*%
%ADD10C,.128*%
%ADD11R,.04X.05*%
%ADD22R,.05X.04*%
%ADD18R,.03X.08*%
%ADD19R,.06X.07*%
%ADD20R,.07X.06*%
%ADD21R,.018X.075*%
%ADD16C,.07*%
%ADD13C,.08*%
%ADD12C,.044*%
%ADD17C,.065*%
%ADD15C,.038*%
%ADD23C,.075*%
%ADD14R,.07X.07*%
%ADD24R,.075X.075*%
%LPD*%
G75*
G54D10*
X-104331Y-94488D03*
Y94488D03*
X104331Y-94488D03*
Y94488D03*
G54D20*
X-38500Y100000D03*
X-29500D03*
X500D03*
X9500D03*
X38500D03*
X47500D03*
X74500D03*
X83500D03*
X106500Y69000D03*
X97500D03*
G54D11*
X-102000Y-67200D03*
Y-61000D03*
Y-35800D03*
Y-42000D03*
X-80000Y-72200D03*
Y-66000D03*
Y-40800D03*
Y-47000D03*
X-70000Y-42200D03*
Y-36000D03*
Y-23200D03*
Y-17000D03*
X-77000D03*
Y-23200D03*
Y54500D03*
X-69500D03*
X-77000Y60700D03*
X-69500D03*
X-28000Y-97200D03*
Y-91000D03*
X-39000Y-97200D03*
Y-91000D03*
Y-72200D03*
Y-66000D03*
X-32000Y-72200D03*
Y-66000D03*
Y-30800D03*
Y-37000D03*
X-39000Y-30800D03*
Y-37000D03*
X-32000Y-54200D03*
Y-48000D03*
X-39000Y-54200D03*
Y-48000D03*
X-32000Y-12800D03*
Y-19000D03*
Y-1000D03*
X-39000D03*
Y-12800D03*
Y-19000D03*
X-32000Y5200D03*
X-39000D03*
X-40000Y54800D03*
X-33000D03*
X-40000Y61000D03*
X-33000D03*
X-44000Y81000D03*
Y87200D03*
X-3000Y-39800D03*
Y-46000D03*
X-13000Y-39800D03*
Y-46000D03*
X-26000Y55000D03*
X-4500Y54800D03*
X-19500Y55100D03*
X-26000Y61200D03*
X-24000Y80800D03*
X-5000D03*
X-4500Y61000D03*
X-19500Y61300D03*
X-24000Y87000D03*
X-5000D03*
X16000Y-77200D03*
Y-71000D03*
X4000Y-39800D03*
Y-46000D03*
X11000Y-46200D03*
Y-40000D03*
X9500Y54800D03*
X2500D03*
X25000D03*
X14000Y80800D03*
X9500Y61000D03*
X2500D03*
X25000D03*
X14000Y87000D03*
X57000Y-77200D03*
Y-71000D03*
X56000Y-39800D03*
Y-46000D03*
X30000Y-39800D03*
Y-46000D03*
X39000Y54800D03*
X32000D03*
X55000Y55000D03*
X53000Y80800D03*
X33000Y81000D03*
X39000Y61000D03*
X32000D03*
X55000Y61200D03*
X53000Y87000D03*
X33000Y87200D03*
X73000Y-89200D03*
Y-67800D03*
Y-74000D03*
Y-83000D03*
X78000Y-35200D03*
Y-29000D03*
X71000Y-45800D03*
Y-52000D03*
Y-28800D03*
Y-35000D03*
Y-8800D03*
Y-15000D03*
X78000Y-8800D03*
Y-15000D03*
Y9200D03*
Y3000D03*
X71000Y9200D03*
Y3000D03*
X69000Y54800D03*
X76000Y55000D03*
X62000D03*
X69000Y61000D03*
X76000Y61200D03*
X62000D03*
X110000Y-71800D03*
Y-78000D03*
Y-55800D03*
Y-62000D03*
Y-9200D03*
Y-3000D03*
Y-25200D03*
Y-19000D03*
X102000Y55000D03*
X109000D03*
X88000Y54800D03*
X95000D03*
X102000Y61200D03*
X109000D03*
X88000Y61000D03*
X95000D03*
G54D12*
X-86000Y-66500D03*
X-96000Y-71500D03*
X-86000Y-56500D03*
X-96000Y-66500D03*
Y-61500D03*
X-86000Y-71500D03*
Y-36500D03*
X-96000Y-51500D03*
Y-41500D03*
Y-36500D03*
X-86000Y-46500D03*
Y-41500D03*
X-91500Y-20000D03*
X-75500Y-90000D03*
Y-85000D03*
X-72000Y-87500D03*
Y-82000D03*
X-66000Y-42000D03*
X-36000Y-91000D03*
X-35600Y-66000D03*
X-35400Y-72200D03*
Y-54200D03*
X-39000Y-44500D03*
X-32000Y-41000D03*
X-39000D03*
X-35400Y-19000D03*
X-35500Y-1000D03*
X-35400Y-12800D03*
X-35500Y5200D03*
X-45500Y100000D03*
X-14400Y-91500D03*
Y-96500D03*
X-19600Y-101500D03*
Y-86500D03*
X-14700D03*
X-19600Y-96500D03*
Y-91500D03*
X-9045Y-62400D03*
X-21500Y-71500D03*
X-2045Y-62400D03*
X-27300Y-51700D03*
X-8750Y-49250D03*
X-5134Y-22247D03*
X-10253D03*
X-7693Y-18807D03*
X-14Y-22247D03*
X-2574Y-18807D03*
X-4800Y4400D03*
X-8500Y21000D03*
Y27200D03*
X-19400Y28100D03*
X-19272Y24500D03*
X-1000Y31500D03*
X-18966Y84000D03*
X-5000Y73500D03*
X-22500Y100000D03*
X-23866Y93400D03*
X-18984Y89118D03*
X-6500Y100000D03*
X10165Y-83835D03*
X24000Y-81500D03*
X2955Y-62400D03*
X15800Y-43500D03*
X7600Y-46200D03*
X7400Y-40000D03*
X15700Y-16500D03*
X12787Y-13300D03*
X12000Y-22500D03*
X7666Y-22247D03*
X2546Y-18807D03*
X15000Y4400D03*
X18045Y3045D03*
X4268Y26700D03*
X12200Y1000D03*
X11400Y4400D03*
X17068Y23700D03*
X22188D03*
X14508Y26700D03*
X19628D03*
X11948Y23700D03*
X9388Y26700D03*
X6828Y23700D03*
X27000Y24000D03*
X3000Y31200D03*
X23500Y33200D03*
X14508Y34500D03*
X1000Y44000D03*
X19628Y33500D03*
X19467Y84000D03*
X25000Y64300D03*
X2500D03*
X16300Y100000D03*
X14567Y93400D03*
X19449Y89118D03*
X25000Y98400D03*
X40000Y-85000D03*
X57000D03*
X46200D03*
X29000D03*
X57000Y-67500D03*
X57090Y-58910D03*
X41620Y-67300D03*
X35710D03*
X34250Y-62400D03*
X29800Y-67300D03*
X44250Y-62400D03*
X39250D03*
X57030Y-51030D03*
X54030Y-54970D03*
X49300Y-49900D03*
X52000Y-41000D03*
X44000Y-50000D03*
X49000Y-43500D03*
X41380Y-38000D03*
X46500D03*
X36260D03*
X33000Y-17000D03*
X36320Y-21500D03*
X46500Y-22700D03*
X41293Y-17500D03*
X31768Y26700D03*
X50800Y27700D03*
X57000Y4000D03*
X44568Y23700D03*
X49688D03*
X42008Y26700D03*
X47128D03*
X39448Y23700D03*
X36888Y26700D03*
X34328Y23700D03*
X40600Y800D03*
X31000Y33200D03*
X42008Y34400D03*
X51000Y31500D03*
X48500Y93400D03*
X53000D03*
X54300Y100000D03*
X31500D03*
X63200Y-85000D03*
X75000Y-62000D03*
X65000Y-82000D03*
X76600Y-74000D03*
X75000Y-45800D03*
Y-52000D03*
X71000Y-40000D03*
X77940Y-49060D03*
X74500Y-15000D03*
X60400Y6200D03*
X74400Y2800D03*
Y9000D03*
X59800Y27200D03*
X64000Y9000D03*
X75728Y25000D03*
X75000Y29400D03*
X79900Y32500D03*
X57900Y84000D03*
X71500Y69000D03*
X69000Y65100D03*
X70626Y72574D03*
X64000Y98200D03*
X68000Y100000D03*
X57882Y89118D03*
X70626Y95374D03*
X90000Y-95200D03*
X106000Y-78000D03*
Y-71800D03*
X90500Y-69600D03*
X95500D03*
X106000Y-55800D03*
X99500Y-35500D03*
X87000Y-35200D03*
X90500Y-48400D03*
X106500Y-25200D03*
X93500Y85968D03*
X109500Y76000D03*
X90500Y78000D03*
X93500Y82032D03*
X87000Y69000D03*
X90500Y90000D03*
X87000Y94500D03*
G54D21*
X-15373Y-29843D03*
X-12813D03*
X-10253D03*
X-7693D03*
X-5134D03*
X-2573D03*
Y-7243D03*
X-5134D03*
X-7693D03*
X-10253D03*
X-12813D03*
X-15373D03*
X-13Y-29843D03*
X2547D03*
X5107D03*
X7667D03*
X10227D03*
X12787D03*
Y-7243D03*
X10227D03*
X7667D03*
X5107D03*
X2547D03*
X-13D03*
X4268Y17700D03*
X6828D03*
X9388D03*
X11948D03*
X14508D03*
X17068D03*
X19628D03*
X22188D03*
Y40300D03*
X19628D03*
X17068D03*
X14508D03*
X11948D03*
X9388D03*
X6828D03*
X4268D03*
X28607Y-29843D03*
X31167D03*
X33727D03*
X36287D03*
X38847D03*
X41407D03*
X43967D03*
X46527D03*
X49087D03*
X51647D03*
X54207D03*
Y-7243D03*
X51647D03*
X49087D03*
X46527D03*
X43967D03*
X41407D03*
X38847D03*
X36287D03*
X33727D03*
X31167D03*
X28607D03*
X31768Y17700D03*
X34328D03*
X36888D03*
X39448D03*
X42008D03*
X44568D03*
X47128D03*
X49688D03*
Y40300D03*
X47128D03*
X44568D03*
X42008D03*
X39448D03*
X36888D03*
X34328D03*
X31768D03*
X56767Y-29843D03*
Y-7243D03*
G54D13*
X-96457Y-25000D03*
X-86457D03*
X-96457Y-15000D03*
X-86457D03*
X-96457Y-5000D03*
X-86457D03*
X-96457Y5000D03*
X-86457D03*
X-96457Y15000D03*
X-86457D03*
X-96457Y25000D03*
X-60000Y-80000D03*
Y-70000D03*
Y-60000D03*
Y-50000D03*
Y-40000D03*
Y-30000D03*
Y-20000D03*
Y-10000D03*
Y0D03*
Y10000D03*
Y20000D03*
Y30000D03*
Y40000D03*
Y50000D03*
Y60000D03*
X-50000Y-80000D03*
Y-70000D03*
Y-60000D03*
Y-50000D03*
Y-40000D03*
Y-30000D03*
Y-20000D03*
Y-10000D03*
Y0D03*
Y10000D03*
Y20000D03*
Y30000D03*
Y40000D03*
Y50000D03*
X86457Y-5000D03*
Y-15000D03*
Y25000D03*
Y15000D03*
Y5000D03*
X96457Y-5000D03*
Y-15000D03*
Y-25000D03*
Y25000D03*
Y15000D03*
Y5000D03*
G54D22*
X-9300Y1000D03*
X-15500D03*
X800Y8000D03*
X-15700D03*
X-9500D03*
X1000Y1000D03*
X3800Y-99000D03*
X10000D03*
X22800Y-89000D03*
X29000D03*
X10200D03*
X4000D03*
X28500Y1000D03*
X7000Y8000D03*
X28300D03*
X7200Y1000D03*
X1300Y74000D03*
X7500D03*
X57000Y-89000D03*
X46200D03*
X40000D03*
X34700Y1000D03*
X44800Y8000D03*
X51000D03*
X34500D03*
X51200Y1000D03*
X45000D03*
X83800Y-99000D03*
X63200Y-89000D03*
X84000D03*
X82200Y76000D03*
X76000D03*
X75800Y69000D03*
X82000D03*
X82200Y92000D03*
X76000D03*
X90000Y-99000D03*
X90200Y-89000D03*
X105200Y76000D03*
X99000D03*
G54D14*
X-86457Y25000D03*
X-86500Y87500D03*
Y99000D03*
X-50000Y60000D03*
X86457Y-25000D03*
G54D23*
X20750Y-99000D03*
X30750D03*
X40750D03*
X50750D03*
X60750D03*
G54D24*
X70750D03*
G54D15*
X-93399Y56999D03*
Y41599D03*
Y72399D03*
X-69000Y41599D03*
Y72399D03*
X-31100Y68300D03*
X-32966Y82700D03*
X-37466D03*
Y87700D03*
X-32966D03*
X-22500Y10500D03*
X-9100Y35100D03*
X-12400Y68300D03*
X-12500Y98500D03*
X27000Y-22000D03*
X25000Y75600D03*
X5467Y82700D03*
X967D03*
Y87700D03*
X5467D03*
X34900Y68300D03*
X56900D03*
X41900D03*
X39400Y82700D03*
X43900D03*
Y87700D03*
X39400D03*
X75900Y81600D03*
X80900D03*
X64000Y75800D03*
X80900Y86600D03*
X75900D03*
X100900Y34900D03*
G54D16*
X-66500Y87500D03*
X-76500D03*
X-66500Y99000D03*
X-76500D03*
G54D17*
X-60000Y78000D03*
Y70000D03*
X-50000D03*
X-54500Y100500D03*
X110000Y8000D03*
Y26000D03*
Y17000D03*
G54D18*
X-34272Y18400D03*
X-29272D03*
Y39600D03*
X-34272D03*
X-2045Y-56400D03*
X-7045D03*
Y-77600D03*
X-2045D03*
X-24272Y18400D03*
X-19272D03*
Y39600D03*
X-24272D03*
X7955Y-56400D03*
X2955D03*
Y-77600D03*
X7955D03*
X49250Y-56400D03*
X44250D03*
X39250D03*
X34250D03*
Y-77600D03*
X39250D03*
X44250D03*
X49250D03*
X80500Y-56400D03*
Y-77600D03*
X60728Y18400D03*
X65728D03*
X70728D03*
X75728D03*
Y39600D03*
X70728D03*
X65728D03*
X60728D03*
X95500Y-56400D03*
X90500D03*
X85500D03*
Y-77600D03*
X90500D03*
X95500D03*
G54D19*
X-52000Y82500D03*
Y91500D03*
X-23000Y-34500D03*
Y-43500D03*
Y-7500D03*
Y-16500D03*
X-12500Y82500D03*
Y91500D03*
X24000Y-76500D03*
Y-67500D03*
X21000Y-34500D03*
Y-43500D03*
Y-7500D03*
Y-16500D03*
X17500Y53500D03*
X25000Y82500D03*
X17500Y62500D03*
X25000Y91500D03*
X47000Y53500D03*
Y62500D03*
X65000Y-76500D03*
Y-67500D03*
X64000Y82500D03*
Y91500D03*
M02*
