G04 ================== begin FILE IDENTIFICATION RECORD ==================*
G04 Layout Name:  GALVO_CTRL.brd*
G04 Film Name:    TOP*
G04 File Format:  Gerber RS274X*
G04 File Origin:  Cadence Allegro 16.6-P004*
G04 Origin Date:  Tue Aug 01 21:47:15 2017*
G04 *
G04 Layer:  ETCH/TOP*
G04 Layer:  PIN/TOP*
G04 Layer:  VIA CLASS/TOP*
G04 *
G04 Offset:    (0.000 0.000)*
G04 Mirror:    No*
G04 Mode:      Positive*
G04 Rotation:  0*
G04 FullContactRelief:  No*
G04 UndefLineWidth:     6.000*
G04 ================== end FILE IDENTIFICATION RECORD ====================*
%FSLAX25Y25*MOIN*%
%IR0*IPPOS*OFA0.00000B0.00000*MIA0B0*SFA1.00000B1.00000*%
%ADD21R,.158X.04*%
%ADD10C,.118*%
%ADD31R,.1X.1*%
%ADD22R,.12X.12*%
%ADD34O,.033X.011*%
%ADD15R,.11X.125*%
%ADD27R,.01X.06*%
%ADD26O,.04X.014*%
%ADD19R,.03X.04*%
%ADD32R,.033X.011*%
%ADD28R,.06X.01*%
%ADD33R,.011X.033*%
%ADD23R,.014X.04*%
%ADD24R,.04X.014*%
%ADD29R,.08X.055*%
%ADD16C,.04*%
%ADD11R,.074X.024*%
%ADD18R,.075X.025*%
%ADD13C,.06*%
%ADD12C,.024*%
%ADD17C,.045*%
%ADD25C,.028*%
%ADD30R,.055118X.05*%
%ADD14R,.06X.06*%
%ADD20R,.076X.068*%
%ADD35C,.01*%
%ADD36C,.02*%
%ADD37C,.03*%
%ADD38C,.012*%
%ADD39C,.015*%
%ADD40C,.006*%
G75*
%LPD*%
G75*
G54D10*
X-104331Y-94488D03*
Y94488D03*
X104331Y-94488D03*
Y94488D03*
G54D20*
X-31100Y41618D03*
Y58382D03*
X-9100Y41618D03*
Y58382D03*
X12900Y41618D03*
Y58382D03*
X34900Y41618D03*
Y58382D03*
X56900Y41618D03*
Y58382D03*
X78900Y41618D03*
Y58382D03*
X100900Y41618D03*
Y58382D03*
G54D11*
X-102000Y-71500D03*
Y-66500D03*
Y-61500D03*
Y-56500D03*
Y-51500D03*
Y-46500D03*
Y-41500D03*
Y-36500D03*
X-80000Y-56500D03*
Y-61500D03*
Y-66500D03*
Y-71500D03*
Y-36500D03*
Y-41500D03*
Y-46500D03*
Y-51500D03*
G54D30*
X86799Y-77000D03*
X95500D03*
G54D12*
X-86000Y-66500D03*
X-96000Y-71500D03*
X-86000Y-56500D03*
X-96000Y-66500D03*
Y-61500D03*
X-86000Y-71500D03*
Y-36500D03*
X-96000Y-51500D03*
Y-41500D03*
Y-36500D03*
X-86000Y-46500D03*
Y-41500D03*
X-91500Y-20000D03*
X-75500Y-90000D03*
Y-85000D03*
X-72000Y-87500D03*
Y-82000D03*
X-66000Y-42000D03*
X-36000Y-91000D03*
X-35600Y-66000D03*
X-35400Y-72200D03*
Y-54200D03*
X-39000Y-44500D03*
X-32000Y-41000D03*
X-39000D03*
X-35400Y-19000D03*
X-35500Y-1000D03*
X-35400Y-12800D03*
X-35500Y5200D03*
X-45500Y100000D03*
X-14400Y-91500D03*
Y-96500D03*
X-19600Y-101500D03*
Y-86500D03*
X-14700D03*
X-19600Y-96500D03*
Y-91500D03*
X-9045Y-62400D03*
X-21500Y-71500D03*
X-2045Y-62400D03*
X-27300Y-51700D03*
X-8750Y-49250D03*
X-5134Y-22247D03*
X-10253D03*
X-7693Y-18807D03*
X-14Y-22247D03*
X-2574Y-18807D03*
X-4800Y4400D03*
X-8500Y21000D03*
Y27200D03*
X-19400Y28100D03*
X-19272Y24500D03*
X-1000Y31500D03*
X-18966Y84000D03*
X-5000Y73500D03*
X-22500Y100000D03*
X-23866Y93400D03*
X-18984Y89118D03*
X-6500Y100000D03*
X10165Y-83835D03*
X24000Y-81500D03*
X2955Y-62400D03*
X15800Y-43500D03*
X7600Y-46200D03*
X7400Y-40000D03*
X15700Y-16500D03*
X12787Y-13300D03*
X12000Y-22500D03*
X7666Y-22247D03*
X2546Y-18807D03*
X15000Y4400D03*
X18045Y3045D03*
X4268Y26700D03*
X12200Y1000D03*
X11400Y4400D03*
X17068Y23700D03*
X22188D03*
X14508Y26700D03*
X19628D03*
X11948Y23700D03*
X9388Y26700D03*
X6828Y23700D03*
X27000Y24000D03*
X3000Y31200D03*
X23500Y33200D03*
X14508Y34500D03*
X1000Y44000D03*
X19628Y33500D03*
X19467Y84000D03*
X25000Y64300D03*
X2500D03*
X16300Y100000D03*
X14567Y93400D03*
X19449Y89118D03*
X25000Y98400D03*
X40000Y-85000D03*
X57000D03*
X46200D03*
X29000D03*
X57000Y-67500D03*
X57090Y-58910D03*
X41620Y-67300D03*
X35710D03*
X34250Y-62400D03*
X29800Y-67300D03*
X44250Y-62400D03*
X39250D03*
X57030Y-51030D03*
X54030Y-54970D03*
X49300Y-49900D03*
X52000Y-41000D03*
X44000Y-50000D03*
X49000Y-43500D03*
X41380Y-38000D03*
X46500D03*
X36260D03*
X33000Y-17000D03*
X36320Y-21500D03*
X46500Y-22700D03*
X41293Y-17500D03*
X31768Y26700D03*
X50800Y27700D03*
X57000Y4000D03*
X44568Y23700D03*
X49688D03*
X42008Y26700D03*
X47128D03*
X39448Y23700D03*
X36888Y26700D03*
X34328Y23700D03*
X40600Y800D03*
X31000Y33200D03*
X42008Y34400D03*
X51000Y31500D03*
X48500Y93400D03*
X53000D03*
X54300Y100000D03*
X31500D03*
X63200Y-85000D03*
X75000Y-62000D03*
X65000Y-82000D03*
X76600Y-74000D03*
X75000Y-45800D03*
Y-52000D03*
X71000Y-40000D03*
X77940Y-49060D03*
X74500Y-15000D03*
X60400Y6200D03*
X74400Y2800D03*
Y9000D03*
X59800Y27200D03*
X64000Y9000D03*
X75728Y25000D03*
X75000Y29400D03*
X79900Y32500D03*
X57900Y84000D03*
X71500Y69000D03*
X69000Y65100D03*
X70626Y72574D03*
X64000Y98200D03*
X68000Y100000D03*
X57882Y89118D03*
X70626Y95374D03*
X90000Y-95200D03*
X106000Y-78000D03*
Y-71800D03*
X90500Y-69600D03*
X95500D03*
X106000Y-55800D03*
X99500Y-35500D03*
X87000Y-35200D03*
X90500Y-48400D03*
X106500Y-25200D03*
X93500Y85968D03*
X109500Y76000D03*
X90500Y78000D03*
X93500Y82032D03*
X87000Y69000D03*
X90500Y90000D03*
X87000Y94500D03*
G54D21*
X-31000Y50000D03*
X-9000D03*
X35000D03*
X13000D03*
X57000D03*
X79000D03*
X101000D03*
G54D40*
G01X-109417Y-17040D02*
Y-16507D01*
X-108667D01*
X-108417Y-16667D01*
X-108250Y-16853D01*
X-108167Y-17120D01*
X-108250Y-17387D01*
X-108417Y-17573D01*
X-108667Y-17733D01*
X-108958Y-17840D01*
X-109292Y-17893D01*
X-109583D01*
X-109833Y-17840D01*
X-110125Y-17733D01*
X-110375Y-17573D01*
X-110542Y-17413D01*
X-110667Y-17200D01*
Y-17013D01*
X-110583Y-16800D01*
X-110417Y-16640D01*
G01X-108167Y-14520D02*
X-109833D01*
G01X-109542D02*
X-109708Y-14627D01*
X-109792Y-14787D01*
X-109833Y-14973D01*
X-109750Y-15160D01*
X-109583Y-15320D01*
X-109333Y-15427D01*
X-109000Y-15480D01*
X-108667Y-15427D01*
X-108417Y-15320D01*
X-108250Y-15160D01*
X-108167Y-14973D01*
X-108208Y-14787D01*
X-108333Y-14627D01*
X-108500Y-14520D01*
G01X-108167Y-12800D02*
X-110667D01*
G01X-109833Y-11080D02*
X-108167Y-10600D01*
X-109833Y-10120D01*
G01X-108167Y-8400D02*
X-108208Y-8560D01*
X-108375Y-8720D01*
X-108667Y-8827D01*
X-109000Y-8880D01*
X-109333Y-8827D01*
X-109625Y-8720D01*
X-109792Y-8560D01*
X-109833Y-8400D01*
X-109792Y-8240D01*
X-109625Y-8080D01*
X-109333Y-7973D01*
X-109000Y-7947D01*
X-108667Y-7973D01*
X-108375Y-8080D01*
X-108208Y-8240D01*
X-108167Y-8400D01*
G01X-109833Y-4480D02*
X-108167Y-4000D01*
X-109833Y-3520D01*
G01X-110250Y-2307D02*
X-110500Y-2147D01*
X-110625Y-1960D01*
X-110667Y-1747D01*
X-110583Y-1480D01*
X-110375Y-1293D01*
X-110125Y-1240D01*
X-109875Y-1267D01*
X-109667Y-1373D01*
X-109250Y-1907D01*
X-108958Y-2147D01*
X-108542Y-2307D01*
X-108167Y-2360D01*
Y-1240D01*
G54D13*
X-96457Y-25000D03*
X-86457D03*
X-96457Y-15000D03*
X-86457D03*
X-96457Y-5000D03*
X-86457D03*
X-96457Y5000D03*
X-86457D03*
X-96457Y15000D03*
X-86457D03*
X-96457Y25000D03*
X-60000Y-80000D03*
Y-70000D03*
Y-60000D03*
Y-50000D03*
Y-40000D03*
Y-30000D03*
Y-20000D03*
Y-10000D03*
Y0D03*
Y10000D03*
Y20000D03*
Y30000D03*
Y40000D03*
Y50000D03*
X-66500Y87500D03*
X-76500D03*
X-60000Y60000D03*
X-66500Y99000D03*
X-76500D03*
X-50000Y-80000D03*
Y-70000D03*
Y-60000D03*
Y-50000D03*
Y-40000D03*
Y-30000D03*
Y-20000D03*
Y-10000D03*
Y0D03*
Y10000D03*
Y20000D03*
Y30000D03*
Y40000D03*
Y50000D03*
X20750Y-99000D03*
X30750D03*
X40750D03*
X50750D03*
X60750D03*
X86457Y-5000D03*
Y-15000D03*
Y25000D03*
Y15000D03*
Y5000D03*
X96457Y-5000D03*
Y-15000D03*
Y-25000D03*
Y25000D03*
Y15000D03*
Y5000D03*
G54D22*
X-33937Y84000D03*
X4496D03*
X42929D03*
G54D31*
X78362D03*
G54D14*
X-86457Y25000D03*
X-86500Y87500D03*
Y99000D03*
X-50000Y60000D03*
X70750Y-99000D03*
X86457Y-25000D03*
G54D23*
X-28819Y74158D03*
X-31378D03*
X-33937D03*
X-36496D03*
X-39055D03*
Y93842D03*
X-36496D03*
X-33937D03*
X-31378D03*
X-28819D03*
X-622Y74158D03*
Y93842D03*
X9614Y74158D03*
X7055D03*
X4496D03*
X1937D03*
Y93842D03*
X4496D03*
X7055D03*
X9614D03*
X48047Y74158D03*
X45488D03*
X42929D03*
X40370D03*
X37811D03*
Y93842D03*
X40370D03*
X42929D03*
X45488D03*
X48047D03*
G54D32*
X86236Y84000D03*
Y82032D03*
Y80063D03*
X70488D03*
Y82032D03*
Y84000D03*
X86236Y87937D03*
Y85968D03*
X70488D03*
G54D24*
X-43780Y78882D03*
Y81441D03*
Y84000D03*
Y86559D03*
X-5346Y78882D03*
Y81441D03*
Y84000D03*
X-24094D03*
Y81441D03*
Y78882D03*
X-5346Y86559D03*
X-24094Y89118D03*
Y86559D03*
X14339Y84000D03*
Y81441D03*
Y78882D03*
Y89118D03*
Y86559D03*
X52772Y84000D03*
Y81441D03*
Y78882D03*
X33087D03*
Y81441D03*
Y84000D03*
X52772Y89118D03*
Y86559D03*
X33087D03*
G54D33*
X82299Y76126D03*
X80331D03*
X78362D03*
X76394D03*
X74425D03*
Y91874D03*
X76394D03*
X78362D03*
X80331D03*
X82299D03*
G54D15*
X-103458Y56999D03*
Y41599D03*
Y72399D03*
X-79458Y56999D03*
Y41599D03*
Y72399D03*
G54D25*
X-32966Y82700D03*
X-37466D03*
Y87700D03*
X-32966D03*
X5467Y82700D03*
X967D03*
Y87700D03*
X5467D03*
X39400Y82700D03*
X43900D03*
Y87700D03*
X39400D03*
X75900Y81600D03*
X80900D03*
Y86600D03*
X75900D03*
G54D16*
G01X-96457Y15000D02*
X-86457D01*
G01X-96457Y5000D02*
X-86457D01*
G01X-96457Y25000D02*
X-86457D01*
G01X-103458Y56999D02*
X-93399D01*
G01X-103458Y41599D02*
X-93399D01*
G01X-103458Y72399D02*
X-93399D01*
G01X-79458Y56999D02*
Y72399D01*
G01Y41599D02*
Y56999D01*
G01Y41599D02*
X-69000D01*
G01X-51900Y84000D02*
Y78000D01*
X-60000D01*
G01X-79458Y72399D02*
X-69000D01*
G01X-34000Y10500D02*
X-22500D01*
G01X-34000D02*
X-40500D01*
Y41618D01*
X-31100D01*
G01X-31000Y50000D02*
X-9000D01*
G01X-51900Y84000D02*
Y89100D01*
G01X-31100Y58382D02*
X-9100D01*
G01X-31100D02*
Y68300D01*
G01X-51900Y93800D02*
Y89100D01*
G01X-9100Y35500D02*
Y41618D01*
G01X13000Y50000D02*
X-9000D01*
G01X-12500Y98500D02*
Y93842D01*
G01Y89118D02*
Y93842D01*
G01X35000Y50000D02*
X13000D01*
G01X34900Y58382D02*
X12900D01*
G01X25000Y84000D02*
Y89118D01*
G01Y75600D02*
Y84000D01*
G01Y89118D02*
Y93600D01*
G01X46300Y50000D02*
Y63900D01*
X41900Y68300D01*
G01X57000Y50000D02*
X46300D01*
G01X79000D02*
X57000D01*
G01X46300D02*
X35000D01*
G01X34900Y58382D02*
Y68300D01*
G01X56900Y58382D02*
X78900D01*
G01X56900D02*
Y68300D01*
G01X101000Y50000D02*
X79000D01*
G01X78900Y58382D02*
X100900D01*
G01X64000Y75800D02*
Y76126D01*
G01Y82032D02*
Y85968D01*
G01Y80063D02*
Y82032D01*
G01Y76126D02*
Y80063D01*
G01Y85968D02*
Y87937D01*
G01D02*
Y91874D01*
G01D02*
Y93500D01*
G01X86457Y-15000D02*
X96457D01*
G01X86457Y-5000D02*
X96457D01*
G01X86457Y-25000D02*
X96457D01*
G01X100900Y41618D02*
Y34900D01*
X-93399Y56999D03*
Y41599D03*
Y72399D03*
X-69000Y41599D03*
Y72399D03*
X-31100Y68300D03*
X-22500Y10500D03*
X-9100Y35100D03*
X-12400Y68300D03*
X-12500Y98500D03*
X27000Y-22000D03*
X25000Y75600D03*
X34900Y68300D03*
X56900D03*
X41900D03*
X64000Y75800D03*
X100900Y34900D03*
G54D34*
X70488Y87937D03*
G54D35*
G01X-21500Y-58910D02*
X-33410D01*
X-39500Y-65000D01*
X-64500D01*
X-76750Y-77250D01*
X-85750D01*
X-90000Y-73000D01*
Y-53500D01*
X-88000Y-51500D01*
X-80000D01*
G01X-102000Y-71500D02*
X-96000D01*
G01X-102000Y-46500D02*
X-96000D01*
X-92500Y-50000D01*
Y-74000D01*
X-87000Y-79500D01*
X-75500D01*
X-71000Y-75000D01*
X-31500D01*
X-29500Y-73000D01*
Y-69500D01*
X-24820Y-64820D01*
X-21500D01*
G01X-102000Y-66500D02*
X-96000D01*
G01X-102000Y-61500D02*
X-96000D01*
G01X-21500Y-54970D02*
X-30730D01*
X-34700Y-51000D01*
X-37000D01*
X-42500Y-45500D01*
Y-37500D01*
X-45000Y-35000D01*
X-69000D01*
X-72500Y-31500D01*
X-105500D01*
X-109000Y-35000D01*
Y-54500D01*
X-107000Y-56500D01*
X-102000D01*
G01Y-51500D02*
X-96000D01*
G01X-102000Y-41500D02*
X-96000D01*
G01X-102000Y-36500D02*
X-96000D01*
G01X-75500Y-90000D02*
X-68500D01*
X-63500Y-95000D01*
X-47500D01*
X-36000Y-83500D01*
X-11500D01*
X-7495Y-79495D01*
Y-74885D01*
X-7565Y-74815D01*
G01X-72000Y-82000D02*
X-67500D01*
X-62500Y-87000D01*
X-48500D01*
X-39000Y-77500D01*
X-19500D01*
X-16815Y-74815D01*
X-13475D01*
G01X-75500Y-85000D02*
X-67500D01*
X-62500Y-90000D01*
X-48500D01*
X-38000Y-79500D01*
X-12963D01*
X-11505Y-78042D01*
Y-74815D01*
G01X-72000Y-87500D02*
X-68000D01*
X-63000Y-92500D01*
X-48000D01*
X-37000Y-81500D01*
X-12276D01*
X-9605Y-78830D01*
Y-74885D01*
X-9535Y-74815D01*
G01X-80000Y-66500D02*
X-86000D01*
G01X-80000Y-61500D02*
X-70500D01*
X-64000Y-55000D01*
X-47500D01*
X-43250Y-59251D01*
X-36750D01*
X-34440Y-56940D01*
X-21500D01*
G01X-80000Y-71500D02*
X-86000D01*
G01X-80000Y-36500D02*
X-86000D01*
G01X-80000Y-56500D02*
X-86000D01*
G01X-80000Y-46500D02*
X-86000D01*
G01X-80000Y-41500D02*
X-86000D01*
G01X-27600Y-86500D02*
X-31500D01*
X-36000Y-91000D01*
G01X-21500Y-60880D02*
X-30480D01*
X-35600Y-66000D01*
G01X-21500Y-62850D02*
X-26050D01*
X-35400Y-72200D01*
G01X-32000Y-41000D02*
Y-41500D01*
X-28380Y-45120D01*
X-21500D01*
G01X-39000Y-41000D02*
X-38500Y-41500D01*
X-36500D01*
X-30910Y-47090D01*
X-21500D01*
G01Y-3750D02*
X-32750D01*
X-35500Y-1000D01*
G01X-21500Y-19510D02*
X-28690D01*
X-35400Y-12800D01*
G01X-35500Y5200D02*
X-28520Y-1780D01*
X-21500D01*
G01X-24000Y27000D02*
X-33800D01*
X-34000Y27200D01*
G01X-6400Y-91500D02*
X-14400D01*
G01X-6400Y-96500D02*
X-14400D01*
G01X-27600Y-101500D02*
X-19600D01*
G01X-27600Y-96500D02*
X-19600D01*
G01X-27600Y-91500D02*
X-19600D01*
G01X10165Y-83835D02*
X335D01*
X-3625Y-79875D01*
Y-74815D01*
G01X-9045Y-62400D02*
Y-66455D01*
X-5595Y-69905D01*
Y-74815D01*
G01X-27600Y-86500D02*
X-19600D01*
G01X-6400D02*
X-14700D01*
G01X-21500Y-71500D02*
Y-66790D01*
G01Y-37240D02*
X-16760D01*
X-2045Y-51955D01*
Y-62400D01*
G01X-21500Y-41180D02*
X-28600D01*
Y-23450D01*
G01X-21500Y-43150D02*
X-14850D01*
X-8750Y-49250D01*
G01X-21500Y-33300D02*
X-17200D01*
X400Y-50900D01*
Y-59845D01*
X2955Y-62400D01*
G01X-21500Y-25420D02*
X-16500D01*
X-7920Y-34000D01*
X18900D01*
X44250Y-59350D01*
Y-62400D01*
G01X-21500Y-27390D02*
X-17500D01*
X-8890Y-36000D01*
X18000D01*
X39250Y-57250D01*
Y-62400D01*
G01X-21500Y-23450D02*
X-28600D01*
G01X-5134Y-22247D02*
Y-7866D01*
X-9535Y-3465D01*
Y10185D01*
G01X-13475D02*
Y-5525D01*
X-10253Y-8747D01*
Y-22247D01*
G01X-11505Y10185D02*
Y-4495D01*
X-7693Y-8307D01*
Y-18807D01*
G01X-1655Y10185D02*
Y-4645D01*
X-74Y-6226D01*
Y-22187D01*
X-14Y-22247D01*
G01X-7565Y10185D02*
Y-2435D01*
X-2574Y-7426D01*
Y-18807D01*
G01X-5595Y10185D02*
Y20405D01*
X-5000Y21000D01*
G01D02*
X-8500D01*
G01X-12000Y20800D02*
X-8700D01*
X-8500Y21000D01*
G01X-5000Y27200D02*
X-8500D01*
G01X-12000Y27000D02*
X-8700D01*
X-8500Y27200D01*
G01X-5000D02*
X-1000D01*
Y17600D01*
X-3625Y14975D01*
Y10185D01*
G01X-9100Y35100D02*
Y35500D01*
G01X14105Y-74815D02*
Y-92355D01*
X20750Y-99000D01*
G01X10165Y-74815D02*
Y-83835D01*
G01X12787Y-13300D02*
Y413D01*
X12200Y1000D01*
G01X4255Y10185D02*
Y-3855D01*
X7000Y-6600D01*
Y-18700D01*
X4000Y-21700D01*
Y-25500D01*
X5500Y-27000D01*
X7500D01*
X12000Y-22500D01*
G01X21985Y10185D02*
Y-5985D01*
X33000Y-17000D01*
G01X7666Y-22247D02*
X10000Y-19912D01*
Y-6500D01*
X6225Y-2725D01*
Y10185D01*
G01X315D02*
Y-3515D01*
X2000Y-5200D01*
Y-18261D01*
X2546Y-18807D01*
G01X18045Y10185D02*
Y3045D01*
G01X2285Y10185D02*
Y24717D01*
X4268Y26700D01*
G01X17068Y23700D02*
X17000Y23632D01*
Y19000D01*
X20015Y15985D01*
Y10185D01*
G01X25925D02*
Y16075D01*
X22188Y19812D01*
Y23700D01*
G01X14508Y26700D02*
X14500Y26692D01*
Y18000D01*
X16075Y16425D01*
Y10185D01*
G01X19628Y26700D02*
X19688Y26640D01*
Y19312D01*
X23955Y15045D01*
Y10185D01*
G01X14105D02*
Y15708D01*
X11948Y17865D01*
Y23700D01*
G01X12135Y10185D02*
Y14991D01*
X9388Y17738D01*
Y26700D01*
G01X6828Y23700D02*
Y17610D01*
X10165Y14274D01*
Y10185D01*
G01X1937Y74158D02*
Y79170D01*
X5467Y82700D01*
G01X37745Y-74815D02*
Y-71175D01*
X41620Y-67300D01*
G01X31835Y-74815D02*
Y-71175D01*
X35710Y-67300D01*
G01X45625Y-74815D02*
Y-71305D01*
X41620Y-67300D01*
G01X57000Y-85000D02*
X50100D01*
X45625Y-80525D01*
Y-74815D01*
G01X37745D02*
Y-82745D01*
X40000Y-85000D01*
G01X63500Y-62850D02*
X56850D01*
X44000Y-50000D01*
G01X46200Y-85000D02*
X45500D01*
X39715Y-79215D01*
Y-74815D01*
G01X63200Y-85000D02*
Y-84900D01*
X60300Y-82000D01*
X50300D01*
X47595Y-79295D01*
Y-74815D01*
G01X29865D02*
Y-67300D01*
X29800D01*
G01X29865Y-74815D02*
Y-84135D01*
X29000Y-85000D01*
G01X55475Y-74815D02*
X75785D01*
X76600Y-74000D01*
G01X54030Y-54970D02*
X57030D01*
X59000Y-53000D01*
X63500D01*
G01X49300Y-49900D02*
X56050Y-43150D01*
X63500D01*
G01Y-41180D02*
X52180D01*
X52000Y-41000D01*
G01X63500Y-33300D02*
X55700D01*
X49000Y-40000D01*
Y-43500D01*
G01X63500Y-29360D02*
X50020D01*
X41380Y-38000D01*
G01X63500Y-31330D02*
X53170D01*
X46500Y-38000D01*
G01X63500Y-27390D02*
X46870D01*
X36260Y-38000D01*
G01X63500Y-19510D02*
X44990D01*
X43500Y-21000D01*
X40400D01*
X36400Y-17000D01*
X33000D01*
G01X63500Y-25420D02*
X40240D01*
X36320Y-21500D01*
G01X46500Y-22700D02*
X47720Y-21480D01*
X63500D01*
G01X41293Y-17500D02*
X63460D01*
X63500Y-17540D01*
G01X50800Y27700D02*
X52700Y25800D01*
Y17600D01*
X49565Y14465D01*
Y10185D01*
G01D02*
Y4600D01*
X39715D01*
Y10185D01*
G01X51535D02*
Y4000D01*
X57000D01*
G01X44568Y23700D02*
Y20068D01*
X41685Y17185D01*
Y10185D01*
G01X49688Y23700D02*
Y18688D01*
X45625Y14625D01*
Y10185D01*
G01X42008Y26700D02*
Y21508D01*
X35775Y15275D01*
Y10185D01*
G01X47128Y26700D02*
Y19628D01*
X43655Y16155D01*
Y10185D01*
G01X39448Y23700D02*
Y21948D01*
X33805Y16305D01*
Y10185D01*
G01X36888Y26700D02*
Y22388D01*
X31835Y17335D01*
Y10185D01*
G01X29865D02*
Y19237D01*
X34328Y23700D01*
G01X40600Y800D02*
X37745Y3655D01*
Y10185D01*
G01X48047Y74158D02*
Y78882D01*
X42929Y84000D01*
G01X40370Y74158D02*
Y81441D01*
G01D02*
X42929Y84000D01*
G01X37811Y74158D02*
Y78882D01*
X40370Y81441D01*
G01X57090Y-58910D02*
Y-57910D01*
X60030Y-54970D01*
X63500D01*
G01Y-60880D02*
X73880D01*
X75000Y-62000D01*
G01X90500Y-48400D02*
X86400D01*
X75890Y-58910D01*
X63500D01*
G01X90500Y-69600D02*
X75600D01*
X72790Y-66790D01*
X63500D01*
G01X95500Y-69600D02*
X92000Y-66100D01*
X88300D01*
X87000Y-67400D01*
X76700D01*
X74120Y-64820D01*
X63500D01*
G01X86799Y-77000D02*
X79600D01*
X76600Y-74000D01*
G01X63500Y-51030D02*
X57030D01*
G01X63500Y-47090D02*
X73710D01*
X75000Y-45800D01*
G01X63500Y-45120D02*
X68180D01*
X71000Y-42300D01*
Y-40000D01*
G01X82400Y-42000D02*
Y-49713D01*
X75173Y-56940D01*
X63500D01*
G01Y-49060D02*
X77940D01*
G01X63500Y-3750D02*
X67850D01*
X74400Y2800D01*
G01X63500Y-23450D02*
X69050D01*
X74500Y-18000D01*
Y-15000D01*
G01X63500Y-1780D02*
X57000D01*
Y4000D01*
G01X71000Y27200D02*
X59800D01*
G01D02*
X56000D01*
G01X71000D02*
X72800D01*
X75000Y29400D01*
G01X56000Y21000D02*
Y17000D01*
X64000Y9000D01*
G01X86236Y84000D02*
X78362D01*
G01X70488D02*
X78362D01*
G01Y76126D02*
Y84000D01*
G01Y91874D02*
Y84138D01*
G01D02*
X75900Y86600D01*
G01X78362Y84000D02*
Y84138D01*
G01X70488Y82032D02*
X64000D01*
G01X70488Y80063D02*
X64000D01*
G01X74425Y76126D02*
X64000D01*
G01X69000Y65100D02*
X75500D01*
X82299Y71899D01*
Y76126D01*
G01X76394D02*
Y72574D01*
X70626D01*
G01X70488Y85968D02*
X64000D01*
G01X70488Y87937D02*
X64000D01*
G01X74425Y91874D02*
X64000D01*
G01X82299D02*
X87000D01*
Y94500D01*
G01X76394Y91874D02*
Y95374D01*
X70626D01*
G01X95500Y-77000D02*
X105000D01*
X106000Y-78000D01*
G01X99600Y-42000D02*
Y-35600D01*
X99500Y-35500D01*
G01X100900Y58382D02*
X108318D01*
X112500Y54200D01*
Y28500D01*
X110000Y26000D01*
G01X90500Y78000D02*
Y80063D01*
X86236D01*
G01Y82032D02*
X93500D01*
G01X86236Y87937D02*
X90500D01*
Y90000D01*
G01X86236Y85968D02*
X93500D01*
G54D17*
X-60000Y78000D03*
Y70000D03*
X-50000D03*
X-54500Y100500D03*
X110000Y8000D03*
Y26000D03*
Y17000D03*
G54D26*
X-43780Y89118D03*
X-5346D03*
X33087D03*
G54D36*
G01X12900Y41618D02*
Y39800D01*
X-1000D01*
Y31500D01*
G01X27000Y24000D02*
Y41618D01*
X34900D01*
G54D18*
X-27600Y-101500D03*
Y-96500D03*
Y-91500D03*
Y-86500D03*
X-6400D03*
Y-91500D03*
Y-96500D03*
Y-101500D03*
G54D27*
X-1655Y-74815D03*
X-3625D03*
X-5595D03*
X-7565D03*
X-9535D03*
X-11505D03*
X-13475D03*
Y10185D03*
X-11505D03*
X-9535D03*
X-7565D03*
X-5595D03*
X-3625D03*
X-1655D03*
X27895Y-74815D03*
X25925D03*
X23955D03*
X21985D03*
X20015D03*
X18045D03*
X16075D03*
X14105D03*
X12135D03*
X10165D03*
X8195D03*
X6225D03*
X4255D03*
X2285D03*
X315D03*
Y10185D03*
X2285D03*
X4255D03*
X6225D03*
X8195D03*
X10165D03*
X12135D03*
X14105D03*
X16075D03*
X18045D03*
X20015D03*
X21985D03*
X23955D03*
X25925D03*
X27895D03*
X55475Y-74815D03*
X53505D03*
X51535D03*
X49565D03*
X47595D03*
X45625D03*
X43655D03*
X41685D03*
X39715D03*
X37745D03*
X35775D03*
X33805D03*
X31835D03*
X29865D03*
Y10185D03*
X31835D03*
X33805D03*
X35775D03*
X37745D03*
X39715D03*
X41685D03*
X43655D03*
X45625D03*
X47595D03*
X49565D03*
X51535D03*
X53505D03*
X55475D03*
G54D37*
G01X79900Y32500D02*
Y40618D01*
X78900Y41618D01*
G54D28*
X-21500Y-66790D03*
Y-64820D03*
Y-62850D03*
Y-60880D03*
Y-58910D03*
Y-56940D03*
Y-54970D03*
Y-53000D03*
Y-51030D03*
Y-49060D03*
Y-47090D03*
Y-45120D03*
Y-43150D03*
Y-41180D03*
Y-39210D03*
Y-37240D03*
Y-35270D03*
Y-33300D03*
Y-31330D03*
Y-29360D03*
Y-27390D03*
Y-25420D03*
Y-23450D03*
Y-21480D03*
Y-19510D03*
Y-17540D03*
Y-15570D03*
Y-13600D03*
Y-11630D03*
Y-9660D03*
Y-7690D03*
Y-5720D03*
Y-3750D03*
Y-1780D03*
Y190D03*
Y2160D03*
X63500Y-58910D03*
Y-60880D03*
Y-62850D03*
Y-64820D03*
Y-66790D03*
Y-29360D03*
Y-31330D03*
Y-33300D03*
Y-35270D03*
Y-37240D03*
Y-39210D03*
Y-41180D03*
Y-43150D03*
Y-45120D03*
Y-47090D03*
Y-49060D03*
Y-51030D03*
Y-53000D03*
Y-54970D03*
Y-56940D03*
Y-1780D03*
Y-3750D03*
Y-5720D03*
Y-7690D03*
Y-9660D03*
Y-11630D03*
Y-13600D03*
Y-15570D03*
Y-17540D03*
Y-19510D03*
Y-21480D03*
Y-23450D03*
Y-25420D03*
Y-27390D03*
Y2160D03*
Y190D03*
G54D19*
X-34000Y21000D03*
Y27200D03*
X-5000D03*
Y21000D03*
X-24000Y20800D03*
Y27000D03*
X-12000Y20800D03*
Y27000D03*
X56000Y21000D03*
Y27200D03*
X71000Y21000D03*
Y27200D03*
G54D38*
G01X-43780Y84000D02*
X-51900D01*
G01X-37466Y82700D02*
Y78882D01*
X-43780D01*
G01X-32966Y82700D02*
Y78882D01*
X-24094D01*
G01X-37466Y82700D02*
X-39055D01*
Y74158D01*
G01X-37466Y82700D02*
X-36496D01*
Y74158D01*
G01X-32966Y82700D02*
X-31378D01*
Y74158D01*
G01X-51900Y89100D02*
X-51882Y89118D01*
X-43780D01*
G01X-39055Y93842D02*
X-51858D01*
X-51900Y93800D01*
G01X-32966Y87700D02*
X-37466D01*
G01X-24094Y84000D02*
X-18966D01*
G01X-5000Y73500D02*
X-12500D01*
Y84000D01*
X-5346D01*
G01Y89118D02*
X-12500D01*
G01X-622Y93842D02*
X-12500D01*
G01X-22500Y100000D02*
X-28819D01*
Y93842D01*
G01X-24094Y89118D02*
X-23866Y89347D01*
Y93400D01*
G01X-24094Y86559D02*
X-21543D01*
X-18984Y89118D01*
G01X25000Y84000D02*
X33087D01*
G01X14339D02*
X19467D01*
G01X967D02*
Y87700D01*
G01Y84000D02*
Y82700D01*
G01X4496Y84000D02*
X967D01*
G01X4496D02*
X5467D01*
Y87700D01*
G01X33087Y89118D02*
X25000D01*
G01Y93600D02*
Y93842D01*
X37811D01*
G01X9614D02*
Y100000D01*
X16300D01*
G01X14339Y89118D02*
X14567D01*
Y93400D01*
G01X14339Y86559D02*
X16890D01*
X19449Y89118D01*
G01X52772Y84000D02*
X57900D01*
G01X52772Y89118D02*
X53000D01*
Y93400D01*
G01X48047Y93842D02*
Y100000D01*
X54300D01*
G01X52772Y86559D02*
X55323D01*
X57882Y89118D01*
G54D29*
X82400Y-62000D03*
Y-42000D03*
X99600Y-62000D03*
Y-42000D03*
G54D39*
G01X-28600Y-23450D02*
X-30950D01*
X-35400Y-19000D01*
G01X-34000Y21000D02*
Y10500D01*
G01X-24000Y27000D02*
Y28100D01*
X-19400D01*
G01X-24000Y20800D02*
X-19272D01*
Y24500D01*
G01X51000Y31500D02*
X56900D01*
Y41618D01*
G01X106000Y-55800D02*
X93500D01*
X87300Y-62000D01*
X82400D01*
G01D02*
X75000D01*
G01X71000Y21000D02*
X75728D01*
Y25000D01*
M02*
