G04 ================== begin FILE IDENTIFICATION RECORD ==================*
G04 Layout Name:  galvo_ctrl_brd.brd*
G04 Film Name:    L2*
G04 File Format:  Gerber RS274X*
G04 File Origin:  Cadence Allegro 16.5-P002*
G04 Origin Date:  Mon Aug 05 09:54:01 2019*
G04 *
G04 Layer:  ETCH/L2*
G04 Layer:  PIN/L2*
G04 Layer:  VIA CLASS/L2*
G04 *
G04 Offset:    (0.00 0.00)*
G04 Mirror:    No*
G04 Mode:      Positive*
G04 Rotation:  0*
G04 FullContactRelief:  No*
G04 UndefLineWidth:     6.00*
G04 ================== end FILE IDENTIFICATION RECORD ====================*
%FSLAX25Y25*MOIN*%
%IR0*IPPOS*OFA0.00000B0.00000*MIA0B0*SFA1.00000B1.00000*%
%ADD13C,.04*%
%ADD15C,.014*%
%ADD12C,.06*%
%ADD11C,.024*%
%ADD16C,.018*%
%ADD14R,.06X.06*%
%ADD10C,.12*%
%ADD17C,.01*%
%ADD18C,.02*%
%ADD19C,.006*%
%ADD21C,.04204*%
%ADD20C,.03604*%
G75*
%LPD*%
G75*
G36*
G01X-8125Y84324D02*
G02X-8243Y84142I-200J0D01*
G03Y80858I743J-1642D01*
G01X-8189Y80834D01*
X-8125Y80735D01*
Y79265D01*
X-8189Y79166D01*
X-8243Y79142D01*
G03X-8838Y76293I743J-1642D01*
G02X-9135Y75625I-297J-268D01*
G01X-10865D01*
G02X-11162Y76293I0J400D01*
G03X-13838I-1338J1207D01*
G02X-14135Y75625I-297J-268D01*
G01X-15865D01*
G02X-16162Y76293I0J400D01*
G03X-18838I-1338J1207D01*
G02X-19135Y75625I-297J-268D01*
G01X-20865D01*
G02X-21162Y76293I0J400D01*
G03X-23838I-1338J1207D01*
G02X-24135Y75625I-297J-268D01*
G01X-25865D01*
G02X-26162Y76293I0J400D01*
G03X-28838I-1338J1207D01*
G02X-29135Y75625I-297J-268D01*
G01X-30865D01*
G02X-31162Y76293I0J400D01*
G03X-33838I-1338J1207D01*
G02X-34135Y75625I-297J-268D01*
G01X-35865D01*
G02X-36162Y76293I0J400D01*
G03X-38838I-1338J1207D01*
G02X-39135Y75625I-297J-268D01*
G01X-54800D01*
G02X-55000Y75825I0J200D01*
G01Y79522D01*
G02X-54464Y79898I400J0D01*
G03Y83852I714J1977D01*
G02X-55000Y84228I-136J376D01*
G01Y104175D01*
G02X-54800Y104375I200J0D01*
G01X-8325D01*
G02X-8125Y104175I0J-200D01*
G01Y94265D01*
X-8189Y94166D01*
X-8243Y94142D01*
G03Y90858I743J-1642D01*
G01X-8189Y90834D01*
X-8125Y90735D01*
Y89324D01*
G02X-8243Y89142I-200J0D01*
G03Y85858I743J-1642D01*
G01X-8189Y85834D01*
X-8125Y85735D01*
Y84324D01*
G37*
G36*
G01X8750Y75825D02*
Y76200D01*
X8805Y76258D01*
G03Y78742I-1305J1242D01*
G02X8750Y78880I145J138D01*
G01Y81120D01*
G02X8805Y81258I200J0D01*
G03Y83742I-1305J1242D01*
G02X8750Y83880I145J138D01*
G01Y86120D01*
G02X8805Y86258I200J0D01*
G03Y88742I-1305J1242D01*
G02X8750Y88880I145J138D01*
G01Y91120D01*
G02X8805Y91258I200J0D01*
G03Y93742I-1305J1242D01*
G02X8750Y93880I145J138D01*
G01Y104175D01*
G02X8950Y104375I200J0D01*
G01X43550D01*
G02X43750Y104175I0J-200D01*
G01Y85000D01*
X75425D01*
G02X75625Y84800I0J-200D01*
G01Y75825D01*
G02X75425Y75625I-200J0D01*
G01X28017D01*
G02X27864Y75697I1J200D01*
G03X24636I-1614J-1347D01*
G02X24483Y75625I-154J128D01*
G01X19135D01*
G02X18838Y76293I0J400D01*
G03X16162I-1338J1207D01*
G02X15865Y75625I-297J-268D01*
G01X14135D01*
G02X13838Y76293I0J400D01*
G03X11162I-1338J1207D01*
G02X10865Y75625I-297J-268D01*
G01X8950D01*
G02X8750Y75825I0J200D01*
G37*
G36*
G01X45000Y86450D02*
Y104175D01*
G02X45200Y104375I200J0D01*
G01X59175D01*
G02X59375Y104175I0J-200D01*
G01Y89135D01*
G02X58707Y88838I-400J0D01*
G03X55838Y86804I-1207J-1338D01*
G02X55469Y86250I-369J-154D01*
G01X45200D01*
G02X45000Y86450I0J200D01*
G37*
G36*
G01X64531Y86250D02*
G02X64162Y86804I0J400D01*
G03X61293Y88838I-1662J696D01*
G02X60625Y89135I-268J297D01*
G01Y104175D01*
G02X60825Y104375I200J0D01*
G01X75425D01*
G02X75625Y104175I0J-200D01*
G01Y86450D01*
G02X75425Y86250I-200J0D01*
G01X64531D01*
G37*
%LPC*%
G75*
G54D21*
X36875Y84375D03*
X25000Y88125D03*
X67500Y99000D03*
G54D20*
X-27500Y87500D03*
X-32500D03*
X-37500D03*
Y82500D03*
X-32500D03*
X-27500D03*
X-22500D03*
X-17500D03*
X-12500D03*
X-37500Y92500D03*
X-32500D03*
X-27500D03*
X17500Y82500D03*
%LPD*%
G75*
G54D10*
X-104331Y-94488D03*
Y94488D03*
X104331Y-94488D03*
Y94488D03*
G54D11*
X-96000Y-67500D03*
Y-72500D03*
Y-77500D03*
Y-57500D03*
Y-62500D03*
X-111250Y-52594D03*
X-96000Y-52500D03*
Y-47500D03*
Y-42500D03*
X-74000Y-77500D03*
Y-67500D03*
Y-72500D03*
Y-52500D03*
Y-62500D03*
Y-57500D03*
Y-47500D03*
Y-42500D03*
X-44304Y-91900D03*
X-44350Y-98100D03*
X-45000Y71875D03*
X-53750Y81875D03*
X-48875Y97000D03*
X-34350Y-98125D03*
X-23780Y-71828D03*
X-28898Y-56404D03*
X-23780D03*
X-21220Y-59588D03*
X-36575Y-42175D03*
X-26339Y-42251D03*
X-25000Y-20008D03*
X-30000Y-19968D03*
X-20000D03*
X-24960Y8112D03*
X-29640Y24648D03*
X-20600Y57712D03*
X-7500Y-98125D03*
X0Y-66250D03*
X-8425Y-71575D03*
X-10984Y-67766D03*
X-3100Y-55600D03*
X-18661Y-56219D03*
X-13416Y-56160D03*
X-16102Y-59402D03*
X-8425Y-55925D03*
X-3100Y-49400D03*
X-7500Y-27444D03*
X-10984Y-42368D03*
X-14976Y-12480D03*
X-7500Y-8724D03*
X-15000Y-19968D03*
X-3432Y27500D03*
Y20000D03*
X-9048Y19968D03*
X-14976Y24648D03*
X-10344Y14400D03*
X0Y57408D03*
X12500Y-81250D03*
X6250D03*
Y-66250D03*
X12500D03*
X11232Y20000D03*
X18096Y19968D03*
X11232Y27500D03*
X11398Y32448D03*
X21250Y-81250D03*
X33750D03*
Y-66250D03*
X21250D03*
X27500D03*
X36250Y-45000D03*
Y-60000D03*
X30000D03*
X24024Y27500D03*
Y20000D03*
X29328Y32136D03*
X26500Y68150D03*
X36875Y84375D03*
X26250Y74350D03*
X25000Y96875D03*
X36875Y90625D03*
X25000Y88125D03*
X55536Y-90650D03*
Y-96850D03*
X40000Y-66250D03*
X50984Y-70072D03*
X43950Y-76850D03*
X48425Y-53352D03*
X56102D03*
X52788Y-37500D03*
X52728Y4000D03*
X38688Y20000D03*
Y27500D03*
X53614Y47186D03*
X53664Y53436D03*
Y59375D03*
X61594Y-96850D03*
X61220Y-70132D03*
X74016Y-66516D03*
X66339Y-53352D03*
X58661Y-56472D03*
X71457Y-53361D03*
X68898Y-56418D03*
X61220Y-53352D03*
X63780Y-56472D03*
X68580Y-37500D03*
X67080Y4000D03*
X57500Y8644D03*
X68125Y25000D03*
X72500Y14375D03*
X69888Y47186D03*
X67500Y99000D03*
X88166Y-96850D03*
X88900Y-73600D03*
X76575Y-70325D03*
X81850Y-55600D03*
X76575Y-40200D03*
X90625Y51250D03*
X97500Y-73750D03*
X106100Y-41725D03*
X103100Y46900D03*
X106750Y63625D03*
Y78625D03*
X96900Y78725D03*
G54D12*
X-96457Y-25000D03*
Y-15000D03*
Y-5000D03*
Y5000D03*
Y15000D03*
Y25000D03*
X-86457Y-25000D03*
Y-15000D03*
Y-5000D03*
Y5000D03*
Y15000D03*
X-77500Y87500D03*
Y97500D03*
X-60000Y-80000D03*
Y-70000D03*
Y-60000D03*
Y-50000D03*
Y-40000D03*
Y-30000D03*
Y-20000D03*
Y-10000D03*
Y0D03*
Y10000D03*
Y20000D03*
Y30000D03*
Y40000D03*
Y50000D03*
Y60000D03*
X-67500Y87500D03*
Y97500D03*
X-50000Y-80000D03*
Y-70000D03*
Y-60000D03*
Y-50000D03*
Y-40000D03*
Y-30000D03*
Y-20000D03*
Y-10000D03*
Y0D03*
Y10000D03*
Y20000D03*
Y30000D03*
Y40000D03*
Y50000D03*
X0Y-97500D03*
Y-87500D03*
X10000Y-97500D03*
Y-87500D03*
X20000Y-97500D03*
Y-87500D03*
X30000Y-97500D03*
Y-87500D03*
X40000Y-97500D03*
X86457Y-15000D03*
Y5000D03*
Y-5000D03*
Y25000D03*
Y15000D03*
X96457Y-25000D03*
Y-15000D03*
Y5000D03*
Y-5000D03*
Y25000D03*
Y15000D03*
G54D13*
G01X-104375Y-61875D02*
Y-77500D01*
X-95000Y-86875D01*
X-74375D01*
G01X-102000Y72500D02*
X-109375Y65125D01*
Y-26875D01*
X-104375Y-31875D01*
Y-52500D01*
G01D02*
Y-61875D01*
G01X-74375Y-86875D02*
X-50625D01*
G01D02*
X-10625D01*
X0Y-97500D01*
G01X78125Y34375D02*
X61250D01*
X51875Y25000D01*
G01X72500Y78750D02*
Y78125D01*
G01D02*
X88750D01*
Y57500D01*
X110000D01*
Y34375D01*
X93500D01*
G01X90000Y88000D02*
Y98125D01*
X72500D01*
G01X78125Y34375D02*
Y23332D01*
X86457Y15000D01*
G01X93500Y34375D02*
X78125D01*
X-102000Y42500D03*
Y57500D03*
Y72500D03*
X-83000Y42500D03*
Y57500D03*
Y72500D03*
X17500Y-60100D03*
Y-44900D03*
X23750D03*
X51875Y25000D03*
G54D14*
X-86457D03*
X-87500Y87500D03*
Y97500D03*
X-60000Y-93500D03*
Y74000D03*
X-50000Y60000D03*
X40000Y-87500D03*
X86457Y-25000D03*
X80500Y42560D03*
X93500D03*
X80500Y57500D03*
X90000Y88000D03*
G54D15*
X-23780Y-76250D03*
X2677Y-27877D03*
X-473Y-31027D03*
Y-27877D03*
X5827D03*
Y-31027D03*
X8977Y-27877D03*
X-473Y-40477D03*
X2677D03*
Y-34177D03*
X8977Y-40477D03*
X5827D03*
X-473Y-37327D03*
X5827Y-34177D03*
X2677Y-37327D03*
X12127Y-31027D03*
X8977D03*
X2677Y-24727D03*
X-473Y-15277D03*
X5827Y-18427D03*
X2677Y-15277D03*
X12127Y-8977D03*
X5827Y-15277D03*
X15277D03*
X12127D03*
X-473Y-18427D03*
X2677D03*
X12127Y-12127D03*
X-473D03*
Y-8977D03*
X8977Y-12127D03*
Y-8977D03*
X15277Y-18427D03*
X12127Y-5827D03*
X15277D03*
X5827D03*
X-473Y473D03*
X2677Y-5827D03*
X8977D03*
X12127Y-2677D03*
Y473D03*
X8977D03*
X15277Y-2677D03*
X8977D03*
X5827Y473D03*
X15277D03*
X-473Y-5827D03*
Y-2677D03*
X34177Y-27877D03*
X24727Y-34177D03*
X21577D03*
X18427D03*
X27877D03*
X18427Y-37327D03*
X27877Y-31027D03*
Y-27877D03*
X34177Y-18427D03*
Y-15277D03*
Y-24727D03*
X21577Y-18427D03*
X34177Y-12127D03*
X21577D03*
X31027D03*
Y-8977D03*
X18427Y-24727D03*
X24727Y-18427D03*
X21577Y-24727D03*
X18427Y-18427D03*
X21577Y-15277D03*
X18427D03*
X24727Y-5827D03*
X21577D03*
X18427D03*
X24727Y-2677D03*
X27927Y523D03*
X31077D03*
X24777D03*
X34227D03*
X27877Y-5827D03*
X21627Y523D03*
X31027Y-2677D03*
X40477Y-40477D03*
Y-34177D03*
X37327Y-27877D03*
Y-34177D03*
Y-31027D03*
X40477Y-27877D03*
X37327Y-24727D03*
X40477Y-18427D03*
Y-24727D03*
X37327Y-8977D03*
X40527Y523D03*
X40477Y-5827D03*
Y-2677D03*
X45000Y68150D03*
X61220Y-80625D03*
X76150Y68150D03*
G54D16*
X-22500Y62500D03*
X-27500D03*
X-32500D03*
X-37500D03*
X-32500Y67500D03*
X-37500D03*
X-22500D03*
X-27500D03*
X-32500Y72500D03*
X-37500D03*
X-22500Y82500D03*
X-27500D03*
X-32500D03*
X-37500D03*
X-22500Y77500D03*
X-27500D03*
X-32500D03*
X-37500D03*
X-22500Y72500D03*
X-27500D03*
Y92500D03*
X-22500Y87500D03*
Y92500D03*
X-27500Y87500D03*
X-32500D03*
Y92500D03*
X-37500Y87500D03*
Y92500D03*
X-2500Y67500D03*
X-7500Y62500D03*
X-17500D03*
X-2500D03*
X-7500Y67500D03*
X-12500D03*
Y62500D03*
X-2500Y82500D03*
X-7500D03*
X-2500Y77500D03*
X-7500D03*
X-12500Y82500D03*
X-17500D03*
X-12500Y77500D03*
X-17500D03*
X-12500Y72500D03*
X-7500D03*
X-2500D03*
X-17500D03*
Y87500D03*
Y92500D03*
X-12500Y97500D03*
Y87500D03*
Y92500D03*
X-7500Y87500D03*
X-2500D03*
X-7500Y92500D03*
X-2500D03*
X17500Y67500D03*
X12500D03*
X17500Y62500D03*
X7500D03*
X12500D03*
X2500Y67500D03*
X7500D03*
X2500Y62500D03*
X17500Y72500D03*
X12500D03*
X7500Y82500D03*
X2500D03*
X17500D03*
X12500Y77500D03*
X7500D03*
X2500D03*
X17500D03*
X7500Y72500D03*
X2500D03*
X12500Y87500D03*
Y92500D03*
X17500Y97500D03*
Y87500D03*
Y92500D03*
X7500D03*
X2500Y87500D03*
X7500D03*
X2500Y92500D03*
X52500Y67500D03*
Y77500D03*
Y82500D03*
X47500D03*
Y72500D03*
X52500Y87500D03*
X47500D03*
X52500Y92500D03*
X47500D03*
X57500Y67500D03*
X62500D03*
X67500D03*
X57500Y77500D03*
X62500D03*
X67500D03*
X62500Y82500D03*
X67500D03*
X72500D03*
X57500D03*
X72500Y72500D03*
X57500Y92500D03*
X72500Y87500D03*
X67500D03*
X72500Y92500D03*
X67500D03*
X62500D03*
Y87500D03*
X57500D03*
G54D17*
G01X-74000Y-67500D02*
X-61800Y-55300D01*
X-54700D01*
X-50000Y-60000D01*
G01X-60000D02*
X-66700Y-66700D01*
Y-69100D01*
X-70100Y-72500D01*
X-74000D01*
G01X-28898Y-56404D02*
X-22278Y-63024D01*
X3024D01*
X6250Y-66250D01*
G01X-13416Y-56160D02*
X-8736Y-60840D01*
X7090D01*
X12500Y-66250D01*
G01X50984Y-70072D02*
X54856Y-66200D01*
X66800D01*
X77100Y-55900D01*
Y-50900D01*
X81200Y-46800D01*
Y-35900D01*
X77900Y-32600D01*
Y-3557D01*
X86457Y5000D01*
G54D18*
G01X-111250Y-52594D02*
X-104469D01*
X-104375Y-52500D01*
G01X-96000Y-62500D02*
X-103750D01*
X-104375Y-61875D01*
G01X-74000Y-77500D02*
Y-86500D01*
X-74375Y-86875D01*
G01X-50625D02*
Y-91825D01*
X-44350Y-98100D01*
G01X-51250Y76250D02*
Y66875D01*
X-42500D01*
Y58125D01*
X-25000Y40625D01*
Y23775D01*
X-15625Y14400D01*
X-10344D01*
G01X24024Y37500D02*
X6568D01*
X-3432Y27500D01*
G01Y20000D02*
X943Y15625D01*
X19649D01*
X24024Y20000D01*
G01X-14976Y24648D02*
Y42432D01*
X0Y57408D01*
G01X24024Y27500D02*
Y37500D01*
G01X80500Y57500D02*
X70000D01*
X63750Y63750D01*
X41250D01*
X24024Y46524D01*
Y37500D01*
G01X61220Y-80625D02*
X81850D01*
G01X61220D02*
Y-70132D01*
G01X68125Y25000D02*
Y10000D01*
X96457D01*
Y15000D01*
G01X81850Y-80625D02*
Y-90534D01*
X88166Y-96850D01*
G01X81850Y-80625D02*
Y-55600D01*
G01X96457Y-15000D02*
X103750Y-22293D01*
Y-34375D01*
X96875Y-41250D01*
Y-51200D01*
X92475Y-55600D01*
X81850D01*
G01X93500Y42560D02*
Y34375D01*
G54D19*
G01X-473Y-27877D02*
X-3150Y-25200D01*
X-28900D01*
X-38600Y-34900D01*
X-63650D01*
X-68750Y-40000D01*
Y-52150D01*
X-71600Y-55000D01*
X-83500D01*
X-96000Y-67500D01*
G01Y-57500D02*
X-91250Y-52750D01*
Y-43050D01*
X-63100Y-14900D01*
X-19100D01*
X-16800Y-17200D01*
X-13100D01*
X-9050Y-21250D01*
X-800D01*
X2677Y-24727D01*
G01Y-27877D02*
X-2100Y-23100D01*
X-29900D01*
X-31900Y-25100D01*
X-66975D01*
X-78750Y-36875D01*
Y-47750D01*
X-74000Y-52500D01*
G01X-473Y-12127D02*
X-8473D01*
X-14400Y-6200D01*
X-33900D01*
X-41700Y1600D01*
Y10600D01*
X-46000Y14900D01*
X-64600D01*
X-77500Y27800D01*
Y73125D01*
X-87500Y83125D01*
Y87500D01*
G01X-77500D02*
Y80400D01*
X-72300Y75200D01*
Y42400D01*
X-64800Y34900D01*
X-45500D01*
X-37600Y27000D01*
Y2200D01*
X-32400Y-3000D01*
X-7100D01*
X-4273Y-5827D01*
X-473D01*
G01Y-8977D02*
X-3623D01*
X-8100Y-4500D01*
X-33200D01*
X-39700Y2000D01*
Y19600D01*
X-44800Y24700D01*
X-63700D01*
X-74800Y35800D01*
Y74200D01*
X-82200Y81600D01*
Y92200D01*
X-87500Y97500D01*
G01X2677Y-5827D02*
X1050Y-4200D01*
X-3300D01*
X-6100Y-1400D01*
X-31800D01*
X-35800Y2600D01*
Y35300D01*
X-45500Y45000D01*
X-64200D01*
X-69700Y50500D01*
Y78000D01*
X-72500Y80800D01*
Y92500D01*
X-77500Y97500D01*
G01X-473Y-31027D02*
X-30727D01*
X-44500Y-44800D01*
X-62925D01*
X-66250Y-48125D01*
Y-54750D01*
X-74000Y-62500D01*
G01X-67500Y87500D02*
Y58800D01*
X-63500Y54800D01*
X-46200D01*
X-33900Y42500D01*
Y3000D01*
X-31100Y200D01*
X-3350D01*
X-473Y-2677D01*
G01X2677Y-34177D02*
X1616Y-33116D01*
X-21116D01*
X-28898Y-40898D01*
Y-56404D01*
G01X-23780D02*
Y-43480D01*
X-17627Y-37327D01*
X-473D01*
G01X2677D02*
X1104Y-38900D01*
X-16500D01*
X-21220Y-43620D01*
Y-59588D01*
G01X-26339Y-42251D02*
X-19788Y-35700D01*
X4304D01*
X5827Y-34177D01*
G01X2677Y-40477D02*
X354Y-42800D01*
X-6800D01*
X-10800Y-46800D01*
X-13600D01*
X-18661Y-51861D01*
Y-56219D01*
G01X8977Y-40477D02*
X3654Y-45800D01*
X-5200D01*
X-9700Y-50300D01*
X-11300D01*
X-13416Y-52416D01*
Y-56160D01*
G01X5827Y-40477D02*
X2004Y-44300D01*
X-6000D01*
X-10200Y-48500D01*
X-12500D01*
X-16102Y-52102D01*
Y-59402D01*
G01X-473Y-15277D02*
X-12179D01*
X-14976Y-12480D01*
G01X12127Y-15277D02*
X10900Y-16504D01*
Y-19800D01*
X13500Y-22400D01*
X25800D01*
X30000Y-26600D01*
Y-37400D01*
X32500Y-39900D01*
Y-48100D01*
X40200Y-55800D01*
Y-60800D01*
X44900Y-65500D01*
Y-72600D01*
X47400Y-75100D01*
Y-78400D01*
X45700Y-80100D01*
X39100D01*
X35400Y-76400D01*
X3600D01*
X0Y-80000D01*
Y-87500D01*
G01X27500Y-66250D02*
Y-63750D01*
X11250Y-47500D01*
Y-42500D01*
X14100Y-39650D01*
Y-28200D01*
X8100Y-22200D01*
X3300D01*
X-473Y-18427D01*
G01X43950Y-76850D02*
X38550D01*
X30800Y-69100D01*
Y-64550D01*
X13125Y-46875D01*
Y-43125D01*
X15562Y-40688D01*
Y-27562D01*
X8900Y-20900D01*
X5150D01*
X2677Y-18427D01*
G01X15277Y-15277D02*
X13500Y-17054D01*
Y-19700D01*
X14700Y-20900D01*
X26700D01*
X31500Y-25700D01*
Y-36800D01*
X33900Y-39200D01*
Y-47600D01*
X41600Y-55300D01*
Y-60200D01*
X46500Y-65100D01*
Y-71800D01*
X49100Y-74400D01*
Y-78800D01*
X46100Y-81800D01*
X38300D01*
X34500Y-78000D01*
X31900D01*
X30000Y-79900D01*
Y-87500D01*
G01X53664Y59375D02*
X47500D01*
X32200Y44075D01*
Y19700D01*
X20000Y7500D01*
X7500D01*
X2300Y2300D01*
Y-700D01*
X4300Y-2700D01*
Y-10600D01*
X7800Y-14100D01*
X10154D01*
X12127Y-12127D01*
G01X90625Y51250D02*
X63750D01*
X58500Y56500D01*
X47750D01*
X34000Y42750D01*
Y19000D01*
X17800Y2800D01*
Y-2700D01*
X16300Y-4200D01*
X13754D01*
X12127Y-5827D01*
G01X53614Y47186D02*
X41561D01*
X35800Y41425D01*
Y18300D01*
X20000Y2500D01*
Y-6600D01*
X19200Y-7400D01*
X10550D01*
X8977Y-5827D01*
G01X53664Y53436D02*
X57500Y49600D01*
Y44375D01*
X41800Y28675D01*
Y18100D01*
X38000Y14300D01*
Y1000D01*
X24873Y-12127D01*
X21577D01*
G01X40477Y-34177D02*
X43552D01*
X56102Y-46727D01*
Y-53352D01*
G01X66339D02*
Y-47539D01*
X64400Y-45600D01*
Y-35025D01*
X55675Y-26300D01*
X38904D01*
X37327Y-27877D01*
G01X58661Y-56472D02*
Y-38036D01*
X51652Y-31027D01*
X40477D01*
X37327Y-34177D01*
G01X61220Y-53352D02*
Y-37470D01*
X53150Y-29400D01*
X38954D01*
X37327Y-31027D01*
G01X40477Y-27877D02*
X54127D01*
X62700Y-36450D01*
Y-46800D01*
X63780Y-47880D01*
Y-56472D01*
G01X40477Y-18427D02*
X55227D01*
X71457Y-34657D01*
Y-53361D01*
G01X40477Y-24727D02*
X56927D01*
X66000Y-33800D01*
Y-44800D01*
X68898Y-47698D01*
Y-56418D01*
M02*
