G04 ================== begin FILE IDENTIFICATION RECORD ==================*
G04 Layout Name:  galvo_ctrl_brd.brd*
G04 Film Name:    L4*
G04 File Format:  Gerber RS274X*
G04 File Origin:  Cadence Allegro 16.5-P002*
G04 Origin Date:  Fri Aug 09 21:47:54 2019*
G04 *
G04 Layer:  ETCH/L4*
G04 Layer:  PIN/L4*
G04 Layer:  VIA CLASS/L4*
G04 *
G04 Offset:    (0.00 0.00)*
G04 Mirror:    No*
G04 Mode:      Positive*
G04 Rotation:  0*
G04 FullContactRelief:  No*
G04 UndefLineWidth:     6.00*
G04 ================== end FILE IDENTIFICATION RECORD ====================*
%FSLAX25Y25*MOIN*%
%IR0*IPPOS*OFA0.00000B0.00000*MIA0B0*SFA1.00000B1.00000*%
%ADD14C,.04*%
%ADD16C,.014*%
%ADD12C,.06*%
%ADD11C,.024*%
%ADD15C,.018*%
%ADD13R,.06X.06*%
%ADD10C,.12*%
%ADD17C,.02*%
%ADD18C,.015*%
%ADD24C,.03204*%
%ADD22C,.04204*%
%ADD23C,.03604*%
%ADD19C,.09004*%
%ADD20R,.09002X.09004*%
%ADD21R,.09004X.09004*%
G75*
%LPD*%
G75*
G36*
G01X56250Y-19175D02*
Y6291D01*
G02X56786Y6667I400J0D01*
G03Y10621I714J1977D01*
G02X56250Y10997I-136J376D01*
G01Y30625D01*
X33950D01*
G02X33750Y30825I0J200D01*
G01Y53750D01*
X-31875D01*
Y-2925D01*
G02X-32075Y-3125I-200J0D01*
G01X-80425D01*
G02X-80625Y-2925I0J200D01*
G01Y7500D01*
X-82607D01*
G02X-82771Y7585I0J200D01*
G03X-90143I-3686J-2585D01*
G02X-90307Y7500I-164J115D01*
G01X-92607D01*
G02X-92771Y7585I0J200D01*
G03X-100143I-3686J-2585D01*
G02X-100307Y7500I-164J115D01*
G01X-114175D01*
G02X-114375Y7700I0J200D01*
G01Y34800D01*
G02X-114175Y35000I200J0D01*
G01X-88750D01*
Y77925D01*
G02X-88550Y78125I200J0D01*
G01X-64702D01*
G02X-64502Y77925I0J-200D01*
G01Y69498D01*
X-64492D01*
X-64375Y69382D01*
Y69375D01*
X-55625D01*
Y69382D01*
X-55508Y69498D01*
X-55498D01*
Y78502D01*
X-55508D01*
X-55625Y78618D01*
Y104175D01*
G02X-55425Y104375I200J0D01*
G01X70425D01*
G02X70625Y104175I0J-200D01*
G01Y96450D01*
G02X70425Y96250I-200J0D01*
G01X65000D01*
Y71875D01*
X70735D01*
X70834Y71811D01*
X70858Y71757D01*
G03X74142I1642J743D01*
G02X74324Y71875I182J-82D01*
G01X79800D01*
G02X80000Y71675I0J-200D01*
G01Y62202D01*
G02X79800Y62002I-200J0D01*
G01X75998D01*
Y52998D01*
X79800D01*
G02X80000Y52798I0J-200D01*
G01Y47262D01*
G02X79800Y47062I-200J0D01*
G01X75998D01*
Y38058D01*
X79800D01*
G02X80000Y37858I0J-200D01*
G01Y-10625D01*
X100425D01*
G02X100625Y-10825I0J-200D01*
G01Y-19175D01*
G02X100425Y-19375I-200J0D01*
G01X56450D01*
G02X56250Y-19175I0J200D01*
G37*
G36*
G01X56632Y-57023D02*
G03X60690I2029J551D01*
G02X60883Y-56875I193J-52D01*
G01X61626D01*
X61734Y-56957D01*
X61751Y-57023D01*
G03X65809I2029J551D01*
G01X65826Y-56957D01*
X65934Y-56875D01*
X66250D01*
Y-55651D01*
G02X66440Y-55452I200J-1D01*
G03X66442Y-55451I-939J1881D01*
G02X66851Y-55942I19J-400D01*
G03X70947Y-55949I2047J-476D01*
G02X71356Y-55461I390J89D01*
G03X69408Y-53830I101J2100D01*
G02X68999Y-54318I-390J-89D01*
G03X68795Y-54319I-92J-2100D01*
G02X68386Y-53828I-19J400D01*
G03X66440Y-51252I-2047J476D01*
G02X66250Y-51053I10J200D01*
G01Y-40825D01*
G02X66450Y-40625I200J0D01*
G01X74359D01*
G02X74552Y-40771I0J-200D01*
G03X78598I2023J571D01*
G02X78791Y-40625I193J-54D01*
G01X79800D01*
G02X80000Y-40825I0J-200D01*
G01Y-66675D01*
G02X79800Y-66875I-200J0D01*
G01X76518D01*
G02X76118Y-66482I0J400D01*
G03X71914I-2102J-34D01*
G02X71514Y-66875I-400J7D01*
G01X45000D01*
Y-74434D01*
G02X44496Y-74820I-400J0D01*
G03Y-78880I-546J-2030D01*
G02X45000Y-79266I104J-386D01*
G01Y-82925D01*
G02X44800Y-83125I-200J0D01*
G01X23271D01*
G02X22948Y-82489I0J400D01*
G03X19552I-1698J1239D01*
G02X19229Y-83125I-323J-236D01*
G01X14521D01*
G02X14198Y-82489I0J400D01*
G03X10802I-1698J1239D01*
G02X10479Y-83125I-323J-236D01*
G01X-425D01*
G02X-625Y-82925I0J200D01*
G01Y-68742D01*
G02X-189Y-68343I400J0D01*
G03Y-64157I189J2093D01*
G02X-625Y-63758I-36J399D01*
G01Y-48125D01*
X-1333D01*
G02X-1486Y-48053I1J200D01*
G03X-4714I-1614J-1347D01*
G02X-4867Y-48125I-154J128D01*
G01X-27500D01*
Y-54110D01*
G02X-28060Y-54476I-400J0D01*
G03Y-58332I-838J-1928D01*
G02X-27500Y-58698I160J-366D01*
G01Y-104175D01*
G02X-27700Y-104375I-200J0D01*
G01X-46675D01*
G02X-46875Y-104175I0J200D01*
G01Y-85825D01*
G02X-46675Y-85625I200J0D01*
G01X-41250D01*
Y-23325D01*
G02X-41050Y-23125I200J0D01*
G01X-17500D01*
Y22300D01*
G02X-17300Y22500I200J0D01*
G01X-4792D01*
G02X-4575Y21764I0J-400D01*
G03X-2289I1143J-1764D01*
G02X-2072Y22500I217J336D01*
G01X22664D01*
G02X22881Y21764I0J-400D01*
G03X25167I1143J-1764D01*
G02X25384Y22500I217J336D01*
G01X48550D01*
G02X48750Y22300I0J-200D01*
G01Y-41675D01*
G02X48550Y-41875I-200J0D01*
G01X10713D01*
G02X10366Y-41276I0J400D01*
G03X7717Y-39488I-1388J799D01*
G02X7087I-315J247D01*
G03X4567I-1260J-989D01*
G02X3937I-315J247D01*
G03X3666Y-39217I-1260J-989D01*
G02Y-38587I247J315D01*
G03Y-36067I-989J1260D01*
G02Y-35437I247J315D01*
G03X3937Y-35166I-989J1260D01*
G02X4567I315J-247D01*
G03X6816Y-32917I1260J989D01*
G02Y-32287I247J315D01*
G03X7087Y-32016I-989J1260D01*
G02X7717I315J-247D01*
G03X10237I1260J989D01*
G02X10867I315J-247D01*
G03Y-30038I1260J989D01*
G02X10237I-315J247D01*
G03X7717I-1260J-989D01*
G02X7087I-315J247D01*
G03X6816Y-29767I-1260J-989D01*
G02Y-29137I247J315D01*
G03X4567Y-26888I-989J1260D01*
G02X3937I-315J247D01*
G03X3666Y-26617I-1260J-989D01*
G02Y-25987I247J315D01*
G03X1688I-989J1260D01*
G02Y-26617I-247J-315D01*
G03X1417Y-26888I989J-1260D01*
G02X787I-315J247D01*
G03X-1462Y-29137I-1260J-989D01*
G02Y-29767I-247J-315D01*
G03X516I989J-1260D01*
G02Y-29137I247J315D01*
G03X787Y-28866I-989J1260D01*
G02X1417I315J-247D01*
G03X3937I1260J989D01*
G02X4567I315J-247D01*
G03X4838Y-29137I1260J989D01*
G02Y-29767I-247J-315D01*
G03Y-32287I989J-1260D01*
G02Y-32917I-247J-315D01*
G03X4567Y-33188I989J-1260D01*
G02X3937I-315J247D01*
G03X1688Y-35437I-1260J-989D01*
G02Y-36067I-247J-315D01*
G03X1417Y-36338I989J-1260D01*
G02X787I-315J247D01*
G03Y-38316I-1260J-989D01*
G02X1417I315J-247D01*
G03X1688Y-38587I1260J989D01*
G02Y-39217I-247J-315D01*
G03X3937Y-41466I989J-1260D01*
G02X4567I315J-247D01*
G03X7087I1260J989D01*
G02X7717I315J-247D01*
G03X9476Y-41999I1260J989D01*
G02X10000Y-42380I124J-380D01*
G01Y-64375D01*
X10479D01*
G02X10802Y-65011I0J-400D01*
G03X14198I1698J-1239D01*
G02X14521Y-64375I323J236D01*
G01X19229D01*
G02X19552Y-65011I0J-400D01*
G03X22948I1698J-1239D01*
G02X23271Y-64375I323J236D01*
G01X24375D01*
Y-57075D01*
G02X24575Y-56875I200J0D01*
G01X56439D01*
G02X56632Y-57023I0J-200D01*
G37*
%LPC*%
G75*
G36*
G01X32020Y-772D02*
G03X32010Y-1412I235J-324D01*
G02X30084Y-1382I-983J-1265D01*
G03X30094Y-742I-235J324D01*
G02X29817Y-466I984J1264D01*
G03X29187I-315J-247D01*
G02X26667I-1260J989D01*
G03X26037I-315J-247D01*
G02X23517I-1260J989D01*
G03X22887I-315J-247D01*
G02Y1512I-1260J989D01*
G03X23517I315J247D01*
G02X26037I1260J-989D01*
G03X26667I315J247D01*
G02X29187I1260J-989D01*
G03X29817I315J247D01*
G02X32337I1260J-989D01*
G03X32967I315J247D01*
G02Y-466I1260J-989D01*
G03X32337I-315J-247D01*
G02X32020Y-772I-1260J989D01*
G37*
G36*
G01X41466Y-3937D02*
G03Y-4567I247J-315D01*
G02X39488I-989J-1260D01*
G03Y-3937I-247J315D01*
G02X41466I989J1260D01*
G37*
G36*
G01X32016Y-10237D02*
G03Y-10867I247J-315D01*
G02X30038I-989J-1260D01*
G03Y-10237I-247J315D01*
G02X32016I989J1260D01*
G37*
G36*
G01X35166Y-16537D02*
G03Y-17167I247J-315D01*
G02X33188I-989J-1260D01*
G03Y-16537I-247J315D01*
G02X35166I989J1260D01*
G37*
G36*
G01X17167Y-19416D02*
G03X16537I-315J-247D01*
G02X14288Y-17167I-1260J989D01*
G03Y-16537I-247J315D01*
G02X14017Y-16266I989J1260D01*
G03X13387I-315J-247D01*
G02X11138Y-14017I-1260J989D01*
G03Y-13387I-247J315D01*
G02X10867Y-13116I989J1260D01*
G03X10237I-315J-247D01*
G02X7988Y-10867I-1260J989D01*
G03Y-10237I-247J315D01*
G02Y-7717I989J1260D01*
G03Y-7087I-247J315D01*
G02Y-4567I989J1260D01*
G03Y-3937I-247J315D01*
G02Y-1417I989J1260D01*
G03Y-787I-247J315D01*
G02X7717Y-516I989J1260D01*
G03X7087I-315J-247D01*
G02Y1462I-1260J989D01*
G03X7717I315J247D01*
G02X10237I1260J-989D01*
G03X10867I315J247D01*
G02X13387I1260J-989D01*
G03X14017I315J247D01*
G02X16266Y-787I1260J-989D01*
G03Y-1417I247J-315D01*
G02Y-3937I-989J-1260D01*
G03Y-4567I247J-315D01*
G02X16537Y-4838I-989J-1260D01*
G03X17167I315J247D01*
G02X19687I1260J-989D01*
G03X20317I315J247D01*
G02X22837I1260J-989D01*
G03X23467I315J247D01*
G02X25987I1260J-989D01*
G03X26617I315J247D01*
G02Y-6816I1260J-989D01*
G03X25987I-315J-247D01*
G02X23467I-1260J989D01*
G03X22837I-315J-247D01*
G02X20317I-1260J989D01*
G03X19687I-315J-247D01*
G02X17167I-1260J989D01*
G03X16537I-315J-247D01*
G02X14017I-1260J989D01*
G03X13387I-315J-247D01*
G02X10867I-1260J989D01*
G03X10237I-315J-247D01*
G02X9966Y-7087I-1260J989D01*
G03Y-7717I247J-315D01*
G02Y-10237I-989J-1260D01*
G03Y-10867I247J-315D01*
G02X10237Y-11138I-989J-1260D01*
G03X10867I315J247D01*
G02X13116Y-13387I1260J-989D01*
G03Y-14017I247J-315D01*
G02X13387Y-14288I-989J-1260D01*
G03X14017I315J247D01*
G02X16537I1260J-989D01*
G03X17167I315J247D01*
G02X19687I1260J-989D01*
G03X20317I315J247D01*
G02X20588Y-14017I1260J-989D01*
G03Y-13387I-247J315D01*
G02X22566I989J1260D01*
G03Y-14017I247J-315D01*
G02X20317Y-16266I-989J-1260D01*
G03X19687I-315J-247D01*
G02X19416Y-16537I-1260J989D01*
G03Y-17167I247J-315D01*
G02X17167Y-19416I-989J-1260D01*
G37*
G36*
G01X3666Y-16537D02*
G03Y-17167I247J-315D01*
G02X3937Y-17438I-989J-1260D01*
G03X4567I315J247D01*
G02Y-19416I1260J-989D01*
G03X3937I-315J-247D01*
G02X1417I-1260J989D01*
G03X787I-315J-247D01*
G02X-1462Y-17167I-1260J989D01*
G03Y-16537I-247J315D01*
G02Y-14017I989J1260D01*
G03Y-13387I-247J315D01*
G02Y-10867I989J1260D01*
G03Y-10237I-247J315D01*
G02Y-7717I989J1260D01*
G03Y-7087I-247J315D01*
G02Y-4567I989J1260D01*
G03Y-3937I-247J315D01*
G02X516I989J1260D01*
G03Y-4567I247J-315D01*
G02X787Y-4838I-989J-1260D01*
G03X1417I315J247D01*
G02Y-6816I1260J-989D01*
G03X787I-315J-247D01*
G02X516Y-7087I-1260J989D01*
G03Y-7717I247J-315D01*
G02Y-10237I-989J-1260D01*
G03Y-10867I247J-315D01*
G02Y-13387I-989J-1260D01*
G03Y-14017I247J-315D01*
G02X787Y-14288I-989J-1260D01*
G03X1417I315J247D01*
G02X3666Y-16537I1260J-989D01*
G37*
G36*
G01X20317Y-25716D02*
G03X19687I-315J-247D01*
G02Y-23738I-1260J989D01*
G03X20317I315J247D01*
G02Y-25716I1260J-989D01*
G37*
G36*
G01X28866Y-29137D02*
G03Y-29767I247J-315D01*
G02X26888I-989J-1260D01*
G03Y-29137I-247J315D01*
G02X28866I989J1260D01*
G37*
G36*
G01X39217Y-35166D02*
G03X38587I-315J-247D01*
G02X36338Y-32917I-1260J989D01*
G03Y-32287I-247J315D01*
G02Y-29767I989J1260D01*
G03Y-29137I-247J315D01*
G02X36067Y-28866I989J1260D01*
G03X35437I-315J-247D01*
G02X33188Y-26617I-1260J989D01*
G03Y-25987I-247J315D01*
G02X35166I989J1260D01*
G03Y-26617I247J-315D01*
G02X35437Y-26888I-989J-1260D01*
G03X36067I315J247D01*
G02X38587I1260J-989D01*
G03X39217I315J247D01*
G02X39488Y-26617I1260J-989D01*
G03Y-25987I-247J315D01*
G02X41466I989J1260D01*
G03Y-26617I247J-315D01*
G02X39217Y-28866I-989J-1260D01*
G03X38587I-315J-247D01*
G02X38316Y-29137I-1260J989D01*
G03Y-29767I247J-315D01*
G02Y-32287I-989J-1260D01*
G03Y-32917I247J-315D01*
G02X38587Y-33188I-989J-1260D01*
G03X39217I315J247D01*
G02Y-35166I1260J-989D01*
G37*
G36*
G01X20317D02*
G03X19687I-315J-247D01*
G02Y-33188I-1260J989D01*
G03X20317I315J247D01*
G02X22837I1260J-989D01*
G03X23467I315J247D01*
G02Y-35166I1260J-989D01*
G03X22837I-315J-247D01*
G02X20317I-1260J989D01*
G37*
G54D24*
X24727Y-18427D03*
X40477D03*
X37327Y-8977D03*
G54D22*
X-48875Y97000D03*
X-45000Y71875D03*
X0Y57408D03*
X26500Y68150D03*
X25000Y96875D03*
X36875Y90625D03*
X53664Y53436D03*
X53614Y47186D03*
X53664Y59375D03*
X67080Y4000D03*
X72500Y14375D03*
X68125Y25000D03*
X69888Y47186D03*
X-44304Y-91900D03*
X-34350Y-98125D03*
X-26339Y-42251D03*
X-14976Y-12480D03*
X-10344Y14400D03*
X6250Y-66250D03*
X-7500Y-27444D03*
Y-8724D03*
X27500Y-66250D03*
X33750D03*
G54D23*
X-37500Y72500D03*
X-32500D03*
Y62500D03*
X-37500D03*
X-32500Y67500D03*
X-37500D03*
X-22500Y62500D03*
X-17500D03*
X-27500D03*
Y92500D03*
X-22500Y87500D03*
Y92500D03*
X-17500Y87500D03*
Y92500D03*
X-12500Y87500D03*
Y92500D03*
Y97500D03*
X-2500Y67500D03*
X-7500Y62500D03*
X7500D03*
Y92500D03*
X12500Y72500D03*
X17500D03*
Y67500D03*
X12500D03*
X17500Y62500D03*
X12500D03*
Y87500D03*
Y92500D03*
X17500Y87500D03*
Y92500D03*
Y97500D03*
X52500Y77500D03*
X57500D03*
X62500D03*
X47500Y72500D03*
X52500Y87500D03*
X47500D03*
X57500Y92500D03*
X52500D03*
X47500D03*
X62500D03*
Y82500D03*
X57500D03*
X52500D03*
X47500D03*
G54D19*
X-96457Y25000D03*
X-60000Y40000D03*
X-50000D03*
X-60000Y50000D03*
X-50000D03*
X-60000Y60000D03*
G54D20*
X-86457Y25000D03*
G54D21*
X-50000Y60000D03*
%LPD*%
G75*
G54D10*
X-104331Y-94488D03*
Y94488D03*
X104331Y-94488D03*
Y94488D03*
G54D11*
X-111250Y-52594D03*
X-96000Y-72500D03*
Y-77500D03*
Y-57500D03*
Y-67500D03*
Y-62500D03*
Y-52500D03*
Y-42500D03*
Y-47500D03*
X-74000Y-77500D03*
Y-72500D03*
Y-52500D03*
Y-62500D03*
Y-57500D03*
Y-67500D03*
Y-47500D03*
Y-42500D03*
X-48875Y97000D03*
X-53750Y81875D03*
X-44304Y-91900D03*
X-44350Y-98100D03*
X-34350Y-98125D03*
X-28898Y-56404D03*
X-36575Y-42175D03*
X-30000Y-19968D03*
X-29640Y24648D03*
X-45000Y71875D03*
X-23780Y-71828D03*
X-18661Y-56219D03*
X-10984Y-67766D03*
X-13416Y-56160D03*
X-16102Y-59402D03*
X-23780Y-56404D03*
X-21220Y-59588D03*
X-10984Y-42368D03*
X-26339Y-42251D03*
X-25000Y-20008D03*
X-15000Y-19968D03*
X-20000D03*
X-14976Y-12480D03*
X-24960Y8112D03*
X-10344Y14400D03*
X-14976Y24648D03*
X-20600Y57712D03*
X-7500Y-98125D03*
X-8425Y-71575D03*
X6250Y-81250D03*
X0Y-66250D03*
X6250D03*
X-3100Y-55600D03*
X-8425Y-55925D03*
X-3100Y-49400D03*
X-7500Y-27444D03*
Y-8724D03*
X-3432Y20000D03*
X-9048Y19968D03*
X-3432Y27500D03*
X0Y57408D03*
X12500Y-81250D03*
X21250D03*
Y-66250D03*
X12500D03*
X27500D03*
X24024Y20000D03*
X11232D03*
X18096Y19968D03*
X24024Y27500D03*
X11232D03*
X11398Y32448D03*
X26500Y68150D03*
X26250Y74350D03*
X25000Y96875D03*
Y88125D03*
X33750Y-81250D03*
X43950Y-76850D03*
X40000Y-66250D03*
X36250Y-60000D03*
X30000D03*
X33750Y-66250D03*
X36250Y-45000D03*
X38688Y20000D03*
Y27500D03*
X29328Y32136D03*
X36875Y90625D03*
Y84375D03*
X55536Y-90650D03*
Y-96850D03*
X61594D03*
X48425Y-53352D03*
X56102D03*
X58661Y-56472D03*
X61220Y-53352D03*
X63780Y-56472D03*
X50984Y-70072D03*
X61220Y-70132D03*
X52788Y-37500D03*
X52728Y4000D03*
X57500Y8644D03*
X53664Y53436D03*
X53614Y47186D03*
X53664Y59375D03*
X76575Y-70325D03*
X66339Y-53352D03*
X71457Y-53361D03*
X68898Y-56418D03*
X74016Y-66516D03*
X68580Y-37500D03*
X76575Y-40200D03*
X67080Y4000D03*
X72500Y14375D03*
X68125Y25000D03*
X69888Y47186D03*
X67500Y99000D03*
X88166Y-96850D03*
X88900Y-73600D03*
X97500Y-73750D03*
X90625Y51250D03*
X96900Y78725D03*
X106100Y-41725D03*
X103100Y46900D03*
X106750Y63625D03*
Y78625D03*
G54D12*
X-96457Y-25000D03*
X-86457D03*
X-96457Y-15000D03*
X-86457D03*
X-96457Y-5000D03*
X-86457D03*
X-96457Y5000D03*
X-86457D03*
X-96457Y15000D03*
X-86457D03*
X-96457Y25000D03*
X-67500Y97500D03*
X-77500D03*
X-67500Y87400D03*
X-77500D03*
X-60000Y-80000D03*
X-50000D03*
X-60000Y-70000D03*
X-50000D03*
X-60000Y-60000D03*
X-50000D03*
X-60000Y-50000D03*
X-50000D03*
X-60000Y-40000D03*
X-50000D03*
X-60000Y-30000D03*
X-50000D03*
X-60000Y-20000D03*
X-50000D03*
X-60000Y-10000D03*
X-50000D03*
X-60000Y0D03*
X-50000D03*
X-60000Y10000D03*
X-50000D03*
X-60000Y20000D03*
X-50000D03*
X-60000Y30000D03*
X-50000D03*
X-60000Y40000D03*
X-50000D03*
X-60000Y50000D03*
X-50000D03*
X-60000Y60000D03*
X0Y-97500D03*
X10000D03*
X0Y-87500D03*
X10000D03*
X20000Y-97500D03*
Y-87500D03*
X30000Y-97500D03*
X40000D03*
X30000Y-87500D03*
X96457Y-15000D03*
X86457D03*
X96457Y-25000D03*
Y5000D03*
X86457D03*
X96457Y-5000D03*
X86457D03*
X96457Y15000D03*
X86457D03*
X96457Y25000D03*
X86457D03*
G54D13*
X-86457D03*
X-87500Y97500D03*
Y87400D03*
X-60000Y-93500D03*
X-50000Y60000D03*
X-60000Y74000D03*
X40000Y-87500D03*
X80500Y42560D03*
Y57500D03*
X86457Y-25000D03*
X93500Y42560D03*
X90000Y88000D03*
G54D14*
G01X-105625Y15625D02*
X-105000Y15000D01*
X-96457D01*
G01X-86457D02*
X-76875D01*
G01X-96457D02*
X-86457D01*
G01X-68125Y625D02*
Y0D01*
X-60000D01*
G01X-69375Y20000D02*
X-60000D01*
G01X-68750Y10000D02*
X-60000D01*
G01X-68125Y30000D02*
X-60000D01*
G01X-42500Y0D02*
X-50000D01*
G01X-60000D02*
X-50000D01*
G01X-60000Y20000D02*
X-50000D01*
G01X-60000Y10000D02*
X-50000D01*
G01X-40000Y9375D02*
Y10000D01*
X-50000D01*
G01X-40625Y19375D02*
Y20000D01*
X-50000D01*
G01X-60000Y30000D02*
X-50000D01*
G01X-41250D02*
X-50000D01*
G01X-28750Y-86875D02*
X-10625D01*
X0Y-97500D01*
G01X103100Y46900D02*
X105000Y45000D01*
Y-32500D01*
X60000D01*
Y-46875D01*
X42500D01*
Y-52500D01*
X17500D01*
Y-60100D01*
G01X90000Y88000D02*
Y70600D01*
X103100Y57500D01*
Y46900D01*
X-102000Y42500D03*
Y72500D03*
X-83000Y42500D03*
Y72500D03*
X17500Y-60100D03*
Y-44900D03*
X23750D03*
X51875Y25000D03*
G54D15*
X-37500Y72500D03*
X-32500D03*
Y62500D03*
X-37500D03*
X-32500Y67500D03*
X-37500D03*
X-32500Y77500D03*
X-37500D03*
X-32500Y82500D03*
X-37500D03*
X-32500Y87500D03*
Y92500D03*
X-37500Y87500D03*
Y92500D03*
X-22500Y62500D03*
X-17500D03*
X-27500D03*
X-12500Y77500D03*
X-17500D03*
X-22500D03*
X-27500D03*
X-12500Y72500D03*
X-17500D03*
X-22500D03*
X-27500D03*
X-12500Y67500D03*
Y62500D03*
X-22500Y67500D03*
X-27500D03*
Y92500D03*
X-22500Y87500D03*
Y92500D03*
X-17500Y87500D03*
Y92500D03*
X-12500Y87500D03*
Y92500D03*
Y82500D03*
X-17500D03*
X-22500D03*
X-27500D03*
Y87500D03*
X-12500Y97500D03*
X-2500Y67500D03*
X-7500Y62500D03*
X7500D03*
Y77500D03*
X2500D03*
X-2500D03*
X-7500D03*
X7500Y72500D03*
X-7500D03*
X-2500D03*
X2500D03*
Y67500D03*
X7500D03*
X2500Y62500D03*
X-2500D03*
X-7500Y67500D03*
X7500Y92500D03*
Y82500D03*
X2500D03*
X-2500D03*
X-7500D03*
Y87500D03*
X-2500D03*
X2500D03*
X7500D03*
X-7500Y92500D03*
X-2500D03*
X2500D03*
X12500Y72500D03*
X17500D03*
Y67500D03*
X12500D03*
X17500Y62500D03*
X12500D03*
Y77500D03*
X17500D03*
X12500Y87500D03*
Y92500D03*
X17500Y87500D03*
Y92500D03*
Y82500D03*
Y97500D03*
X52500Y77500D03*
X57500D03*
X62500D03*
X47500Y72500D03*
X57500Y67500D03*
X52500D03*
X62500D03*
X52500Y87500D03*
X47500D03*
X57500Y92500D03*
X52500D03*
X47500D03*
X62500D03*
Y82500D03*
X57500D03*
X52500D03*
X47500D03*
X62500Y87500D03*
X57500D03*
X67500Y77500D03*
X72500Y72500D03*
X67500Y67500D03*
Y92500D03*
X72500D03*
X67500Y87500D03*
X72500D03*
X67500Y82500D03*
X72500D03*
G54D16*
X-473Y-40477D03*
X2677D03*
X5827D03*
X-473Y-37327D03*
X2677D03*
Y-27877D03*
X-473Y-31027D03*
X2677Y-24727D03*
X-473Y-27877D03*
X5827Y-18427D03*
Y-27877D03*
Y-31027D03*
X2677Y-34177D03*
X5827D03*
X-473Y-18427D03*
X2677D03*
X-473Y-15277D03*
X2677D03*
X5827Y-5827D03*
Y-15277D03*
X-473Y473D03*
X2677Y-5827D03*
X5827Y473D03*
X-473Y-5827D03*
Y-2677D03*
Y-12127D03*
Y-8977D03*
X18427Y-37327D03*
X8977Y-40477D03*
X24727Y-34177D03*
X21577D03*
X18427D03*
X21577Y-18427D03*
X8977Y-27877D03*
X12127Y-31027D03*
X8977D03*
X18427Y-24727D03*
X24727Y-18427D03*
X21577Y-24727D03*
X15277Y-18427D03*
X18427D03*
X12127Y-5827D03*
X24727D03*
X21577D03*
X18427D03*
X15277D03*
X24727Y-2677D03*
X12127Y-8977D03*
X15277Y-15277D03*
X12127D03*
X21577Y-12127D03*
X8977Y-5827D03*
X12127Y-12127D03*
Y-2677D03*
X24777Y523D03*
X12127Y473D03*
X8977D03*
X15277Y-2677D03*
X8977D03*
X21627Y523D03*
X15277Y473D03*
X8977Y-12127D03*
Y-8977D03*
X21577Y-15277D03*
X18427D03*
X40477Y-40477D03*
X34177Y-18427D03*
Y-24727D03*
Y-27877D03*
X37327Y-24727D03*
X27877Y-34177D03*
X40477D03*
X37327Y-27877D03*
Y-34177D03*
X40477Y-18427D03*
Y-24727D03*
X37327Y-31027D03*
X40477Y-27877D03*
X27877Y-31027D03*
Y-27877D03*
X34177Y-15277D03*
X40527Y523D03*
X34177Y-12127D03*
X37327Y-8977D03*
X40477Y-5827D03*
Y-2677D03*
X27927Y523D03*
X31077D03*
X34227D03*
X27877Y-5827D03*
X31027Y-2677D03*
Y-12127D03*
Y-8977D03*
X45000Y68150D03*
X81850Y-55600D03*
X76150Y68150D03*
G54D17*
G01X48750Y-97500D02*
X40000D01*
G01X44375Y-81250D02*
X48750D01*
Y-97500D01*
G01X55536Y-96850D02*
X49400D01*
X48750Y-97500D01*
G01X76250Y-62500D02*
X86250D01*
X97500Y-73750D01*
G01X76250Y-45000D02*
X102825D01*
X106100Y-41725D01*
G01X68580Y-41875D02*
Y-37500D01*
G01X96900Y78725D02*
X100025D01*
X111875Y66875D01*
Y-35950D01*
X106100Y-41725D01*
G54D18*
G01X36250Y-62500D02*
Y-60000D01*
G01Y-62500D02*
X48425D01*
Y-57500D01*
G01D02*
Y-53352D01*
G01X76250Y-45000D02*
Y-62500D01*
G01X68750Y-41875D02*
X68580D01*
G01Y-45000D02*
X76250D01*
G01X68580Y-41875D02*
Y-45000D01*
M02*
