G04 ================== begin FILE IDENTIFICATION RECORD ==================*
G04 Layout Name:  galvo_ctrl_brd.brd*
G04 Film Name:    SilkScreenTop*
G04 File Format:  Gerber RS274X*
G04 File Origin:  Cadence Allegro 16.5-P002*
G04 Origin Date:  Mon Aug 05 09:54:01 2019*
G04 *
G04 Layer:  REF DES/SILKSCREEN_TOP*
G04 Layer:  PACKAGE GEOMETRY/SILKSCREEN_TOP*
G04 Layer:  BOARD GEOMETRY/OUTLINE*
G04 *
G04 Offset:    (0.00 0.00)*
G04 Mirror:    No*
G04 Mode:      Positive*
G04 Rotation:  0*
G04 FullContactRelief:  No*
G04 UndefLineWidth:     6.00*
G04 ================== end FILE IDENTIFICATION RECORD ====================*
%FSLAX25Y25*MOIN*%
%IR0*IPPOS*OFA0.00000B0.00000*MIA0B0*SFA1.00000B1.00000*%
%ADD10C,.01*%
%ADD11C,.006*%
%ADD12C,.008*%
G75*
%LPD*%
G75*
G54D10*
G01X87500Y-71500D02*
X89500Y-73500D01*
X105500D01*
X107500Y-71500D01*
G01X87500Y-63500D02*
Y-51500D01*
G01Y-43500D02*
X89500Y-41500D01*
X105500D01*
X107500Y-43500D01*
G01Y-63500D02*
Y-51500D01*
G54D11*
G01X-116142Y-106299D02*
Y106299D01*
X116142D01*
Y-106299D01*
X-116142D01*
G01X-113100Y86250D02*
Y81250D01*
G01X-114557Y86250D02*
X-111643D01*
G01X-108000Y81250D02*
Y86250D01*
X-108760Y85250D01*
G01Y81250D02*
X-107240D01*
G01X-111831Y-101988D02*
X-96831D01*
Y-86988D01*
X-111831D01*
Y-101988D01*
G01X-111250Y-71008D02*
X-108150D01*
Y-71967D01*
X-108305Y-72273D01*
X-108512Y-72465D01*
X-108925Y-72542D01*
X-109338Y-72465D01*
X-109597Y-72235D01*
X-109752Y-71967D01*
Y-71008D01*
G01Y-71967D02*
X-111250Y-72542D01*
G01Y-75335D02*
X-108150D01*
X-110372Y-73917D01*
Y-75833D01*
G01X-110630Y-77132D02*
X-110992Y-77362D01*
X-111198Y-77668D01*
X-111250Y-78013D01*
X-111198Y-78320D01*
X-110940Y-78627D01*
X-110630Y-78818D01*
X-110320Y-78857D01*
X-109958Y-78780D01*
X-109700Y-78512D01*
X-109597Y-78243D01*
Y-77898D01*
G01Y-78243D02*
X-109442Y-78473D01*
X-109183Y-78665D01*
X-108873Y-78742D01*
X-108563Y-78665D01*
X-108305Y-78473D01*
X-108150Y-78128D01*
X-108202Y-77783D01*
X-108408Y-77438D01*
G01X-106750Y-67900D02*
X-100750D01*
Y-82100D01*
X-106750D01*
Y-67900D01*
G01X-114250Y-49900D02*
G03X-108250I3000J0D01*
G01X-114250Y-39900D02*
Y-49900D01*
G01X-108250Y-39900D02*
Y-49900D01*
G01X-100750Y-57100D02*
X-106750D01*
Y-42900D01*
X-100750D01*
Y-57100D01*
G01X-109658Y-28868D02*
X-109503Y-28638D01*
X-109400Y-28370D01*
Y-28063D01*
X-109555Y-27718D01*
X-109813Y-27450D01*
X-110123Y-27258D01*
X-110640Y-27105D01*
X-111105Y-27067D01*
X-111570Y-27143D01*
X-111880Y-27258D01*
X-112190Y-27488D01*
X-112397Y-27757D01*
X-112500Y-28025D01*
Y-28293D01*
X-112397Y-28562D01*
X-112242Y-28792D01*
X-112035Y-28983D01*
G01Y-30282D02*
X-112293Y-30512D01*
X-112448Y-30780D01*
X-112500Y-31125D01*
X-112397Y-31470D01*
X-112190Y-31738D01*
X-111828Y-31930D01*
X-111415Y-31968D01*
X-111002Y-31892D01*
X-110743Y-31700D01*
X-110537Y-31432D01*
X-110485Y-31163D01*
X-110537Y-30895D01*
X-110743Y-30550D01*
X-109400Y-30665D01*
Y-31700D01*
G01Y-34225D02*
X-109503Y-33918D01*
X-109762Y-33688D01*
X-110072Y-33535D01*
X-110485Y-33420D01*
X-110950Y-33382D01*
X-111415Y-33420D01*
X-111828Y-33535D01*
X-112138Y-33688D01*
X-112397Y-33918D01*
X-112500Y-34225D01*
X-112397Y-34532D01*
X-112138Y-34762D01*
X-111828Y-34915D01*
X-111415Y-35030D01*
X-110950Y-35068D01*
X-110485Y-35030D01*
X-110072Y-34915D01*
X-109762Y-34762D01*
X-109503Y-34532D01*
X-109400Y-34225D01*
G01X-114250Y-39900D02*
G02X-108250I3000J0D01*
G01X-104375Y-32258D02*
X-101275D01*
Y-33217D01*
X-101430Y-33523D01*
X-101637Y-33715D01*
X-102050Y-33792D01*
X-102463Y-33715D01*
X-102722Y-33485D01*
X-102877Y-33217D01*
Y-32258D01*
G01Y-33217D02*
X-104375Y-33792D01*
G01Y-36585D02*
X-101275D01*
X-103497Y-35167D01*
Y-37083D01*
G01X-103910Y-38382D02*
X-104168Y-38612D01*
X-104323Y-38880D01*
X-104375Y-39225D01*
X-104272Y-39570D01*
X-104065Y-39838D01*
X-103703Y-40030D01*
X-103290Y-40068D01*
X-102877Y-39992D01*
X-102618Y-39800D01*
X-102412Y-39532D01*
X-102360Y-39263D01*
X-102412Y-38995D01*
X-102618Y-38650D01*
X-101275Y-38765D01*
Y-39800D01*
G01X-76500Y49750D02*
X-108500D01*
Y35250D01*
X-76500D01*
Y49750D01*
G01Y79750D02*
X-108500D01*
Y65250D01*
X-76500D01*
Y79750D01*
G01Y64750D02*
X-108500D01*
Y50250D01*
X-76500D01*
Y64750D01*
G01X-111831Y86988D02*
X-96831D01*
Y101988D01*
X-111831D01*
Y86988D01*
G01X-93431Y-89488D02*
Y-94488D01*
G01X-94888Y-89488D02*
X-91974D01*
G01X-89724Y-93488D02*
X-89344Y-94071D01*
X-88838Y-94405D01*
X-88268Y-94488D01*
X-87761Y-94405D01*
X-87254Y-93988D01*
X-86938Y-93488D01*
X-86874Y-92988D01*
X-87001Y-92405D01*
X-87444Y-91988D01*
X-87888Y-91821D01*
X-88458D01*
G01X-87888D02*
X-87508Y-91571D01*
X-87191Y-91155D01*
X-87064Y-90655D01*
X-87191Y-90155D01*
X-87508Y-89738D01*
X-88078Y-89488D01*
X-88648Y-89571D01*
X-89218Y-89905D01*
G01X-88750Y-66633D02*
X-85650D01*
Y-67592D01*
X-85805Y-67898D01*
X-86012Y-68090D01*
X-86425Y-68167D01*
X-86838Y-68090D01*
X-87097Y-67860D01*
X-87252Y-67592D01*
Y-66633D01*
G01Y-67592D02*
X-88750Y-68167D01*
G01Y-70960D02*
X-85650D01*
X-87872Y-69542D01*
Y-71458D01*
G01X-86167Y-72872D02*
X-85857Y-73102D01*
X-85702Y-73370D01*
X-85650Y-73677D01*
X-85753Y-74060D01*
X-86012Y-74328D01*
X-86322Y-74405D01*
X-86632Y-74367D01*
X-86890Y-74213D01*
X-87407Y-73447D01*
X-87768Y-73102D01*
X-88285Y-72872D01*
X-88750Y-72795D01*
Y-74405D01*
G01X-84250Y-62900D02*
X-78250D01*
Y-77100D01*
X-84250D01*
Y-62900D01*
G01X-88750Y-40383D02*
X-85650D01*
Y-41342D01*
X-85805Y-41648D01*
X-86012Y-41840D01*
X-86425Y-41917D01*
X-86838Y-41840D01*
X-87097Y-41610D01*
X-87252Y-41342D01*
Y-40383D01*
G01Y-41342D02*
X-88750Y-41917D01*
G01Y-44710D02*
X-85650D01*
X-87872Y-43292D01*
Y-45208D01*
G01X-88750Y-47350D02*
X-85650D01*
X-86270Y-46890D01*
G01X-88750D02*
Y-47810D01*
G01X-78250Y-52100D02*
X-84250D01*
Y-37900D01*
X-78250D01*
Y-52100D01*
G01X-62500Y82500D02*
Y92500D01*
X-92500D01*
Y82500D01*
X-62500D01*
G01Y92500D02*
Y102500D01*
X-92500D01*
Y92500D01*
X-62500D01*
G01X-66350Y-100400D02*
Y-103500D01*
G01X-67232Y-100400D02*
X-65468D01*
G01X-64017Y-103500D02*
Y-100400D01*
X-63097D01*
X-62790Y-100555D01*
X-62560Y-100917D01*
X-62483Y-101330D01*
X-62560Y-101743D01*
X-62752Y-102053D01*
X-63097Y-102208D01*
X-64017D01*
G01X-60878Y-100917D02*
X-60648Y-100607D01*
X-60380Y-100452D01*
X-60073Y-100400D01*
X-59690Y-100503D01*
X-59422Y-100762D01*
X-59345Y-101072D01*
X-59383Y-101382D01*
X-59537Y-101640D01*
X-60303Y-102157D01*
X-60648Y-102518D01*
X-60878Y-103035D01*
X-60955Y-103500D01*
X-59345D01*
G01X-65000Y-98500D02*
X-55000D01*
Y-88500D01*
X-65000D01*
Y-98500D01*
G01X-67508Y40625D02*
Y45625D01*
X-70042D01*
G01X-72482Y44625D02*
X-72862Y45208D01*
X-73368Y45542D01*
X-73938Y45625D01*
X-74445Y45542D01*
X-74952Y45125D01*
X-75268Y44625D01*
X-75332Y44125D01*
X-75205Y43542D01*
X-74762Y43125D01*
X-74318Y42958D01*
X-73748D01*
G01X-74318D02*
X-74698Y42708D01*
X-75015Y42292D01*
X-75142Y41792D01*
X-75015Y41292D01*
X-74698Y40875D01*
X-74128Y40625D01*
X-73558Y40708D01*
X-72988Y41042D01*
G01X-68133Y55000D02*
Y60000D01*
X-70667D01*
G01X-74500D02*
Y55000D01*
X-73740Y56000D01*
G01Y60000D02*
X-75260D01*
G01X-65000Y69000D02*
X-55000D01*
Y79000D01*
X-65000D01*
Y69000D01*
G01X-67508Y69375D02*
Y74375D01*
X-70042D01*
G01X-72672Y70208D02*
X-73052Y69708D01*
X-73495Y69458D01*
X-74002Y69375D01*
X-74635Y69542D01*
X-75078Y69958D01*
X-75205Y70458D01*
X-75142Y70958D01*
X-74888Y71375D01*
X-73622Y72208D01*
X-73052Y72792D01*
X-72672Y73625D01*
X-72545Y74375D01*
X-75205D01*
G01X-34493Y12158D02*
X-34263Y12003D01*
X-33995Y11900D01*
X-33688D01*
X-33343Y12055D01*
X-33075Y12313D01*
X-32883Y12623D01*
X-32730Y13140D01*
X-32692Y13605D01*
X-32768Y14070D01*
X-32883Y14380D01*
X-33113Y14690D01*
X-33382Y14897D01*
X-33650Y15000D01*
X-33918D01*
X-34187Y14897D01*
X-34417Y14742D01*
X-34608Y14535D01*
G01X-36022Y12417D02*
X-36252Y12107D01*
X-36520Y11952D01*
X-36827Y11900D01*
X-37210Y12003D01*
X-37478Y12262D01*
X-37555Y12572D01*
X-37517Y12882D01*
X-37363Y13140D01*
X-36597Y13657D01*
X-36252Y14018D01*
X-36022Y14535D01*
X-35945Y15000D01*
X-37555D01*
G01X-39773D02*
X-39850Y14328D01*
X-39965Y13760D01*
X-40118Y13243D01*
X-40310Y12675D01*
X-40617Y11900D01*
X-39083D01*
G01X-34493Y22158D02*
X-34263Y22003D01*
X-33995Y21900D01*
X-33688D01*
X-33343Y22055D01*
X-33075Y22313D01*
X-32883Y22623D01*
X-32730Y23140D01*
X-32692Y23605D01*
X-32768Y24070D01*
X-32883Y24380D01*
X-33113Y24690D01*
X-33382Y24897D01*
X-33650Y25000D01*
X-33918D01*
X-34187Y24897D01*
X-34417Y24742D01*
X-34608Y24535D01*
G01X-36022Y22417D02*
X-36252Y22107D01*
X-36520Y21952D01*
X-36827Y21900D01*
X-37210Y22003D01*
X-37478Y22262D01*
X-37555Y22572D01*
X-37517Y22882D01*
X-37363Y23140D01*
X-36597Y23657D01*
X-36252Y24018D01*
X-36022Y24535D01*
X-35945Y25000D01*
X-37555D01*
G01X-39850D02*
X-40118Y24948D01*
X-40425Y24793D01*
X-40617Y24535D01*
X-40693Y24173D01*
X-40617Y23812D01*
X-40387Y23502D01*
X-40042Y23347D01*
X-39658D01*
X-39428Y23243D01*
X-39237Y22985D01*
X-39160Y22623D01*
X-39275Y22262D01*
X-39543Y22003D01*
X-39850Y21900D01*
X-40157Y22003D01*
X-40425Y22262D01*
X-40540Y22623D01*
X-40463Y22985D01*
X-40272Y23243D01*
X-40042Y23347D01*
X-39658D01*
X-39313Y23502D01*
X-39083Y23812D01*
X-39007Y24173D01*
X-39083Y24535D01*
X-39275Y24793D01*
X-39582Y24948D01*
X-39850Y25000D01*
G01X-39528Y97717D02*
Y62283D01*
X19528D01*
Y97717D01*
X-39528D01*
G01X-53225Y76225D02*
Y73125D01*
G01X-54107Y76225D02*
X-52343D01*
G01X-50892Y73125D02*
Y76225D01*
X-49972D01*
X-49665Y76070D01*
X-49435Y75708D01*
X-49358Y75295D01*
X-49435Y74882D01*
X-49627Y74572D01*
X-49972Y74417D01*
X-50892D01*
G01X-47753D02*
X-47485Y74778D01*
X-47255Y74985D01*
X-46948Y75088D01*
X-46680Y74985D01*
X-46488Y74778D01*
X-46335Y74468D01*
X-46297Y74107D01*
X-46335Y73797D01*
X-46488Y73487D01*
X-46718Y73228D01*
X-46987Y73125D01*
X-47293Y73228D01*
X-47562Y73538D01*
X-47715Y74003D01*
X-47753Y74520D01*
X-47677Y75192D01*
X-47562Y75553D01*
X-47370Y75915D01*
X-47102Y76173D01*
X-46833Y76225D01*
X-46565Y76122D01*
X-46373Y75863D01*
G01X-27600Y11500D02*
G02Y17500I0J3000D01*
G01Y11500D02*
X-17600D01*
G01X-27600Y17500D02*
X-17600D01*
G01X-27364Y27648D02*
G03Y21648I0J-3000D01*
G01X-17364Y27648D02*
X-27364D01*
G01X-17364Y21648D02*
X-27364D01*
G01X-5000Y-82500D02*
Y-102500D01*
X45000D01*
Y-82500D01*
X-5000D01*
G01X1250Y-77117D02*
X-1850D01*
Y-76158D01*
X-1695Y-75852D01*
X-1488Y-75660D01*
X-1075Y-75583D01*
X-662Y-75660D01*
X-403Y-75890D01*
X-248Y-76158D01*
Y-77117D01*
G01Y-76158D02*
X1250Y-75583D01*
G01X785Y-74093D02*
X1043Y-73863D01*
X1198Y-73595D01*
X1250Y-73250D01*
X1147Y-72905D01*
X940Y-72637D01*
X578Y-72445D01*
X165Y-72407D01*
X-248Y-72483D01*
X-507Y-72675D01*
X-713Y-72943D01*
X-765Y-73212D01*
X-713Y-73480D01*
X-507Y-73825D01*
X-1850Y-73710D01*
Y-72675D01*
G01X785Y-70993D02*
X1043Y-70763D01*
X1198Y-70495D01*
X1250Y-70150D01*
X1147Y-69805D01*
X940Y-69537D01*
X578Y-69345D01*
X165Y-69307D01*
X-248Y-69383D01*
X-507Y-69575D01*
X-713Y-69843D01*
X-765Y-70112D01*
X-713Y-70380D01*
X-507Y-70725D01*
X-1850Y-70610D01*
Y-69575D01*
G01X-1654Y-41654D02*
X41654D01*
Y1654D01*
X-1654D01*
Y-41654D01*
G01X-2500Y1250D02*
G03I-1250J2500D01*
G01X-13742Y-5000D02*
Y0D01*
X-12222D01*
X-11716Y-250D01*
X-11336Y-833D01*
X-11209Y-1500D01*
X-11336Y-2167D01*
X-11652Y-2667D01*
X-12222Y-2917D01*
X-13742D01*
G01X-7378Y-5000D02*
Y0D01*
X-8137Y-1000D01*
G01Y-5000D02*
X-6618D01*
G01X-1150Y30500D02*
G03Y24500I0J-3000D01*
G01Y23000D02*
G03Y17000I0J-3000D01*
G01X-17600Y11500D02*
G03Y17500I0J3000D01*
G01X-17364Y27648D02*
G02Y21648I0J-3000D01*
G01X-5743Y29658D02*
X-5513Y29503D01*
X-5245Y29400D01*
X-4938D01*
X-4593Y29555D01*
X-4325Y29813D01*
X-4133Y30123D01*
X-3980Y30640D01*
X-3942Y31105D01*
X-4018Y31570D01*
X-4133Y31880D01*
X-4363Y32190D01*
X-4632Y32397D01*
X-4900Y32500D01*
X-5168D01*
X-5437Y32397D01*
X-5667Y32242D01*
X-5858Y32035D01*
G01X-7272Y29917D02*
X-7502Y29607D01*
X-7770Y29452D01*
X-8077Y29400D01*
X-8460Y29503D01*
X-8728Y29762D01*
X-8805Y30072D01*
X-8767Y30382D01*
X-8613Y30640D01*
X-7847Y31157D01*
X-7502Y31518D01*
X-7272Y32035D01*
X-7195Y32500D01*
X-8805D01*
G01X-10257Y32035D02*
X-10487Y32293D01*
X-10755Y32448D01*
X-11100Y32500D01*
X-11445Y32397D01*
X-11713Y32190D01*
X-11905Y31828D01*
X-11943Y31415D01*
X-11867Y31002D01*
X-11675Y30743D01*
X-11407Y30537D01*
X-11138Y30485D01*
X-10870Y30537D01*
X-10525Y30743D01*
X-10640Y29400D01*
X-11675D01*
G01X-3356Y34752D02*
Y40752D01*
X10844D01*
Y34752D01*
X-3356D01*
G01X20000Y-77117D02*
X16900D01*
Y-76158D01*
X17055Y-75852D01*
X17262Y-75660D01*
X17675Y-75583D01*
X18088Y-75660D01*
X18347Y-75890D01*
X18502Y-76158D01*
Y-77117D01*
G01Y-76158D02*
X20000Y-75583D01*
G01Y-72790D02*
X16900D01*
X19122Y-74208D01*
Y-72292D01*
G01X18708Y-70878D02*
X18347Y-70610D01*
X18140Y-70380D01*
X18037Y-70073D01*
X18140Y-69805D01*
X18347Y-69613D01*
X18657Y-69460D01*
X19018Y-69422D01*
X19328Y-69460D01*
X19638Y-69613D01*
X19897Y-69843D01*
X20000Y-70112D01*
X19897Y-70418D01*
X19587Y-70687D01*
X19122Y-70840D01*
X18605Y-70878D01*
X17933Y-70802D01*
X17572Y-70687D01*
X17210Y-70495D01*
X16952Y-70227D01*
X16900Y-69958D01*
X17003Y-69690D01*
X17262Y-69498D01*
G01X15500Y-80850D02*
X9500D01*
Y-66650D01*
X15500D01*
Y-80850D01*
G01X9250D02*
X3250D01*
Y-66650D01*
X9250D01*
Y-80850D01*
G01X8850Y30500D02*
G02Y24500I0J-3000D01*
G01D02*
X-1150D01*
G01X5507Y12158D02*
X5737Y12003D01*
X6005Y11900D01*
X6312D01*
X6657Y12055D01*
X6925Y12313D01*
X7117Y12623D01*
X7270Y13140D01*
X7308Y13605D01*
X7232Y14070D01*
X7117Y14380D01*
X6887Y14690D01*
X6618Y14897D01*
X6350Y15000D01*
X6082D01*
X5813Y14897D01*
X5583Y14742D01*
X5392Y14535D01*
G01X3978Y12417D02*
X3748Y12107D01*
X3480Y11952D01*
X3173Y11900D01*
X2790Y12003D01*
X2522Y12262D01*
X2445Y12572D01*
X2483Y12882D01*
X2637Y13140D01*
X3403Y13657D01*
X3748Y14018D01*
X3978Y14535D01*
X4055Y15000D01*
X2445D01*
G01X878Y13708D02*
X610Y13347D01*
X380Y13140D01*
X73Y13037D01*
X-195Y13140D01*
X-387Y13347D01*
X-540Y13657D01*
X-578Y14018D01*
X-540Y14328D01*
X-387Y14638D01*
X-157Y14897D01*
X112Y15000D01*
X418Y14897D01*
X687Y14587D01*
X840Y14122D01*
X878Y13605D01*
X802Y12933D01*
X687Y12572D01*
X495Y12210D01*
X227Y11952D01*
X-42Y11900D01*
X-310Y12003D01*
X-502Y12262D01*
G01X8850Y23000D02*
G02Y17000I0J-3000D01*
G01Y23000D02*
X-1150D01*
G01X8850Y17000D02*
X-1150D01*
G01X8850Y30500D02*
X-1150D01*
G01X7117Y45000D02*
Y41900D01*
X6158D01*
X5852Y42055D01*
X5660Y42262D01*
X5583Y42675D01*
X5660Y43088D01*
X5890Y43347D01*
X6158Y43502D01*
X7117D01*
G01X6158D02*
X5583Y45000D01*
G01X4093Y44380D02*
X3863Y44742D01*
X3557Y44948D01*
X3212Y45000D01*
X2905Y44948D01*
X2598Y44690D01*
X2407Y44380D01*
X2368Y44070D01*
X2445Y43708D01*
X2713Y43450D01*
X2982Y43347D01*
X3327D01*
G01X2982D02*
X2752Y43192D01*
X2560Y42933D01*
X2483Y42623D01*
X2560Y42313D01*
X2752Y42055D01*
X3097Y41900D01*
X3442Y41952D01*
X3787Y42158D01*
G01X150Y45000D02*
Y41900D01*
X610Y42520D01*
G01Y45000D02*
X-310D01*
G01X45000Y-92500D02*
X35000D01*
Y-82500D01*
G01X28750Y-77117D02*
X25650D01*
Y-76158D01*
X25805Y-75852D01*
X26012Y-75660D01*
X26425Y-75583D01*
X26838Y-75660D01*
X27097Y-75890D01*
X27252Y-76158D01*
Y-77117D01*
G01Y-76158D02*
X28750Y-75583D01*
G01X28285Y-74093D02*
X28543Y-73863D01*
X28698Y-73595D01*
X28750Y-73250D01*
X28647Y-72905D01*
X28440Y-72637D01*
X28078Y-72445D01*
X27665Y-72407D01*
X27252Y-72483D01*
X26993Y-72675D01*
X26787Y-72943D01*
X26735Y-73212D01*
X26787Y-73480D01*
X26993Y-73825D01*
X25650Y-73710D01*
Y-72675D01*
G01X27458Y-70878D02*
X27097Y-70610D01*
X26890Y-70380D01*
X26787Y-70073D01*
X26890Y-69805D01*
X27097Y-69613D01*
X27407Y-69460D01*
X27768Y-69422D01*
X28078Y-69460D01*
X28388Y-69613D01*
X28647Y-69843D01*
X28750Y-70112D01*
X28647Y-70418D01*
X28337Y-70687D01*
X27872Y-70840D01*
X27355Y-70878D01*
X26683Y-70802D01*
X26322Y-70687D01*
X25960Y-70495D01*
X25702Y-70227D01*
X25650Y-69958D01*
X25753Y-69690D01*
X26012Y-69498D01*
G01X36750Y-80850D02*
X30750D01*
Y-66650D01*
X36750D01*
Y-80850D01*
G01X26350Y30500D02*
G03Y24500I0J-3000D01*
G01X36350D02*
X26350D01*
G01X33007Y12158D02*
X33237Y12003D01*
X33505Y11900D01*
X33812D01*
X34157Y12055D01*
X34425Y12313D01*
X34617Y12623D01*
X34770Y13140D01*
X34808Y13605D01*
X34732Y14070D01*
X34617Y14380D01*
X34387Y14690D01*
X34118Y14897D01*
X33850Y15000D01*
X33582D01*
X33313Y14897D01*
X33083Y14742D01*
X32892Y14535D01*
G01X31593Y14380D02*
X31363Y14742D01*
X31057Y14948D01*
X30712Y15000D01*
X30405Y14948D01*
X30098Y14690D01*
X29907Y14380D01*
X29868Y14070D01*
X29945Y13708D01*
X30213Y13450D01*
X30482Y13347D01*
X30827D01*
G01X30482D02*
X30252Y13192D01*
X30060Y12933D01*
X29983Y12623D01*
X30060Y12313D01*
X30252Y12055D01*
X30597Y11900D01*
X30942Y11952D01*
X31287Y12158D01*
G01X28378Y13708D02*
X28110Y13347D01*
X27880Y13140D01*
X27573Y13037D01*
X27305Y13140D01*
X27113Y13347D01*
X26960Y13657D01*
X26922Y14018D01*
X26960Y14328D01*
X27113Y14638D01*
X27343Y14897D01*
X27612Y15000D01*
X27918Y14897D01*
X28187Y14587D01*
X28340Y14122D01*
X28378Y13605D01*
X28302Y12933D01*
X28187Y12572D01*
X27995Y12210D01*
X27727Y11952D01*
X27458Y11900D01*
X27190Y12003D01*
X26998Y12262D01*
G01X26350Y23000D02*
G03Y17000I0J-3000D01*
G01X36350Y23000D02*
X26350D01*
G01X36350Y17000D02*
X26350D01*
G01X36350Y30500D02*
X26350D01*
G01X33992Y45000D02*
Y41900D01*
X33033D01*
X32727Y42055D01*
X32535Y42262D01*
X32458Y42675D01*
X32535Y43088D01*
X32765Y43347D01*
X33033Y43502D01*
X33992D01*
G01X33033D02*
X32458Y45000D01*
G01X30968Y44380D02*
X30738Y44742D01*
X30432Y44948D01*
X30087Y45000D01*
X29780Y44948D01*
X29473Y44690D01*
X29282Y44380D01*
X29243Y44070D01*
X29320Y43708D01*
X29588Y43450D01*
X29857Y43347D01*
X30202D01*
G01X29857D02*
X29627Y43192D01*
X29435Y42933D01*
X29358Y42623D01*
X29435Y42313D01*
X29627Y42055D01*
X29972Y41900D01*
X30317Y41952D01*
X30662Y42158D01*
G01X26565Y45000D02*
Y41900D01*
X27983Y44122D01*
X26067D01*
G01X38300Y40440D02*
Y34440D01*
X24100D01*
Y40440D01*
X38300D01*
G01X31250Y88243D02*
X27667D01*
X26917Y87990D01*
X26417Y87484D01*
X26250Y86851D01*
X26417Y86217D01*
X26917Y85711D01*
X27667Y85458D01*
X31250D01*
G01X30417Y82956D02*
X30917Y82576D01*
X31167Y82132D01*
X31250Y81626D01*
X31083Y80993D01*
X30667Y80549D01*
X30167Y80423D01*
X29667Y80486D01*
X29250Y80739D01*
X28417Y82006D01*
X27833Y82576D01*
X27000Y82956D01*
X26250Y83082D01*
Y80423D01*
G01Y76781D02*
X27333Y76655D01*
X28250Y76465D01*
X29083Y76211D01*
X30000Y75895D01*
X31250Y75388D01*
Y77921D01*
G01X22500Y98750D02*
G03I0J2500D01*
G01X54900Y11500D02*
G02Y17500I0J3000D01*
G01X55100Y28000D02*
G03Y22000I0J-3000D01*
G01X36350Y30500D02*
G02Y24500I0J-3000D01*
G01Y23000D02*
G02Y17000I0J-3000D01*
G01X45507Y30283D02*
X45737Y30128D01*
X46005Y30025D01*
X46312D01*
X46657Y30180D01*
X46925Y30438D01*
X47117Y30748D01*
X47270Y31265D01*
X47308Y31730D01*
X47232Y32195D01*
X47117Y32505D01*
X46887Y32815D01*
X46618Y33022D01*
X46350Y33125D01*
X46082D01*
X45813Y33022D01*
X45583Y32867D01*
X45392Y32660D01*
G01X44093Y32505D02*
X43863Y32867D01*
X43557Y33073D01*
X43212Y33125D01*
X42905Y33073D01*
X42598Y32815D01*
X42407Y32505D01*
X42368Y32195D01*
X42445Y31833D01*
X42713Y31575D01*
X42982Y31472D01*
X43327D01*
G01X42982D02*
X42752Y31317D01*
X42560Y31058D01*
X42483Y30748D01*
X42560Y30438D01*
X42752Y30180D01*
X43097Y30025D01*
X43442Y30077D01*
X43787Y30283D01*
G01X40993Y32660D02*
X40763Y32918D01*
X40495Y33073D01*
X40150Y33125D01*
X39805Y33022D01*
X39537Y32815D01*
X39345Y32453D01*
X39307Y32040D01*
X39383Y31627D01*
X39575Y31368D01*
X39843Y31162D01*
X40112Y31110D01*
X40380Y31162D01*
X40725Y31368D01*
X40610Y30025D01*
X39575D01*
G01X50242Y47500D02*
Y44400D01*
X49283D01*
X48977Y44555D01*
X48785Y44762D01*
X48708Y45175D01*
X48785Y45588D01*
X49015Y45847D01*
X49283Y46002D01*
X50242D01*
G01X49283D02*
X48708Y47500D01*
G01X47218Y47035D02*
X46988Y47293D01*
X46720Y47448D01*
X46375Y47500D01*
X46030Y47397D01*
X45762Y47190D01*
X45570Y46828D01*
X45532Y46415D01*
X45608Y46002D01*
X45800Y45743D01*
X46068Y45537D01*
X46337Y45485D01*
X46605Y45537D01*
X46950Y45743D01*
X46835Y44400D01*
X45800D01*
G01X43275D02*
X43582Y44503D01*
X43812Y44762D01*
X43965Y45072D01*
X44080Y45485D01*
X44118Y45950D01*
X44080Y46415D01*
X43965Y46828D01*
X43812Y47138D01*
X43582Y47397D01*
X43275Y47500D01*
X42968Y47397D01*
X42738Y47138D01*
X42585Y46828D01*
X42470Y46415D01*
X42432Y45950D01*
X42470Y45485D01*
X42585Y45072D01*
X42738Y44762D01*
X42968Y44503D01*
X43275Y44400D01*
G01X68400Y50200D02*
Y44200D01*
X54200D01*
Y50200D01*
X68400D01*
G01X50242Y55000D02*
Y51900D01*
X49283D01*
X48977Y52055D01*
X48785Y52262D01*
X48708Y52675D01*
X48785Y53088D01*
X49015Y53347D01*
X49283Y53502D01*
X50242D01*
G01X49283D02*
X48708Y55000D01*
G01X45915D02*
Y51900D01*
X47333Y54122D01*
X45417D01*
G01X43927Y54638D02*
X43658Y54897D01*
X43352Y55000D01*
X43045Y54897D01*
X42777Y54587D01*
X42585Y54122D01*
X42508Y53657D01*
Y53088D01*
X42585Y52623D01*
X42777Y52210D01*
X43007Y52003D01*
X43275Y51900D01*
X43582Y52003D01*
X43812Y52210D01*
X43965Y52520D01*
X44042Y52933D01*
X43965Y53295D01*
X43773Y53657D01*
X43543Y53863D01*
X43275Y53915D01*
X42968Y53812D01*
X42738Y53553D01*
X42508Y53088D01*
G01X68350Y56436D02*
Y50436D01*
X54150D01*
Y56436D01*
X68350D01*
G01X47697Y92303D02*
Y67697D01*
X72303D01*
Y92303D01*
X47697D01*
G01X66132Y6533D02*
X66362Y6378D01*
X66630Y6275D01*
X66937D01*
X67282Y6430D01*
X67550Y6688D01*
X67742Y6998D01*
X67895Y7515D01*
X67933Y7980D01*
X67857Y8445D01*
X67742Y8755D01*
X67512Y9065D01*
X67243Y9272D01*
X66975Y9375D01*
X66707D01*
X66438Y9272D01*
X66208Y9117D01*
X66017Y8910D01*
G01X64718Y8755D02*
X64488Y9117D01*
X64182Y9323D01*
X63837Y9375D01*
X63530Y9323D01*
X63223Y9065D01*
X63032Y8755D01*
X62993Y8445D01*
X63070Y8083D01*
X63338Y7825D01*
X63607Y7722D01*
X63952D01*
G01X63607D02*
X63377Y7567D01*
X63185Y7308D01*
X63108Y6998D01*
X63185Y6688D01*
X63377Y6430D01*
X63722Y6275D01*
X64067Y6327D01*
X64412Y6533D01*
G01X61618Y8755D02*
X61388Y9117D01*
X61082Y9323D01*
X60737Y9375D01*
X60430Y9323D01*
X60123Y9065D01*
X59932Y8755D01*
X59893Y8445D01*
X59970Y8083D01*
X60238Y7825D01*
X60507Y7722D01*
X60852D01*
G01X60507D02*
X60277Y7567D01*
X60085Y7308D01*
X60008Y6998D01*
X60085Y6688D01*
X60277Y6430D01*
X60622Y6275D01*
X60967Y6327D01*
X61312Y6533D01*
G01X64900Y11500D02*
G03Y17500I0J3000D01*
G01X54900Y11500D02*
X64900D01*
G01X54900Y17500D02*
X64900D01*
G01X65100Y28000D02*
G02Y22000I0J-3000D01*
G01Y28000D02*
X55100D01*
G01X65100Y22000D02*
X55100D01*
G01X62382Y30283D02*
X62612Y30128D01*
X62880Y30025D01*
X63187D01*
X63532Y30180D01*
X63800Y30438D01*
X63992Y30748D01*
X64145Y31265D01*
X64183Y31730D01*
X64107Y32195D01*
X63992Y32505D01*
X63762Y32815D01*
X63493Y33022D01*
X63225Y33125D01*
X62957D01*
X62688Y33022D01*
X62458Y32867D01*
X62267Y32660D01*
G01X60968Y32505D02*
X60738Y32867D01*
X60432Y33073D01*
X60087Y33125D01*
X59780Y33073D01*
X59473Y32815D01*
X59282Y32505D01*
X59243Y32195D01*
X59320Y31833D01*
X59588Y31575D01*
X59857Y31472D01*
X60202D01*
G01X59857D02*
X59627Y31317D01*
X59435Y31058D01*
X59358Y30748D01*
X59435Y30438D01*
X59627Y30180D01*
X59972Y30025D01*
X60317Y30077D01*
X60662Y30283D01*
G01X56565Y33125D02*
Y30025D01*
X57983Y32247D01*
X56067D01*
G01X80000Y90743D02*
X76417D01*
X75667Y90490D01*
X75167Y89984D01*
X75000Y89351D01*
X75167Y88717D01*
X75667Y88211D01*
X76417Y87958D01*
X80000D01*
G01X79167Y85456D02*
X79667Y85076D01*
X79917Y84632D01*
X80000Y84126D01*
X79833Y83493D01*
X79417Y83049D01*
X78917Y82923D01*
X78417Y82986D01*
X78000Y83239D01*
X77167Y84506D01*
X76583Y85076D01*
X75750Y85456D01*
X75000Y85582D01*
Y82923D01*
G01Y79155D02*
X75083Y78711D01*
X75333Y78205D01*
X75750Y77888D01*
X76333Y77762D01*
X76917Y77888D01*
X77417Y78268D01*
X77667Y78838D01*
Y79471D01*
X77833Y79851D01*
X78250Y80168D01*
X78833Y80294D01*
X79417Y80104D01*
X79833Y79661D01*
X80000Y79155D01*
X79833Y78648D01*
X79417Y78205D01*
X78833Y78015D01*
X78250Y78141D01*
X77833Y78458D01*
X77667Y78838D01*
Y79471D01*
X77417Y80041D01*
X76917Y80421D01*
X76333Y80547D01*
X75750Y80421D01*
X75333Y80104D01*
X75083Y79598D01*
X75000Y79155D01*
G01X77500Y92500D02*
G03I-1250J2500D01*
G01X86900Y-92500D02*
Y-97500D01*
G01X85443Y-92500D02*
X88357D01*
G01X92760Y-97500D02*
Y-92500D01*
X90417Y-96083D01*
X93583D01*
G01X77400Y35600D02*
Y32500D01*
G01X76518Y35600D02*
X78282D01*
G01X79733Y32500D02*
Y35600D01*
X80653D01*
X80960Y35445D01*
X81190Y35083D01*
X81267Y34670D01*
X81190Y34257D01*
X80998Y33947D01*
X80653Y33792D01*
X79733D01*
G01X84060Y32500D02*
Y35600D01*
X82642Y33378D01*
X84558D01*
G01X75500Y37560D02*
X85500D01*
Y47560D01*
X75500D01*
Y37560D01*
G01X90525Y35600D02*
Y32500D01*
G01X89643Y35600D02*
X91407D01*
G01X92858Y32500D02*
Y35600D01*
X93778D01*
X94085Y35445D01*
X94315Y35083D01*
X94392Y34670D01*
X94315Y34257D01*
X94123Y33947D01*
X93778Y33792D01*
X92858D01*
G01X95882Y33120D02*
X96112Y32758D01*
X96418Y32552D01*
X96763Y32500D01*
X97070Y32552D01*
X97377Y32810D01*
X97568Y33120D01*
X97607Y33430D01*
X97530Y33792D01*
X97262Y34050D01*
X96993Y34153D01*
X96648D01*
G01X96993D02*
X97223Y34308D01*
X97415Y34567D01*
X97492Y34877D01*
X97415Y35187D01*
X97223Y35445D01*
X96878Y35600D01*
X96533Y35548D01*
X96188Y35342D01*
G01X88500Y37560D02*
X98500D01*
Y47560D01*
X88500D01*
Y37560D01*
G01X88250Y52500D02*
X111750D01*
Y62500D01*
X88250D01*
Y52500D01*
G01X77400Y66850D02*
Y63750D01*
G01X76518Y66850D02*
X78282D01*
G01X79733Y63750D02*
Y66850D01*
X80653D01*
X80960Y66695D01*
X81190Y66333D01*
X81267Y65920D01*
X81190Y65507D01*
X80998Y65197D01*
X80653Y65042D01*
X79733D01*
G01X83523Y63750D02*
X83600Y64422D01*
X83715Y64990D01*
X83868Y65507D01*
X84060Y66075D01*
X84367Y66850D01*
X82833D01*
G01X75500Y52500D02*
X85500D01*
Y62500D01*
X75500D01*
Y52500D01*
G01X88250Y67500D02*
X111750D01*
Y77500D01*
X88250D01*
Y67500D01*
G01X87400Y81850D02*
Y78750D01*
G01X86518Y81850D02*
X88282D01*
G01X89733Y78750D02*
Y81850D01*
X90653D01*
X90960Y81695D01*
X91190Y81333D01*
X91267Y80920D01*
X91190Y80507D01*
X90998Y80197D01*
X90653Y80042D01*
X89733D01*
G01X92757Y79215D02*
X92987Y78957D01*
X93255Y78802D01*
X93600Y78750D01*
X93945Y78853D01*
X94213Y79060D01*
X94405Y79422D01*
X94443Y79835D01*
X94367Y80248D01*
X94175Y80507D01*
X93907Y80713D01*
X93638Y80765D01*
X93370Y80713D01*
X93025Y80507D01*
X93140Y81850D01*
X94175D01*
G01X85000Y83000D02*
X95000D01*
Y93000D01*
X85000D01*
Y83000D01*
G01X88150Y103125D02*
Y98125D01*
G01X86693Y103125D02*
X89607D01*
G01X92047Y102292D02*
X92427Y102792D01*
X92870Y103042D01*
X93377Y103125D01*
X94010Y102958D01*
X94453Y102542D01*
X94580Y102042D01*
X94517Y101542D01*
X94263Y101125D01*
X92997Y100292D01*
X92427Y99708D01*
X92047Y98875D01*
X91920Y98125D01*
X94580D01*
G01X96831Y-101988D02*
X111831D01*
Y-86988D01*
X96831D01*
Y-101988D01*
G01X105507Y46250D02*
Y51250D01*
X106773D01*
X107280Y51000D01*
X107660Y50667D01*
X107977Y50167D01*
X108230Y49583D01*
X108293Y48750D01*
X108230Y47917D01*
X107977Y47333D01*
X107660Y46833D01*
X107280Y46500D01*
X106773Y46250D01*
X105507D01*
G01X112000D02*
Y51250D01*
X111240Y50250D01*
G01Y46250D02*
X112760D01*
G01X105507Y80000D02*
Y85000D01*
X106773D01*
X107280Y84750D01*
X107660Y84417D01*
X107977Y83917D01*
X108230Y83333D01*
X108293Y82500D01*
X108230Y81667D01*
X107977Y81083D01*
X107660Y80583D01*
X107280Y80250D01*
X106773Y80000D01*
X105507D01*
G01X110797Y84167D02*
X111177Y84667D01*
X111620Y84917D01*
X112127Y85000D01*
X112760Y84833D01*
X113203Y84417D01*
X113330Y83917D01*
X113267Y83417D01*
X113013Y83000D01*
X111747Y82167D01*
X111177Y81583D01*
X110797Y80750D01*
X110670Y80000D01*
X113330D01*
G01X96831Y86988D02*
X111831D01*
Y101988D01*
X96831D01*
Y86988D01*
G01X91000Y49500D02*
X95000D01*
G01X91000Y64500D02*
X95000D01*
G01X93000Y51500D02*
Y47500D01*
G01Y66500D02*
Y62500D01*
G54D12*
G01X-56000Y85633D02*
X-55500Y85950D01*
X-55167Y86330D01*
X-55000Y86773D01*
X-55167Y87280D01*
X-55500Y87660D01*
X-56000Y88040D01*
X-56667Y88167D01*
X-60000D01*
G01X-55750Y90607D02*
X-55333Y90987D01*
X-55083Y91430D01*
X-55000Y92000D01*
X-55167Y92570D01*
X-55500Y93013D01*
X-56083Y93330D01*
X-56750Y93393D01*
X-57417Y93267D01*
X-57833Y92950D01*
X-58167Y92507D01*
X-58250Y92063D01*
X-58167Y91620D01*
X-57833Y91050D01*
X-60000Y91240D01*
Y92950D01*
G01X-56000Y95633D02*
X-55500Y95950D01*
X-55167Y96330D01*
X-55000Y96773D01*
X-55167Y97280D01*
X-55500Y97660D01*
X-56000Y98040D01*
X-56667Y98167D01*
X-60000D01*
G01X-57083Y100797D02*
X-57667Y101240D01*
X-58000Y101620D01*
X-58167Y102127D01*
X-58000Y102570D01*
X-57667Y102887D01*
X-57167Y103140D01*
X-56583Y103203D01*
X-56083Y103140D01*
X-55583Y102887D01*
X-55167Y102507D01*
X-55000Y102063D01*
X-55167Y101557D01*
X-55667Y101113D01*
X-56417Y100860D01*
X-57250Y100797D01*
X-58333Y100923D01*
X-58917Y101113D01*
X-59500Y101430D01*
X-59917Y101873D01*
X-60000Y102317D01*
X-59833Y102760D01*
X-59417Y103077D01*
G01X48500Y-83133D02*
X48000Y-83450D01*
X47667Y-83830D01*
X47500Y-84273D01*
X47667Y-84780D01*
X48000Y-85160D01*
X48500Y-85540D01*
X49167Y-85667D01*
X52500D01*
G01X47500Y-89373D02*
X48583Y-89500D01*
X49500Y-89690D01*
X50333Y-89943D01*
X51250Y-90260D01*
X52500Y-90767D01*
Y-88233D01*
G01X90000Y-83100D02*
X87750D01*
X85000Y-84367D01*
G01Y-81833D02*
X87750Y-83100D01*
G01X90000Y-78000D02*
X85000D01*
X86000Y-78760D01*
G01X90000D02*
Y-77240D01*
G01X113583Y-68287D02*
X111750Y-67113D01*
G01X111417Y-67700D02*
X113917D01*
G01X113583Y-67113D02*
X111750Y-68287D01*
G01X112667Y-68500D02*
Y-66900D01*
M02*
