G04 ================== begin FILE IDENTIFICATION RECORD ==================*
G04 Layout Name:  galvo_ctrl_brd.brd*
G04 Film Name:    SolderMaskTop*
G04 File Format:  Gerber RS274X*
G04 File Origin:  Cadence Allegro 16.5-P002*
G04 Origin Date:  Mon Aug 26 09:27:06 2019*
G04 *
G04 Layer:  PIN/SOLDERMASK_TOP*
G04 Layer:  BOARD GEOMETRY/OUTLINE*
G04 *
G04 Offset:    (0.00 0.00)*
G04 Mirror:    No*
G04 Mode:      Positive*
G04 Rotation:  0*
G04 FullContactRelief:  No*
G04 UndefLineWidth:     6.00*
G04 ================== end FILE IDENTIFICATION RECORD ====================*
%FSLAX25Y25*MOIN*%
%IR0*IPPOS*OFA0.00000B0.00000*MIA0B0*SFA1.00000B1.00000*%
%ADD17C,.02*%
%ADD13C,.07*%
%ADD14R,.07X.07*%
%ADD15C,.0288*%
%ADD12R,.115X.13*%
%ADD10C,.13*%
%ADD11R,.035X.045*%
%ADD16R,.045X.035*%
%ADD18R,.085X.06*%
%ADD19R,.065X.065*%
%ADD20C,.006*%
G75*
%LPD*%
G75*
G54D10*
X-104331Y-94488D03*
Y94488D03*
X104331Y-94488D03*
Y94488D03*
G54D20*
G01X-116142Y-106299D02*
Y106299D01*
X116142D01*
Y-106299D01*
X-116142D01*
G54D11*
X-103750Y-78100D03*
Y-71900D03*
Y-53100D03*
X-111250Y-48100D03*
Y-41900D03*
X-103750Y-46900D03*
X-81250Y-73100D03*
Y-66900D03*
Y-41900D03*
Y-48100D03*
X6250Y-70650D03*
Y-76850D03*
X12500Y-70650D03*
Y-76850D03*
X33750Y-70650D03*
Y-76850D03*
G54D12*
X-102000Y42500D03*
Y72500D03*
X-83000Y42500D03*
Y72500D03*
G54D13*
X-96457Y-25000D03*
X-86457D03*
X-96457Y-15000D03*
X-86457D03*
X-96457Y-5000D03*
X-86457D03*
X-96457Y5000D03*
X-86457D03*
X-96457Y15000D03*
X-86457D03*
X-96457Y25000D03*
X-67500Y97500D03*
X-77500D03*
X-67500Y87400D03*
X-77500D03*
X-60000Y-80000D03*
X-50000D03*
X-60000Y-70000D03*
X-50000D03*
X-60000Y-60000D03*
X-50000D03*
X-60000Y-50000D03*
X-50000D03*
X-60000Y-40000D03*
X-50000D03*
X-60000Y-30000D03*
X-50000D03*
X-60000Y-20000D03*
X-50000D03*
X-60000Y-10000D03*
X-50000D03*
X-60000Y0D03*
X-50000D03*
X-60000Y10000D03*
X-50000D03*
X-60000Y20000D03*
X-50000D03*
X-60000Y30000D03*
X-50000D03*
X-60000Y40000D03*
X-50000D03*
X-60000Y50000D03*
X-50000D03*
X-60000Y60000D03*
X0Y-97500D03*
X10000D03*
X0Y-87500D03*
X10000D03*
X20000Y-97500D03*
Y-87500D03*
X30000Y-97500D03*
X40000D03*
X30000Y-87500D03*
X96457Y-15000D03*
X86457D03*
X96457Y-25000D03*
Y5000D03*
X86457D03*
X96457Y-5000D03*
X86457D03*
X96457Y15000D03*
X86457D03*
X96457Y25000D03*
X86457D03*
G54D14*
X-86457D03*
X-87500Y97500D03*
Y87400D03*
X-60000Y-93500D03*
X-50000Y60000D03*
X-60000Y74000D03*
X40000Y-87500D03*
X80500Y42560D03*
Y57500D03*
X86457Y-25000D03*
X93500Y42560D03*
X90000Y88000D03*
G54D15*
X-35000Y65000D03*
Y70000D03*
Y75000D03*
X-30000Y65000D03*
Y70000D03*
Y75000D03*
X-35000Y80000D03*
Y85000D03*
Y90000D03*
Y95000D03*
X-30000Y80000D03*
Y85000D03*
Y90000D03*
Y95000D03*
X-25000Y65000D03*
Y70000D03*
Y75000D03*
X-20000Y65000D03*
Y70000D03*
Y75000D03*
X-15000Y65000D03*
Y70000D03*
Y75000D03*
X-10000Y65000D03*
Y70000D03*
Y75000D03*
X-25000Y80000D03*
Y85000D03*
Y90000D03*
Y95000D03*
X-20000Y80000D03*
Y85000D03*
Y90000D03*
Y95000D03*
X-15000Y80000D03*
Y85000D03*
Y90000D03*
Y95000D03*
X-10000Y80000D03*
Y85000D03*
Y90000D03*
Y95000D03*
X-5000Y65000D03*
Y70000D03*
Y75000D03*
X0Y65000D03*
Y70000D03*
Y75000D03*
X5000Y65000D03*
Y70000D03*
Y75000D03*
X-5000Y80000D03*
Y85000D03*
Y90000D03*
Y95000D03*
X0Y80000D03*
Y85000D03*
Y90000D03*
Y95000D03*
X5000Y80000D03*
Y85000D03*
Y90000D03*
Y95000D03*
X10000Y65000D03*
Y70000D03*
Y75000D03*
X15000Y65000D03*
Y70000D03*
Y75000D03*
X10000Y80000D03*
Y85000D03*
Y90000D03*
Y95000D03*
X15000Y80000D03*
Y85000D03*
Y90000D03*
Y95000D03*
X50000Y70000D03*
Y75000D03*
X55000Y70000D03*
Y75000D03*
X60000Y70000D03*
Y75000D03*
X50000Y80000D03*
Y85000D03*
Y90000D03*
X55000Y80000D03*
Y85000D03*
Y90000D03*
X60000Y80000D03*
Y85000D03*
Y90000D03*
X65000Y70000D03*
Y75000D03*
X70000Y70000D03*
Y75000D03*
X65000Y80000D03*
Y85000D03*
Y90000D03*
X70000Y80000D03*
Y85000D03*
Y90000D03*
G54D16*
X-19400Y14500D03*
X-25600D03*
X-25564Y24648D03*
X-19364D03*
X650Y20000D03*
X6850D03*
X650Y27500D03*
X6850D03*
X6844Y37752D03*
X644D03*
X28150Y20000D03*
Y27500D03*
X28100Y37440D03*
X34350Y20000D03*
Y27500D03*
X34300Y37440D03*
X63100Y14500D03*
X56900D03*
Y25000D03*
X63100D03*
X58150Y53436D03*
X64350D03*
X58200Y47200D03*
X64400D03*
G54D17*
X7402Y-38898D03*
X4252D03*
X1102D03*
X7402Y-35748D03*
X4252D03*
X1102D03*
X7402Y-32598D03*
X4252D03*
X1102D03*
X7402Y-29449D03*
X4252D03*
X1102D03*
X7402Y-26299D03*
X4252D03*
X1102D03*
X7402Y-23150D03*
X4252D03*
X1102D03*
X7402Y-20000D03*
X4252D03*
X1102D03*
X7402Y-16850D03*
X4252D03*
X1102D03*
X7402Y-13701D03*
X4252D03*
X1102D03*
X7402Y-10551D03*
X4252D03*
X1102D03*
X7402Y-7402D03*
X4252D03*
X1102D03*
X7402Y-4252D03*
X4252D03*
X1102D03*
X7402Y-1102D03*
X4252D03*
X1102D03*
X26299Y-38898D03*
X23150D03*
X20000D03*
X16850D03*
X13701D03*
X10551D03*
X26299Y-35748D03*
X23150D03*
X20000D03*
X16850D03*
X13701D03*
X10551D03*
X26299Y-32598D03*
X23150D03*
X20000D03*
X16850D03*
X13701D03*
X10551D03*
X26299Y-29449D03*
X23150D03*
X20000D03*
X16850D03*
X13701D03*
X10551D03*
X26299Y-26299D03*
X23150D03*
X20000D03*
X16850D03*
X13701D03*
X10551D03*
X26299Y-23150D03*
X23150D03*
X20000D03*
X16850D03*
X13701D03*
X10551D03*
X26299Y-20000D03*
X23150D03*
X20000D03*
X16850D03*
X13701D03*
X10551D03*
X26299Y-16850D03*
X23150D03*
X20000D03*
X16850D03*
X13701D03*
X10551D03*
X26299Y-13701D03*
X23150D03*
X20000D03*
X16850D03*
X13701D03*
X10551D03*
X26299Y-10551D03*
X23150D03*
X20000D03*
X16850D03*
X13701D03*
X10551D03*
X26299Y-7402D03*
X23150D03*
X20000D03*
X16850D03*
X13701D03*
X10551D03*
X26299Y-4252D03*
X23150D03*
X20000D03*
X16850D03*
X13701D03*
X10551D03*
X26299Y-1102D03*
X23150D03*
X20000D03*
X16850D03*
X13701D03*
X10551D03*
X38898Y-38898D03*
X35748D03*
X32598D03*
X29449D03*
X38898Y-35748D03*
X35748D03*
X32598D03*
X29449D03*
X38898Y-32598D03*
X35748D03*
X32598D03*
X29449D03*
X38898Y-29449D03*
X35748D03*
X32598D03*
X29449D03*
X38898Y-26299D03*
X35748D03*
X32598D03*
X29449D03*
X38898Y-23150D03*
X35748D03*
X32598D03*
X29449D03*
X38898Y-20000D03*
X35748D03*
X32598D03*
X29449D03*
X38898Y-16850D03*
X35748D03*
X32598D03*
X29449D03*
X38898Y-13701D03*
X35748D03*
X32598D03*
X29449D03*
X38898Y-10551D03*
X35748D03*
X32598D03*
X29449D03*
X38898Y-7402D03*
X35748D03*
X32598D03*
X29449D03*
X38898Y-4252D03*
X35748D03*
X32598D03*
X29449D03*
X38898Y-1102D03*
X35748D03*
X32598D03*
X29449D03*
G54D18*
X88900Y-67500D03*
Y-47500D03*
X106100Y-67500D03*
Y-47500D03*
G54D19*
X93250Y57500D03*
Y72500D03*
X106750Y57500D03*
Y72500D03*
M02*
