G04 ================== begin FILE IDENTIFICATION RECORD ==================*
G04 Layout Name:  galvo_ctrl_brd.brd*
G04 Film Name:    SolderMaskBottom*
G04 File Format:  Gerber RS274X*
G04 File Origin:  Cadence Allegro 16.5-P002*
G04 Origin Date:  Mon Aug 26 09:38:47 2019*
G04 *
G04 Layer:  PIN/SOLDERMASK_BOTTOM*
G04 Layer:  BOARD GEOMETRY/OUTLINE*
G04 *
G04 Offset:    (0.00 0.00)*
G04 Mirror:    No*
G04 Mode:      Positive*
G04 Rotation:  0*
G04 FullContactRelief:  No*
G04 UndefLineWidth:     6.00*
G04 ================== end FILE IDENTIFICATION RECORD ====================*
%FSLAX25Y25*MOIN*%
%IR0*IPPOS*OFA0.00000B0.00000*MIA0B0*SFA1.00000B1.00000*%
%ADD12C,.07*%
%ADD13R,.07X.07*%
%ADD17R,.03X.08*%
%ADD10C,.13*%
%ADD19R,.015X.055*%
%ADD15R,.035X.045*%
%ADD18R,.045X.035*%
%ADD11R,.08X.029*%
%ADD14R,.055X.065*%
%ADD20R,.065X.055*%
%ADD16R,.018X.069*%
%ADD21C,.006*%
G75*
%LPD*%
G75*
G54D10*
X-104331Y-94488D03*
Y94488D03*
X104331Y-94488D03*
Y94488D03*
G54D20*
X60500Y99000D03*
X51500D03*
G54D11*
X-103500Y-72500D03*
Y-77500D03*
Y-52500D03*
Y-57500D03*
Y-62500D03*
Y-67500D03*
Y-42500D03*
Y-47500D03*
X-81500Y-77500D03*
Y-72500D03*
Y-67500D03*
Y-62500D03*
Y-57500D03*
Y-52500D03*
Y-47500D03*
Y-42500D03*
G54D21*
G01X-116142Y-106299D02*
Y106299D01*
X116142D01*
Y-106299D01*
X-116142D01*
G54D12*
X-96457Y-25000D03*
X-86457D03*
X-96457Y-15000D03*
X-86457D03*
X-96457Y-5000D03*
X-86457D03*
X-96457Y5000D03*
X-86457D03*
X-96457Y15000D03*
X-86457D03*
X-96457Y25000D03*
X-67500Y97500D03*
X-77500D03*
X-67500Y87400D03*
X-77500D03*
X-60000Y-80000D03*
X-50000D03*
X-60000Y-70000D03*
X-50000D03*
X-60000Y-60000D03*
X-50000D03*
X-60000Y-50000D03*
X-50000D03*
X-60000Y-40000D03*
X-50000D03*
X-60000Y-30000D03*
X-50000D03*
X-60000Y-20000D03*
X-50000D03*
X-60000Y-10000D03*
X-50000D03*
X-60000Y0D03*
X-50000D03*
X-60000Y10000D03*
X-50000D03*
X-60000Y20000D03*
X-50000D03*
X-60000Y30000D03*
X-50000D03*
X-60000Y40000D03*
X-50000D03*
X-60000Y50000D03*
X-50000D03*
X-60000Y60000D03*
X0Y-97500D03*
X10000D03*
X0Y-87500D03*
X10000D03*
X20000Y-97500D03*
Y-87500D03*
X30000Y-97500D03*
X40000D03*
X30000Y-87500D03*
X96457Y-15000D03*
X86457D03*
X96457Y-25000D03*
Y5000D03*
X86457D03*
X96457Y-5000D03*
X86457D03*
X96457Y15000D03*
X86457D03*
X96457Y25000D03*
X86457D03*
G54D13*
X-86457D03*
X-87500Y97500D03*
Y87400D03*
X-60000Y-93500D03*
X-50000Y60000D03*
X-60000Y74000D03*
X40000Y-87500D03*
X80500Y42560D03*
Y57500D03*
X86457Y-25000D03*
X93500Y42560D03*
X90000Y88000D03*
G54D14*
X-53750Y97000D03*
Y88000D03*
X30000D03*
Y97000D03*
X80000D03*
Y88000D03*
G54D15*
X-40000Y-91900D03*
Y-98100D03*
X-30000Y-91900D03*
Y-98100D03*
X-39000Y-33100D03*
Y-26900D03*
X-45000Y76900D03*
Y83100D03*
X-23750Y-91900D03*
Y-98100D03*
X-17500Y-91900D03*
Y-98100D03*
X-11250Y-91900D03*
Y-98100D03*
X0Y-76850D03*
Y-70650D03*
X1250Y-55600D03*
X7500D03*
X1250Y-49400D03*
X-7500Y-38100D03*
X7500Y-49400D03*
X-7500Y-31900D03*
Y-19600D03*
Y-13400D03*
X0Y46900D03*
Y53100D03*
X6250Y46900D03*
Y53100D03*
X21250Y-70650D03*
Y-76850D03*
X27500Y-70650D03*
Y-76850D03*
X17500Y-55600D03*
X23750D03*
X17500Y-49400D03*
X23750D03*
X12500Y46900D03*
Y53100D03*
X18750Y46900D03*
Y53100D03*
X40000Y-70650D03*
Y-76850D03*
X30000Y-55600D03*
X36250D03*
X30000Y-49400D03*
X36250D03*
X41250Y46900D03*
Y53100D03*
X28750Y46900D03*
Y53100D03*
X35000Y46900D03*
Y53100D03*
X30000Y74350D03*
Y68150D03*
X41250D03*
Y74350D03*
Y84400D03*
Y90600D03*
X51250Y-90650D03*
Y-96850D03*
X65000Y-90650D03*
Y-96850D03*
X47500Y46900D03*
Y53100D03*
X71250Y-90650D03*
Y-96850D03*
X77500Y-90650D03*
Y-96850D03*
X80000Y68150D03*
Y74350D03*
X83750Y-90650D03*
Y-96850D03*
X92500Y-55600D03*
X86250D03*
X92500Y-49400D03*
X86250D03*
G54D16*
X-36575Y-79006D03*
X-34016D03*
X-31457D03*
Y-48494D03*
X-34016D03*
X-36575D03*
X-28898Y-79006D03*
X-26339D03*
X-23780D03*
X-21220D03*
X-18661D03*
X-16102D03*
X-13543D03*
X-10984D03*
Y-48494D03*
X-13543D03*
X-16102D03*
X-18661D03*
X-21220D03*
X-23780D03*
X-26339D03*
X-28898D03*
X-8425Y-79006D03*
Y-48494D03*
X48425Y-77756D03*
X50984D03*
X53543D03*
X56102D03*
X58661D03*
X61220D03*
X63780D03*
Y-47244D03*
X61220D03*
X58661D03*
X56102D03*
X53543D03*
X50984D03*
X48425D03*
X66339Y-77756D03*
X68898D03*
X71457D03*
X74016D03*
X76575D03*
Y-47244D03*
X74016D03*
X71457D03*
X68898D03*
X66339D03*
G54D17*
X-30000Y-26850D03*
Y-5650D03*
Y14400D03*
Y35600D03*
X-25000Y-26850D03*
X-20000D03*
X-15000D03*
Y-5650D03*
X-20000D03*
X-25000D03*
Y14400D03*
X-20000D03*
X-15000D03*
Y35600D03*
X-20000D03*
X-25000D03*
X52500Y-26850D03*
X57500D03*
X62500D03*
Y-5650D03*
X57500D03*
X52500D03*
Y14400D03*
X57500D03*
X62500D03*
Y35600D03*
X57500D03*
X52500D03*
X67500Y-26850D03*
Y-5650D03*
Y14400D03*
Y35600D03*
G54D18*
X-30650Y47500D03*
X-36850D03*
X-30650Y53750D03*
X-36850D03*
X-25600Y-37500D03*
X-19400D03*
Y3500D03*
X-25600D03*
X-14400Y47500D03*
X-20600D03*
X-14400Y53750D03*
X-20600D03*
X-19400Y101250D03*
X-25600D03*
X6275Y-21875D03*
X4400Y101250D03*
X12475Y-21875D03*
X10600Y101250D03*
X58150Y-37500D03*
X64350D03*
X63100Y4000D03*
X56900D03*
X64350Y47186D03*
X58150D03*
X64350Y53436D03*
X58150D03*
Y59575D03*
X64350D03*
X95600Y-67500D03*
X89400D03*
X96900Y51250D03*
Y57500D03*
Y72500D03*
X103100Y51250D03*
Y57500D03*
Y72500D03*
G54D19*
X-3957Y12402D03*
X-1398D03*
X1161D03*
X3720D03*
X6280D03*
Y37598D03*
X3720D03*
X1161D03*
X-1398D03*
X-3957D03*
X23543Y12402D03*
X26102D03*
X8839D03*
X11398D03*
X13957D03*
X26102Y37598D03*
X23543D03*
X13957D03*
X11398D03*
X8839D03*
X28661Y12402D03*
X31220D03*
X33780D03*
X36339D03*
X38898D03*
X41457D03*
Y37598D03*
X38898D03*
X36339D03*
X33780D03*
X31220D03*
X28661D03*
M02*
