G04 ================== begin FILE IDENTIFICATION RECORD ==================*
G04 Layout Name:  galvo_ctrl_brd.brd*
G04 Film Name:    TOP*
G04 File Format:  Gerber RS274X*
G04 File Origin:  Cadence Allegro 16.5-P002*
G04 Origin Date:  Fri Aug 09 21:47:54 2019*
G04 *
G04 Layer:  ETCH/TOP*
G04 Layer:  PIN/TOP*
G04 Layer:  VIA CLASS/TOP*
G04 *
G04 Offset:    (0.00 0.00)*
G04 Mirror:    No*
G04 Mode:      Positive*
G04 Rotation:  0*
G04 FullContactRelief:  No*
G04 UndefLineWidth:     6.00*
G04 ================== end FILE IDENTIFICATION RECORD ====================*
%FSLAX25Y25*MOIN*%
%IR0*IPPOS*OFA0.00000B0.00000*MIA0B0*SFA1.00000B1.00000*%
%ADD16C,.04*%
%ADD20C,.014*%
%ADD14C,.06*%
%ADD12C,.024*%
%ADD18C,.018*%
%ADD15R,.06X.06*%
%ADD17C,.0248*%
%ADD13R,.11X.125*%
%ADD11R,.03X.04*%
%ADD19R,.04X.03*%
%ADD10C,.12*%
%ADD22R,.06X.06*%
%ADD21R,.08X.055*%
%ADD23C,.01*%
%ADD24C,.02*%
%ADD25C,.015*%
%ADD26C,.006*%
G75*
%LPD*%
G75*
G54D10*
X-104331Y-94488D03*
Y94488D03*
X104331Y-94488D03*
Y94488D03*
G54D11*
X-103750Y-78100D03*
Y-71900D03*
Y-53100D03*
X-111250Y-48100D03*
Y-41900D03*
X-103750Y-46900D03*
X-81250Y-73100D03*
Y-66900D03*
Y-41900D03*
Y-48100D03*
X6250Y-70650D03*
Y-76850D03*
X12500Y-70650D03*
Y-76850D03*
X33750Y-70650D03*
Y-76850D03*
G54D20*
X-473Y-40477D03*
X2677D03*
X5827D03*
X-473Y-37327D03*
X2677D03*
Y-27877D03*
X-473Y-31027D03*
X2677Y-24727D03*
X-473Y-27877D03*
X5827Y-18427D03*
Y-27877D03*
Y-31027D03*
X2677Y-34177D03*
X5827D03*
X-473Y-18427D03*
X2677D03*
X-473Y-15277D03*
X2677D03*
X5827Y-5827D03*
Y-15277D03*
X-473Y473D03*
X2677Y-5827D03*
X5827Y473D03*
X-473Y-5827D03*
Y-2677D03*
Y-12127D03*
Y-8977D03*
X18427Y-37327D03*
X8977Y-40477D03*
X24727Y-34177D03*
X21577D03*
X18427D03*
X21577Y-18427D03*
X8977Y-27877D03*
X12127Y-31027D03*
X8977D03*
X18427Y-24727D03*
X24727Y-18427D03*
X21577Y-24727D03*
X15277Y-18427D03*
X18427D03*
X12127Y-5827D03*
X24727D03*
X21577D03*
X18427D03*
X15277D03*
X24727Y-2677D03*
X12127Y-8977D03*
X15277Y-15277D03*
X12127D03*
X21577Y-12127D03*
X8977Y-5827D03*
X12127Y-12127D03*
Y-2677D03*
X24777Y523D03*
X12127Y473D03*
X8977D03*
X15277Y-2677D03*
X8977D03*
X21627Y523D03*
X15277Y473D03*
X8977Y-12127D03*
Y-8977D03*
X21577Y-15277D03*
X18427D03*
X40477Y-40477D03*
X34177Y-18427D03*
Y-24727D03*
Y-27877D03*
X37327Y-24727D03*
X27877Y-34177D03*
X40477D03*
X37327Y-27877D03*
Y-34177D03*
X40477Y-18427D03*
Y-24727D03*
X37327Y-31027D03*
X40477Y-27877D03*
X27877Y-31027D03*
Y-27877D03*
X34177Y-15277D03*
X40527Y523D03*
X34177Y-12127D03*
X37327Y-8977D03*
X40477Y-5827D03*
Y-2677D03*
X27927Y523D03*
X31077D03*
X34227D03*
X27877Y-5827D03*
X31027Y-2677D03*
Y-12127D03*
Y-8977D03*
X45000Y68150D03*
X81850Y-55600D03*
X76150Y68150D03*
G54D21*
X88900Y-67500D03*
Y-47500D03*
X106100Y-67500D03*
Y-47500D03*
G54D12*
X-111250Y-52594D03*
X-96000Y-72500D03*
Y-77500D03*
Y-57500D03*
Y-67500D03*
Y-62500D03*
Y-52500D03*
Y-42500D03*
Y-47500D03*
X-74000Y-77500D03*
Y-72500D03*
Y-52500D03*
Y-62500D03*
Y-57500D03*
Y-67500D03*
Y-47500D03*
Y-42500D03*
X-48875Y97000D03*
X-53750Y81875D03*
X-44304Y-91900D03*
X-44350Y-98100D03*
X-34350Y-98125D03*
X-28898Y-56404D03*
X-36575Y-42175D03*
X-30000Y-19968D03*
X-29640Y24648D03*
X-45000Y71875D03*
X-23780Y-71828D03*
X-18661Y-56219D03*
X-10984Y-67766D03*
X-13416Y-56160D03*
X-16102Y-59402D03*
X-23780Y-56404D03*
X-21220Y-59588D03*
X-10984Y-42368D03*
X-26339Y-42251D03*
X-25000Y-20008D03*
X-15000Y-19968D03*
X-20000D03*
X-14976Y-12480D03*
X-24960Y8112D03*
X-10344Y14400D03*
X-14976Y24648D03*
X-20600Y57712D03*
X-7500Y-98125D03*
X-8425Y-71575D03*
X6250Y-81250D03*
X0Y-66250D03*
X6250D03*
X-3100Y-55600D03*
X-8425Y-55925D03*
X-3100Y-49400D03*
X-7500Y-27444D03*
Y-8724D03*
X-3432Y20000D03*
X-9048Y19968D03*
X-3432Y27500D03*
X0Y57408D03*
X12500Y-81250D03*
X21250D03*
Y-66250D03*
X12500D03*
X27500D03*
X24024Y20000D03*
X11232D03*
X18096Y19968D03*
X24024Y27500D03*
X11232D03*
X11398Y32448D03*
X26500Y68150D03*
X26250Y74350D03*
X25000Y96875D03*
Y88125D03*
X33750Y-81250D03*
X43950Y-76850D03*
X40000Y-66250D03*
X36250Y-60000D03*
X30000D03*
X33750Y-66250D03*
X36250Y-45000D03*
X38688Y20000D03*
Y27500D03*
X29328Y32136D03*
X36875Y90625D03*
Y84375D03*
X55536Y-90650D03*
Y-96850D03*
X61594D03*
X48425Y-53352D03*
X56102D03*
X58661Y-56472D03*
X61220Y-53352D03*
X63780Y-56472D03*
X50984Y-70072D03*
X61220Y-70132D03*
X52788Y-37500D03*
X52728Y4000D03*
X57500Y8644D03*
X53664Y53436D03*
X53614Y47186D03*
X53664Y59375D03*
X76575Y-70325D03*
X66339Y-53352D03*
X71457Y-53361D03*
X68898Y-56418D03*
X74016Y-66516D03*
X68580Y-37500D03*
X76575Y-40200D03*
X67080Y4000D03*
X72500Y14375D03*
X68125Y25000D03*
X69888Y47186D03*
X67500Y99000D03*
X88166Y-96850D03*
X88900Y-73600D03*
X97500Y-73750D03*
X90625Y51250D03*
X96900Y78725D03*
X106100Y-41725D03*
X103100Y46900D03*
X106750Y63625D03*
Y78625D03*
G54D22*
X93250Y57500D03*
Y72500D03*
X106750Y57500D03*
Y72500D03*
G54D13*
X-102000Y42500D03*
Y72500D03*
X-83000Y42500D03*
Y72500D03*
G54D23*
G01X-111250Y-41900D02*
X-110650Y-42500D01*
X-96000D01*
G01X-111250Y-48100D02*
Y-52594D01*
G01X-103750Y-71900D02*
X-103150Y-72500D01*
X-96000D01*
G01X-103750Y-78100D02*
X-103150Y-77500D01*
X-96000D01*
G01X-50000Y-80000D02*
X-56736Y-86736D01*
X-83304D01*
X-92040Y-78000D01*
Y-56460D01*
X-96000Y-52500D01*
G01X-60000Y-80000D02*
X-64552Y-84552D01*
X-82368D01*
X-89856Y-77064D01*
Y-53644D01*
X-96000Y-47500D01*
G01Y-42500D02*
X-81000Y-57500D01*
X-74000D01*
G01X-103750Y-53100D02*
X-103150Y-52500D01*
X-96000D01*
G01X-103750Y-46900D02*
X-103150Y-47500D01*
X-96000D01*
G01X-81250Y-73100D02*
X-80650Y-72500D01*
X-74000D01*
G01X-50000Y-70000D02*
X-55192Y-75192D01*
X-62400D01*
X-69264Y-68328D01*
Y-52236D01*
X-74000Y-47500D01*
G01X-81250Y-66900D02*
X-80650Y-67500D01*
X-74000D01*
G01X-60000Y-70000D02*
X-66768Y-63232D01*
Y-49732D01*
X-74000Y-42500D01*
G01X-81250Y-48100D02*
X-80650Y-47500D01*
X-74000D01*
G01X-81250Y-41900D02*
X-80650Y-42500D01*
X-74000D01*
G01X-60000Y-40000D02*
X-54944Y-34944D01*
X-38376D01*
X-33072Y-29640D01*
X-28392D01*
X-25000Y-26248D01*
Y-20008D01*
G01X-20000Y-19968D02*
Y-24992D01*
X-27456Y-32448D01*
X-32136D01*
X-39688Y-40000D01*
X-50000D01*
G01X-34350Y-98125D02*
X-25625D01*
X-10984Y-83484D01*
Y-67766D01*
G01X-24960Y8112D02*
X-28392D01*
X-34320Y14040D01*
Y30264D01*
X-26832Y37752D01*
X644D01*
G01X-25564Y24648D02*
X-29640D01*
G01X-45000Y71875D02*
X-40625Y67500D01*
X-37500D01*
G01X-19364Y24648D02*
Y20280D01*
X-25600D01*
Y14500D01*
G01X-19364Y24648D02*
X-14976D01*
G01X-18000Y92000D02*
X-17500Y92500D01*
G01X-13000Y92000D02*
X-12500Y92500D01*
G01X6250Y-76850D02*
Y-81250D01*
G01Y-70650D02*
Y-66250D01*
G01X1102Y-38898D02*
Y-38902D01*
X-473Y-40477D01*
G01X4252Y-38898D02*
Y-38902D01*
X2677Y-40477D01*
G01X7402Y-38898D02*
Y-38902D01*
X5827Y-40477D01*
G01X1102Y-35748D02*
Y-35752D01*
X-473Y-37327D01*
G01X4252Y-35748D02*
Y-35752D01*
X2677Y-37327D01*
G01X4252Y-26299D02*
Y-26302D01*
X2677Y-27877D01*
G01X1102Y-29449D02*
Y-29452D01*
X-473Y-31027D01*
G01X4252Y-23150D02*
Y-23152D01*
X2677Y-24727D01*
G01X1102Y-26299D02*
Y-26302D01*
X-473Y-27877D01*
G01X1102Y-16850D02*
X1100D01*
X-473Y-15277D01*
G01X7402Y-20000D02*
X7400D01*
X5827Y-18427D01*
G01X4252Y-16850D02*
Y-16852D01*
X5827Y-18427D01*
G01X4252Y-16850D02*
X4250D01*
X2677Y-15277D01*
G01X7402Y-26299D02*
Y-26302D01*
X5827Y-27877D01*
G01X7402Y-29449D02*
X7399D01*
X5827Y-27877D01*
G01X7402Y-29449D02*
Y-29452D01*
X5827Y-31027D01*
G01X7402Y-16850D02*
X7400D01*
X5827Y-15277D01*
G01X4252Y-32598D02*
Y-32602D01*
X2677Y-34177D01*
G01X7402Y-32598D02*
Y-32602D01*
X5827Y-34177D01*
G01X1102Y-20000D02*
X1100D01*
X-473Y-18427D01*
G01X4252Y-20000D02*
X4250D01*
X2677Y-18427D01*
G01X7402Y-7402D02*
X5827Y-5827D01*
G01X1102Y-1102D02*
X-473Y473D01*
G01X4252Y-7402D02*
X2677Y-5827D01*
G01X7402Y-1102D02*
X5827Y473D01*
G01X1102Y-7402D02*
X-473Y-5827D01*
G01X1102Y-4252D02*
X-473Y-2677D01*
G01X1102Y-13701D02*
X1101D01*
X-473Y-12127D01*
G01X1102Y-10551D02*
X1101D01*
X-473Y-8977D01*
G01X6850Y20000D02*
X11232D01*
G01X650Y27500D02*
X-3432D01*
G01X6850D02*
X11232D01*
G01X11398Y32448D02*
X6844D01*
Y37752D01*
G01X12500Y-76850D02*
Y-81250D01*
G01X20000Y-87500D02*
X27500Y-80000D01*
Y-66250D01*
G01X71457Y-53361D02*
Y-59043D01*
X67400Y-63100D01*
X24400D01*
X21250Y-66250D01*
G01X12500Y-70650D02*
Y-66250D01*
G01X16850Y-35748D02*
Y-35750D01*
X18427Y-37327D01*
G01X10551Y-38898D02*
Y-38903D01*
X8977Y-40477D01*
G01X16850Y-32598D02*
Y-32600D01*
X18427Y-34177D01*
G01X20000Y-32598D02*
Y-32600D01*
G01D02*
Y-32604D01*
X18427Y-34177D01*
G01X20000Y-32600D02*
X21577Y-34177D01*
G01X23150Y-32598D02*
Y-32600D01*
G01D02*
X24727Y-34177D01*
G01X23150Y-32600D02*
Y-32604D01*
X21577Y-34177D01*
G01X20000Y-20000D02*
X20004D01*
X21577Y-18427D01*
G01X26299Y-32598D02*
Y-32599D01*
X27877Y-34177D01*
G01X10551Y-26299D02*
Y-26303D01*
X8977Y-27877D01*
G01X16850Y-16850D02*
X15277Y-15277D01*
G01X13701Y-16850D02*
X13700D01*
X12127Y-15277D01*
G01X26299Y-29449D02*
X27877Y-31027D01*
G01X26299Y-29449D02*
X26305D01*
X27877Y-27877D01*
G01X10551Y-29451D02*
X12127Y-31027D01*
G01X10551Y-29451D02*
Y-29453D01*
X8977Y-31027D01*
G01X10551Y-29449D02*
Y-29451D01*
G01X20000Y-23150D02*
Y-23154D01*
X18427Y-24727D01*
G01X23150Y-20000D02*
X23154D01*
X24727Y-18427D01*
G01X20000Y-23150D02*
X23150Y-20000D01*
G01X20000Y-23150D02*
X21577Y-24727D01*
G01X16850Y-20000D02*
X20000Y-23150D01*
G01X16850Y-20000D02*
X15277Y-18427D01*
G01X16850Y-20000D02*
X16854D01*
X18427Y-18427D01*
G01X20000Y-16850D02*
Y-16854D01*
X18427Y-18427D01*
G01X20000Y-16850D02*
X20004D01*
X21577Y-15277D01*
G01X20000Y-16850D02*
X18427Y-15277D01*
G01X13701Y-7402D02*
Y-7401D01*
X12127Y-5827D01*
G01X23150Y-7402D02*
X23152D01*
X24727Y-5827D01*
G01X23150Y-7402D02*
Y-7400D01*
X21577Y-5827D01*
G01X20000Y-7402D02*
X20002D01*
X21577Y-5827D01*
G01X20000Y-7402D02*
Y-7400D01*
X18427Y-5827D01*
G01X16850Y-7402D02*
X16852D01*
X18427Y-5827D01*
G01X16850Y-7402D02*
Y-7400D01*
X15277Y-5827D01*
G01X23150Y-4252D02*
X23152D01*
X24727Y-2677D01*
G01X13701Y-10551D02*
X12127Y-8977D01*
G01X20000Y-13701D02*
X20003D01*
X21577Y-12127D01*
G01X10551Y-7402D02*
Y-7401D01*
X8977Y-5827D01*
G01X13701Y-13701D02*
X12127Y-12127D01*
G01X26299Y-1102D02*
X26302D01*
X27927Y523D01*
G01X13701Y-4252D02*
Y-4251D01*
X12127Y-2677D01*
G01X23150Y-1102D02*
X23152D01*
X24777Y523D01*
G01X13701Y-1102D02*
Y-1101D01*
X12127Y473D01*
G01X10551Y-1102D02*
Y-1101D01*
X8977Y473D01*
G01X16850Y-4252D02*
Y-4250D01*
X15277Y-2677D01*
G01X10551Y-4252D02*
Y-4251D01*
X8977Y-2677D01*
G01X26299Y-7402D02*
X26302D01*
X27877Y-5827D01*
G01X20000Y-1102D02*
X20002D01*
X21627Y523D01*
G01X16850Y-1102D02*
Y-1100D01*
X15277Y473D01*
G01X10551Y-10551D02*
Y-10553D01*
X8977Y-12127D01*
G01X10551Y-10551D02*
X8977Y-8977D01*
G01X28150Y27500D02*
X24024D01*
G01X33750Y-76850D02*
Y-81250D01*
G01Y-70650D02*
Y-66250D01*
G01X38898Y-35748D02*
X40477Y-37327D01*
X44573D01*
X48500Y-33400D01*
X80400D01*
X88900Y-41900D01*
Y-47500D01*
G01X38898Y-38898D02*
X40477Y-40477D01*
G01X32598Y-20000D02*
X32604D01*
X34177Y-18427D01*
G01X32600Y-16850D02*
X34177Y-18427D01*
G01X32600Y-16850D02*
X32604D01*
X34177Y-15277D01*
G01X32598Y-16850D02*
X32600D01*
G01X32598Y-23150D02*
X32600D01*
X34177Y-24727D01*
G01X32599Y-26299D02*
X32605D01*
X34177Y-24727D01*
G01X32599Y-26299D02*
X34177Y-27877D01*
G01X32598Y-26299D02*
X32599D01*
G01X35748Y-23150D02*
X35750D01*
X37327Y-24727D01*
G01X38898Y-32598D02*
X40477Y-34177D01*
G01X35748Y-26299D02*
X35749D01*
X37327Y-27877D01*
G01X35748Y-32598D02*
X37327Y-34177D01*
G01X38898Y-20000D02*
X38904D01*
X40477Y-18427D01*
G01X38898Y-23150D02*
X38900D01*
X40477Y-24727D01*
G01X35748Y-29449D02*
X35749D01*
X37327Y-31027D01*
G01X38898Y-26299D02*
X38899D01*
X40477Y-27877D01*
G01X38898Y-1102D02*
X38902D01*
X40527Y523D01*
G01X32598Y-13701D02*
X32603D01*
X34177Y-12127D01*
G01X35748Y-10551D02*
X35753D01*
X37327Y-8977D01*
G01X38898Y-7402D02*
X38902D01*
X40477Y-5827D01*
G01X38898Y-4252D02*
X38902D01*
X40477Y-2677D01*
G01X29449Y-1102D02*
X29452D01*
X31077Y523D01*
G01X32598Y-1102D02*
X32602D01*
X34227Y523D01*
G01X29449Y-4252D02*
X29452D01*
X31027Y-2677D01*
G01X29451Y-10551D02*
X31027Y-12127D01*
G01X29451Y-10551D02*
X29453D01*
X31027Y-8977D01*
G01X29449Y-10551D02*
X29451D01*
G01X34350Y20000D02*
X38688D01*
G01X34350Y27500D02*
X38688D01*
G01X28100Y37440D02*
X29328Y36212D01*
Y32136D01*
G01X57500Y8644D02*
X52606D01*
X45625Y15625D01*
Y31875D01*
X40060Y37440D01*
X34300D01*
G01X74016Y-66516D02*
Y-84428D01*
X61594Y-96850D01*
G01X63100Y25000D02*
Y20592D01*
X56900D01*
Y14500D01*
G01Y25000D02*
X51875D01*
G01X63100D02*
X68125D01*
G01X58200Y47200D02*
X58186Y47186D01*
X53614D01*
G01X93250Y57500D02*
Y53875D01*
X90625Y51250D01*
G54D14*
X-96457Y-25000D03*
X-86457D03*
X-96457Y-15000D03*
X-86457D03*
X-96457Y-5000D03*
X-86457D03*
X-96457Y5000D03*
X-86457D03*
X-96457Y15000D03*
X-86457D03*
X-96457Y25000D03*
X-67500Y97500D03*
X-77500D03*
X-67500Y87400D03*
X-77500D03*
X-60000Y-80000D03*
X-50000D03*
X-60000Y-70000D03*
X-50000D03*
X-60000Y-60000D03*
X-50000D03*
X-60000Y-50000D03*
X-50000D03*
X-60000Y-40000D03*
X-50000D03*
X-60000Y-30000D03*
X-50000D03*
X-60000Y-20000D03*
X-50000D03*
X-60000Y-10000D03*
X-50000D03*
X-60000Y0D03*
X-50000D03*
X-60000Y10000D03*
X-50000D03*
X-60000Y20000D03*
X-50000D03*
X-60000Y30000D03*
X-50000D03*
X-60000Y40000D03*
X-50000D03*
X-60000Y50000D03*
X-50000D03*
X-60000Y60000D03*
X0Y-97500D03*
X10000D03*
X0Y-87500D03*
X10000D03*
X20000Y-97500D03*
Y-87500D03*
X30000Y-97500D03*
X40000D03*
X30000Y-87500D03*
X96457Y-15000D03*
X86457D03*
X96457Y-25000D03*
Y5000D03*
X86457D03*
X96457Y-5000D03*
X86457D03*
X96457Y15000D03*
X86457D03*
X96457Y25000D03*
X86457D03*
G54D24*
G01X28150Y20000D02*
Y15000D01*
X650D01*
Y20000D01*
G01X28150D02*
X24024D01*
G01X64400Y47200D02*
Y41875D01*
X18750D01*
Y23750D01*
X24024D01*
Y20000D01*
G01X72500Y14375D02*
Y42560D01*
X80500D01*
G01X64400Y47200D02*
X67438D01*
Y47186D01*
X69888D01*
G01D02*
Y50625D01*
X86875D01*
Y72500D01*
X93250D01*
G01D02*
Y76750D01*
X90000Y80000D01*
Y88000D01*
G54D15*
X-86457Y25000D03*
X-87500Y97500D03*
Y87400D03*
X-60000Y-93500D03*
X-50000Y60000D03*
X-60000Y74000D03*
X40000Y-87500D03*
X80500Y42560D03*
Y57500D03*
X86457Y-25000D03*
X93500Y42560D03*
X90000Y88000D03*
G54D25*
G01X-35000Y75000D02*
X-37500Y72500D01*
G01X-35000Y75000D02*
X-32500Y72500D01*
G01X-30000Y65000D02*
X-27500Y62500D01*
G01X-30000Y65000D02*
X-32500Y62500D01*
G01X-35000Y65000D02*
X-32500Y62500D01*
G01X-35000Y65000D02*
X-37500Y62500D01*
G01X-35000Y70000D02*
X-32500Y67500D01*
G01X-35000Y70000D02*
X-37500Y67500D01*
G01X-30000Y80000D02*
X-32500Y77500D01*
G01X-35000Y80000D02*
X-32500Y77500D01*
G01X-35000Y80000D02*
X-37500Y77500D01*
G01X-30000Y75000D02*
X-27500Y72500D01*
G01X-30000Y70000D02*
X-27500Y67500D01*
G01X-30000Y85000D02*
X-27500Y82500D01*
G01X-30000Y85000D02*
X-32500Y82500D01*
G01X-35000Y85000D02*
X-32500Y82500D01*
G01X-35000Y85000D02*
X-37500Y82500D01*
G01X-30000Y90000D02*
X-27500Y87500D01*
G01X-30000Y90000D02*
X-32500Y87500D01*
G01X-30000Y95000D02*
X-32500Y92500D01*
G01X-30000Y90000D02*
X-32500Y92500D01*
G01X-35000Y90000D02*
X-32500Y87500D01*
G01X-35000Y90000D02*
X-37500Y87500D01*
G01X-35000Y95000D02*
X-37500Y92500D01*
G01X-35000Y90000D02*
X-37500Y92500D01*
G01X-30000Y80000D02*
X-27500Y77500D01*
G01X-19400Y14500D02*
X-19300Y14400D01*
X-10344D01*
G01X-20000Y65000D02*
X-22500Y62500D01*
G01X-15000Y65000D02*
X-17500Y62500D01*
G01X-15000Y80000D02*
X-12500Y77500D01*
G01X-15000Y80000D02*
X-17500Y77500D01*
G01X-20000Y80000D02*
X-17500Y77500D01*
G01X-20000Y80000D02*
X-22500Y77500D01*
G01X-25000Y80000D02*
X-22500Y77500D01*
G01X-25000Y80000D02*
X-27500Y77500D01*
G01X-10000Y75000D02*
X-12500Y72500D01*
G01X-15000Y75000D02*
X-12500Y72500D01*
G01X-15000Y75000D02*
X-17500Y72500D01*
G01X-20000Y75000D02*
X-17500Y72500D01*
G01X-20000Y75000D02*
X-22500Y72500D01*
G01X-25000Y75000D02*
X-22500Y72500D01*
G01X-25000Y75000D02*
X-27500Y72500D01*
G01X-10000Y70000D02*
X-12500Y67500D01*
G01X-10000Y65000D02*
X-12500Y67500D01*
G01X-10000Y65000D02*
X-12500Y62500D01*
G01X-25000Y70000D02*
X-22500Y67500D01*
G01X-25000Y70000D02*
X-27500Y67500D01*
G01X-25000Y95000D02*
X-27500Y92500D01*
G01X-25000Y90000D02*
X-22500Y87500D01*
G01X-25000Y90000D02*
X-22500Y92500D01*
G01X-20000Y90000D02*
X-22500Y87500D01*
G01X-20000Y90000D02*
X-17500Y87500D01*
G01X-20000Y95000D02*
X-17500Y92500D01*
G01X-20000Y90000D02*
X-18000Y92000D01*
G01X-15000Y90000D02*
X-17500Y87500D01*
G01X-15000Y95000D02*
X-12500Y97500D01*
G01X-15000Y90000D02*
X-12500Y87500D01*
G01X-15000Y95000D02*
X-12500Y92500D01*
G01X-15000Y90000D02*
X-13000Y92000D01*
G01X-15000Y95000D02*
X-17500Y92500D01*
G01X-15000Y85000D02*
X-12500Y82500D01*
G01X-15000Y85000D02*
X-17500Y82500D01*
G01X-20000Y85000D02*
X-17500Y82500D01*
G01X-20000Y85000D02*
X-22500Y82500D01*
G01X-25000Y85000D02*
X-22500Y82500D01*
G01X-25000Y85000D02*
X-27500Y82500D01*
G01X650Y20000D02*
X-3432D01*
G01X-5000Y70000D02*
X-2500Y67500D01*
G01X-5000Y65000D02*
X-7500Y62500D01*
G01X10000Y65000D02*
X7500Y62500D01*
G01X10000Y80000D02*
X7500Y77500D01*
G01X5000Y80000D02*
X7500Y77500D01*
G01X5000Y80000D02*
X2500Y77500D01*
G01X0Y80000D02*
X2500Y77500D01*
G01X0Y80000D02*
X-2500Y77500D01*
G01X-5000Y80000D02*
X-2500Y77500D01*
G01X-5000Y80000D02*
X-7500Y77500D01*
G01X10000Y75000D02*
X7500Y72500D01*
G01X5000Y75000D02*
X7500Y72500D01*
G01X-10000Y75000D02*
X-7500Y72500D01*
G01X-5000Y75000D02*
X-7500Y72500D01*
G01X-5000Y75000D02*
X-2500Y72500D01*
G01X0Y75000D02*
X-2500Y72500D01*
G01X0Y75000D02*
X2500Y72500D01*
G01X5000Y75000D02*
X2500Y72500D01*
G01X5000Y70000D02*
X2500Y67500D01*
G01X10000Y70000D02*
X7500Y67500D01*
G01X5000Y70000D02*
X7500Y67500D01*
G01X0Y65000D02*
X2500Y62500D01*
G01X0Y65000D02*
X-2500Y62500D01*
G01X-10000Y70000D02*
X-7500Y67500D01*
G01X5000Y95000D02*
X7500Y92500D01*
G01X10000Y85000D02*
X7500Y82500D01*
G01X5000Y85000D02*
X7500Y82500D01*
G01X5000Y85000D02*
X2500Y82500D01*
G01X0Y85000D02*
X2500Y82500D01*
G01X0Y85000D02*
X-2500Y82500D01*
G01X-5000Y85000D02*
X-2500Y82500D01*
G01X-5000Y85000D02*
X-7500Y82500D01*
G01X-10000Y90000D02*
X-7500Y87500D01*
G01X-5000Y90000D02*
X-7500Y87500D01*
G01X-5000Y90000D02*
X-2500Y87500D01*
G01X0Y90000D02*
X-2500Y87500D01*
G01X0Y90000D02*
X2500Y87500D01*
G01X5000Y90000D02*
X2500Y87500D01*
G01X5000Y90000D02*
X7500Y87500D01*
G01X-10000Y95000D02*
X-7500Y92500D01*
G01X-5000Y95000D02*
X-7500Y92500D01*
G01X0Y95000D02*
X2500Y92500D01*
G01X-5000Y95000D02*
X-2500Y92500D01*
G01D02*
X0Y95000D01*
G01X15000Y75000D02*
X12500Y72500D01*
G01X15000Y75000D02*
X17500Y72500D01*
G01X15000Y70000D02*
X17500Y67500D01*
G01X15000Y70000D02*
X12500Y67500D01*
G01X15000Y65000D02*
X17500Y62500D01*
G01X15000Y65000D02*
X12500Y62500D01*
G01X10000Y65000D02*
X12500Y62500D01*
G01X15000Y80000D02*
X12500Y77500D01*
G01X10000Y80000D02*
X12500Y77500D01*
G01X15000Y80000D02*
X17500Y77500D01*
G01X10000Y90000D02*
X12500Y87500D01*
G01X10000Y95000D02*
X12500Y92500D01*
G01X10000Y90000D02*
X12500Y92500D01*
G01X15000Y90000D02*
X12500Y87500D01*
G01X15000Y95000D02*
X17500Y97500D01*
G01X15000Y90000D02*
X17500Y87500D01*
G01X15000Y95000D02*
X17500Y92500D01*
G01X15000Y90000D02*
X17500Y92500D01*
G01X15000Y95000D02*
X12500Y92500D01*
G01X15000Y85000D02*
X12500Y82500D01*
X10000Y85000D01*
G01X15000D02*
X17500Y82500D01*
G01X63100Y14500D02*
X63225Y14375D01*
X72500D01*
G01X55000Y80000D02*
X52500Y77500D01*
G01X55000Y80000D02*
X57500Y77500D01*
G01X65000Y80000D02*
X62500Y77500D01*
G01X50000Y75000D02*
X47500Y72500D01*
G01X55000Y70000D02*
X57500Y67500D01*
G01X55000Y70000D02*
X52500Y67500D01*
G01X60000Y70000D02*
X57500Y67500D01*
G01X60000Y70000D02*
X62500Y67500D01*
G01X65000Y70000D02*
X62500Y67500D01*
G01X50000Y90000D02*
X52500Y87500D01*
G01X50000Y90000D02*
X47500Y87500D01*
G01X55000Y90000D02*
X57500Y92500D01*
G01X50000Y90000D02*
X52500Y92500D01*
G01X50000Y90000D02*
X47500Y92500D01*
G01X55000Y90000D02*
X52500Y92500D01*
G01X65000Y90000D02*
X62500Y92500D01*
G01X65000Y85000D02*
X62500Y82500D01*
G01X55000Y85000D02*
X57500Y82500D01*
G01X55000Y85000D02*
X52500Y82500D01*
G01X50000Y85000D02*
X52500Y82500D01*
G01X50000Y85000D02*
X47500Y82500D01*
G01X60000Y85000D02*
X62500Y87500D01*
G01X60000Y90000D02*
X62500Y87500D01*
G01X60000Y90000D02*
X57500Y87500D01*
G01X60000Y85000D02*
X57500Y87500D01*
G01X64350Y53436D02*
X64400Y53386D01*
Y47200D01*
G01X65000Y80000D02*
X67500Y77500D01*
G01X70000Y75000D02*
X72500Y72500D01*
G01X65000Y70000D02*
X67500Y67500D01*
G01X70000Y90000D02*
X67500Y92500D01*
G01X65000Y90000D02*
X67500Y92500D01*
G01X70000Y90000D02*
X72500Y92500D01*
G01X70000Y90000D02*
X67500Y87500D01*
G01X70000Y90000D02*
X72500Y87500D01*
G01X65000Y85000D02*
X67500Y82500D01*
G01X70000Y85000D02*
X67500Y82500D01*
G01X70000Y85000D02*
X72500Y82500D01*
G01X88900Y-67500D02*
Y-73600D01*
G01X106100Y-47500D02*
Y-41725D01*
G01X106750Y57500D02*
Y63625D01*
G01Y72500D02*
Y78625D01*
G54D16*
G01X-96457Y-15000D02*
X-106875D01*
Y30625D01*
X-102000D01*
Y42500D01*
D03*
Y72500D03*
X-83000Y42500D03*
Y72500D03*
X17500Y-60100D03*
Y-44900D03*
X23750D03*
X51875Y25000D03*
G54D26*
G01X58150Y53436D02*
X53664D01*
G54D17*
X-35000Y65000D03*
Y70000D03*
Y75000D03*
X-30000Y65000D03*
Y70000D03*
Y75000D03*
X-35000Y80000D03*
Y85000D03*
Y90000D03*
Y95000D03*
X-30000Y80000D03*
Y85000D03*
Y90000D03*
Y95000D03*
X-25000Y65000D03*
Y70000D03*
Y75000D03*
X-20000Y65000D03*
Y70000D03*
Y75000D03*
X-15000Y65000D03*
Y70000D03*
Y75000D03*
X-10000Y65000D03*
Y70000D03*
Y75000D03*
X-25000Y80000D03*
Y85000D03*
Y90000D03*
Y95000D03*
X-20000Y80000D03*
Y85000D03*
Y90000D03*
Y95000D03*
X-15000Y80000D03*
Y85000D03*
Y90000D03*
Y95000D03*
X-10000Y80000D03*
Y85000D03*
Y90000D03*
Y95000D03*
X-5000Y65000D03*
Y70000D03*
Y75000D03*
X0Y65000D03*
Y70000D03*
Y75000D03*
X5000Y65000D03*
Y70000D03*
Y75000D03*
X-5000Y80000D03*
Y85000D03*
Y90000D03*
Y95000D03*
X0Y80000D03*
Y85000D03*
Y90000D03*
Y95000D03*
X5000Y80000D03*
Y85000D03*
Y90000D03*
Y95000D03*
X10000Y65000D03*
Y70000D03*
Y75000D03*
X15000Y65000D03*
Y70000D03*
Y75000D03*
X10000Y80000D03*
Y85000D03*
Y90000D03*
Y95000D03*
X15000Y80000D03*
Y85000D03*
Y90000D03*
Y95000D03*
X50000Y70000D03*
Y75000D03*
X55000Y70000D03*
Y75000D03*
X60000Y70000D03*
Y75000D03*
X50000Y80000D03*
Y85000D03*
Y90000D03*
X55000Y80000D03*
Y85000D03*
Y90000D03*
X60000Y80000D03*
Y85000D03*
Y90000D03*
X65000Y70000D03*
Y75000D03*
X70000Y70000D03*
Y75000D03*
X65000Y80000D03*
Y85000D03*
Y90000D03*
X70000Y80000D03*
Y85000D03*
Y90000D03*
G54D18*
X-37500Y72500D03*
X-32500D03*
Y62500D03*
X-37500D03*
X-32500Y67500D03*
X-37500D03*
X-32500Y77500D03*
X-37500D03*
X-32500Y82500D03*
X-37500D03*
X-32500Y87500D03*
Y92500D03*
X-37500Y87500D03*
Y92500D03*
X-22500Y62500D03*
X-17500D03*
X-27500D03*
X-12500Y77500D03*
X-17500D03*
X-22500D03*
X-27500D03*
X-12500Y72500D03*
X-17500D03*
X-22500D03*
X-27500D03*
X-12500Y67500D03*
Y62500D03*
X-22500Y67500D03*
X-27500D03*
Y92500D03*
X-22500Y87500D03*
Y92500D03*
X-17500Y87500D03*
Y92500D03*
X-12500Y87500D03*
Y92500D03*
Y82500D03*
X-17500D03*
X-22500D03*
X-27500D03*
Y87500D03*
X-12500Y97500D03*
X7402Y-38898D03*
X4252D03*
X1102D03*
X7402Y-35748D03*
X4252D03*
X1102D03*
X7402Y-32598D03*
X4252D03*
X1102D03*
X7402Y-29449D03*
X4252D03*
X1102D03*
X7402Y-26299D03*
X4252D03*
X1102D03*
X7402Y-23150D03*
X4252D03*
X1102D03*
X7402Y-20000D03*
X4252D03*
X1102D03*
X7402Y-16850D03*
X4252D03*
X1102D03*
X7402Y-13701D03*
X4252D03*
X1102D03*
X7402Y-10551D03*
X4252D03*
X1102D03*
X7402Y-7402D03*
X4252D03*
X1102D03*
X7402Y-4252D03*
X4252D03*
X1102D03*
X7402Y-1102D03*
X4252D03*
X1102D03*
X-2500Y67500D03*
X-7500Y62500D03*
X7500D03*
Y77500D03*
X2500D03*
X-2500D03*
X-7500D03*
X7500Y72500D03*
X-7500D03*
X-2500D03*
X2500D03*
Y67500D03*
X7500D03*
X2500Y62500D03*
X-2500D03*
X-7500Y67500D03*
X7500Y92500D03*
Y82500D03*
X2500D03*
X-2500D03*
X-7500D03*
Y87500D03*
X-2500D03*
X2500D03*
X7500D03*
X-7500Y92500D03*
X-2500D03*
X2500D03*
X26299Y-38898D03*
X23150D03*
X20000D03*
X16850D03*
X13701D03*
X10551D03*
X26299Y-35748D03*
X23150D03*
X20000D03*
X16850D03*
X13701D03*
X10551D03*
X26299Y-32598D03*
X23150D03*
X20000D03*
X16850D03*
X13701D03*
X10551D03*
X26299Y-29449D03*
X23150D03*
X20000D03*
X16850D03*
X13701D03*
X10551D03*
X26299Y-26299D03*
X23150D03*
X20000D03*
X16850D03*
X13701D03*
X10551D03*
X26299Y-23150D03*
X23150D03*
X20000D03*
X16850D03*
X13701D03*
X10551D03*
X26299Y-20000D03*
X23150D03*
X20000D03*
X16850D03*
X13701D03*
X10551D03*
X26299Y-16850D03*
X23150D03*
X20000D03*
X16850D03*
X13701D03*
X10551D03*
X26299Y-13701D03*
X23150D03*
X20000D03*
X16850D03*
X13701D03*
X10551D03*
X26299Y-10551D03*
X23150D03*
X20000D03*
X16850D03*
X13701D03*
X10551D03*
X26299Y-7402D03*
X23150D03*
X20000D03*
X16850D03*
X13701D03*
X10551D03*
X26299Y-4252D03*
X23150D03*
X20000D03*
X16850D03*
X13701D03*
X10551D03*
X26299Y-1102D03*
X23150D03*
X20000D03*
X16850D03*
X13701D03*
X10551D03*
X12500Y72500D03*
X17500D03*
Y67500D03*
X12500D03*
X17500Y62500D03*
X12500D03*
Y77500D03*
X17500D03*
X12500Y87500D03*
Y92500D03*
X17500Y87500D03*
Y92500D03*
Y82500D03*
Y97500D03*
X38898Y-38898D03*
X35748D03*
X32598D03*
X29449D03*
X38898Y-35748D03*
X35748D03*
X32598D03*
X29449D03*
X38898Y-32598D03*
X35748D03*
X32598D03*
X29449D03*
X38898Y-29449D03*
X35748D03*
X32598D03*
X29449D03*
X38898Y-26299D03*
X35748D03*
X32598D03*
X29449D03*
X38898Y-23150D03*
X35748D03*
X32598D03*
X29449D03*
X38898Y-20000D03*
X35748D03*
X32598D03*
X29449D03*
X38898Y-16850D03*
X35748D03*
X32598D03*
X29449D03*
X38898Y-13701D03*
X35748D03*
X32598D03*
X29449D03*
X38898Y-10551D03*
X35748D03*
X32598D03*
X29449D03*
X38898Y-7402D03*
X35748D03*
X32598D03*
X29449D03*
X38898Y-4252D03*
X35748D03*
X32598D03*
X29449D03*
X38898Y-1102D03*
X35748D03*
X32598D03*
X29449D03*
X52500Y77500D03*
X57500D03*
X62500D03*
X47500Y72500D03*
X57500Y67500D03*
X52500D03*
X62500D03*
X52500Y87500D03*
X47500D03*
X57500Y92500D03*
X52500D03*
X47500D03*
X62500D03*
Y82500D03*
X57500D03*
X52500D03*
X47500D03*
X62500Y87500D03*
X57500D03*
X67500Y77500D03*
X72500Y72500D03*
X67500Y67500D03*
Y92500D03*
X72500D03*
X67500Y87500D03*
X72500D03*
X67500Y82500D03*
X72500D03*
G54D19*
X-19400Y14500D03*
X-25600D03*
X-25564Y24648D03*
X-19364D03*
X650Y20000D03*
X6850D03*
X650Y27500D03*
X6850D03*
X6844Y37752D03*
X644D03*
X28150Y20000D03*
Y27500D03*
X28100Y37440D03*
X34350Y20000D03*
Y27500D03*
X34300Y37440D03*
X63100Y14500D03*
X56900D03*
Y25000D03*
X63100D03*
X58150Y53436D03*
X64350D03*
X58200Y47200D03*
X64400D03*
M02*
